<svg xmlns="http://www.w3.org/2000/svg" viewBox="0 0 103.52 103.86"><defs><style>.cls-1{fill:#474747;}</style></defs><title>Asset 2018</title><g id="Layer_2" data-name="Layer 2"><g id="Layer_1-2" data-name="Layer 1"><path class="cls-1" d="M27.85,66.37a1.5,1.5,0,0,1,0-3,1,1,0,0,0,1-1V60.59a1,1,0,0,0-1-1H26.07a1,1,0,0,0-1,1v1.78a4,4,0,0,1-4,4H19.29a4,4,0,0,1-4-4V60.59a4,4,0,0,1,4-4,1.53,1.53,0,0,1,1.54,1.5,1.47,1.47,0,0,1-1.46,1.5,1,1,0,0,0-1.09,1v1.78a1,1,0,0,0,1,1h1.77a1,1,0,0,0,1-1V60.59a4,4,0,0,1,4-4h1.78a4,4,0,0,1,4,4v1.78A4,4,0,0,1,27.85,66.37Z"/><path class="cls-1" d="M16.51,63H13.83a1.5,1.5,0,0,1,0-3h2.68a1.5,1.5,0,0,1,0,3Z"/><path class="cls-1" d="M33,63H30.35a1.5,1.5,0,0,1,0-3H33a1.5,1.5,0,0,1,0,3Z"/><path class="cls-1" d="M23.43,77.58a16.1,16.1,0,1,1,16.1-16.1A16.19,16.19,0,0,1,23.43,77.58Zm0-29.2A13.12,13.12,0,0,0,11.18,66.15,13.1,13.1,0,1,0,23.43,48.38Z"/><path class="cls-1" d="M86.12,66.33a1.5,1.5,0,0,1,0-3,1,1,0,0,0,1-1V60.55a1,1,0,0,0-1-1H84.34a1,1,0,0,0-1,1v1.78a4,4,0,0,1-4,4H77.56a4,4,0,0,1-4-4V60.55a4,4,0,0,1,4-4,1.53,1.53,0,0,1,1.54,1.5,1.47,1.47,0,0,1-1.46,1.5,1,1,0,0,0-1.09,1v1.78a1,1,0,0,0,1,1h1.77a1,1,0,0,0,1-1V60.55a4,4,0,0,1,4-4h1.78a4,4,0,0,1,4,4v1.78A4,4,0,0,1,86.12,66.33Z"/><path class="cls-1" d="M74.78,62.94H72.1a1.5,1.5,0,0,1,0-3h2.68a1.5,1.5,0,0,1,0,3Z"/><path class="cls-1" d="M91.3,62.94H88.62a1.5,1.5,0,0,1,0-3H91.3a1.5,1.5,0,1,1,0,3Z"/><path class="cls-1" d="M81.7,77.54a16.1,16.1,0,0,1-4.12-31.67,16.4,16.4,0,0,1,4.12-.53,16.1,16.1,0,0,1,0,32.2Zm0-29.2a13.07,13.07,0,0,0-13.1,13.1,12.88,12.88,0,0,0,.86,4.67A13.1,13.1,0,1,0,81.7,48.34Z"/><path class="cls-1" d="M101.93,17.2H1.5a1.5,1.5,0,0,1,0-3H101.93a1.5,1.5,0,0,1,0,3Z"/><path class="cls-1" d="M27.37,26.44H19.49a1.5,1.5,0,0,1-1.5-1.5V1.5A1.5,1.5,0,0,1,19.49,0h7.88a1.5,1.5,0,0,1,1.5,1.5V24.94A1.5,1.5,0,0,1,27.37,26.44Zm-6.38-3h4.88V3H21Z"/><path class="cls-1" d="M43.65,103.06H3.21a1.5,1.5,0,0,1-1.5-1.5V21.4a1.5,1.5,0,0,1,1.5-1.5H43.65a1.5,1.5,0,0,1,1.5,1.5v80.16A1.5,1.5,0,0,1,43.65,103.06Zm-38.94-3H42.15V22.9H4.71Z"/><path class="cls-1" d="M6.87,26.77a1.51,1.51,0,0,1,1.5-1.51h0a1.51,1.51,0,0,1,1.5,1.51h0a1.5,1.5,0,0,1-1.5,1.49h0A1.5,1.5,0,0,1,6.87,26.77Z"/><path class="cls-1" d="M37,26.37a1.5,1.5,0,0,1,1.5-1.5h0a1.5,1.5,0,0,1,1.5,1.5h0a1.5,1.5,0,0,1-1.5,1.5h0A1.5,1.5,0,0,1,37,26.37Z"/><path class="cls-1" d="M6.87,94.73a1.5,1.5,0,0,1,1.5-1.5h0a1.5,1.5,0,0,1,1.5,1.5h0a1.5,1.5,0,0,1-1.5,1.5h0A1.5,1.5,0,0,1,6.87,94.73Z"/><path class="cls-1" d="M37,94.33a1.5,1.5,0,0,1,1.5-1.5h0a1.5,1.5,0,0,1,1.5,1.5h0a1.5,1.5,0,0,1-1.5,1.5h0A1.5,1.5,0,0,1,37,94.33Z"/><path class="cls-1" d="M85.66,26.87H77.74a1.5,1.5,0,0,1-1.5-1.5V1.82a1.5,1.5,0,0,1,1.5-1.5h7.92a1.5,1.5,0,0,1,1.5,1.5V25.37A1.5,1.5,0,0,1,85.66,26.87Zm-6.42-3h4.92V3.32H79.24Z"/><path class="cls-1" d="M102,103.86H61.38a1.5,1.5,0,0,1-1.5-1.5V21.82a1.5,1.5,0,0,1,1.5-1.5H102a1.5,1.5,0,0,1,1.5,1.5v80.54A1.5,1.5,0,0,1,102,103.86Zm-39.14-3h37.64V23.32H62.88Z"/><path class="cls-1" d="M65.07,27.21a1.5,1.5,0,0,1,1.5-1.5h0a1.5,1.5,0,0,1,1.5,1.5h0a1.5,1.5,0,0,1-1.5,1.5h0A1.5,1.5,0,0,1,65.07,27.21Z"/><path class="cls-1" d="M95.33,26.81a1.5,1.5,0,0,1,1.5-1.5h0a1.5,1.5,0,0,1,1.5,1.5h0a1.5,1.5,0,0,1-1.5,1.5h0A1.5,1.5,0,0,1,95.33,26.81Z"/><path class="cls-1" d="M65.07,95.5a1.5,1.5,0,0,1,1.5-1.5h0a1.5,1.5,0,0,1,1.5,1.5h0a1.5,1.5,0,0,1-1.5,1.5h0A1.5,1.5,0,0,1,65.07,95.5Z"/><path class="cls-1" d="M95.33,95.1a1.5,1.5,0,0,1,1.5-1.5h0a1.5,1.5,0,0,1,1.5,1.5h0a1.5,1.5,0,0,1-1.5,1.5h0A1.5,1.5,0,0,1,95.33,95.1Z"/></g></g></svg>