<svg xmlns="http://www.w3.org/2000/svg" viewBox="0 0 104.25 104.11"><defs><style>.cls-1{fill:#474747;}</style></defs><title>Asset 2031</title><g id="Layer_2" data-name="Layer 2"><g id="Layer_1-2" data-name="Layer 1"><path class="cls-1" d="M43.1,84.82H27.7a1.51,1.51,0,0,1-1.43-2l3.35-10.52A10.33,10.33,0,0,1,25,63.68a10.44,10.44,0,0,1,20.88,0,10.33,10.33,0,0,1-4.66,8.66l3.35,10.52a1.51,1.51,0,0,1-1.43,2Zm-13.35-3h11.3L38,72.11a1.49,1.49,0,0,1,.75-1.8,7.44,7.44,0,1,0-6.62,0,1.49,1.49,0,0,1,.75,1.8Z"/><path class="cls-1" d="M16.5,39.25a1.5,1.5,0,0,1-1.5-1.5v-13a1.5,1.5,0,0,1,1.49-1.5h0A1.5,1.5,0,0,1,18,24.78v13a1.5,1.5,0,0,1-1.49,1.5Z"/><path class="cls-1" d="M16.49,26.12a6.18,6.18,0,1,1,6.17-6.18A6.18,6.18,0,0,1,16.49,26.12Zm0-9.35a3.18,3.18,0,1,0,3.17,3.17A3.17,3.17,0,0,0,16.49,16.77Z"/><path class="cls-1" d="M39.42,39.25a1.5,1.5,0,0,1-1.5-1.5l0-19.53a1.5,1.5,0,0,1,1.5-1.5h0a1.5,1.5,0,0,1,1.5,1.5l0,19.53a1.5,1.5,0,0,1-1.5,1.5Z"/><path class="cls-1" d="M39.39,19.55a6.18,6.18,0,1,1,6.18-6.17A6.18,6.18,0,0,1,39.39,19.55Zm0-9.35a3.18,3.18,0,1,0,3.18,3.18A3.18,3.18,0,0,0,39.39,10.2Z"/><path class="cls-1" d="M80.9,80.74h0l-13,0a1.5,1.5,0,0,1,0-3h0l13,0a1.5,1.5,0,0,1,0,3Z"/><path class="cls-1" d="M85.74,85.41a6.18,6.18,0,1,1,6.18-6.17A6.18,6.18,0,0,1,85.74,85.41Zm0-9.35a3.18,3.18,0,1,0,3.18,3.18A3.18,3.18,0,0,0,85.74,76.06Z"/><path class="cls-1" d="M87.47,57.83h0l-19.52,0a1.5,1.5,0,0,1,0-3h0l19.53,0a1.5,1.5,0,0,1,0,3Z"/><path class="cls-1" d="M92.31,62.5a6.18,6.18,0,1,1,6.17-6.17A6.18,6.18,0,0,1,92.31,62.5Zm0-9.35a3.18,3.18,0,1,0,3.17,3.18A3.19,3.19,0,0,0,92.31,53.15Z"/><path class="cls-1" d="M67.94,104.11H1.5a1.5,1.5,0,0,1-1.5-1.5V37.75a1.5,1.5,0,0,1,1.5-1.5H67.94a1.5,1.5,0,0,1,1.5,1.5v64.86A1.5,1.5,0,0,1,67.94,104.11ZM3,101.11H66.44V39.25H3Z"/><path class="cls-1" d="M15.51,58.26H1.5A1.5,1.5,0,0,1,0,56.76V48.61a1.5,1.5,0,0,1,1.5-1.5h14a1.5,1.5,0,0,1,1.5,1.5v8.15A1.5,1.5,0,0,1,15.51,58.26ZM3,55.26H14V50.11H3Z"/><path class="cls-1" d="M15.51,77.13H1.5A1.5,1.5,0,0,1,0,75.63V67.48A1.5,1.5,0,0,1,1.5,66h14a1.5,1.5,0,0,1,1.5,1.5v8.15A1.5,1.5,0,0,1,15.51,77.13ZM3,74.13H14V69H3Z"/><path class="cls-1" d="M15.51,96H1.5A1.5,1.5,0,0,1,0,94.5V86.35a1.5,1.5,0,0,1,1.5-1.5h14a1.5,1.5,0,0,1,1.5,1.5V94.5A1.5,1.5,0,0,1,15.51,96ZM3,93H14V87.85H3Z"/><path class="cls-1" d="M67.94,58.26h-14a1.5,1.5,0,0,1-1.5-1.5V48.61a1.5,1.5,0,0,1,1.5-1.5h14a1.5,1.5,0,0,1,1.5,1.5v8.15A1.5,1.5,0,0,1,67.94,58.26Zm-12.51-3h11V50.11h-11Z"/><path class="cls-1" d="M67.94,77.13h-14a1.5,1.5,0,0,1-1.5-1.5V67.48a1.5,1.5,0,0,1,1.5-1.5h14a1.5,1.5,0,0,1,1.5,1.5v8.15A1.5,1.5,0,0,1,67.94,77.13Zm-12.51-3h11V69h-11Z"/><path class="cls-1" d="M67.94,96h-14a1.5,1.5,0,0,1-1.5-1.5V86.35a1.5,1.5,0,0,1,1.5-1.5h14a1.5,1.5,0,0,1,1.5,1.5V94.5A1.5,1.5,0,0,1,67.94,96ZM55.43,93h11V87.85h-11Z"/><path class="cls-1" d="M102.75,39.25h-7a1.5,1.5,0,0,1-1.5-1.5V16.68A6.69,6.69,0,0,0,87.57,10h-17a6.69,6.69,0,0,0-6.68,6.68V37.75a1.5,1.5,0,0,1-1.5,1.5h-7a1.5,1.5,0,0,1-1.5-1.5V16.68A16.7,16.7,0,0,1,70.57,0h17a16.7,16.7,0,0,1,16.68,16.68V37.75A1.5,1.5,0,0,1,102.75,39.25Zm-5.5-3h4V16.68A13.7,13.7,0,0,0,87.57,3h-17A13.7,13.7,0,0,0,56.89,16.68V36.25h4V16.68A9.69,9.69,0,0,1,70.57,7h17a9.69,9.69,0,0,1,9.68,9.68Z"/></g></g></svg>