<svg xmlns="http://www.w3.org/2000/svg" viewBox="0 0 104.27 103.54"><defs><style>.cls-1{fill:#474747;}</style></defs><title>Asset 2016</title><g id="Layer_2" data-name="Layer 2"><g id="Layer_1-2" data-name="Layer 1"><path class="cls-1" d="M76.78,55H13.05a1.5,1.5,0,0,1-1.5-1.5V37.24a1.5,1.5,0,0,1,1.5-1.5H76.78a1.5,1.5,0,0,1,1.5,1.5V53.52A1.5,1.5,0,0,1,76.78,55ZM14.55,52H75.28V38.74H14.55Z"/><path class="cls-1" d="M18.79,46.88a1.36,1.36,0,0,1-.29,0,1.4,1.4,0,0,1-.29-.09.89.89,0,0,1-.25-.14,1,1,0,0,1-.23-.18,2.11,2.11,0,0,1-.19-.23A2.15,2.15,0,0,1,17.4,46a2.29,2.29,0,0,1-.08-.28,1.43,1.43,0,0,1,0-.29,1.36,1.36,0,0,1,0-.29c0-.1.05-.19.08-.29a2,2,0,0,1,.14-.25,1.57,1.57,0,0,1,.42-.42,2,2,0,0,1,.25-.14l.29-.08a1.42,1.42,0,0,1,.58,0l.28.08.26.14a2.11,2.11,0,0,1,.23.19,1.5,1.5,0,0,1,.44,1.06,1.43,1.43,0,0,1,0,.29,1.31,1.31,0,0,1-.09.28,1.26,1.26,0,0,1-.13.26,2.11,2.11,0,0,1-.19.23A1.52,1.52,0,0,1,18.79,46.88Z"/><path class="cls-1" d="M56.37,45.38a1.5,1.5,0,0,1,1.5-1.5h0a1.5,1.5,0,0,1,1.5,1.5h0a1.5,1.5,0,0,1-1.5,1.5h0A1.5,1.5,0,0,1,56.37,45.38Zm-13,0a1.5,1.5,0,0,1,1.5-1.5h0a1.5,1.5,0,0,1,1.5,1.5h0a1.5,1.5,0,0,1-1.5,1.5h0A1.5,1.5,0,0,1,43.34,45.38Zm-13,0a1.5,1.5,0,0,1,1.5-1.5h0a1.5,1.5,0,0,1,1.5,1.5h0a1.5,1.5,0,0,1-1.5,1.5h0A1.5,1.5,0,0,1,30.32,45.38Z"/><path class="cls-1" d="M70.9,46.88a1.5,1.5,0,0,1-1.06-.44,2.11,2.11,0,0,1-.19-.23,2.15,2.15,0,0,1-.14-.26,2.29,2.29,0,0,1-.08-.28,1.42,1.42,0,0,1,0-.58,2.29,2.29,0,0,1,.08-.28,1.59,1.59,0,0,1,.14-.26,1.45,1.45,0,0,1,.19-.23,1.5,1.5,0,0,1,1.35-.41l.28.08.26.14a2.11,2.11,0,0,1,.23.19,1.45,1.45,0,0,1,.19.23,1.05,1.05,0,0,1,.13.26,1.31,1.31,0,0,1,.09.28,1.36,1.36,0,0,1,0,.29,1.5,1.5,0,0,1-1.5,1.5Z"/><path class="cls-1" d="M76.58,80H12.85a1.5,1.5,0,0,1-1.5-1.5V62.23a1.5,1.5,0,0,1,1.5-1.5H76.58a1.5,1.5,0,0,1,1.5,1.5V78.51A1.5,1.5,0,0,1,76.58,80ZM14.35,77H75.08V63.73H14.35Z"/><path class="cls-1" d="M18.59,71.87a1.53,1.53,0,0,1-.3,0L18,71.76l-.26-.14-.22-.19a1.52,1.52,0,0,1-.44-1.06,1.36,1.36,0,0,1,0-.29,1.29,1.29,0,0,1,.08-.28,2.15,2.15,0,0,1,.14-.26,1.37,1.37,0,0,1,.19-.23l.22-.19L18,69l.28-.08a1.47,1.47,0,0,1,.59,0l.28.08.26.14a2.11,2.11,0,0,1,.23.19,1.52,1.52,0,0,1,.44,1.06,1.36,1.36,0,0,1,0,.29,1.69,1.69,0,0,1-.41.77,2.11,2.11,0,0,1-.23.19l-.26.14-.28.08A1.43,1.43,0,0,1,18.59,71.87Z"/><path class="cls-1" d="M39.59,70.37a1.5,1.5,0,0,1,1.5-1.5h0a1.5,1.5,0,0,1,1.5,1.5h0a1.5,1.5,0,0,1-1.5,1.5h0A1.5,1.5,0,0,1,39.59,70.37Zm-11.25,0a1.5,1.5,0,0,1,1.5-1.5h0a1.5,1.5,0,0,1,1.5,1.5h0a1.5,1.5,0,0,1-1.5,1.5h0A1.5,1.5,0,0,1,28.34,70.37Z"/><path class="cls-1" d="M52.34,71.87a1.36,1.36,0,0,1-.29,0l-.28-.08-.26-.14a2.11,2.11,0,0,1-.23-.19,1.5,1.5,0,0,1,0-2.12,2.11,2.11,0,0,1,.23-.19l.26-.14.28-.08a1.5,1.5,0,0,1,1.35.41,2.11,2.11,0,0,1,.19.23,2.15,2.15,0,0,1,.14.26,2.29,2.29,0,0,1,.08.28,1.36,1.36,0,0,1,0,.29,1.52,1.52,0,0,1-.44,1.06A1.5,1.5,0,0,1,52.34,71.87Z"/><path class="cls-1" d="M102.77,18.31H1.5A1.5,1.5,0,0,1,0,16.81V1.5A1.5,1.5,0,0,1,1.5,0H102.77a1.5,1.5,0,0,1,1.5,1.5V16.81A1.5,1.5,0,0,1,102.77,18.31ZM3,15.31h98.27V3H3Z"/><path class="cls-1" d="M102.77,103.54H1.5A1.5,1.5,0,0,1,0,102V16.81a1.5,1.5,0,0,1,1.5-1.5H102.77a1.5,1.5,0,0,1,1.5,1.5V102A1.5,1.5,0,0,1,102.77,103.54ZM3,100.54h98.27V18.31H3Z"/><path class="cls-1" d="M8.65,11.42a1.36,1.36,0,0,1-.29,0,1.29,1.29,0,0,1-.28-.08,1.3,1.3,0,0,1-.26-.14A1.06,1.06,0,0,1,7.59,11a1.5,1.5,0,0,1-.44-1.06,1.52,1.52,0,0,1,.44-1.06,1,1,0,0,1,.23-.18,1.61,1.61,0,0,1,.54-.23,1.42,1.42,0,0,1,.58,0,1.61,1.61,0,0,1,.54.23,1.3,1.3,0,0,1,.23.18,1.52,1.52,0,0,1,.44,1.06A1.48,1.48,0,0,1,9.71,11a1.37,1.37,0,0,1-.23.19l-.26.14a1.29,1.29,0,0,1-.28.08A1.43,1.43,0,0,1,8.65,11.42Z"/><path class="cls-1" d="M19.46,9.92A1.51,1.51,0,0,1,21,8.42h0a1.5,1.5,0,0,1,1.5,1.5h0a1.5,1.5,0,0,1-1.5,1.5h0A1.51,1.51,0,0,1,19.46,9.92Z"/><path class="cls-1" d="M33.28,11.42a1.36,1.36,0,0,1-.29,0,1.29,1.29,0,0,1-.28-.08l-.26-.14a1.37,1.37,0,0,1-.23-.19,1.48,1.48,0,0,1-.41-1.35,1.31,1.31,0,0,1,.09-.28A1.26,1.26,0,0,1,32,9.09a2.11,2.11,0,0,1,.19-.23A1.65,1.65,0,0,1,33,8.45a1.5,1.5,0,0,1,1.35.41,2.11,2.11,0,0,1,.19.23,2.15,2.15,0,0,1,.14.26c0,.09.06.19.08.28a1.5,1.5,0,0,1-1.47,1.79Z"/><path class="cls-1" d="M93.43,52.16a1.51,1.51,0,0,1-1.06-.44l-9.5-9.5a1.49,1.49,0,0,1,0-2.12,1.51,1.51,0,0,1,2.12,0l9.5,9.5a1.49,1.49,0,0,1,0,2.12A1.51,1.51,0,0,1,93.43,52.16Z"/><path class="cls-1" d="M83.93,52.16a1.51,1.51,0,0,1-1.06-.44,1.49,1.49,0,0,1,0-2.12l9.5-9.5a1.51,1.51,0,0,1,2.12,0,1.49,1.49,0,0,1,0,2.12L85,51.72A1.51,1.51,0,0,1,83.93,52.16Z"/><path class="cls-1" d="M93.43,76a1.51,1.51,0,0,1-1.06-.44L82.87,66A1.5,1.5,0,0,1,85,63.89l9.5,9.49A1.51,1.51,0,0,1,93.43,76Z"/><path class="cls-1" d="M83.93,76a1.51,1.51,0,0,1-1.06-2.57l9.5-9.49A1.5,1.5,0,1,1,94.49,66L85,75.51A1.51,1.51,0,0,1,83.93,76Z"/></g></g></svg>