<svg xmlns="http://www.w3.org/2000/svg" viewBox="0 0 102.5 104.7"><defs><style>.cls-1{fill:#474747;}</style></defs><title>Asset 2007</title><g id="Layer_2" data-name="Layer 2"><g id="Layer_1-2" data-name="Layer 1"><path class="cls-1" d="M73.2,43.45H66.77a1.5,1.5,0,0,1-1.35-2.17,54.21,54.21,0,0,0,3-7.84,42.77,42.77,0,0,1-4.82,1.87c-1,.34-1.81.62-2.3.85a1.5,1.5,0,0,1-2.12-1.57,21.38,21.38,0,0,0-2.46-12.4c-.93,6.34-3.56,11.79-6.07,14.24a1.49,1.49,0,0,1-2.26-.2,16.06,16.06,0,0,0-1.81-1.89A20.9,20.9,0,0,1,43.54,31a39.51,39.51,0,0,0-1,7.4h0a8.73,8.73,0,0,0,.55,3,1.49,1.49,0,0,1-.18,1.37,1.5,1.5,0,0,1-1.23.64H31.75a1.5,1.5,0,0,1-1.31-.77,25.44,25.44,0,0,1-2.78-7.41C25.13,22.53,29.13,6.71,29.3,6a1.5,1.5,0,0,1,2.77-.35c2.48,4.46,7.78,10.9,9.77,12.54,2.69-2.62,5.55-8.3,5.55-16.73A1.5,1.5,0,0,1,49.15,0c.18,0,16.83,3.27,19.66,22.6a13.65,13.65,0,0,0,5.7-6.91,1.5,1.5,0,0,1,2.75-.14c.27.55,6.57,13.63.11,25.51-.14.26-.29.5-.44.75l-.05.09a1.47,1.47,0,0,1-.82.67l-2.39.78A1.5,1.5,0,0,1,73.2,43.45Zm-4.09-3H73l1.62-.53.15-.27c4-7.34,2.37-15.43,1-19.71a16.41,16.41,0,0,1-7.67,6.38,1.48,1.48,0,0,1-1.31-.15A1.53,1.53,0,0,1,66.07,25C64.74,9.84,54.47,4.86,50.34,3.46c-.47,9.1-4.13,15.18-7.29,17.71a2.61,2.61,0,0,1-.28.17c-1.06.52-2.23.48-6.8-5-1.63-2-3.22-4.08-4.53-6-1,5.35-2.54,15.76-.84,24.35a22.26,22.26,0,0,0,2,5.76h7.06a11.11,11.11,0,0,1-.18-2.12A53.43,53.43,0,0,1,42,25a1.5,1.5,0,0,1,2.91.61c-.26,2.79,1.76,4.69,3.71,6.53l1,.91c2.35-3.22,4.48-9.36,4.48-15.61a1.51,1.51,0,0,1,2.68-.93c.25.32,5.74,7.36,5.59,16l.29-.1c2.39-.81,6-2,7.16-3.61a1.5,1.5,0,0,1,2.66,1.23A71.51,71.51,0,0,1,69.11,40.45ZM41,38.36h0Z"/><path class="cls-1" d="M66.77,43.45H41.67a1.5,1.5,0,0,1-1.41-1,11.5,11.5,0,0,1-.73-4.12A53.43,53.43,0,0,1,42,25a1.5,1.5,0,0,1,2.91.61c-.26,2.79,1.76,4.69,3.71,6.53l1,.91c2.35-3.22,4.48-9.36,4.48-15.61a1.51,1.51,0,0,1,2.68-.93c.25.32,5.74,7.36,5.59,16l.29-.1c2.39-.81,6-2,7.16-3.61a1.5,1.5,0,0,1,2.66,1.23,65.32,65.32,0,0,1-4.36,12.53A1.49,1.49,0,0,1,66.77,43.45Zm-24-3h23a57.06,57.06,0,0,0,2.62-7,42.77,42.77,0,0,1-4.82,1.87c-1,.34-1.81.62-2.3.85a1.5,1.5,0,0,1-2.12-1.57c.69-4.8-.92-9.35-2.46-12.39-.93,6.33-3.56,11.78-6.07,14.23a1.49,1.49,0,0,1-2.26-.2,16.06,16.06,0,0,0-1.81-1.89A20.9,20.9,0,0,1,43.54,31a39.51,39.51,0,0,0-1,7.4A8,8,0,0,0,42.78,40.45Z"/><path class="cls-1" d="M101,104.7H1.5A1.5,1.5,0,0,1,0,103.2V42a1.5,1.5,0,0,1,1.5-1.5H101a1.5,1.5,0,0,1,1.5,1.5V103.2A1.5,1.5,0,0,1,101,104.7Zm-98-3H99.5V43.45H3Z"/><path class="cls-1" d="M101,60.2H1.5a1.5,1.5,0,0,1,0-3H101a1.5,1.5,0,0,1,0,3Z"/><path class="cls-1" d="M101,75.45H1.5a1.5,1.5,0,0,1,0-3H101a1.5,1.5,0,0,1,0,3Z"/><path class="cls-1" d="M101,90.7H1.5a1.5,1.5,0,0,1,0-3H101a1.5,1.5,0,0,1,0,3Z"/><path class="cls-1" d="M20.25,60.2a1.5,1.5,0,0,1-1.5-1.5V42a1.5,1.5,0,0,1,3,0V58.7A1.5,1.5,0,0,1,20.25,60.2Z"/><path class="cls-1" d="M51.25,60.2a1.5,1.5,0,0,1-1.5-1.5V42a1.5,1.5,0,0,1,3,0V58.7A1.5,1.5,0,0,1,51.25,60.2Z"/><path class="cls-1" d="M82.25,60.2a1.5,1.5,0,0,1-1.5-1.5V42a1.5,1.5,0,0,1,3,0V58.7A1.5,1.5,0,0,1,82.25,60.2Z"/><path class="cls-1" d="M20.09,90.7a1.5,1.5,0,0,1-1.5-1.5V74a1.5,1.5,0,0,1,3,0V89.2A1.5,1.5,0,0,1,20.09,90.7Z"/><path class="cls-1" d="M51.09,90.7a1.5,1.5,0,0,1-1.5-1.5V74a1.5,1.5,0,0,1,3,0V89.2A1.5,1.5,0,0,1,51.09,90.7Z"/><path class="cls-1" d="M82.09,90.7a1.5,1.5,0,0,1-1.5-1.5V74a1.5,1.5,0,0,1,3,0V89.2A1.5,1.5,0,0,1,82.09,90.7Z"/><path class="cls-1" d="M35.42,75.45a1.5,1.5,0,0,1-1.5-1.5V58.7a1.5,1.5,0,0,1,3,0V74A1.5,1.5,0,0,1,35.42,75.45Z"/><path class="cls-1" d="M66.42,75.45a1.5,1.5,0,0,1-1.5-1.5V58.7a1.5,1.5,0,0,1,3,0V74A1.5,1.5,0,0,1,66.42,75.45Z"/><path class="cls-1" d="M35.48,104.7a1.5,1.5,0,0,1-1.5-1.5v-14a1.5,1.5,0,0,1,3,0v14A1.5,1.5,0,0,1,35.48,104.7Z"/><path class="cls-1" d="M66.48,104.7a1.5,1.5,0,0,1-1.5-1.5v-14a1.5,1.5,0,0,1,3,0v14A1.5,1.5,0,0,1,66.48,104.7Z"/></g></g></svg>