<svg xmlns="http://www.w3.org/2000/svg" viewBox="0 0 103.82 102.13"><defs><style>.cls-1{fill:#474747;}</style></defs><title>Asset 2019</title><g id="Layer_2" data-name="Layer 2"><g id="Layer_1-2" data-name="Layer 1"><path class="cls-1" d="M52,48.35h-.09a1.5,1.5,0,0,1-1.21-.75L46.84,41a1.5,1.5,0,1,1,2.59-1.51l2.73,4.68,6.24-8.36a1.5,1.5,0,0,1,2.41,1.79l-7.6,10.19A1.51,1.51,0,0,1,52,48.35Z"/><path class="cls-1" d="M98.56,79H5.27A5.28,5.28,0,0,1,0,73.68V5.27A5.27,5.27,0,0,1,5.27,0H98.56a5.27,5.27,0,0,1,5.26,5.27V73.68A5.27,5.27,0,0,1,98.56,79ZM5.27,3A2.27,2.27,0,0,0,3,5.27V73.68A2.27,2.27,0,0,0,5.27,76H98.56a2.27,2.27,0,0,0,2.26-2.27V5.27A2.27,2.27,0,0,0,98.56,3ZM94.79,71.41H9a1.5,1.5,0,0,1-1.5-1.5V9A1.5,1.5,0,0,1,9,7.53H94.79A1.5,1.5,0,0,1,96.29,9V69.91A1.5,1.5,0,0,1,94.79,71.41Zm-84.26-3H93.29V10.53H10.53Z"/><path class="cls-1" d="M64.92,97.38H38.72a1.49,1.49,0,0,1-1.19-.59,1.51,1.51,0,0,1-.26-1.3l4.9-18.43A1.49,1.49,0,0,1,43.62,76H60a1.49,1.49,0,0,1,1.45,1.11l4.9,18.43a1.5,1.5,0,0,1-1.45,1.89Zm-24.25-3H63L58.87,79H44.77Z"/><path class="cls-1" d="M73.84,102.13H30.71a1.5,1.5,0,0,1-1.5-1.5V95.88a1.5,1.5,0,0,1,1.5-1.5H73.84a1.5,1.5,0,0,1,1.5,1.5v4.75A1.5,1.5,0,0,1,73.84,102.13Zm-41.63-3H72.34V97.38H32.21Z"/><path class="cls-1" d="M39.61,63.24l-.3,0a1.52,1.52,0,0,1-.28-.09.94.94,0,0,1-.26-.14,1.3,1.3,0,0,1-.23-.18,2,2,0,0,1-.18-.23,1.61,1.61,0,0,1-.23-.54,2.83,2.83,0,0,1,0-.29,1.53,1.53,0,0,1,.43-1.06,1.37,1.37,0,0,1,.23-.19l.26-.14a1.59,1.59,0,0,1,1.15,0l.26.14a1.37,1.37,0,0,1,.23.19,1.5,1.5,0,0,1,.44,1.06,1.43,1.43,0,0,1,0,.29,1.41,1.41,0,0,1-.64.95.94.94,0,0,1-.26.14,1.52,1.52,0,0,1-.28.09Z"/><path class="cls-1" d="M32.2,51.91a1.49,1.49,0,0,1,.55-2h0a1.5,1.5,0,0,1,2,.55h0a1.51,1.51,0,0,1-.55,2.05h0a1.59,1.59,0,0,1-.75.2h0A1.49,1.49,0,0,1,32.2,51.91Z"/><path class="cls-1" d="M27.39,42.08a1.5,1.5,0,0,1-1.06-.44,1.51,1.51,0,0,1,0-2.13,1.57,1.57,0,0,1,2.12,0,1.54,1.54,0,0,1,.44,1.07,1.5,1.5,0,0,1-1.5,1.5Z"/><path class="cls-1" d="M32.75,31.29a1.48,1.48,0,0,1-.55-2h0a1.49,1.49,0,0,1,2-.55h0a1.5,1.5,0,0,1,.55,2h0a1.51,1.51,0,0,1-1.31.76h0A1.43,1.43,0,0,1,32.75,31.29Z"/><path class="cls-1" d="M39.61,20.92a1.54,1.54,0,0,1-1.06-.44,1.37,1.37,0,0,1-.19-.23,1.3,1.3,0,0,1-.14-.26,1.52,1.52,0,0,1-.09-.28,1.46,1.46,0,0,1,0-.29,1.52,1.52,0,0,1,.44-1.07,1,1,0,0,1,.22-.18A1.3,1.3,0,0,1,39,18a1.52,1.52,0,0,1,.28-.09,1.94,1.94,0,0,1,.59,0,1.52,1.52,0,0,1,.28.09,1.73,1.73,0,0,1,.49.32,1.57,1.57,0,0,1,.44,1.07A1.41,1.41,0,0,1,41,20a1.3,1.3,0,0,1-.14.26,2,2,0,0,1-.18.23A1.56,1.56,0,0,1,39.61,20.92Z"/><path class="cls-1" d="M50.32,19.41a1.51,1.51,0,0,1,1.5-1.5h0a1.5,1.5,0,0,1,1.5,1.5h0a1.5,1.5,0,0,1-1.5,1.5h0A1.5,1.5,0,0,1,50.32,19.41Z"/><path class="cls-1" d="M64,20.92a1.36,1.36,0,0,1-.29,0,1.61,1.61,0,0,1-.54-.23,2,2,0,0,1-.23-.18,1.51,1.51,0,0,1,0-2.13,1.57,1.57,0,0,1,2.12,0,1.51,1.51,0,0,1,0,2.13A1.54,1.54,0,0,1,64,20.92Z"/><path class="cls-1" d="M68.85,30.75a1.5,1.5,0,0,1,.55-2.05h0a1.5,1.5,0,0,1,2,.54h0a1.5,1.5,0,0,1-.55,2.05h0a1.47,1.47,0,0,1-.75.21h0A1.5,1.5,0,0,1,68.85,30.75Z"/><path class="cls-1" d="M76.26,42.08a1.5,1.5,0,0,1-1.06-.44,1.51,1.51,0,0,1,0-2.13,1.57,1.57,0,0,1,2.12,0,1.51,1.51,0,0,1-1.06,2.57Z"/><path class="cls-1" d="M69.4,52.46a1.51,1.51,0,0,1-.55-2.05h0a1.49,1.49,0,0,1,2.05-.55h0a1.5,1.5,0,0,1,.55,2h0a1.5,1.5,0,0,1-1.3.75h0A1.56,1.56,0,0,1,69.4,52.46Z"/><path class="cls-1" d="M64,63.24a1.36,1.36,0,0,1-.29,0,1.31,1.31,0,0,1-.28-.09.94.94,0,0,1-.26-.14A1.3,1.3,0,0,1,63,62.8a2.11,2.11,0,0,1-.19-.23,1.26,1.26,0,0,1-.13-.26,1.31,1.31,0,0,1-.09-.28,1.43,1.43,0,0,1,0-.29A1.5,1.5,0,0,1,63,60.68a1.37,1.37,0,0,1,.23-.19l.26-.14a1.29,1.29,0,0,1,.28-.08,1.42,1.42,0,0,1,.58,0,1.29,1.29,0,0,1,.28.08,1.59,1.59,0,0,1,.26.14,1.06,1.06,0,0,1,.23.19,1.5,1.5,0,0,1,.44,1.06,1.43,1.43,0,0,1,0,.29,2.29,2.29,0,0,1-.08.28,2.15,2.15,0,0,1-.14.26,2.11,2.11,0,0,1-.19.23,1,1,0,0,1-.23.18.82.82,0,0,1-.26.14,1.31,1.31,0,0,1-.28.09A1.36,1.36,0,0,1,64,63.24Z"/><path class="cls-1" d="M50.32,61.74a1.5,1.5,0,0,1,1.5-1.5h0a1.5,1.5,0,0,1,1.5,1.5h0a1.5,1.5,0,0,1-1.5,1.5h0A1.5,1.5,0,0,1,50.32,61.74Z"/><path class="cls-1" d="M60.85,57.17h0L43.35,57a1.49,1.49,0,0,1-1.27-.73l-8.92-15a1.48,1.48,0,0,1,0-1.51l8.56-14.83A1.55,1.55,0,0,1,43,24.1l17.49.21a1.52,1.52,0,0,1,1.27.74l8.92,15a1.5,1.5,0,0,1,0,1.52L62.15,56.42A1.49,1.49,0,0,1,60.85,57.17ZM44.23,54,60,54.16l7.68-13.3-8-13.56-15.76-.19L36.18,40.42Z"/></g></g></svg>