<svg xmlns="http://www.w3.org/2000/svg" viewBox="0 0 103.09 101.92"><defs><style>.cls-1{fill:#474747;}</style></defs><title>Asset 2015</title><g id="Layer_2" data-name="Layer 2"><g id="Layer_1-2" data-name="Layer 1"><path class="cls-1" d="M50.88,53.22c-6.63,0-13.34-2.07-13.34-6s6.71-6,13.34-6,13.33,2.07,13.33,6S57.5,53.22,50.88,53.22Zm0-9c-6.71,0-10.34,2.15-10.34,3s3.63,3,10.34,3,10.33-2.15,10.33-3S57.59,44.17,50.88,44.17Z"/><path class="cls-1" d="M39,48.7H35.47a1.5,1.5,0,0,1,0-3H39a1.5,1.5,0,1,1,0,3Z"/><path class="cls-1" d="M66.47,48.7H62.71a1.5,1.5,0,1,1,0-3h3.76a1.5,1.5,0,0,1,0,3Z"/><path class="cls-1" d="M50.88,44.17a1.5,1.5,0,0,1-1.5-1.5V39a1.5,1.5,0,0,1,3,0v3.63A1.5,1.5,0,0,1,50.88,44.17Z"/><path class="cls-1" d="M50.88,56.85a1.5,1.5,0,0,1-1.5-1.5V51.72a1.5,1.5,0,0,1,3,0v3.63A1.5,1.5,0,0,1,50.88,56.85Z"/><path class="cls-1" d="M44.38,44.86a1.49,1.49,0,0,1-1.06-.44l-2.57-2.57a1.5,1.5,0,0,1,2.12-2.12l2.57,2.57a1.51,1.51,0,0,1,0,2.12A1.53,1.53,0,0,1,44.38,44.86Z"/><path class="cls-1" d="M59.18,55.48A1.51,1.51,0,0,1,58.12,55l-2.57-2.57a1.5,1.5,0,1,1,2.12-2.12l2.57,2.57a1.5,1.5,0,0,1-1.06,2.56Z"/><path class="cls-1" d="M56.72,44.75a1.45,1.45,0,0,1-1.06-.44,1.49,1.49,0,0,1,0-2.12l2.57-2.57a1.5,1.5,0,0,1,2.12,2.12l-2.57,2.57A1.47,1.47,0,0,1,56.72,44.75Z"/><path class="cls-1" d="M41.81,55.48a1.5,1.5,0,0,1-1.06-2.56l2.57-2.57a1.5,1.5,0,0,1,2.12,2.12L42.87,55A1.53,1.53,0,0,1,41.81,55.48Z"/><path class="cls-1" d="M44.23,48.69a1.53,1.53,0,0,1-1.06-.43A1.37,1.37,0,0,1,43,48a1.65,1.65,0,0,1-.14-.26,1.52,1.52,0,0,1-.09-.28c0-.1,0-.2,0-.3s0-.19,0-.29a1.61,1.61,0,0,1,.23-.54,1.37,1.37,0,0,1,.19-.23,1.55,1.55,0,0,1,2.12,0,2,2,0,0,1,.18.23,1.61,1.61,0,0,1,.23.54,1.5,1.5,0,0,1,0,.29,1.41,1.41,0,0,1-.12.58,1.65,1.65,0,0,1-.14.26,2,2,0,0,1-.18.23A1.55,1.55,0,0,1,44.23,48.69Z"/><path class="cls-1" d="M49.17,47.19a1.5,1.5,0,0,1,1.5-1.5h0a1.5,1.5,0,0,1,1.5,1.5h0a1.5,1.5,0,0,1-1.5,1.5h0A1.5,1.5,0,0,1,49.17,47.19Z"/><path class="cls-1" d="M57.1,48.69A1.52,1.52,0,0,1,56,48.25a1.24,1.24,0,0,1-.18-.22,1.65,1.65,0,0,1-.14-.26A1.49,1.49,0,0,1,56,46.13a1.56,1.56,0,0,1,2.13,0,1.5,1.5,0,0,1,.41,1.36,1.52,1.52,0,0,1-.09.28,1.65,1.65,0,0,1-.14.26,1.92,1.92,0,0,1-.18.22A1.52,1.52,0,0,1,57.1,48.69Z"/><path class="cls-1" d="M98.29,81.22H4.81A4.82,4.82,0,0,1,0,76.41V4.81A4.82,4.82,0,0,1,4.81,0H98.29a4.81,4.81,0,0,1,4.8,4.81v71.6A4.81,4.81,0,0,1,98.29,81.22ZM4.81,3A1.81,1.81,0,0,0,3,4.81v71.6a1.81,1.81,0,0,0,1.81,1.81H98.29a1.81,1.81,0,0,0,1.8-1.81V4.81A1.81,1.81,0,0,0,98.29,3ZM95,74.6H8.12a1.5,1.5,0,0,1-1.5-1.5v-65a1.5,1.5,0,0,1,1.5-1.5H95a1.5,1.5,0,0,1,1.5,1.5v65A1.5,1.5,0,0,1,95,74.6Zm-85.36-3H93.48v-62H9.62Z"/><path class="cls-1" d="M59.38,93.46H43.31a1.5,1.5,0,0,1-1.5-1.5V79.72a1.5,1.5,0,0,1,1.5-1.5H59.38a1.5,1.5,0,0,1,1.5,1.5V92A1.5,1.5,0,0,1,59.38,93.46Zm-14.57-3H57.88V81.22H44.81Z"/><path class="cls-1" d="M77.06,101.92H25.57a1.5,1.5,0,0,1-1.5-1.5,10,10,0,0,1,10-10H68.6a10,10,0,0,1,10,10A1.5,1.5,0,0,1,77.06,101.92Zm-49.83-3H75.4a7,7,0,0,0-6.8-5.46H34A7,7,0,0,0,27.23,98.92Z"/><path class="cls-1" d="M71.19,64.65H30.75a1.5,1.5,0,0,1-1.5-1.5V24a1.5,1.5,0,0,1,1.5-1.5H47.41a1.5,1.5,0,0,1,1.5,1.5v5.27H71.19a1.5,1.5,0,0,1,1.5,1.5v32.4A1.5,1.5,0,0,1,71.19,64.65Zm-38.94-3H69.69V32.25H47.41a1.5,1.5,0,0,1-1.5-1.5V25.48H32.25Z"/><path class="cls-1" d="M55.2,26.29a1.5,1.5,0,0,1-1.5-1.5V15.5a1.5,1.5,0,0,1,3,0v9.29A1.5,1.5,0,0,1,55.2,26.29Z"/><path class="cls-1" d="M60.8,26.29a1.5,1.5,0,0,1-1.5-1.5V15.5a1.5,1.5,0,0,1,3,0v9.29A1.5,1.5,0,0,1,60.8,26.29Z"/><path class="cls-1" d="M66.39,26.29a1.5,1.5,0,0,1-1.5-1.5V15.5a1.5,1.5,0,0,1,3,0v9.29A1.5,1.5,0,0,1,66.39,26.29Z"/></g></g></svg>