<svg xmlns="http://www.w3.org/2000/svg" viewBox="0 0 66.68 66.39"><defs><style>.cls-1{fill:#474747;}</style></defs><title>Asset 2034</title><g id="Layer_2" data-name="Layer 2"><g id="Layer_1-2" data-name="Layer 1"><path class="cls-1" d="M1.5,66.39A1.53,1.53,0,0,1,.44,66a1.49,1.49,0,0,1-.3-1.7L7,49.52a32.34,32.34,0,1,1,9.8,9.94L2.13,66.25A1.56,1.56,0,0,1,1.5,66.39ZM34.35,3A29.34,29.34,0,0,0,9.92,48.57,1.5,1.5,0,0,1,10,50L4.58,61.8l11.69-5.41a1.48,1.48,0,0,1,1.48.12A29.33,29.33,0,1,0,34.35,3Z"/></g></g></svg>