<svg xmlns="http://www.w3.org/2000/svg" viewBox="0 0 103.85 102.43"><defs><style>.cls-1{fill:#474747;}</style></defs><title>Asset 2006</title><g id="Layer_2" data-name="Layer 2"><g id="Layer_1-2" data-name="Layer 1"><path class="cls-1" d="M102.35,28.26H1.53A1.5,1.5,0,0,1,0,26.76V13.51A1.5,1.5,0,0,1,1.53,12H102.35a1.5,1.5,0,0,1,1.5,1.5V26.76A1.5,1.5,0,0,1,102.35,28.26ZM3,25.26h97.82V15H3Z"/><path class="cls-1" d="M102.32,102.43H1.5a1.5,1.5,0,0,1-1.5-1.5V26.76a1.5,1.5,0,0,1,1.5-1.5H102.32a1.5,1.5,0,0,1,1.5,1.5v74.17A1.5,1.5,0,0,1,102.32,102.43ZM3,99.43h97.82V28.26H3Z"/><path class="cls-1" d="M10.17,21.64a1.49,1.49,0,0,1-1.38-2.08,1.26,1.26,0,0,1,.13-.26,2.11,2.11,0,0,1,.19-.23,2,2,0,0,1,.23-.18,1.3,1.3,0,0,1,.26-.14.9.9,0,0,1,.28-.08,1.42,1.42,0,0,1,.58,0,.9.9,0,0,1,.28.08,1.08,1.08,0,0,1,.26.14,1.41,1.41,0,0,1,.23.18,1.54,1.54,0,0,1,.44,1.07,1.52,1.52,0,0,1-.44,1.06,1.41,1.41,0,0,1-.23.18,1.08,1.08,0,0,1-.26.14,1.31,1.31,0,0,1-.28.09A1.36,1.36,0,0,1,10.17,21.64Z"/><path class="cls-1" d="M18.27,20.14a1.5,1.5,0,0,1,1.49-1.51h0a1.52,1.52,0,0,1,1.51,1.51h0a1.51,1.51,0,0,1-1.51,1.5h0A1.5,1.5,0,0,1,18.27,20.14Z"/><path class="cls-1" d="M29.36,21.64a1.36,1.36,0,0,1-.29,0,1.69,1.69,0,0,1-.77-.41,1.51,1.51,0,0,1,0-2.13,2,2,0,0,1,.23-.18,1.3,1.3,0,0,1,.26-.14.9.9,0,0,1,.28-.08,1.42,1.42,0,0,1,.58,0,.9.9,0,0,1,.28.08,1.3,1.3,0,0,1,.26.14,2,2,0,0,1,.23.18,1.54,1.54,0,0,1,.44,1.07,1.41,1.41,0,0,1-.12.57,1.26,1.26,0,0,1-.13.26,2.11,2.11,0,0,1-.19.23,1.65,1.65,0,0,1-.77.41A1.36,1.36,0,0,1,29.36,21.64Z"/><path class="cls-1" d="M87.07,67.33H18a1.5,1.5,0,0,1-1.5-1.5v-16a1.5,1.5,0,0,1,1.5-1.5H87.07a1.5,1.5,0,0,1,1.5,1.5v16A1.5,1.5,0,0,1,87.07,67.33Zm-67.56-3H85.57v-13H19.51Z"/><path class="cls-1" d="M24.23,59.32a1.5,1.5,0,0,1-1.06-.44,2.11,2.11,0,0,1-.19-.23,2.15,2.15,0,0,1-.14-.26,2.29,2.29,0,0,1-.08-.28,1.36,1.36,0,0,1,0-.29,1.5,1.5,0,0,1,.44-1.06,1.55,1.55,0,0,1,2.12,0,1.52,1.52,0,0,1,.44,1.06,1.36,1.36,0,0,1,0,.29,1.31,1.31,0,0,1-.09.28,1.26,1.26,0,0,1-.13.26,2.11,2.11,0,0,1-.19.23A1.52,1.52,0,0,1,24.23,59.32Z"/><path class="cls-1" d="M67.9,57.82a1.5,1.5,0,0,1,1.5-1.5h0a1.5,1.5,0,0,1,1.5,1.5h0a1.5,1.5,0,0,1-1.5,1.5h0A1.5,1.5,0,0,1,67.9,57.82Zm-11.29,0a1.5,1.5,0,0,1,1.5-1.5h0a1.5,1.5,0,0,1,1.5,1.5h0a1.5,1.5,0,0,1-1.5,1.5h0A1.5,1.5,0,0,1,56.61,57.82Zm-11.29,0a1.5,1.5,0,0,1,1.49-1.5h0a1.5,1.5,0,0,1,1.5,1.5h0a1.5,1.5,0,0,1-1.5,1.5h0A1.5,1.5,0,0,1,45.32,57.82Zm-11.3,0a1.5,1.5,0,0,1,1.5-1.5h0a1.5,1.5,0,0,1,1.5,1.5h0a1.5,1.5,0,0,1-1.5,1.5h0A1.5,1.5,0,0,1,34,57.82Z"/><path class="cls-1" d="M80.69,59.32a1.43,1.43,0,0,1-.29,0,1.31,1.31,0,0,1-.28-.09,1.26,1.26,0,0,1-.26-.13,2.11,2.11,0,0,1-.23-.19,1.65,1.65,0,0,1-.41-.77,1.43,1.43,0,0,1,0-.29,1.36,1.36,0,0,1,0-.29,1.61,1.61,0,0,1,.09-.29,1.23,1.23,0,0,1,.14-.25,1,1,0,0,1,.18-.23,2.11,2.11,0,0,1,.23-.19l.26-.14.28-.08a1.5,1.5,0,0,1,1.35.41,1.06,1.06,0,0,1,.19.23,2,2,0,0,1,.14.25,1.57,1.57,0,0,1,.08.29,1.42,1.42,0,0,1,0,.58,1.29,1.29,0,0,1-.08.28,2.15,2.15,0,0,1-.14.26,1.37,1.37,0,0,1-.19.23,1.45,1.45,0,0,1-.23.19,1.19,1.19,0,0,1-.25.13,1.41,1.41,0,0,1-.58.12Z"/><path class="cls-1" d="M86.85,90h-69a1.5,1.5,0,0,1-1.5-1.5v-16a1.5,1.5,0,0,1,1.5-1.5H86.85a1.5,1.5,0,0,1,1.5,1.5v16A1.5,1.5,0,0,1,86.85,90ZM19.3,87H85.35v-13h-66Z"/><path class="cls-1" d="M24,82a1.43,1.43,0,0,1-.29,0,1.69,1.69,0,0,1-.77-.41,1.51,1.51,0,0,1,0-2.13,2,2,0,0,1,.23-.18l.26-.14a1.29,1.29,0,0,1,.28-.08,1.5,1.5,0,0,1,1.35,2.53A1.5,1.5,0,0,1,24,82Z"/><path class="cls-1" d="M46.89,80.45a1.5,1.5,0,0,1,1.5-1.5h0a1.5,1.5,0,0,1,1.5,1.5h0a1.5,1.5,0,0,1-1.5,1.5h0A1.5,1.5,0,0,1,46.89,80.45Zm-12.19,0A1.5,1.5,0,0,1,36.2,79h0a1.5,1.5,0,0,1,1.5,1.5h0A1.5,1.5,0,0,1,36.2,82h0A1.5,1.5,0,0,1,34.7,80.45Z"/><path class="cls-1" d="M60.58,82a1.5,1.5,0,0,1-1.5-1.5,1.48,1.48,0,0,1,.44-1.06,1.55,1.55,0,0,1,2.12,0,1.48,1.48,0,0,1,.44,1.06,1.52,1.52,0,0,1-.44,1.06A1.48,1.48,0,0,1,60.58,82Z"/><path class="cls-1" d="M73.89,46.31A10.79,10.79,0,0,1,63.11,35.53V32.76a1.5,1.5,0,0,1,3,0v2.77a7.78,7.78,0,0,0,15.56,0V1.5a1.5,1.5,0,0,1,3,0v34A10.8,10.8,0,0,1,73.89,46.31Z"/><path class="cls-1" d="M69.33,38.22a1.53,1.53,0,0,1-1.06-.44L64.48,34,60.7,37.78a1.51,1.51,0,0,1-2.13-2.13l4.85-4.84a1.5,1.5,0,0,1,2.13,0l4.85,4.84a1.51,1.51,0,0,1-1.07,2.57Z"/></g></g></svg>