<svg xmlns="http://www.w3.org/2000/svg" viewBox="0 0 102.25 103.15"><defs><style>.cls-1{fill:#474747;}</style></defs><title>Asset 2014</title><g id="Layer_2" data-name="Layer 2"><g id="Layer_1-2" data-name="Layer 1"><path class="cls-1" d="M82.94,70.72h0a1.49,1.49,0,0,1-1.3-.75l-4.47-7.74h-12a1.5,1.5,0,0,1-1.5-1.5V33.9a1.5,1.5,0,0,1,1.5-1.5h35.63a1.5,1.5,0,0,1,1.5,1.5V60.73a1.5,1.5,0,0,1-1.5,1.5h-12L84.24,70A1.5,1.5,0,0,1,82.94,70.72ZM66.62,59.23H78a1.48,1.48,0,0,1,1.3.75l3.61,6.24L86.54,60a1.5,1.5,0,0,1,1.3-.75H99.25V35.4H66.62Z"/><path class="cls-1" d="M88.86,55.67a1.53,1.53,0,0,1-1.06-.44L75.64,43.06a1.49,1.49,0,0,1,0-2.12,1.51,1.51,0,0,1,2.12,0L89.92,53.11a1.5,1.5,0,0,1-1.06,2.56Z"/><path class="cls-1" d="M76.7,55.67a1.5,1.5,0,0,1-1.06-2.56L87.8,40.94a1.51,1.51,0,0,1,2.12,0,1.49,1.49,0,0,1,0,2.12L77.76,55.23A1.51,1.51,0,0,1,76.7,55.67Z"/><path class="cls-1" d="M28.22,17.39c-14,0-28.22-3-28.22-8.7a2.28,2.28,0,0,1,0-.26C.4,2.65,14.9,0,28.22,0S56,2.64,56.41,8.44a2.5,2.5,0,0,1,0,.25C56.43,14.4,42.24,17.39,28.22,17.39ZM3,8.74c.14,1.94,9,5.65,25.22,5.65s25.09-3.71,25.21-5.65V8.67h0c-.13-2-8.9-5.66-25.2-5.66S3.14,6.69,3,8.66C3,8.68,3,8.71,3,8.74Z"/><path class="cls-1" d="M28.22,80.61c-14,0-28.22-3-28.22-8.69V8.69a1.5,1.5,0,0,1,3,0c0,1.94,8.9,5.7,25.22,5.7s25.21-3.76,25.21-5.7a1.5,1.5,0,1,1,3,0V71.92C56.43,77.63,42.24,80.61,28.22,80.61ZM3,12.83V71.92c0,1.93,8.9,5.69,25.22,5.69s25.21-3.76,25.21-5.69V12.83c-4.9,3-15.1,4.56-25.21,4.56S7.9,15.84,3,12.83Z"/><path class="cls-1" d="M28.22,39C14.19,39,0,36,0,30.3a1.5,1.5,0,0,1,3,0C3,32.24,11.9,36,28.22,36s25.21-3.76,25.21-5.7a1.5,1.5,0,0,1,3,0C56.43,36,42.24,39,28.22,39Z"/><path class="cls-1" d="M28.22,61.12c-14,0-28.22-3-28.22-8.69a1.5,1.5,0,0,1,3,0c0,1.93,8.9,5.69,25.22,5.69s25.21-3.76,25.21-5.69a1.5,1.5,0,0,1,3,0C56.43,58.13,42.24,61.12,28.22,61.12Z"/><path class="cls-1" d="M28.81,103.15a7.46,7.46,0,1,1,7.46-7.46A7.47,7.47,0,0,1,28.81,103.15Zm0-11.92a4.46,4.46,0,1,0,4.46,4.46A4.46,4.46,0,0,0,28.81,91.23Z"/><path class="cls-1" d="M28.64,91.23a1.5,1.5,0,0,1-1.5-1.49l-.08-10.62a1.5,1.5,0,0,1,3,0l.08,10.62a1.5,1.5,0,0,1-1.49,1.51Z"/><path class="cls-1" d="M82.94,97.19H34.77a1.5,1.5,0,0,1,0-3H81.44V68.38a1.5,1.5,0,0,1,3,0V95.69A1.5,1.5,0,0,1,82.94,97.19Z"/><path class="cls-1" d="M82.94,35.4a1.5,1.5,0,0,1-1.5-1.5V15H55.29a1.5,1.5,0,0,1,0-3H82.94a1.5,1.5,0,0,1,1.5,1.5V33.9A1.5,1.5,0,0,1,82.94,35.4Z"/></g></g></svg>