<svg xmlns="http://www.w3.org/2000/svg" viewBox="0 0 103.25 103.91"><defs><style>.cls-1{fill:#474747;}</style></defs><title>Asset 2013</title><g id="Layer_2" data-name="Layer 2"><g id="Layer_1-2" data-name="Layer 1"><path class="cls-1" d="M8.37,10.39A1.5,1.5,0,0,1,7.31,10a1.45,1.45,0,0,1-.19-.23A1.3,1.3,0,0,1,7,9.46a2.29,2.29,0,0,1-.08-.28.92.92,0,0,1,0-.29.92.92,0,0,1,0-.29A2.29,2.29,0,0,1,7,8.32a1.3,1.3,0,0,1,.14-.26,2.11,2.11,0,0,1,.19-.23,1.11,1.11,0,0,1,.23-.19,2,2,0,0,1,.25-.14l.29-.08a1.42,1.42,0,0,1,.58,0l.28.08.26.14.23.19a1.52,1.52,0,0,1,.44,1.06,1.35,1.35,0,0,1,0,.29,1.29,1.29,0,0,1-.08.28,1.26,1.26,0,0,1-.13.26,1.45,1.45,0,0,1-.19.23l-.23.19-.26.14-.28.08A1.43,1.43,0,0,1,8.37,10.39Z"/><path class="cls-1" d="M19,8.89a1.5,1.5,0,0,1,1.5-1.5h0A1.5,1.5,0,0,1,22,8.89h0a1.5,1.5,0,0,1-1.5,1.5h0A1.5,1.5,0,0,1,19,8.89Z"/><path class="cls-1" d="M32.73,10.39A1.5,1.5,0,0,1,31.67,10a2.11,2.11,0,0,1-.19-.23.91.91,0,0,1-.13-.26,1.33,1.33,0,0,1-.1-.28,2.64,2.64,0,0,1,0-.29,1.5,1.5,0,0,1,.44-1.06,1.5,1.5,0,0,1,2.56,1.06,1.36,1.36,0,0,1,0,.29.94.94,0,0,1-.1.28,1.23,1.23,0,0,1-.12.26l-.19.23A1.53,1.53,0,0,1,32.73,10.39Z"/><path class="cls-1" d="M101.75,17.82H1.58a1.5,1.5,0,0,1-1.5-1.5V1.5A1.5,1.5,0,0,1,1.58,0H101.75a1.5,1.5,0,0,1,1.5,1.5V16.32A1.5,1.5,0,0,1,101.75,17.82Zm-98.67-3h97.17V3H3.08Z"/><path class="cls-1" d="M88.65,87.63H14.52a1.52,1.52,0,0,1-1.3-.75,1.54,1.54,0,0,1,0-1.5l37.07-64.2a1.5,1.5,0,0,1,2.6,0L90,85.38a1.49,1.49,0,0,1,0,1.5A1.51,1.51,0,0,1,88.65,87.63Zm-71.53-3H86.05L51.59,24.93Zm59.09-4.19H27a1.5,1.5,0,0,1-1.3-.75,1.54,1.54,0,0,1,0-1.5L50.29,35.55a1.5,1.5,0,0,1,2.6,0L77.51,78.19a1.5,1.5,0,0,1-1.3,2.25Zm-46.65-3H73.61l-22-38.14Z"/><path class="cls-1" d="M90,103.91H1.5a1.5,1.5,0,0,1-1.5-1.5V16.16a1.5,1.5,0,0,1,1.5-1.5H101.67a1.5,1.5,0,0,1,1.5,1.5V90.71a1.5,1.5,0,0,1-1.5,1.5H91.47v10.2A1.5,1.5,0,0,1,90,103.91Zm-87-3H88.47V90.71a1.5,1.5,0,0,1,1.5-1.5h10.2V17.66H3Z"/><path class="cls-1" d="M90,103.91a1.65,1.65,0,0,1-.57-.11,1.5,1.5,0,0,1-.92-1.39V90.71a1.5,1.5,0,0,1,1.5-1.5h11.7a1.5,1.5,0,0,1,1.39.92,1.51,1.51,0,0,1-.33,1.64L91,103.47A1.5,1.5,0,0,1,90,103.91Zm1.51-11.7v6.58l6.58-6.58Z"/><path class="cls-1" d="M52,69.34a1.5,1.5,0,0,1-1.5-1.5V51a1.5,1.5,0,0,1,3,0V67.84A1.5,1.5,0,0,1,52,69.34Z"/><path class="cls-1" d="M50.46,72.59a1.49,1.49,0,0,1,1.5-1.5h0a1.5,1.5,0,0,1,1.5,1.5h0a1.5,1.5,0,0,1-1.5,1.5h0A1.5,1.5,0,0,1,50.46,72.59Z"/></g></g></svg>