<svg xmlns="http://www.w3.org/2000/svg" viewBox="0 0 104.81 104.81"><defs><style>.cls-1{fill:#474747;}</style></defs><title>Asset 2021</title><g id="Layer_2" data-name="Layer 2"><g id="Layer_1-2" data-name="Layer 1"><path class="cls-1" d="M71.13,53.34a1.51,1.51,0,0,1-.91-.3L64.8,49,59.38,53A1.5,1.5,0,0,1,57,52.28l-2-6.49-6.78.12A1.53,1.53,0,0,1,47,45.29a1.5,1.5,0,0,1-.21-1.37l2.58-7.49a1.5,1.5,0,1,1,2.83,1l-1.87,5.46,5.77-.1a1.54,1.54,0,0,1,1.46,1.06l1.69,5.52,4.61-3.48a1.52,1.52,0,0,1,1.81,0l4.61,3.48L72,43.83a1.57,1.57,0,0,1,1.46-1.06l5.78.1-1.88-5.46a1.5,1.5,0,1,1,2.84-1l2.57,7.49a1.49,1.49,0,0,1-.2,1.37,1.56,1.56,0,0,1-1.24.62l-6.79-.12-2,6.49a1.48,1.48,0,0,1-1.43,1.06Z"/><path class="cls-1" d="M78.78,29.33a1.4,1.4,0,0,1-.49-.08,1.5,1.5,0,0,1-.93-1.9l1.88-5.46-5.78.1A1.54,1.54,0,0,1,72,20.93L70.32,15.4l-4.61,3.48a1.49,1.49,0,0,1-1.81,0L59.29,15.4,57.6,20.93A1.51,1.51,0,0,1,56.14,22l-5.77-.1,1.87,5.46a1.5,1.5,0,0,1-2.83,1l-2.58-7.48A1.49,1.49,0,0,1,47,19.47a1.54,1.54,0,0,1,1.24-.62l6.78.12,2-6.49a1.51,1.51,0,0,1,1-1,1.45,1.45,0,0,1,1.36.23l5.42,4.09,5.42-4.09a1.5,1.5,0,0,1,2.34.76l2,6.49,6.79-.12a1.56,1.56,0,0,1,1.24.62,1.48,1.48,0,0,1,.2,1.37L80.2,28.32A1.51,1.51,0,0,1,78.78,29.33Z"/><path class="cls-1" d="M81.59,93H28.22a19.15,19.15,0,0,1,0-38.29H78.57a8.58,8.58,0,0,0,0-17.14H53.71a45.5,45.5,0,0,0-18.86,4.35,21.91,21.91,0,0,1-9,1.87C16.53,43.79,9,38.33,9,31.61s7.57-12.18,16.88-12.18a21.38,21.38,0,0,1,9.93,2.32A43.47,43.47,0,0,0,56,27H78.57a19.14,19.14,0,0,1,0,38.28H28.22a8.58,8.58,0,0,0,0,17.14H81.8A5.3,5.3,0,0,1,87.08,88,5.4,5.4,0,0,1,81.59,93ZM28.22,57.71a16.15,16.15,0,0,0,0,32.29H81.59a2.43,2.43,0,0,0,2.49-2.17,2.25,2.25,0,0,0-.62-1.69,2.29,2.29,0,0,0-1.66-.72H28.22a11.58,11.58,0,0,1,0-23.14H78.57a16.15,16.15,0,0,0,0-32.28H56a46.3,46.3,0,0,1-21.57-5.6,18.59,18.59,0,0,0-8.54-2C18.19,22.43,12,26.55,12,31.61s6.23,9.18,13.88,9.18a18.84,18.84,0,0,0,7.77-1.6,48.44,48.44,0,0,1,20.1-4.62H78.57a11.58,11.58,0,0,1,0,23.14Z"/><path class="cls-1" d="M27.76,27.2a1.51,1.51,0,0,1,1.5-1.5h0a1.51,1.51,0,0,1,1.51,1.5h0a1.51,1.51,0,0,1-1.51,1.5h0A1.5,1.5,0,0,1,27.76,27.2Z"/><path class="cls-1" d="M29.27,35.47H10.84a1.5,1.5,0,0,1,0-3H29.27a1.5,1.5,0,0,1,0,3Z"/><path class="cls-1" d="M18.45,38a1.5,1.5,0,0,1-1.5-1.5V34.25a1.5,1.5,0,0,1,3,0v2.26A1.5,1.5,0,0,1,18.45,38Z"/><path class="cls-1" d="M25.22,38a1.5,1.5,0,0,1-1.5-1.5V34.25a1.5,1.5,0,0,1,3,0v2.26A1.5,1.5,0,0,1,25.22,38Z"/><path class="cls-1" d="M103.31,104.81H1.5a1.5,1.5,0,0,1-1.5-1.5V1.5A1.5,1.5,0,0,1,1.5,0H86.4a1.5,1.5,0,0,1,1.5,1.5V16.92h15.41a1.5,1.5,0,0,1,1.5,1.5v84.89A1.5,1.5,0,0,1,103.31,104.81ZM3,101.81h98.81V19.92H86.4a1.5,1.5,0,0,1-1.5-1.5V3H3Z"/><path class="cls-1" d="M103.31,19.92H86.4a1.5,1.5,0,0,1-1.5-1.5V1.5A1.5,1.5,0,0,1,87.46.44l16.91,16.92a1.5,1.5,0,0,1-1.06,2.56Zm-15.41-3H99.69L87.9,5.12Z"/></g></g></svg>