<svg xmlns="http://www.w3.org/2000/svg" viewBox="0 0 102.21 103.75"><defs><style>.cls-1{fill:#474747;}</style></defs><title>Asset 2011</title><g id="Layer_2" data-name="Layer 2"><g id="Layer_1-2" data-name="Layer 1"><path class="cls-1" d="M11.69,67.39a1.58,1.58,0,0,1-.52-.09,1.5,1.5,0,0,1-1-1.41V53H1.5A1.5,1.5,0,0,1,0,51.45V1.5A1.5,1.5,0,0,1,1.5,0H67.86a1.5,1.5,0,0,1,1.5,1.5V41.86a1.5,1.5,0,0,1-1.5,1.5H41.28v8.09a1.5,1.5,0,0,1-1.5,1.5H24.65L12.83,66.86A1.5,1.5,0,0,1,11.69,67.39ZM3,50h8.69a1.5,1.5,0,0,1,1.5,1.5V61.81l9.62-11.33A1.52,1.52,0,0,1,24,50H38.28V41.86a1.5,1.5,0,0,1,1.5-1.5H66.36V3H3Z"/><path class="cls-1" d="M70.25,103.75A1.5,1.5,0,0,1,69,103L61,89.22H39.78a1.5,1.5,0,0,1-1.5-1.5V41.86a1.5,1.5,0,0,1,1.5-1.5h60.93a1.5,1.5,0,0,1,1.5,1.5V87.72a1.5,1.5,0,0,1-1.5,1.5H79.5l-8,13.78A1.49,1.49,0,0,1,70.25,103.75Zm-29-17.53H61.86a1.51,1.51,0,0,1,1.3.75l7.09,12.28L77.33,87a1.51,1.51,0,0,1,1.3-.75H99.21V43.36H41.28Z"/><path class="cls-1" d="M70.25,77.5A11.62,11.62,0,1,1,81.86,65.89,11.63,11.63,0,0,1,70.25,77.5Zm0-20.23a8.62,8.62,0,1,0,8.61,8.62A8.63,8.63,0,0,0,70.25,57.27Z"/><path class="cls-1" d="M66.75,81.29a1.5,1.5,0,0,1-1.14-1.79h0a1.5,1.5,0,0,1,1.8-1.13h0a1.5,1.5,0,0,1,1.13,1.79h0a1.5,1.5,0,0,1-1.46,1.17h0A1.24,1.24,0,0,1,66.75,81.29ZM78,78a1.49,1.49,0,0,1,.23-2.1h0a1.51,1.51,0,0,1,2.11.24h0a1.51,1.51,0,0,1-.23,2.11h0a1.52,1.52,0,0,1-.94.33h0A1.49,1.49,0,0,1,78,78ZM56,72.77a1.5,1.5,0,0,1,.7-2h0a1.5,1.5,0,0,1,2,.7h0a1.5,1.5,0,0,1-.69,2h0a1.58,1.58,0,0,1-.66.15h0A1.51,1.51,0,0,1,56,72.77Zm27-6.88v0h0v0h0a1.49,1.49,0,0,1,1.49-1.5h0A1.48,1.48,0,0,1,86,65.82h0v0h0v0h0a1.5,1.5,0,0,1-1.49,1.5h0A1.5,1.5,0,0,1,83,65.89ZM56.7,61.07a1.5,1.5,0,0,1-.71-2h0a1.5,1.5,0,0,1,2-.71h0a1.5,1.5,0,0,1,.71,2h0a1.51,1.51,0,0,1-1.36.85h0A1.48,1.48,0,0,1,56.7,61.07Zm21.48-5.22a1.48,1.48,0,0,1-.24-2.1h0a1.51,1.51,0,0,1,2.11-.25h0a1.5,1.5,0,0,1,.24,2.11h0a1.51,1.51,0,0,1-1.18.57h0A1.51,1.51,0,0,1,78.18,55.85ZM65.56,52.29a1.48,1.48,0,0,1,1.12-1.79h0a1.49,1.49,0,0,1,1.8,1.12h0a1.5,1.5,0,0,1-1.12,1.8h0a2.09,2.09,0,0,1-.34,0h0A1.5,1.5,0,0,1,65.56,52.29Z"/><path class="cls-1" d="M35.82,33.36c-8.89,0-18.34-2.78-18.34-7.94s9.45-7.94,18.34-7.94,18.34,2.79,18.34,7.94S44.71,33.36,35.82,33.36Zm0-12.88c-9.37,0-15.34,2.93-15.34,4.94s6,4.94,15.34,4.94,15.34-2.93,15.34-4.94S45.19,20.48,35.82,20.48Z"/><path class="cls-1" d="M19,26.92H13.89a1.5,1.5,0,0,1,0-3H19a1.5,1.5,0,1,1,0,3Z"/><path class="cls-1" d="M58,26.92H52.66a1.5,1.5,0,0,1,0-3H58a1.5,1.5,0,1,1,0,3Z"/><path class="cls-1" d="M35.82,20.48a1.5,1.5,0,0,1-1.5-1.5V13.81a1.5,1.5,0,0,1,3,0V19A1.5,1.5,0,0,1,35.82,20.48Z"/><path class="cls-1" d="M35.82,38.53a1.5,1.5,0,0,1-1.5-1.5V31.86a1.5,1.5,0,0,1,3,0V37A1.5,1.5,0,0,1,35.82,38.53Z"/><path class="cls-1" d="M26.56,21.46A1.53,1.53,0,0,1,25.5,21l-3.65-3.66a1.49,1.49,0,0,1,0-2.12,1.51,1.51,0,0,1,2.12,0l3.65,3.66a1.5,1.5,0,0,1-1.06,2.56Z"/><path class="cls-1" d="M47.64,36.58a1.51,1.51,0,0,1-1.06-.44l-3.66-3.66A1.5,1.5,0,0,1,45,30.36L48.7,34a1.49,1.49,0,0,1,0,2.12A1.51,1.51,0,0,1,47.64,36.58Z"/><path class="cls-1" d="M44.13,21.31a1.5,1.5,0,0,1-1.06-2.56l3.66-3.66a1.51,1.51,0,0,1,2.12,0,1.49,1.49,0,0,1,0,2.12l-3.66,3.66A1.49,1.49,0,0,1,44.13,21.31Z"/><path class="cls-1" d="M22.91,36.58A1.5,1.5,0,0,1,21.85,34l3.65-3.66a1.51,1.51,0,0,1,2.12,0,1.49,1.49,0,0,1,0,2.12L24,36.14A1.53,1.53,0,0,1,22.91,36.58Z"/><path class="cls-1" d="M26.34,26.92l-.29,0-.28-.08-.26-.14a2.11,2.11,0,0,1-.23-.19,1,1,0,0,1-.18-.23,1.61,1.61,0,0,1-.23-.54,1.36,1.36,0,0,1,0-.29,1.5,1.5,0,0,1,.44-1.06,2.11,2.11,0,0,1,.23-.19,1.26,1.26,0,0,1,.26-.13,1.31,1.31,0,0,1,.28-.09,1.47,1.47,0,0,1,.59,0,1.52,1.52,0,0,1,.28.09,1.58,1.58,0,0,1,.26.13l.22.19a1.52,1.52,0,0,1,.44,1.06,1.36,1.36,0,0,1,0,.29.9.9,0,0,1-.08.28,2.15,2.15,0,0,1-.14.26,1.06,1.06,0,0,1-.19.23A1.48,1.48,0,0,1,26.34,26.92Z"/><path class="cls-1" d="M34,25.42a1.5,1.5,0,0,1,1.5-1.5h0a1.5,1.5,0,0,1,1.5,1.5h0a1.5,1.5,0,0,1-1.5,1.5h0A1.5,1.5,0,0,1,34,25.42Z"/><path class="cls-1" d="M44.68,26.92a1.53,1.53,0,0,1-.3,0l-.28-.08-.26-.14-.22-.19a1.06,1.06,0,0,1-.19-.23,2.15,2.15,0,0,1-.14-.26,1.29,1.29,0,0,1-.08-.28,1.36,1.36,0,0,1,0-.29A1.5,1.5,0,0,1,45,24a1.31,1.31,0,0,1,.28.09,1.26,1.26,0,0,1,.26.13,2.11,2.11,0,0,1,.23.19,1.52,1.52,0,0,1,.44,1.06,1.36,1.36,0,0,1,0,.29,1.61,1.61,0,0,1-.23.54,1,1,0,0,1-.18.23A1.52,1.52,0,0,1,44.68,26.92Z"/></g></g></svg>