<svg xmlns="http://www.w3.org/2000/svg" viewBox="0 0 101.16 103.9"><defs><style>.cls-1{fill:#474747;}</style></defs><title>Asset 2026</title><g id="Layer_2" data-name="Layer 2"><g id="Layer_1-2" data-name="Layer 1"><path class="cls-1" d="M8.22,8.11a1.47,1.47,0,0,1-1.06-.44,1.5,1.5,0,0,1-.44-1.06,1.52,1.52,0,0,1,.44-1.06,1.3,1.3,0,0,1,.23-.18.94.94,0,0,1,.26-.14,1.31,1.31,0,0,1,.28-.09A1.5,1.5,0,0,1,9.72,6.61a1.5,1.5,0,0,1-1.5,1.5Z"/><path class="cls-1" d="M18.65,6.61a1.5,1.5,0,0,1,1.5-1.5h0a1.5,1.5,0,0,1,1.5,1.5h0a1.5,1.5,0,0,1-1.5,1.5h0A1.5,1.5,0,0,1,18.65,6.61Z"/><path class="cls-1" d="M32.08,8.11A1.47,1.47,0,0,1,31,7.67a1.47,1.47,0,0,1-.43-1.06c0-.09,0-.19,0-.29a1.61,1.61,0,0,1,.23-.54A2,2,0,0,1,31,5.55a1.55,1.55,0,0,1,2.12,0,1.52,1.52,0,0,1,.44,1.06,1.5,1.5,0,0,1-1.49,1.5Z"/><path class="cls-1" d="M99.66,13.26H1.58a1.5,1.5,0,0,1-1.5-1.5V1.5A1.5,1.5,0,0,1,1.58,0H99.66a1.5,1.5,0,0,1,1.5,1.5V11.76A1.51,1.51,0,0,1,99.66,13.26Zm-96.58-3H98.16V3H3.08Z"/><path class="cls-1" d="M91.12,72.82H75.31a1.5,1.5,0,0,1-1.5-1.5V33.2H63.57a1.5,1.5,0,0,1-1.5-1.5V29.26H39.33V31.7a1.5,1.5,0,0,1-1.5,1.5H27.58V71.32a1.5,1.5,0,0,1-1.5,1.5H1.5A1.5,1.5,0,0,1,0,71.32V11.64a1.5,1.5,0,0,1,1.5-1.5H99.58a1.5,1.5,0,0,1,1.5,1.5V63.22a1.5,1.5,0,0,1-1.5,1.5h-7v6.6A1.5,1.5,0,0,1,91.12,72.82Zm-14.31-3H89.62v-6.6a1.5,1.5,0,0,1,1.5-1.5h7V13.14H3V69.82H24.58V31.7a1.5,1.5,0,0,1,1.5-1.5H36.33V27.76a1.5,1.5,0,0,1,1.5-1.5H63.57a1.51,1.51,0,0,1,1.5,1.5V30.2H75.31a1.5,1.5,0,0,1,1.5,1.5Z"/><path class="cls-1" d="M91.12,72.82a1.5,1.5,0,0,1-1.5-1.5v-8.1a1.5,1.5,0,0,1,1.5-1.5h8.46a1.5,1.5,0,0,1,1,2.58l-8.46,8.1A1.48,1.48,0,0,1,91.12,72.82Zm1.5-8.1v3.09l3.22-3.09Z"/><path class="cls-1" d="M50.7,103.9a1.52,1.52,0,0,1-.66-.15L31.11,94.53a11.69,11.69,0,0,1-6.53-10.45V31.7a1.5,1.5,0,0,1,1.5-1.5H36.33V27.76a1.5,1.5,0,0,1,1.5-1.5H63.57a1.51,1.51,0,0,1,1.5,1.5V30.2H75.31a1.5,1.5,0,0,1,1.5,1.5V84.08a11.69,11.69,0,0,1-6.53,10.45l-18.93,9.22A1.51,1.51,0,0,1,50.7,103.9ZM27.58,33.2V84.08a8.66,8.66,0,0,0,4.84,7.75l18.28,8.9L69,91.83a8.66,8.66,0,0,0,4.84-7.75V33.2H63.57a1.5,1.5,0,0,1-1.5-1.5V29.26H39.33V31.7a1.5,1.5,0,0,1-1.5,1.5Z"/><path class="cls-1" d="M54.13,77.33H47a1.5,1.5,0,0,1-1.5-1.5V67.19H36.8a1.5,1.5,0,0,1-1.5-1.5V58.5A1.5,1.5,0,0,1,36.8,57h8.65V48.36a1.5,1.5,0,0,1,1.5-1.5h7.18a1.5,1.5,0,0,1,1.5,1.5V57h8.65a1.5,1.5,0,0,1,1.5,1.5v7.19a1.5,1.5,0,0,1-1.5,1.5H55.63v8.64A1.5,1.5,0,0,1,54.13,77.33Zm-5.68-3h4.18V65.69a1.5,1.5,0,0,1,1.5-1.5h8.65V60H54.13a1.5,1.5,0,0,1-1.5-1.5V49.86H48.45V58.5A1.5,1.5,0,0,1,47,60H38.3v4.19H47a1.5,1.5,0,0,1,1.5,1.5Z"/></g></g></svg>