<svg xmlns="http://www.w3.org/2000/svg" viewBox="0 0 101.79 102.19"><defs><style>.cls-1{fill:#474747;}</style></defs><title>Asset 2012</title><g id="Layer_2" data-name="Layer 2"><g id="Layer_1-2" data-name="Layer 1"><path class="cls-1" d="M9,9.7a1.52,1.52,0,0,1-1.07-.44A1.55,1.55,0,0,1,7.48,8.2a1.53,1.53,0,0,1,0-.3,1,1,0,0,1,.08-.28,1.3,1.3,0,0,1,.14-.26,2,2,0,0,1,.18-.23,1.57,1.57,0,0,1,2.13,0A1.51,1.51,0,0,1,9,9.7Z"/><path class="cls-1" d="M19.54,8.2A1.5,1.5,0,0,1,21,6.7h0a1.5,1.5,0,0,1,1.5,1.5h0A1.5,1.5,0,0,1,21,9.69h0A1.5,1.5,0,0,1,19.54,8.2Z"/><path class="cls-1" d="M33.1,9.7A1.51,1.51,0,0,1,32,7.13a1.57,1.57,0,0,1,2.12,0,1.51,1.51,0,0,1,0,2.13A1.5,1.5,0,0,1,33.1,9.7Z"/><path class="cls-1" d="M1.5,91.63A1.5,1.5,0,0,1,0,90.13V1.5A1.5,1.5,0,0,1,1.5,0H90.83a1.5,1.5,0,0,1,1.5,1.5V85.24a1.5,1.5,0,0,1-3,0V3H3V90.13A1.5,1.5,0,0,1,1.5,91.63Z"/><path class="cls-1" d="M13.81,102.19q-.66,0-1.32-.06C5.37,101.54,0,96.34,0,90.05a1.5,1.5,0,0,1,3,0c0,4.72,4.19,8.63,9.74,9.09.35,0,.71,0,1.07,0,6,0,10.82-4.1,10.82-9.14V85.24a1.5,1.5,0,0,1,3,0v4.81C27.63,96.74,21.43,102.19,13.81,102.19Z"/><path class="cls-1" d="M88,102.19H13.81a1.5,1.5,0,0,1,0-3c6,0,10.82-4.1,10.82-9.14V85.24a1.5,1.5,0,0,1,1.5-1.5h74.15a1.5,1.5,0,0,1,1.5,1.5v4.81C101.79,96.74,95.59,102.19,88,102.19Zm-65.08-3H88c6,0,10.82-4.1,10.82-9.14V86.74H27.63v3.31A11.57,11.57,0,0,1,22.89,99.19Z"/><path class="cls-1" d="M90.51,16.36H1.5a1.5,1.5,0,0,1,0-3h89a1.5,1.5,0,0,1,0,3Z"/><path class="cls-1" d="M50.43,74.65c-6.45,0-11.7-6.58-11.7-14.67a17.11,17.11,0,0,1,2.66-9.29,12.44,12.44,0,0,1,4.07-4,1.5,1.5,0,0,1,1.8.22,4.57,4.57,0,0,0,6.34,0,1.5,1.5,0,0,1,1.8-.22,12.44,12.44,0,0,1,4.07,4h0A17,17,0,0,1,62.13,60C62.13,68.07,56.88,74.65,50.43,74.65Zm-4.3-24.78a10,10,0,0,0-2.23,2.46A14.06,14.06,0,0,0,41.73,60c0,6.44,3.9,11.67,8.7,11.67s8.7-5.23,8.7-11.67A14.14,14.14,0,0,0,57,52.33h0a10.25,10.25,0,0,0-2.24-2.46A7.7,7.7,0,0,1,46.13,49.87Z"/><path class="cls-1" d="M50.43,51.21a7.54,7.54,0,1,1,5.26-2.13A7.5,7.5,0,0,1,50.43,51.21Zm0-12.1A4.55,4.55,0,1,0,55,43.66,4.55,4.55,0,0,0,50.43,39.11Z"/><path class="cls-1" d="M50.87,39.11a9,9,0,0,1-9-9v-.91a1.5,1.5,0,0,1,3,0v.91a6,6,0,0,0,12.07,0v-.91a1.5,1.5,0,0,1,3,0v.91A9,9,0,0,1,50.87,39.11Z"/><path class="cls-1" d="M60.63,57.25a1.5,1.5,0,0,1-.26-3,5.87,5.87,0,0,0,1.57-.5,6,6,0,0,0,2.86-8l-.39-.83a1.5,1.5,0,1,1,2.71-1.28l.39.82a9,9,0,0,1-4.28,12,9.26,9.26,0,0,1-2.34.75Z"/><path class="cls-1" d="M64.84,65.46a8.93,8.93,0,0,1-3.08-.54,9.27,9.27,0,0,1-2.18-1.15,1.5,1.5,0,0,1,1.75-2.44,5.93,5.93,0,0,0,1.45.77,6.05,6.05,0,0,0,7.74-3.61l.31-.86a1.5,1.5,0,0,1,2.82,1l-.31.86A9.06,9.06,0,0,1,64.84,65.46Z"/><path class="cls-1" d="M63.36,75.93h-.15a9,9,0,0,1-6.34-2.75,8.81,8.81,0,0,1-1.46-2,1.5,1.5,0,0,1,2.64-1.43,6.3,6.3,0,0,0,1,1.33,6,6,0,0,0,8.54.13l.65-.63a1.5,1.5,0,0,1,2.09,2.15l-.66.64A9,9,0,0,1,63.36,75.93Z"/><path class="cls-1" d="M40,57.25l-.26,0a9.39,9.39,0,0,1-2.34-.75,9,9,0,0,1-4.28-12l.4-.83a1.5,1.5,0,0,1,2.71,1.29l-.4.83a6,6,0,0,0,2.86,8,5.87,5.87,0,0,0,1.57.5,1.5,1.5,0,0,1-.26,3Z"/><path class="cls-1" d="M35.8,65.46a9.06,9.06,0,0,1-8.5-5.94L27,58.66a1.5,1.5,0,0,1,2.82-1l.31.86a6.05,6.05,0,0,0,7.74,3.61,5.93,5.93,0,0,0,1.45-.77,1.5,1.5,0,1,1,1.75,2.44,9.27,9.27,0,0,1-2.18,1.15A8.93,8.93,0,0,1,35.8,65.46Z"/><path class="cls-1" d="M37.28,75.93A9,9,0,0,1,31,73.39l-.66-.64a1.5,1.5,0,1,1,2.09-2.15l.65.63a6,6,0,0,0,8.54-.13,6.3,6.3,0,0,0,1-1.33,1.5,1.5,0,0,1,2.64,1.43,8.81,8.81,0,0,1-1.46,2,8.93,8.93,0,0,1-6.34,2.75Z"/><path class="cls-1" d="M50.43,74.65a1.5,1.5,0,0,1-1.5-1.5V49.71a1.5,1.5,0,0,1,3,0V73.15A1.5,1.5,0,0,1,50.43,74.65Z"/><path class="cls-1" d="M45,61.71a1.49,1.49,0,0,1-1.38-2.08,1.73,1.73,0,0,1,.32-.49,1.57,1.57,0,0,1,2.12,0,1.37,1.37,0,0,1,.19.23,2.15,2.15,0,0,1,.14.26,1.47,1.47,0,0,1,.08.28A1.5,1.5,0,0,1,46,61.27,1.5,1.5,0,0,1,45,61.71Z"/><path class="cls-1" d="M56,61.71A1.5,1.5,0,0,1,55,61.27a1.5,1.5,0,0,1-.41-1.36c0-.09.05-.19.08-.28a2.15,2.15,0,0,1,.14-.26,2.11,2.11,0,0,1,.19-.23,1.57,1.57,0,0,1,2.12,0,2.11,2.11,0,0,1,.19.23,1.26,1.26,0,0,1,.13.26A1.5,1.5,0,0,1,56,61.71Z"/><path class="cls-1" d="M52.59,42.5H48.32a1.5,1.5,0,1,1,0-3h4.27a1.5,1.5,0,0,1,0,3Z"/></g></g></svg>