<svg xmlns="http://www.w3.org/2000/svg" viewBox="0 0 105.33 102.64"><defs><style>.cls-1{fill:#474747;}</style></defs><title>Asset 2005</title><g id="Layer_2" data-name="Layer 2"><g id="Layer_1-2" data-name="Layer 1"><path class="cls-1" d="M72.1,27.13a1.5,1.5,0,0,1-.87-2.72L80,18.19,59.15,3.34,38.34,18.19l8.26,5.89a1.5,1.5,0,1,1-1.74,2.44l-10-7.11a1.5,1.5,0,0,1,0-2.44L58.28.28A1.5,1.5,0,0,1,60,.28L83.4,17a1.5,1.5,0,0,1,0,2.44L73,26.85A1.48,1.48,0,0,1,72.1,27.13Z"/><path class="cls-1" d="M59.15,36.37a1.52,1.52,0,0,1-.87-.27L44.86,26.52a1.5,1.5,0,0,1-.63-1.22V15.14a1.5,1.5,0,0,1,1.5-1.5H72.1a1.5,1.5,0,0,1,1.5,1.5V25.63A1.48,1.48,0,0,1,73,26.85L60,36.1A1.54,1.54,0,0,1,59.15,36.37ZM47.23,24.53,59.15,33,70.6,24.86V16.64H47.23Z"/><path class="cls-1" d="M99.22,60.78c-.31,0-.62,0-.93-.05a8.78,8.78,0,0,1-6-3.22L87,50.88a1.47,1.47,0,0,1-.34-.94V39.11a1.49,1.49,0,0,1,.75-1.29,1.47,1.47,0,0,1,1.49,0,8.82,8.82,0,0,1,2.51,2.11h0L105,56.7a1.51,1.51,0,0,1-.22,2.11A8.82,8.82,0,0,1,99.22,60.78ZM89.63,49.41l5.05,6.21a5.83,5.83,0,0,0,6.91,1.65l-12-14.74Z"/><path class="cls-1" d="M44.82,102.64a10.55,10.55,0,1,1,3.91-20.35h0a10.55,10.55,0,0,1-3.91,20.35Zm0-18.11a7.57,7.57,0,1,0,2.8.54A7.5,7.5,0,0,0,44.82,84.53Z"/><path class="cls-1" d="M72,102.42a10.56,10.56,0,1,1,3.91-20.36h0A10.56,10.56,0,0,1,72,102.42ZM72,84.3a7.55,7.55,0,1,0,2.8.54h0A7.54,7.54,0,0,0,72,84.3Z"/><path class="cls-1" d="M72,97.41a5.33,5.33,0,0,1-5.33-5.32,1.5,1.5,0,0,1,3,0,2.33,2.33,0,1,0,3.19-2.16,2.26,2.26,0,0,0-1.73,0A1.5,1.5,0,0,1,70,87.14a5.32,5.32,0,1,1,2,10.27Z"/><path class="cls-1" d="M44.82,97.41a5.33,5.33,0,0,1-5.33-5.32,1.5,1.5,0,0,1,3,0,2.33,2.33,0,1,0,3.19-2.16,2.23,2.23,0,0,0-1.72,0,1.5,1.5,0,0,1-1.12-2.79,5.33,5.33,0,1,1,2,10.27Z"/><path class="cls-1" d="M41.46,85.18a1.51,1.51,0,0,1-1.5-1.5V70.84a1.5,1.5,0,0,1,1.5-1.5h6.72a1.5,1.5,0,0,1,1.5,1.5V83.68a1.5,1.5,0,0,1-2.06,1.39,7.53,7.53,0,0,0-5.6,0A1.55,1.55,0,0,1,41.46,85.18Zm3.36-3.65a10.62,10.62,0,0,1,1.86.16V72.34H43v9.35A10.46,10.46,0,0,1,44.82,81.53Z"/><path class="cls-1" d="M75.36,85a1.32,1.32,0,0,1-.55-.11,7.56,7.56,0,0,0-5.61,0,1.5,1.5,0,0,1-2-1.39V70.84a1.5,1.5,0,0,1,1.5-1.5h6.71a1.5,1.5,0,0,1,1.5,1.5V83.45a1.51,1.51,0,0,1-1.5,1.5ZM70.15,72.34v9.13a10.51,10.51,0,0,1,3.71,0V72.34Z"/><path class="cls-1" d="M75.36,72.34H41.46A12.52,12.52,0,0,1,29,59.84v-13l-8.73-11-4.36,3.45A9.82,9.82,0,0,1,1.69,37.11,10,10,0,0,1,3.91,23.66L18.14,12.4,22.87,1.5a1.5,1.5,0,0,1,2.75,0l5.13,11.82,6.19,7.82a1.5,1.5,0,0,1,.32.93V46.14H81v-8.4a1.5,1.5,0,0,1,1.5-1.5H85.3a4.34,4.34,0,0,1,4.33,4.33v17.5A14.28,14.28,0,0,1,75.36,72.34ZM20.48,32.19h.17a1.42,1.42,0,0,1,1,.56l10,12.62a1.52,1.52,0,0,1,.32.93V59.84a9.51,9.51,0,0,0,9.5,9.5h33.9A11.28,11.28,0,0,0,86.63,58.07V40.57a1.33,1.33,0,0,0-1.33-1.33H84v8.4a1.5,1.5,0,0,1-1.5,1.5H35.76a1.5,1.5,0,0,1-1.5-1.5v-25l-6-7.56a1.38,1.38,0,0,1-.2-.33L24.25,5.87l-3.51,8.07a1.49,1.49,0,0,1-.44.58L5.77,26A7,7,0,0,0,4.16,35.4,6.83,6.83,0,0,0,14,36.89l5.54-4.38A1.48,1.48,0,0,1,20.48,32.19Z"/><path class="cls-1" d="M82.53,49.14H35.76a1.5,1.5,0,0,1-1.5-1.5V18.19A1.49,1.49,0,0,1,36.63,17L59.15,33,73.5,22.79h0L81.66,17A1.49,1.49,0,0,1,84,18.19V47.64A1.5,1.5,0,0,1,82.53,49.14Zm-45.27-3H81v-25l-21,15a1.5,1.5,0,0,1-1.74,0l-21-15Z"/><path class="cls-1" d="M18.26,20.13a1.5,1.5,0,0,1,1.5-1.5h0a1.5,1.5,0,0,1,1.5,1.5h0a1.5,1.5,0,0,1-1.5,1.5h0A1.5,1.5,0,0,1,18.26,20.13Z"/></g></g></svg>