<svg xmlns="http://www.w3.org/2000/svg" viewBox="0 0 104.7 101.92"><defs><style>.cls-1{fill:#474747;}</style></defs><title>Asset 2020</title><g id="Layer_2" data-name="Layer 2"><g id="Layer_1-2" data-name="Layer 1"><path class="cls-1" d="M52.35,12.93a1.5,1.5,0,0,1-1.5-1.5V1.5a1.5,1.5,0,0,1,3,0v9.93A1.5,1.5,0,0,1,52.35,12.93Z"/><path class="cls-1" d="M35,16.45a1.48,1.48,0,0,1-1.37-.91L29.76,6.61a1.5,1.5,0,0,1,2.75-1.2l3.88,8.94a1.5,1.5,0,0,1-.78,2A1.41,1.41,0,0,1,35,16.45Z"/><path class="cls-1" d="M19.31,24.74a1.48,1.48,0,0,1-1.16-.55l-5.63-6.84a1.5,1.5,0,0,1,2.32-1.91l5.62,6.85a1.49,1.49,0,0,1-1.15,2.45Z"/><path class="cls-1" d="M72,16.9a1.61,1.61,0,0,1-.6-.12,1.5,1.5,0,0,1-.77-2l3.87-8.93A1.5,1.5,0,0,1,77.3,7.06L73.42,16A1.51,1.51,0,0,1,72,16.9Z"/><path class="cls-1" d="M87.47,26.25a1.46,1.46,0,0,1-1-.34,1.5,1.5,0,0,1-.21-2.11L91.94,17a1.5,1.5,0,1,1,2.31,1.9l-5.62,6.85A1.5,1.5,0,0,1,87.47,26.25Z"/><path class="cls-1" d="M51.9,58.49A20.65,20.65,0,1,1,72.55,37.84,20.68,20.68,0,0,1,51.9,58.49Zm0-38.3A17.65,17.65,0,1,0,69.55,37.84,17.67,17.67,0,0,0,51.9,20.19Z"/><path class="cls-1" d="M52,48.24a10.4,10.4,0,1,1,10.4-10.4A10.42,10.42,0,0,1,52,48.24Zm0-17.8a7.4,7.4,0,1,0,7.4,7.4A7.41,7.41,0,0,0,52,30.44Z"/><path class="cls-1" d="M53.26,101.92A9.83,9.83,0,0,1,46,99.1a5.59,5.59,0,0,1-1.52-4.28l2-25.9a1.51,1.51,0,0,1,1.66-1.38,37.87,37.87,0,0,0,4.28.26,41.57,41.57,0,0,0,6-.47,1.48,1.48,0,0,1,1.16.31,1.55,1.55,0,0,1,.56,1l2,26.15a5.56,5.56,0,0,1-1.51,4.26A9.83,9.83,0,0,1,53.26,101.92Zm-4-31.25-1.86,24.4a2.58,2.58,0,0,0,.75,2,6.94,6.94,0,0,0,5.08,1.84,7,7,0,0,0,5.09-1.84,2.52,2.52,0,0,0,.74-2L57.23,70.51a43.38,43.38,0,0,1-4.88.29C51.39,70.8,50.38,70.76,49.29,70.67Z"/><path class="cls-1" d="M52.35,70.8a43.58,43.58,0,0,1-4.6-.27,49.73,49.73,0,0,1-6.9-1.25c-1.05-.28-2.18-.61-3.44-1C16.2,61.2,1,42.1.32,41.3a1.5,1.5,0,0,1,0-1.86c1-1.21,23.55-29.51,52-29.51s51.08,28.3,52,29.51a1.49,1.49,0,0,1,0,1.85c-.66.84-16.3,20.45-38,27.24-1,.31-1.79.54-2.57.75a50.26,50.26,0,0,1-5,1A43.37,43.37,0,0,1,52.35,70.8ZM3.45,40.37c3.34,3.91,17.16,19.14,34.9,25,1.21.4,2.27.72,3.25,1a45.32,45.32,0,0,0,6.47,1.17,37.87,37.87,0,0,0,4.28.26,41.57,41.57,0,0,0,6-.47,47.43,47.43,0,0,0,4.72-1c.82-.21,1.62-.45,2.42-.7C83.67,60,97.86,44.34,101.25,40.37c-4.17-4.9-24.7-27.44-48.9-27.44S7.62,35.47,3.45,40.37Z"/><path class="cls-1" d="M52,65.77a27.65,27.65,0,0,1-3.93-.28,27.77,27.77,0,1,1,3.93.28Zm0-52.86A24.93,24.93,0,1,0,76.94,37.84,25,25,0,0,0,52,12.91Z"/></g></g></svg>