<svg xmlns="http://www.w3.org/2000/svg" viewBox="0 0 104.77 104.7"><defs><style>.cls-1{fill:#474747;}</style></defs><title>Asset 2009</title><g id="Layer_2" data-name="Layer 2"><g id="Layer_1-2" data-name="Layer 1"><path class="cls-1" d="M103.17,24.1H1.5A1.5,1.5,0,0,1,0,22.6V14a1.33,1.33,0,0,1,.07-.45V1.5A1.5,1.5,0,0,1,1.57,0H23.12a1.5,1.5,0,0,1,1.5,1.5v11H40.06V1.5A1.5,1.5,0,0,1,41.56,0H63.11a1.5,1.5,0,0,1,1.5,1.5v11H80.05V1.5A1.5,1.5,0,0,1,81.55,0h21.56a1.5,1.5,0,0,1,1.5,1.5V13.55a1.56,1.56,0,0,1,.06.44V22.6A1.5,1.5,0,0,1,103.17,24.1ZM3,21.1h98.67V14.41a1.52,1.52,0,0,1-.06-.42V3H83.05V14a1.5,1.5,0,0,1-1.5,1.5H63.11a1.51,1.51,0,0,1-1.5-1.5V3H43.06V14a1.5,1.5,0,0,1-1.5,1.5H23.12a1.5,1.5,0,0,1-1.5-1.5V3H3.07V14a1.62,1.62,0,0,1-.07.44Z"/><path class="cls-1" d="M52.39,104.7a1.46,1.46,0,0,1-.85-.27L33.27,91.84A76.74,76.74,0,0,1,.09,28.67v-1.3a1.5,1.5,0,0,1,1.5-1.5H103.27a1.5,1.5,0,0,1,1.5,1.5v1.26a76.68,76.68,0,0,1-33.23,63.2h0l-18.3,12.61A1.57,1.57,0,0,1,52.39,104.7ZM3.09,28.87A73.74,73.74,0,0,0,35,89.37l17.42,12,17.45-12h0a73.7,73.7,0,0,0,31.93-60.49Z"/><path class="cls-1" d="M52.35,62.92h-.09a1.5,1.5,0,0,1-1.21-.74l-3.87-6.65A1.5,1.5,0,0,1,49.78,54L52.5,58.7l6.25-8.37a1.5,1.5,0,0,1,2.4,1.8l-7.6,10.18A1.5,1.5,0,0,1,52.35,62.92Z"/><path class="cls-1" d="M52.46,73.54a17.27,17.27,0,0,1-16.15-11.3A17.19,17.19,0,0,1,52.42,39.11h0a17.22,17.22,0,0,1,0,34.43Zm0-31.43h0A14.23,14.23,0,0,0,38.25,56.32a14.07,14.07,0,0,0,.88,4.89,14.21,14.21,0,1,0,13.36-19.1Zm0-1.5h0Z"/></g></g></svg>