<svg xmlns="http://www.w3.org/2000/svg" viewBox="0 0 102.33 102.98"><defs><style>.cls-1{fill:#474747;}</style></defs><title>Asset 2023</title><g id="Layer_2" data-name="Layer 2"><g id="Layer_1-2" data-name="Layer 1"><path class="cls-1" d="M95.81,80.56H6.53A6.54,6.54,0,0,1,0,74V18.41a6.54,6.54,0,0,1,6.53-6.53H95.81a6.53,6.53,0,0,1,6.52,6.53V74A6.53,6.53,0,0,1,95.81,80.56ZM6.53,14.88A3.53,3.53,0,0,0,3,18.41V74a3.54,3.54,0,0,0,3.53,3.53H95.81A3.53,3.53,0,0,0,99.33,74V18.41a3.53,3.53,0,0,0-3.52-3.53Z"/><path class="cls-1" d="M78.19,46.05A12.5,12.5,0,1,1,90.68,33.56,12.5,12.5,0,0,1,78.19,46.05Zm0-22a9.5,9.5,0,1,0,9.49,9.5A9.5,9.5,0,0,0,78.19,24.06Z"/><path class="cls-1" d="M78.19,46.05a1.5,1.5,0,0,1-1.5-1.5v-22a1.5,1.5,0,0,1,3,0v22A1.5,1.5,0,0,1,78.19,46.05Z"/><path class="cls-1" d="M89.18,35.06h-22a1.5,1.5,0,0,1,0-3h22a1.5,1.5,0,0,1,0,3Z"/><path class="cls-1" d="M47.82,38.33H11.17a1.5,1.5,0,0,1-1.5-1.5v-10a1.5,1.5,0,0,1,1.5-1.5H47.82a1.5,1.5,0,0,1,1.5,1.5v10A1.5,1.5,0,0,1,47.82,38.33Zm-35.15-3H46.32v-7H12.67Z"/><path class="cls-1" d="M28.17,67.46h-17A1.5,1.5,0,0,1,9.67,66V56a1.5,1.5,0,0,1,1.5-1.5h17a1.5,1.5,0,0,1,1.5,1.5V66A1.5,1.5,0,0,1,28.17,67.46Zm-15.5-3h14v-7h-14Z"/><path class="cls-1" d="M48.28,67.46H36.19a1.5,1.5,0,0,1-1.5-1.5V56a1.5,1.5,0,0,1,1.5-1.5H48.28a1.5,1.5,0,0,1,1.5,1.5V66A1.5,1.5,0,0,1,48.28,67.46Zm-10.59-3h9.09v-7H37.69Z"/><path class="cls-1" d="M82.66,67.46h-17a1.5,1.5,0,0,1-1.5-1.5V56a1.5,1.5,0,0,1,1.5-1.5h17a1.5,1.5,0,0,1,1.5,1.5V66A1.5,1.5,0,0,1,82.66,67.46Zm-15.51-3h14v-7h-14Z"/><path class="cls-1" d="M54.65,100.39a1.37,1.37,0,0,1-.59-.13,1.5,1.5,0,0,1-.78-2l8.2-18.88-8.2-18.89a1.45,1.45,0,0,1,0-1.19l8.2-18.88-8.2-18.88a1.48,1.48,0,0,1,0-1.2L61.74.9a1.5,1.5,0,1,1,2.75,1.2L56.29,21l8.2,18.88a1.54,1.54,0,0,1,0,1.19l-8.2,18.88,8.2,18.89a1.54,1.54,0,0,1,0,1.19L56,99.48A1.51,1.51,0,0,1,54.65,100.39Z"/><path class="cls-1" d="M54,103a1.5,1.5,0,0,1-1.35-.84L49,94.7a1.5,1.5,0,1,1,2.7-1.3l2.94,6.08,6.09-3a1.5,1.5,0,0,1,1.31,2.7l-7.44,3.6A1.38,1.38,0,0,1,54,103Z"/></g></g></svg>