<svg xmlns="http://www.w3.org/2000/svg" viewBox="0 0 101.78 101.57"><defs><style>.cls-1{fill:#474747;}</style></defs><title>Asset 2035</title><g id="Layer_2" data-name="Layer 2"><g id="Layer_1-2" data-name="Layer 1"><path class="cls-1" d="M70.56,72a1.55,1.55,0,0,1-.77-.22c-3.77-2.25-16.08-10.36-16.08-20V31a1.5,1.5,0,0,1,1.5-1.5H85.92a1.5,1.5,0,0,1,1.5,1.5V51.85c0,9.6-12.31,17.71-16.09,20A1.5,1.5,0,0,1,70.56,72ZM56.71,32.54V51.85c0,7.56,10.29,14.68,13.85,16.92,3.56-2.24,13.86-9.36,13.86-16.92V32.54Z"/><path class="cls-1" d="M70.42,54.55h-.08a1.48,1.48,0,0,1-1.26-.83L65.81,47.2a1.5,1.5,0,1,1,2.68-1.35L70.58,50l5-7.79a1.5,1.5,0,0,1,2.53,1.62l-6.43,10A1.49,1.49,0,0,1,70.42,54.55Z"/><path class="cls-1" d="M42.25,101.57H7.08A7.09,7.09,0,0,1,0,94.49V7.08A7.09,7.09,0,0,1,7.08,0H42.25a7.09,7.09,0,0,1,7.08,7.08V26.26a1.49,1.49,0,0,1-.45,1.07A29.31,29.31,0,0,0,45,64.48a1.49,1.49,0,0,1,.11,1.46L39.68,77.71l7.52-3.48a1.5,1.5,0,0,1,1.44.09,1.52,1.52,0,0,1,.69,1.27v18.9A7.09,7.09,0,0,1,42.25,101.57ZM7.08,3A4.08,4.08,0,0,0,3,7.08V94.49a4.08,4.08,0,0,0,4.08,4.08H42.25a4.08,4.08,0,0,0,4.08-4.08V77.94l-9.1,4.22a1.5,1.5,0,0,1-1.69-.31,1.48,1.48,0,0,1-.3-1.69l6.82-14.73a32.31,32.31,0,0,1,4.27-39.79V7.08A4.08,4.08,0,0,0,42.25,3Zm35,65.87h0Z"/><path class="cls-1" d="M36.6,82.29a1.5,1.5,0,0,1-1.36-2.13l6.82-14.73a32.38,32.38,0,1,1,9.81,9.94L37.23,82.16A1.55,1.55,0,0,1,36.6,82.29ZM69.45,18.91A29.33,29.33,0,0,0,45,64.48a1.49,1.49,0,0,1,.11,1.46L39.68,77.71,51.37,72.3a1.48,1.48,0,0,1,1.48.12,29.33,29.33,0,1,0,16.6-53.51Z"/><path class="cls-1" d="M47.83,15.82H1.5a1.5,1.5,0,0,1,0-3H47.83a1.5,1.5,0,0,1,0,3Z"/><path class="cls-1" d="M47.83,88.14H1.5a1.5,1.5,0,0,1,0-3H47.83a1.5,1.5,0,0,1,0,3Z"/><path class="cls-1" d="M29.06,10H20.27a1.5,1.5,0,0,1,0-3h8.79a1.5,1.5,0,0,1,0,3Z"/><path class="cls-1" d="M27.08,97.3H22.25a3.75,3.75,0,0,1,0-7.49h4.83a3.75,3.75,0,1,1,0,7.49Zm-4.83-4.49a.74.74,0,0,0-.74.74.75.75,0,0,0,.74.75h4.83a.76.76,0,0,0,.75-.75.75.75,0,0,0-.75-.74Z"/></g></g></svg>