<svg xmlns="http://www.w3.org/2000/svg" viewBox="0 0 103.57 102.39"><defs><style>.cls-1{fill:#474747;}</style></defs><title>Asset 2022</title><g id="Layer_2" data-name="Layer 2"><g id="Layer_1-2" data-name="Layer 1"><path class="cls-1" d="M98.74,81.59H4.83A4.84,4.84,0,0,1,0,76.76V4.82A4.83,4.83,0,0,1,4.83,0H98.74a4.83,4.83,0,0,1,4.83,4.82V76.76A4.84,4.84,0,0,1,98.74,81.59ZM4.83,3A1.83,1.83,0,0,0,3,4.82V76.76a1.83,1.83,0,0,0,1.83,1.83H98.74a1.83,1.83,0,0,0,1.83-1.83V4.82A1.83,1.83,0,0,0,98.74,3ZM95.42,74.94H8.15a1.5,1.5,0,0,1-1.5-1.5V8.15a1.5,1.5,0,0,1,1.5-1.5H95.42a1.5,1.5,0,0,1,1.5,1.5V73.44A1.5,1.5,0,0,1,95.42,74.94Zm-85.77-3H93.92V9.65H9.65Z"/><path class="cls-1" d="M59.65,93.89H43.5a1.5,1.5,0,0,1-1.5-1.5V80.09a1.5,1.5,0,0,1,1.5-1.5H59.65a1.5,1.5,0,0,1,1.5,1.5v12.3A1.5,1.5,0,0,1,59.65,93.89ZM45,90.89H58.15v-9.3H45Z"/><path class="cls-1" d="M77.42,102.39H25.69a1.5,1.5,0,0,1-1.5-1.5,10,10,0,0,1,10-10H68.92a10,10,0,0,1,10,10A1.5,1.5,0,0,1,77.42,102.39Zm-50.07-3h48.4a7,7,0,0,0-6.83-5.5H34.18A7,7,0,0,0,27.35,99.39Z"/><path class="cls-1" d="M69.54,64.79H33.21a1.5,1.5,0,0,1-1.5-1.5V27a1.5,1.5,0,0,1,1.5-1.5H69.54A1.5,1.5,0,0,1,71,27V63.29A1.5,1.5,0,0,1,69.54,64.79Zm-34.83-3H68V28.45H34.71Z"/><path class="cls-1" d="M51.43,28.12a1.51,1.51,0,0,1-.58-.12c-1.73-.73-10.44-4.44-12.18-6.17a5.64,5.64,0,0,1,8-8h0c1.74,1.73,5.45,10.45,6.18,12.18a1.51,1.51,0,0,1-1.39,2.08ZM42.66,15.21a2.62,2.62,0,0,0-1.87.77,2.66,2.66,0,0,0,0,3.73c.68.67,4.05,2.35,7.75,4-1.66-3.71-3.34-7.08-4-7.75A2.59,2.59,0,0,0,42.66,15.21Z"/><path class="cls-1" d="M51.43,28.12a1.53,1.53,0,0,1-1.06-.44A1.49,1.49,0,0,1,50.05,26c.73-1.73,4.44-10.45,6.17-12.18h0a5.64,5.64,0,0,1,8,8C62.46,23.56,53.74,27.27,52,28A1.43,1.43,0,0,1,51.43,28.12ZM58.34,16c-.67.67-2.35,4-4,7.75,3.71-1.67,7.08-3.35,7.75-4A2.64,2.64,0,0,0,58.34,16Z"/><path class="cls-1" d="M51.37,56.58a8.84,8.84,0,0,1-8.83-8.84,1.5,1.5,0,0,1,3,0,5.84,5.84,0,1,0,11.67,0,1.5,1.5,0,0,1,3,0A8.84,8.84,0,0,1,51.37,56.58Z"/><path class="cls-1" d="M47.69,42a1.53,1.53,0,0,1-1.06-.44l-5.32-5.33a1.49,1.49,0,0,1,0-2.12,1.51,1.51,0,0,1,2.12,0l5.32,5.33A1.5,1.5,0,0,1,47.69,42Z"/><path class="cls-1" d="M55.05,42A1.53,1.53,0,0,1,54,41.55a1.51,1.51,0,0,1,0-2.12l5.33-5.33a1.51,1.51,0,0,1,2.12,0,1.49,1.49,0,0,1,0,2.12l-5.32,5.33A1.53,1.53,0,0,1,55.05,42Z"/></g></g></svg>