<svg xmlns="http://www.w3.org/2000/svg" viewBox="0 0 89.27 102.9"><defs><style>.cls-1{fill:#474747;}</style></defs><title>Asset 2030</title><g id="Layer_2" data-name="Layer 2"><g id="Layer_1-2" data-name="Layer 1"><path class="cls-1" d="M44.64,83.53c-5.58,0-10.12-5.17-10.12-11.53V58.4a1.51,1.51,0,0,1,2.26-1.3c.38.23.77.43,1.16.63a15.18,15.18,0,0,0,13.39,0c.4-.19.79-.4,1.17-.62a1.5,1.5,0,0,1,2.25,1.3V72C54.75,78.36,50.22,83.53,44.64,83.53Zm-7.12-22.7V72c0,4.71,3.19,8.53,7.12,8.53s7.11-3.82,7.11-8.53V60.83A18.12,18.12,0,0,1,37.52,60.83Z"/><path class="cls-1" d="M44.64,62.29a18.41,18.41,0,0,1-8-1.86c-.47-.23-.93-.47-1.37-.74-7.35-4.27-11.91-13-11.91-22.66A29.27,29.27,0,0,1,25.14,26.9a1.5,1.5,0,0,1,1.41-1H62.73a1.49,1.49,0,0,1,1.4,1A29,29,0,0,1,65.92,37c0,9.7-4.57,18.39-11.91,22.66-.45.27-.91.51-1.37.74A18.41,18.41,0,0,1,44.64,62.29Zm-17-33.37A26.2,26.2,0,0,0,26.36,37c0,8.51,4.09,16.39,10.42,20.07.38.23.77.43,1.16.63a15.18,15.18,0,0,0,13.39,0,13.08,13.08,0,0,0,1.17-.62C58.83,53.42,62.92,45.54,62.92,37a26.5,26.5,0,0,0-1.26-8.11Z"/><path class="cls-1" d="M38.54,41.62h-5a5.56,5.56,0,1,1,0-11.11h5a5.56,5.56,0,0,1,0,11.11Zm-5-8.11a2.56,2.56,0,1,0,0,5.11h5a2.56,2.56,0,0,0,0-5.11Z"/><path class="cls-1" d="M55.77,41.62h-5a5.56,5.56,0,1,1,0-11.11h5a5.56,5.56,0,0,1,0,11.11Zm-5-8.11a2.56,2.56,0,1,0,0,5.11h5a2.56,2.56,0,0,0,0-5.11Z"/><path class="cls-1" d="M64.42,37.57h-4.6a1.5,1.5,0,0,1,0-3h4.6a1.5,1.5,0,0,1,0,3Z"/><path class="cls-1" d="M29.45,37.56H24.88a1.5,1.5,0,1,1,0-3h4.57a1.5,1.5,0,1,1,0,3Z"/><path class="cls-1" d="M46.68,37.56H42.59a1.5,1.5,0,0,1,0-3h4.09a1.5,1.5,0,1,1,0,3Z"/><path class="cls-1" d="M87.77,102.9H1.5a1.49,1.49,0,0,1-1.15-.54A1.48,1.48,0,0,1,0,101.13l1.72-9.31a1.5,1.5,0,0,1,1.47-1.23H86.06a1.5,1.5,0,0,1,1.48,1.23l1.71,9.31a1.5,1.5,0,0,1-1.48,1.77ZM3.3,99.9H86l-1.16-6.31H4.46Z"/><path class="cls-1" d="M86.06,93.59H3.21a1.47,1.47,0,0,1-1.15-.54,1.44,1.44,0,0,1-.32-1.23l1.12-6.09a19.69,19.69,0,0,1,1.25-4,1.51,1.51,0,0,1,1.38-.91h78.3a1.51,1.51,0,0,1,1.37.91,18.88,18.88,0,0,1,1.25,3.94l1.13,6.11a1.51,1.51,0,0,1-.32,1.23A1.49,1.49,0,0,1,86.06,93.59Zm-81-3H84.26l-.79-4.32a16.5,16.5,0,0,0-.7-2.41H6.5a16,16,0,0,0-.7,2.43Z"/><path class="cls-1" d="M83.79,83.86H5.49a1.48,1.48,0,0,1-1.25-.67,1.5,1.5,0,0,1-.13-1.42c3.22-7.4,10.66-12.56,18.08-12.56H36a1.5,1.5,0,0,1,1.5,1.5V72c0,4.71,3.19,8.53,7.12,8.53s7.11-3.82,7.11-8.53V70.71a1.5,1.5,0,0,1,1.5-1.5H67.08c7.43,0,14.87,5.16,18.08,12.56a1.49,1.49,0,0,1-1.37,2.09Zm-32.69-3H81.33c-3.12-5.19-8.7-8.65-14.25-8.65H54.75A12.14,12.14,0,0,1,51.1,80.86ZM8,80.86H38.17a12.18,12.18,0,0,1-3.65-8.65H22.19C16.64,72.21,11.06,75.67,8,80.86Z"/><path class="cls-1" d="M65.29,28.92H23.08a4.37,4.37,0,0,1-4.36-4.36V23.2a4.37,4.37,0,0,1,4.36-4.37H65.29a4.37,4.37,0,0,1,4.36,4.37v1.36A4.37,4.37,0,0,1,65.29,28.92ZM23.08,21.83a1.37,1.37,0,0,0-1.36,1.37v1.36a1.36,1.36,0,0,0,1.36,1.36H65.29a1.36,1.36,0,0,0,1.36-1.36V23.2a1.37,1.37,0,0,0-1.36-1.37Z"/><path class="cls-1" d="M62.87,21.83H25.61a1.5,1.5,0,0,1-1.5-1.5v-.2a20.13,20.13,0,0,1,40.26,0v.2A1.5,1.5,0,0,1,62.87,21.83Zm-35.72-3H61.32a17.13,17.13,0,0,0-34.17,0Z"/><path class="cls-1" d="M46.68,52.65a1.57,1.57,0,0,1-.37,0l-3.73-1a1.5,1.5,0,1,1,.75-2.9l3.73,1a1.5,1.5,0,0,1-.38,3Z"/></g></g></svg>