<svg xmlns="http://www.w3.org/2000/svg" viewBox="0 0 104.27 103.54"><defs><style>.cls-1{fill:#474747;}</style></defs><title>Asset 2010</title><g id="Layer_2" data-name="Layer 2"><g id="Layer_1-2" data-name="Layer 1"><path class="cls-1" d="M102.77,18.31H1.5A1.5,1.5,0,0,1,0,16.81V1.5A1.5,1.5,0,0,1,1.5,0H102.77a1.5,1.5,0,0,1,1.5,1.5V16.81A1.5,1.5,0,0,1,102.77,18.31ZM3,15.31h98.27V3H3Z"/><path class="cls-1" d="M102.77,103.54H1.5A1.5,1.5,0,0,1,0,102V16.81a1.5,1.5,0,0,1,1.5-1.5H102.77a1.5,1.5,0,0,1,1.5,1.5V102A1.5,1.5,0,0,1,102.77,103.54ZM3,100.54h98.27V18.31H3Z"/><path class="cls-1" d="M8.64,11.42a1.37,1.37,0,0,1-.29,0,1.61,1.61,0,0,1-.54-.23A2,2,0,0,1,7.58,11a1.54,1.54,0,0,1-.44-1.07,1.52,1.52,0,0,1,.44-1.06,1.73,1.73,0,0,1,.49-.32,1.31,1.31,0,0,1,.28-.09,1.88,1.88,0,0,1,.58,0,1.31,1.31,0,0,1,.28.09,1.08,1.08,0,0,1,.26.14,1,1,0,0,1,.23.18,1.52,1.52,0,0,1,.44,1.06A1.54,1.54,0,0,1,9.7,11a1.41,1.41,0,0,1-.23.18,1.61,1.61,0,0,1-.54.23A1.37,1.37,0,0,1,8.64,11.42Z"/><path class="cls-1" d="M19.46,9.92A1.5,1.5,0,0,1,21,8.43h0a1.5,1.5,0,0,1,1.5,1.49h0a1.5,1.5,0,0,1-1.5,1.5h0A1.5,1.5,0,0,1,19.46,9.92Z"/><path class="cls-1" d="M33.27,11.42l-.29,0a1.41,1.41,0,0,1-.95-.64,1.3,1.3,0,0,1-.14-.26,1.49,1.49,0,0,1,.32-1.64A1.65,1.65,0,0,1,33,8.45a1.54,1.54,0,0,1,1.35.41,1.5,1.5,0,0,1,.41,1.36,1.47,1.47,0,0,1-.08.28,2.15,2.15,0,0,1-.14.26,1.37,1.37,0,0,1-.19.23A1.51,1.51,0,0,1,33.27,11.42Z"/><path class="cls-1" d="M61.26,87.06a1.57,1.57,0,0,1-.91-.3l-8.21-6.21-8.22,6.2a1.47,1.47,0,0,1-1.37.23,1.49,1.49,0,0,1-1-1l-3-9.85-10.29.18a1.53,1.53,0,0,1-1.24-.61,1.5,1.5,0,0,1-.21-1.37l3.35-9.73-8.43-5.91a1.5,1.5,0,0,1-.64-1.23,1.49,1.49,0,0,1,.64-1.22l8.43-5.91-3.35-9.73a1.5,1.5,0,0,1,.21-1.37,1.52,1.52,0,0,1,1.24-.62l10.29.19,3-9.85a1.48,1.48,0,0,1,1-1,1.52,1.52,0,0,1,1.37.23l8.22,6.2,8.21-6.2A1.53,1.53,0,0,1,61.72,28a1.48,1.48,0,0,1,1,1l3,9.85L76,38.63a1.59,1.59,0,0,1,1.24.62,1.5,1.5,0,0,1,.21,1.37l-3.35,9.73,8.43,5.91a1.49,1.49,0,0,1,.64,1.22,1.5,1.5,0,0,1-.64,1.23l-8.43,5.91,3.35,9.73a1.5,1.5,0,0,1-.21,1.37,1.52,1.52,0,0,1-1.24.61l-10.29-.18-3,9.85a1.54,1.54,0,0,1-1.43,1.06Zm-9.12-9.89a1.53,1.53,0,0,1,.9.31l7.41,5.59,2.71-8.88a1.49,1.49,0,0,1,1.46-1.06l9.28.17-3-8.78a1.48,1.48,0,0,1,.56-1.71L79,57.48l-7.59-5.32a1.49,1.49,0,0,1-.56-1.72l3-8.77-9.28.17a1.47,1.47,0,0,1-1.46-1.07L60.45,31.9,53,37.49a1.52,1.52,0,0,1-1.81,0L43.82,31.9l-2.7,8.87a1.51,1.51,0,0,1-1.46,1.07l-9.28-.17,3,8.77a1.5,1.5,0,0,1-.55,1.72l-7.6,5.32,7.6,5.33a1.49,1.49,0,0,1,.55,1.71l-3,8.78,9.28-.17a1.54,1.54,0,0,1,1.46,1.06l2.7,8.88,7.41-5.59A1.54,1.54,0,0,1,52.14,77.17Z"/><path class="cls-1" d="M61.11,68a1.48,1.48,0,0,1-1.06-.43L42.11,49.57a1.49,1.49,0,0,1,0-2.12,1.51,1.51,0,0,1,2.12,0L62.17,65.39A1.5,1.5,0,0,1,61.11,68Z"/><path class="cls-1" d="M43.17,68a1.48,1.48,0,0,1-1.06-.43,1.5,1.5,0,0,1,0-2.13L60.05,47.45a1.5,1.5,0,0,1,2.12,2.12L44.23,67.52A1.52,1.52,0,0,1,43.17,68Z"/></g></g></svg>