<svg xmlns="http://www.w3.org/2000/svg" viewBox="0 0 102.75 101.46"><defs><style>.cls-1{fill:#474747;}</style></defs><title>Asset 2025</title><g id="Layer_2" data-name="Layer 2"><g id="Layer_1-2" data-name="Layer 1"><path class="cls-1" d="M26.11,38.77a1.48,1.48,0,0,1-.9-.3l-4.91-3.7-4.91,3.7A1.51,1.51,0,0,1,14,38.7a1.48,1.48,0,0,1-1-1l-1.8-5.88-6.14.11a1.51,1.51,0,0,1-1.45-2l2-5.81-5-3.53a1.49,1.49,0,0,1,0-2.45l5-3.53-2-5.81a1.5,1.5,0,0,1,.21-1.37,1.52,1.52,0,0,1,1.24-.62l6.14.11,1.8-5.88a1.48,1.48,0,0,1,1-1A1.51,1.51,0,0,1,15.39.3L20.3,4,25.21.3A1.52,1.52,0,0,1,26.58.07a1.5,1.5,0,0,1,1,1l1.79,5.88,6.15-.11a1.46,1.46,0,0,1,1.24.62,1.52,1.52,0,0,1,.2,1.37l-2,5.81,5,3.53a1.49,1.49,0,0,1,0,2.45l-5,3.53,2,5.81a1.52,1.52,0,0,1-.2,1.37,1.48,1.48,0,0,1-1.24.62l-6.15-.11-1.79,5.88a1.48,1.48,0,0,1-1.44,1.06Zm-13.74-10a1.49,1.49,0,0,1,1.43,1.06l1.5,4.91,4.1-3.09a1.49,1.49,0,0,1,1.81,0l4.09,3.09,1.5-4.91a1.47,1.47,0,0,1,1.46-1.06l5.14.09-1.67-4.85a1.5,1.5,0,0,1,.56-1.72l4.2-2.94-4.2-2.95a1.49,1.49,0,0,1-.56-1.72L33.4,9.87,28.26,10A1.54,1.54,0,0,1,26.8,8.9L25.3,4,21.21,7.08a1.49,1.49,0,0,1-1.81,0L15.3,4,13.8,8.9A1.54,1.54,0,0,1,12.34,10L7.21,9.87l1.67,4.85a1.51,1.51,0,0,1-.56,1.72L4.11,19.39l4.21,2.94a1.51,1.51,0,0,1,.56,1.72L7.21,28.9l5.13-.09Z"/><path class="cls-1" d="M17.16,30.55a1.43,1.43,0,0,1-.46-.07,1.48,1.48,0,0,1-1-1l-.82-2.68-2.8.05a1.54,1.54,0,0,1-1.24-.62,1.49,1.49,0,0,1-.21-1.37l.91-2.65L9.28,20.61a1.49,1.49,0,0,1,0-2.45l2.29-1.61-.91-2.65a1.49,1.49,0,0,1,.21-1.37,1.45,1.45,0,0,1,1.24-.62l2.8.05.82-2.68a1.49,1.49,0,0,1,2.33-.76l2.24,1.69,2.24-1.69a1.5,1.5,0,0,1,2.34.76L25.7,12l2.8-.05a1.5,1.5,0,0,1,1.44,2L29,16.55l2.3,1.61a1.49,1.49,0,0,1,0,2.45L29,22.22l.91,2.65a1.48,1.48,0,0,1-.2,1.37,1.54,1.54,0,0,1-1.24.62l-2.8-.05-.82,2.68a1.5,1.5,0,0,1-2.34.76L20.3,28.56l-2.24,1.69A1.48,1.48,0,0,1,17.16,30.55ZM16,23.79a1.51,1.51,0,0,1,1.44,1.06L18,26.56l1.43-1.07a1.49,1.49,0,0,1,1.81,0l1.42,1.07.53-1.71a1.44,1.44,0,0,1,1.46-1.06l1.79,0-.58-1.69a1.51,1.51,0,0,1,.55-1.72l1.47-1-1.46-1a1.5,1.5,0,0,1-.56-1.72L26.41,15l-1.79,0a1.45,1.45,0,0,1-1.46-1.06l-.53-1.71-1.42,1.07a1.49,1.49,0,0,1-1.81,0L18,12.21l-.52,1.71A1.49,1.49,0,0,1,16,15l-1.8,0,.59,1.69a1.5,1.5,0,0,1-.56,1.72l-1.47,1,1.47,1a1.52,1.52,0,0,1,.56,1.72l-.59,1.69,1.8,0Z"/><path class="cls-1" d="M46,54.08a7.2,7.2,0,1,1,7.2-7.2A7.2,7.2,0,0,1,46,54.08Zm0-11.39a4.2,4.2,0,1,0,4.2,4.19A4.2,4.2,0,0,0,46,42.69Z"/><path class="cls-1" d="M63.94,101.46A38.83,38.83,0,0,1,51.52,25.85V14.4A1.5,1.5,0,0,1,53,12.9H74.86a1.5,1.5,0,0,1,1.5,1.5V25.85a38.83,38.83,0,0,1-12.42,75.61ZM54.52,15.9V27a1.5,1.5,0,0,1-1.07,1.43,35.82,35.82,0,1,0,21,0A1.49,1.49,0,0,1,73.36,27v-11Z"/><path class="cls-1" d="M63.94,92.35a1.5,1.5,0,0,1,0-3A26.58,26.58,0,0,0,90.48,62.8a1.5,1.5,0,0,1,3,0A29.58,29.58,0,0,1,63.94,92.35Z"/><path class="cls-1" d="M63.93,15.69a1.5,1.5,0,0,1-1.45-1.14c0-.11-2-7.68-8.19-10-4.71-1.74-10.74-.07-17.92,5A1.5,1.5,0,0,1,34.65,7.1c8-5.65,15-7.44,20.71-5.31,7.66,2.85,9.94,11.66,10,12a1.5,1.5,0,0,1-1.09,1.82A1.57,1.57,0,0,1,63.93,15.69Z"/></g></g></svg>