<svg xmlns="http://www.w3.org/2000/svg" viewBox="0 0 103.99 95.93"><defs><style>.cls-1{fill:#474747;}</style></defs><title>Asset 2033</title><g id="Layer_2" data-name="Layer 2"><g id="Layer_1-2" data-name="Layer 1"><path class="cls-1" d="M98.2,63.06H5.77a5.77,5.77,0,1,1,0-11.53H98.2a5.77,5.77,0,0,1,0,11.53ZM5.77,54.53a2.77,2.77,0,1,0,0,5.53H98.2a2.77,2.77,0,0,0,0-5.53Z"/><path class="cls-1" d="M90.29,53.93H17.42a1.51,1.51,0,0,1-1.15-.53,1.55,1.55,0,0,1-.33-1.23l1.39-7.87a1.5,1.5,0,0,1,1.47-1.24H88.9a1.5,1.5,0,0,1,1.48,1.24l1.38,7.87a1.48,1.48,0,0,1-1.47,1.76Zm-71.08-3H88.5l-.86-4.87H20.06Z"/><path class="cls-1" d="M86.22,30.76H21.49a1.51,1.51,0,0,1-1.15-.53A1.55,1.55,0,0,1,20,29l3.12-17.75C24.31,4.94,29.51,0,35,0H72.73C78.2,0,83.4,4.94,84.57,11.24h0L87.69,29a1.48,1.48,0,0,1-1.47,1.76Zm-62.94-3H84.43l-2.81-16C80.72,6.94,76.73,3,72.73,3H35c-4,0-8,3.94-8.9,8.79Z"/><path class="cls-1" d="M88.9,46.06H18.8a1.5,1.5,0,0,1-1.47-1.76L20,29a1.51,1.51,0,0,1,1.48-1.24H86.22A1.49,1.49,0,0,1,87.69,29l2.69,15.3a1.5,1.5,0,0,1-1.48,1.76Zm-68.31-3H87.12L85,30.76H22.75Z"/><path class="cls-1" d="M9.78,81.63H1.5A1.5,1.5,0,0,1,0,80.13v-10a1.5,1.5,0,0,1,1.5-1.5H9.78a1.5,1.5,0,0,1,1.5,1.5v10A1.51,1.51,0,0,1,9.78,81.63ZM3,78.63H8.28v-7H3Z"/><path class="cls-1" d="M55.52,81.63H48.35a1.51,1.51,0,0,1-1.5-1.5v-10a1.5,1.5,0,0,1,1.5-1.5h7.17a1.5,1.5,0,0,1,1.5,1.5v10A1.5,1.5,0,0,1,55.52,81.63Zm-5.67-3H54v-7H49.85Z"/><path class="cls-1" d="M32.36,95.93H22.42A14.15,14.15,0,0,1,8.28,81.79V70.17a1.5,1.5,0,0,1,1.5-1.5H48.35a1.5,1.5,0,0,1,1.5,1.5v8.27A17.51,17.51,0,0,1,32.36,95.93ZM11.28,71.67V81.79A11.16,11.16,0,0,0,22.42,92.93h9.94A14.51,14.51,0,0,0,46.85,78.44V71.67Z"/><path class="cls-1" d="M102.49,81.63H94.21a1.5,1.5,0,0,1-1.5-1.5v-10a1.5,1.5,0,0,1,1.5-1.5h8.28a1.5,1.5,0,0,1,1.5,1.5v10A1.5,1.5,0,0,1,102.49,81.63Zm-6.78-3H101v-7H95.71Z"/><path class="cls-1" d="M81.57,95.93H71.62A17.51,17.51,0,0,1,54.13,78.44V70.17a1.5,1.5,0,0,1,1.5-1.5H94.21a1.5,1.5,0,0,1,1.5,1.5V81.79A14.15,14.15,0,0,1,81.57,95.93ZM57.13,71.67v6.77A14.51,14.51,0,0,0,71.62,92.93h9.95A11.16,11.16,0,0,0,92.71,81.79V71.67Z"/></g></g></svg>