<svg xmlns="http://www.w3.org/2000/svg" viewBox="0 0 104.57 103.11"><defs><style>.cls-1{fill:#474747;}</style></defs><title>Asset 2008</title><g id="Layer_2" data-name="Layer 2"><g id="Layer_1-2" data-name="Layer 1"><path class="cls-1" d="M57.92,89.36H46.06a1.49,1.49,0,0,1-1.21-.62,1.53,1.53,0,0,1-.22-1.34l2.5-7.71A8.18,8.18,0,0,1,43.6,73a8.39,8.39,0,0,1,16.78,0,8.18,8.18,0,0,1-3.53,6.72l2.5,7.71a1.51,1.51,0,0,1-1.43,2Zm-9.8-3h7.74l-2.23-6.88a1.51,1.51,0,0,1,.76-1.81,5.25,5.25,0,0,0,3-4.7A5.39,5.39,0,0,0,46.6,73a5.25,5.25,0,0,0,3,4.7,1.51,1.51,0,0,1,.76,1.81Z"/><path class="cls-1" d="M70.22,53.94H64.83a1.5,1.5,0,0,1-1.5-1.5v-16a4.75,4.75,0,0,0-4.79-4.7H45.44a4.75,4.75,0,0,0-4.79,4.7v16a1.5,1.5,0,0,1-1.5,1.5H33.76a1.5,1.5,0,0,1-1.5-1.5v-16a13.11,13.11,0,0,1,13.18-13h13.1a13.11,13.11,0,0,1,13.18,13v16A1.5,1.5,0,0,1,70.22,53.94Zm-3.89-3h2.39V36.46a10.11,10.11,0,0,0-10.18-10H45.44a10.11,10.11,0,0,0-10.18,10V50.94h2.39V36.46a7.75,7.75,0,0,1,7.79-7.7h13.1a7.75,7.75,0,0,1,7.79,7.7Z"/><path class="cls-1" d="M83.72,71.79H77.57a1.5,1.5,0,0,1-1.5-1.5V53.94H27.91V70.29a1.5,1.5,0,0,1-1.5,1.5H20.85a20.85,20.85,0,0,1-.19-41.7,22.83,22.83,0,0,1-1.08-7A23.09,23.09,0,0,1,62.06,10.55a22.83,22.83,0,0,1,4.15-.39,23.1,23.1,0,0,1,23,20.65,20.85,20.85,0,0,1-5.44,41Zm-4.65-3h4.65a17.85,17.85,0,0,0,3.73-35.31,1.5,1.5,0,0,1-1.19-1.38A20.1,20.1,0,0,0,66.21,13.16a19.86,19.86,0,0,0-4.53.54A1.51,1.51,0,0,1,60,13,20.09,20.09,0,0,0,22.58,23.11,20,20,0,0,0,24.19,31a1.48,1.48,0,0,1-.13,1.41,1.46,1.46,0,0,1-1.25.68h-2a17.85,17.85,0,0,0,0,35.7h4.06V52.44a1.5,1.5,0,0,1,1.5-1.5H77.57a1.5,1.5,0,0,1,1.5,1.5Z"/><path class="cls-1" d="M77.57,103.11H26.41a1.5,1.5,0,0,1-1.5-1.5V52.44a1.5,1.5,0,0,1,1.5-1.5H77.57a1.5,1.5,0,0,1,1.5,1.5v49.17A1.5,1.5,0,0,1,77.57,103.11Zm-49.66-3H76.07V53.94H27.91Z"/></g></g></svg>