<svg xmlns="http://www.w3.org/2000/svg" viewBox="0 0 105.87 103.1"><defs><style>.cls-1{fill:#474747;}</style></defs><title>Asset 2029</title><g id="Layer_2" data-name="Layer 2"><g id="Layer_1-2" data-name="Layer 1"><path class="cls-1" d="M67.08,72.58H40.74a1.5,1.5,0,0,1-1.5-1.5V44.74a1.5,1.5,0,0,1,1.5-1.5H67.08a1.5,1.5,0,0,1,1.5,1.5V71.08A1.5,1.5,0,0,1,67.08,72.58Zm-24.84-3H65.58V46.24H42.24Z"/><path class="cls-1" d="M61.71,46.24H46.1a1.5,1.5,0,0,1-1.5-1.5v-5a9.31,9.31,0,1,1,18.61,0v5A1.5,1.5,0,0,1,61.71,46.24Zm-14.11-3H60.21v-3.5a6.31,6.31,0,1,0-12.61,0Z"/><path class="cls-1" d="M58,67H49.83a1.49,1.49,0,0,1-1.21-.62A1.52,1.52,0,0,1,48.4,65L50,59.93a6.16,6.16,0,0,1-2.35-4.85,6.24,6.24,0,0,1,12.47,0,6.16,6.16,0,0,1-2.35,4.85L59.41,65A1.51,1.51,0,0,1,58,67Zm-6.1-3h4l-1.35-4.22A1.5,1.5,0,0,1,55.34,58a3.24,3.24,0,1,0-2.87,0,1.5,1.5,0,0,1,.76,1.79Z"/><path class="cls-1" d="M13.2,87.06A1.51,1.51,0,0,1,12,86.51,53,53,0,0,1,4.32,31.94,5.68,5.68,0,1,1,14.76,36.4a41,41,0,0,0-3.29,16.17,1.5,1.5,0,0,1-3,0A44,44,0,0,1,12,35.23,2.72,2.72,0,0,0,12,33a2.66,2.66,0,0,0-1.64-1.42,2.71,2.71,0,0,0-3.25,1.54,50,50,0,0,0,7.29,51.48,1.5,1.5,0,0,1-1.16,2.45Z"/><path class="cls-1" d="M36.37,103.1a1.61,1.61,0,0,1-.48-.08,52.67,52.67,0,0,1-17-9.61,1.5,1.5,0,1,1,1.93-2.29,49.75,49.75,0,0,0,16.05,9.06,1.5,1.5,0,0,1-.48,2.92Z"/><path class="cls-1" d="M84.69,97.49A1.52,1.52,0,0,1,83.55,97a1.5,1.5,0,0,1,.16-2.12A55.5,55.5,0,0,0,94.86,81.51a1.5,1.5,0,0,1,2.56,1.56A58.49,58.49,0,0,1,85.66,97.13,1.5,1.5,0,0,1,84.69,97.49Z"/><path class="cls-1" d="M103.48,45.06A1.5,1.5,0,0,1,102,43.83,49.94,49.94,0,0,0,23.86,12.32a2.66,2.66,0,0,0-.72,3.59,2.54,2.54,0,0,0,1.7,1.15,2.6,2.6,0,0,0,2-.46,44.39,44.39,0,0,1,51.32-.4,1.5,1.5,0,1,1-1.72,2.46A41.38,41.38,0,0,0,28.64,19a5.67,5.67,0,0,1-4.35,1,5.54,5.54,0,0,1-3.67-2.48,5.64,5.64,0,0,1,1.5-7.65A52.52,52.52,0,0,1,54,0,53.14,53.14,0,0,1,101.6,32.23,51.8,51.8,0,0,1,105,43.28a1.5,1.5,0,0,1-1.2,1.75A1.27,1.27,0,0,1,103.48,45.06Z"/><path class="cls-1" d="M32.35,91.71a1.39,1.39,0,0,1-.71-.18A44.58,44.58,0,0,1,10,64.21a1.5,1.5,0,1,1,2.89-.78A41.6,41.6,0,0,0,33.07,88.9a1.5,1.5,0,0,1-.72,2.81Z"/><path class="cls-1" d="M96.15,77.79a6,6,0,0,1-5.51-8.46A41.38,41.38,0,0,0,86.78,29a1.5,1.5,0,1,1,2.46-1.71,44.36,44.36,0,0,1,4.14,43.29,3,3,0,0,0,3,4.23A3,3,0,0,0,98.92,73a50.37,50.37,0,0,0,3.43-12.31,51.88,51.88,0,0,0,.52-7.28,1.5,1.5,0,1,1,3,0,55,55,0,0,1-.55,7.71,53.18,53.18,0,0,1-3.64,13,6,6,0,0,1-5.07,3.63Z"/><path class="cls-1" d="M51.6,90.11h-.2c-19.09-2.47-34-18.95-34-37.53a35.81,35.81,0,0,1,.72-7.17,5.81,5.81,0,0,1,10.15-2.55,5.65,5.65,0,0,1,1.2,4.77,24.62,24.62,0,0,0-.5,4.93A24.13,24.13,0,0,0,37.8,71.28a1.5,1.5,0,1,1-1.9,2.32,27.13,27.13,0,0,1-10-21A27.59,27.59,0,0,1,26.49,47a2.75,2.75,0,0,0-2.79-3.26A2.76,2.76,0,0,0,21,46a32.83,32.83,0,0,0-.66,6.57c0,19.09,16,32.56,31.43,34.55a1.5,1.5,0,0,1-.19,3Z"/><path class="cls-1" d="M82.92,79.46a1.47,1.47,0,0,1-.54-.1,1.5,1.5,0,0,1-.86-1.94,66.31,66.31,0,0,0,4.4-24.85A32.79,32.79,0,0,0,31.56,27.89l-.64.76a2.73,2.73,0,0,0,1.66,4.45,2.79,2.79,0,0,0,2.29-.72,27.23,27.23,0,0,1,31.41-3.66,1.5,1.5,0,0,1-1.45,2.62,24.23,24.23,0,0,0-27.94,3.27,5.83,5.83,0,0,1-4.74,1.46,5.63,5.63,0,0,1-4-2.63,5.69,5.69,0,0,1,.49-6.75l.72-.83a1,1,0,0,1,.14-.15A35.79,35.79,0,0,1,88.92,52.57a69.15,69.15,0,0,1-4.6,25.93A1.51,1.51,0,0,1,82.92,79.46Z"/><path class="cls-1" d="M53.14,98.43a35.41,35.41,0,0,1-14.34-3A1.5,1.5,0,1,1,40,92.7,32.87,32.87,0,0,0,74,88a1.5,1.5,0,0,1,1.91,2.31A35.85,35.85,0,0,1,53.14,98.43Z"/><path class="cls-1" d="M74,80.6a1.5,1.5,0,0,1-1.23-2.36c4.7-6.71,5.09-17.32,4.63-19.16a1.5,1.5,0,0,1,2.91-.72c.77,3.07-.07,14.45-5.08,21.6A1.5,1.5,0,0,1,74,80.6Z"/><path class="cls-1" d="M78.85,54.05a1.5,1.5,0,0,1-1.5-1.5,24,24,0,0,0-5.2-15,1.5,1.5,0,1,1,2.36-1.86,27,27,0,0,1,5.84,16.85A1.5,1.5,0,0,1,78.85,54.05Z"/><path class="cls-1" d="M12.73,24.4a5.08,5.08,0,1,1,5.08-5.08A5.09,5.09,0,0,1,12.73,24.4Zm0-7.16a2.08,2.08,0,1,0,2.08,2.08A2.08,2.08,0,0,0,12.73,17.24Z"/><path class="cls-1" d="M82.62,90.64a5.08,5.08,0,1,1,5.08-5.08A5.09,5.09,0,0,1,82.62,90.64Zm0-7.16a2.08,2.08,0,1,0,2.08,2.08A2.08,2.08,0,0,0,82.62,83.48Z"/><path class="cls-1" d="M54.68,81.05a27.43,27.43,0,0,1-13.44-3.36,1.5,1.5,0,1,1,1.48-2.61c8.43,4.75,19.24,3.06,23.49.08a1.5,1.5,0,0,1,1.73,2.45C65.15,79.57,60.19,81.05,54.68,81.05Z"/><path class="cls-1" d="M58.64,90.11a1.5,1.5,0,0,1-.17-3c.06,0,6.94-.86,10.33-4.61a1.5,1.5,0,0,1,2.23,2c-4.17,4.59-11.89,5.53-12.22,5.57Z"/></g></g></svg>