<svg xmlns="http://www.w3.org/2000/svg" viewBox="0 0 103.48 102.2"><defs><style>.cls-1{fill:#474747;}</style></defs><title>Asset 2032</title><g id="Layer_2" data-name="Layer 2"><g id="Layer_1-2" data-name="Layer 1"><path class="cls-1" d="M60,83.51H44.83a1.49,1.49,0,0,1-1.42-2l3.28-10.14A10,10,0,0,1,42.11,63a10.3,10.3,0,0,1,20.6,0,10,10,0,0,1-4.58,8.41l3.28,10.14a1.51,1.51,0,0,1-.21,1.35A1.54,1.54,0,0,1,60,83.51Zm-13.08-3h11l-3-9.33a1.51,1.51,0,0,1,.76-1.81A7.1,7.1,0,0,0,59.71,63a7.3,7.3,0,0,0-14.6,0,7.1,7.1,0,0,0,4,6.37,1.5,1.5,0,0,1,.77,1.81Z"/><path class="cls-1" d="M84.41,102.2H19.07a1.5,1.5,0,0,1-1.5-1.5V37.88a1.5,1.5,0,0,1,1.5-1.5H84.41a1.5,1.5,0,0,1,1.5,1.5V100.7A1.5,1.5,0,0,1,84.41,102.2Zm-63.84-3H82.91V39.38H20.57Z"/><path class="cls-1" d="M32.85,57.79H19.07a1.5,1.5,0,0,1-1.5-1.5V48.4a1.5,1.5,0,0,1,1.5-1.5H32.85a1.5,1.5,0,0,1,1.5,1.5v7.89A1.5,1.5,0,0,1,32.85,57.79Zm-12.28-3H31.35V49.9H20.57Z"/><path class="cls-1" d="M32.85,76.07H19.07a1.5,1.5,0,0,1-1.5-1.5V66.68a1.5,1.5,0,0,1,1.5-1.5H32.85a1.5,1.5,0,0,1,1.5,1.5v7.89A1.5,1.5,0,0,1,32.85,76.07Zm-12.28-3H31.35V68.18H20.57Z"/><path class="cls-1" d="M32.85,94.34H19.07a1.5,1.5,0,0,1-1.5-1.5V85a1.5,1.5,0,0,1,1.5-1.5H32.85a1.5,1.5,0,0,1,1.5,1.5v7.89A1.5,1.5,0,0,1,32.85,94.34Zm-12.28-3H31.35V86.45H20.57Z"/><path class="cls-1" d="M84.41,57.79H70.63a1.5,1.5,0,0,1-1.5-1.5V48.4a1.5,1.5,0,0,1,1.5-1.5H84.41a1.5,1.5,0,0,1,1.5,1.5v7.89A1.5,1.5,0,0,1,84.41,57.79Zm-12.28-3H82.91V49.9H72.13Z"/><path class="cls-1" d="M84.41,76.07H70.63a1.5,1.5,0,0,1-1.5-1.5V66.68a1.5,1.5,0,0,1,1.5-1.5H84.41a1.5,1.5,0,0,1,1.5,1.5v7.89A1.5,1.5,0,0,1,84.41,76.07Zm-12.28-3H82.91V68.18H72.13Z"/><path class="cls-1" d="M84.41,94.34H70.63a1.5,1.5,0,0,1-1.5-1.5V85a1.5,1.5,0,0,1,1.5-1.5H84.41a1.5,1.5,0,0,1,1.5,1.5v7.89A1.5,1.5,0,0,1,84.41,94.34Zm-12.28-3H82.91V86.45H72.13Z"/><path class="cls-1" d="M75.7,38.92H68.81a1.5,1.5,0,0,1-1.5-1.5V17a6.49,6.49,0,0,0-6.54-6.42H44.05A6.49,6.49,0,0,0,37.5,17v20.4a1.5,1.5,0,0,1-1.5,1.5H29.12a1.5,1.5,0,0,1-1.5-1.5V17A16.34,16.34,0,0,1,44.05.82H60.77A16.34,16.34,0,0,1,77.2,17v20.4A1.5,1.5,0,0,1,75.7,38.92Zm-5.39-3H74.2V17A13.33,13.33,0,0,0,60.77,3.82H44.05A13.33,13.33,0,0,0,30.62,17v18.9H34.5V17A9.49,9.49,0,0,1,44.05,7.6H60.77A9.49,9.49,0,0,1,70.31,17Z"/><path class="cls-1" d="M10,19.92a10,10,0,1,1,10-10A10,10,0,0,1,10,19.92ZM10,3a7,7,0,1,0,7,7A7,7,0,0,0,10,3Z"/><path class="cls-1" d="M19.07,69.78H9a1.5,1.5,0,0,1-1.5-1.5V18.42a1.5,1.5,0,0,1,3,0V66.78h8.56a1.5,1.5,0,0,1,0,3Z"/><path class="cls-1" d="M93.52,21.11a10,10,0,1,1,10-10A10,10,0,0,1,93.52,21.11Zm0-16.92a7,7,0,1,0,7,7A7,7,0,0,0,93.52,4.19Z"/><path class="cls-1" d="M94.47,71H84.41a1.5,1.5,0,0,1,0-3H93V19.61a1.5,1.5,0,0,1,3,0V69.47A1.51,1.51,0,0,1,94.47,71Z"/></g></g></svg>