<svg xmlns="http://www.w3.org/2000/svg" viewBox="0 0 104.45 103.13"><defs><style>.cls-1{fill:#474747;}</style></defs><title>Asset 2027</title><g id="Layer_2" data-name="Layer 2"><g id="Layer_1-2" data-name="Layer 1"><path class="cls-1" d="M103,25.78H1.5A1.5,1.5,0,0,1,0,24.28V1.5A1.5,1.5,0,0,1,1.5,0H103a1.5,1.5,0,0,1,1.5,1.5V24.28A1.5,1.5,0,0,1,103,25.78ZM3,22.78h98.45V3H3Z"/><path class="cls-1" d="M103,103.13H1.5a1.5,1.5,0,0,1-1.5-1.5V73.84a1.5,1.5,0,0,1,1.5-1.5H103a1.5,1.5,0,0,1,1.5,1.5v27.79A1.5,1.5,0,0,1,103,103.13ZM3,100.13h98.45V75.34H3Z"/><path class="cls-1" d="M64.9,68.87H39.59a1.5,1.5,0,0,1-1.5-1.5V42.05a1.5,1.5,0,0,1,1.5-1.5H64.9a1.5,1.5,0,0,1,1.5,1.5V67.37A1.5,1.5,0,0,1,64.9,68.87Zm-23.81-3H63.4V43.55H41.09Z"/><path class="cls-1" d="M59.74,43.55h-15a1.5,1.5,0,0,1-1.5-1.5v-4.8a9,9,0,0,1,18,0v4.8A1.5,1.5,0,0,1,59.74,43.55Zm-13.5-3h12v-3.3a6,6,0,0,0-12,0Z"/><path class="cls-1" d="M56.16,63.48H48.33a1.49,1.49,0,0,1-1.21-.62,1.46,1.46,0,0,1-.22-1.34l1.54-4.84a6.05,6.05,0,1,1,7.6,0l1.55,4.84a1.52,1.52,0,0,1-.22,1.34A1.49,1.49,0,0,1,56.16,63.48Zm-5.78-3h3.73l-1.27-4a1.52,1.52,0,0,1,.76-1.8A3,3,0,0,0,55.29,52a3.05,3.05,0,1,0-6.1,0,3,3,0,0,0,1.7,2.71,1.52,1.52,0,0,1,.76,1.8Z"/><path class="cls-1" d="M39.59,47.91H17.41a1.5,1.5,0,0,1-1.5-1.5V16.79a1.5,1.5,0,0,1,3,0V44.91H39.59a1.5,1.5,0,0,1,0,3Z"/><path class="cls-1" d="M87,47.91H65a1.5,1.5,0,0,1,0-3H85.54V16.79a1.5,1.5,0,0,1,3,0V46.41A1.5,1.5,0,0,1,87,47.91Z"/><path class="cls-1" d="M87.18,85.42a1.5,1.5,0,0,1-1.5-1.5V57.8H64.9a1.5,1.5,0,0,1,0-3H87.18a1.5,1.5,0,0,1,1.5,1.5V83.92A1.5,1.5,0,0,1,87.18,85.42Z"/><path class="cls-1" d="M17.55,85.42a1.5,1.5,0,0,1-1.5-1.5V56.3a1.5,1.5,0,0,1,1.5-1.5h22a1.5,1.5,0,0,1,0,3H19.05V83.92A1.5,1.5,0,0,1,17.55,85.42Z"/><path class="cls-1" d="M17.55,96.26a6.18,6.18,0,1,1,6.18-6.17A6.18,6.18,0,0,1,17.55,96.26Zm0-9.35a3.18,3.18,0,1,0,3.18,3.18A3.18,3.18,0,0,0,17.55,86.91Z"/><path class="cls-1" d="M87.18,94.37a6.18,6.18,0,1,1,6.17-6.18A6.18,6.18,0,0,1,87.18,94.37Zm0-9.35a3.18,3.18,0,1,0,3.17,3.17A3.18,3.18,0,0,0,87.18,85Z"/><path class="cls-1" d="M17.41,18.12a6.18,6.18,0,1,1,6.18-6.18A6.18,6.18,0,0,1,17.41,18.12Zm0-9.35a3.18,3.18,0,1,0,3.18,3.17A3.17,3.17,0,0,0,17.41,8.77Z"/><path class="cls-1" d="M87,18.12a6.18,6.18,0,1,1,6.17-6.18A6.18,6.18,0,0,1,87,18.12Zm0-9.35a3.18,3.18,0,1,0,3.17,3.17A3.18,3.18,0,0,0,87,8.77Z"/><path class="cls-1" d="M52.24,31.25a1.5,1.5,0,0,1-1.5-1.5l0-13a1.5,1.5,0,0,1,1.5-1.5h0a1.5,1.5,0,0,1,1.5,1.5l0,13a1.5,1.5,0,0,1-1.5,1.5Z"/><path class="cls-1" d="M52.22,18.12a6.18,6.18,0,1,1,6.18-6.18A6.18,6.18,0,0,1,52.22,18.12Zm0-9.35a3.18,3.18,0,1,0,3.18,3.17A3.17,3.17,0,0,0,52.22,8.77Z"/><path class="cls-1" d="M52.22,81.77h0a1.5,1.5,0,0,1-1.5-1.5l0-13a1.5,1.5,0,0,1,1.5-1.49h0a1.5,1.5,0,0,1,1.5,1.5l0,13A1.5,1.5,0,0,1,52.22,81.77Z"/><path class="cls-1" d="M52.22,91.29a6.18,6.18,0,1,1,6.18-6.18A6.18,6.18,0,0,1,52.22,91.29Zm0-9.35a3.18,3.18,0,1,0,3.18,3.17A3.17,3.17,0,0,0,52.22,81.94Z"/></g></g></svg>