<svg xmlns="http://www.w3.org/2000/svg" viewBox="0 0 103.85 105.04"><defs><style>.cls-1{fill:#474747;}</style></defs><title>Asset 2061</title><g id="Layer_2" data-name="Layer 2"><g id="Layer_1-2" data-name="Layer 1"><path class="cls-1" d="M102.32,105H1.5a1.5,1.5,0,0,1-1.5-1.5V14.75a1.5,1.5,0,0,1,1.5-1.5H102.32a1.5,1.5,0,0,1,1.5,1.5v88.79A1.5,1.5,0,0,1,102.32,105ZM3,102h97.82V16.25H3Z"/><path class="cls-1" d="M102.35,16.25H1.53A1.5,1.5,0,0,1,0,14.75V1.5A1.5,1.5,0,0,1,1.53,0H102.35a1.5,1.5,0,0,1,1.5,1.5V14.75A1.5,1.5,0,0,1,102.35,16.25ZM3,13.25h97.82V3H3Z"/><path class="cls-1" d="M10.17,9.62a1.62,1.62,0,0,1-.58-.11,1.6,1.6,0,0,1-.81-.81,1.66,1.66,0,0,1-.11-.58,1.43,1.43,0,0,1,0-.29,2.29,2.29,0,0,1,.08-.28,2.15,2.15,0,0,1,.14-.26,2.11,2.11,0,0,1,.19-.23,1.49,1.49,0,0,1,1.35-.41,1.31,1.31,0,0,1,.28.09,1.26,1.26,0,0,1,.26.13,1.57,1.57,0,0,1,.42.42,1.26,1.26,0,0,1,.13.26,1.31,1.31,0,0,1,.09.28,1.43,1.43,0,0,1,0,.29,1.47,1.47,0,0,1-.12.58,1.39,1.39,0,0,1-.32.48A1.47,1.47,0,0,1,10.17,9.62Z"/><path class="cls-1" d="M18.26,8.12a1.5,1.5,0,0,1,1.5-1.5h0a1.5,1.5,0,0,1,1.5,1.5h0a1.5,1.5,0,0,1-1.5,1.5h0A1.5,1.5,0,0,1,18.26,8.12Z"/><path class="cls-1" d="M29.36,9.62a1.46,1.46,0,0,1-1.06-.44A1.29,1.29,0,0,1,28,8.7a1.46,1.46,0,0,1-.11-.58,1.43,1.43,0,0,1,0-.29A.9.9,0,0,1,28,7.55a2.15,2.15,0,0,1,.14-.26,1.37,1.37,0,0,1,.19-.23,1.55,1.55,0,0,1,2.12,0,1.3,1.3,0,0,1,.18.23.94.94,0,0,1,.14.26,1.31,1.31,0,0,1,.09.28,1.43,1.43,0,0,1,0,.29,1.47,1.47,0,0,1-.12.58,1.39,1.39,0,0,1-.32.48,1.63,1.63,0,0,1-.49.33A1.56,1.56,0,0,1,29.36,9.62Z"/><path class="cls-1" d="M87.07,55.32H18a1.5,1.5,0,0,1-1.5-1.5v-16A1.5,1.5,0,0,1,18,36.3H87.07a1.5,1.5,0,0,1,1.5,1.5v16A1.5,1.5,0,0,1,87.07,55.32Zm-67.56-3H85.57v-13H19.51Z"/><path class="cls-1" d="M24.23,47.3a1.5,1.5,0,0,1-1.5-1.49,1.53,1.53,0,0,1,0-.3,1.47,1.47,0,0,1,.08-.28A2.15,2.15,0,0,1,23,45a1.37,1.37,0,0,1,.19-.23,1.54,1.54,0,0,1,1.35-.41,1.52,1.52,0,0,1,1.09.9,1.41,1.41,0,0,1,.12.58,1.42,1.42,0,0,1-.12.57,1.39,1.39,0,0,1-.32.48,1.33,1.33,0,0,1-.49.33A1.38,1.38,0,0,1,24.23,47.3Z"/><path class="cls-1" d="M67.9,45.81a1.5,1.5,0,0,1,1.5-1.5h0a1.5,1.5,0,0,1,1.5,1.5h0a1.5,1.5,0,0,1-1.5,1.5h0A1.5,1.5,0,0,1,67.9,45.81Zm-11.3,0a1.5,1.5,0,0,1,1.5-1.5h0a1.5,1.5,0,0,1,1.5,1.5h0a1.5,1.5,0,0,1-1.5,1.5h0A1.51,1.51,0,0,1,56.6,45.81Zm-11.29,0a1.5,1.5,0,0,1,1.5-1.5h0a1.5,1.5,0,0,1,1.5,1.5h0a1.5,1.5,0,0,1-1.5,1.5h0A1.5,1.5,0,0,1,45.31,45.81ZM34,45.81a1.5,1.5,0,0,1,1.5-1.5h0a1.5,1.5,0,0,1,1.5,1.5h0a1.5,1.5,0,0,1-1.5,1.5h0A1.5,1.5,0,0,1,34,45.81Z"/><path class="cls-1" d="M80.69,47.3a1.38,1.38,0,0,1-.57-.11,1.25,1.25,0,0,1-.49-.33,1.58,1.58,0,0,1-.33-.48,1.6,1.6,0,0,1-.11-.57,1.53,1.53,0,0,1,0-.3c0-.09,0-.19.08-.28a2.15,2.15,0,0,1,.14-.26,2.11,2.11,0,0,1,.19-.23,1,1,0,0,1,.23-.18,1.08,1.08,0,0,1,.26-.14,1.31,1.31,0,0,1,.28-.09,1.55,1.55,0,0,1,1.35.41,2.11,2.11,0,0,1,.19.23,2.15,2.15,0,0,1,.14.26c0,.09.06.19.08.28a1.53,1.53,0,0,1,0,.3,1.6,1.6,0,0,1-.11.57,1.58,1.58,0,0,1-.33.48A1.46,1.46,0,0,1,80.69,47.3Z"/><path class="cls-1" d="M86.85,78H17.79a1.5,1.5,0,0,1-1.5-1.5v-16a1.5,1.5,0,0,1,1.5-1.5H86.85a1.5,1.5,0,0,1,1.5,1.5v16A1.5,1.5,0,0,1,86.85,78ZM19.29,75H85.35v-13H19.29Z"/><path class="cls-1" d="M24,69.93a1.5,1.5,0,0,1-1.5-1.5,1.43,1.43,0,0,1,0-.29,2.29,2.29,0,0,1,.08-.28,2.15,2.15,0,0,1,.14-.26,2.11,2.11,0,0,1,.19-.23,1,1,0,0,1,.23-.18.82.82,0,0,1,.26-.14,1.31,1.31,0,0,1,.28-.09,1.53,1.53,0,0,1,1.35.41,2.11,2.11,0,0,1,.19.23,1.26,1.26,0,0,1,.13.26,1.31,1.31,0,0,1,.09.28,1.43,1.43,0,0,1,0,.29,1.5,1.5,0,0,1-.44,1.06A1.47,1.47,0,0,1,24,69.93Z"/><path class="cls-1" d="M46.89,68.43a1.5,1.5,0,0,1,1.5-1.5h0a1.5,1.5,0,0,1,1.5,1.5h0a1.5,1.5,0,0,1-1.5,1.5h0A1.5,1.5,0,0,1,46.89,68.43Zm-12.19,0a1.5,1.5,0,0,1,1.5-1.5h0a1.5,1.5,0,0,1,1.5,1.5h0a1.5,1.5,0,0,1-1.5,1.5h0A1.5,1.5,0,0,1,34.7,68.43Z"/><path class="cls-1" d="M60.58,69.93a1.46,1.46,0,0,1-1.06-.44,1.5,1.5,0,0,1-.44-1.06,1.43,1.43,0,0,1,0-.29,1.31,1.31,0,0,1,.09-.28,1.26,1.26,0,0,1,.13-.26,2.11,2.11,0,0,1,.19-.23,1.55,1.55,0,0,1,2.12,0,2.11,2.11,0,0,1,.19.23,2.15,2.15,0,0,1,.14.26,2.29,2.29,0,0,1,.08.28,1.5,1.5,0,0,1,0,.29,1.5,1.5,0,0,1-1.5,1.5Z"/></g></g></svg>