<svg xmlns="http://www.w3.org/2000/svg" viewBox="0 0 102.5 103.68"><defs><style>.cls-1{fill:#444;}.cls-2{fill:#363636;}</style></defs><title>Asset 2054</title><g id="Layer_2" data-name="Layer 2"><g id="Layer_1-2" data-name="Layer 1"><path class="cls-1" d="M94.32,89.77H8.39a1.5,1.5,0,0,1-1.5-1.5V33.33a1.48,1.48,0,0,1,.61-1.21L50.46.29a1.52,1.52,0,0,1,1.79,0l43,31.83a1.5,1.5,0,0,1,.6,1.21V88.27A1.5,1.5,0,0,1,94.32,89.77Zm-84.43-3H92.82V34.08L51.36,3.37,9.89,34.08Z"/><path class="cls-2" d="M50.59,67.2h-.07a1.51,1.51,0,0,1-1.35-1L43.23,48.91a1.5,1.5,0,1,1,2.84-1l4.69,13.66,10.12-23a1.5,1.5,0,1,1,2.74,1.21L52,66.31A1.5,1.5,0,0,1,50.59,67.2Z"/><path class="cls-2" d="M51.36,80.16a27.7,27.7,0,0,1,0-55.39h0a27.7,27.7,0,0,1,0,55.39Zm0-52.39a24.7,24.7,0,1,0,24.7,24.69,24.72,24.72,0,0,0-24.7-24.69Z"/><path class="cls-1" d="M101,103.68H1.5a1.5,1.5,0,0,1-1.5-1.5V88.27a1.5,1.5,0,0,1,1.5-1.5H101a1.5,1.5,0,0,1,1.5,1.5v13.91A1.5,1.5,0,0,1,101,103.68Zm-98-3H99.5V89.77H3Z"/></g></g></svg>