<svg xmlns="http://www.w3.org/2000/svg" viewBox="0 0 102.8 101.65"><defs><style>.cls-1{fill:#474747;}.cls-2{fill:#363636;}</style></defs><title>Asset 2058</title><g id="Layer_2" data-name="Layer 2"><g id="Layer_1-2" data-name="Layer 1"><path class="cls-1" d="M37.45,101.65a1.41,1.41,0,0,1-.72-.19L9.09,86.19C3.48,83.09,0,76.81,0,69.79V8a1.5,1.5,0,0,1,1.5-1.5H17.16v-5A1.5,1.5,0,0,1,18.66,0H56.25a1.5,1.5,0,0,1,1.5,1.5v5H73.41A1.5,1.5,0,0,1,74.91,8V24.5a1.5,1.5,0,0,1-1.5,1.5H60.63V54.68a1.58,1.58,0,0,1-.12.58v13h12.9a1.5,1.5,0,0,1,1.5,1.5c0,7-3.48,13.32-9.09,16.42L38.18,101.46A1.47,1.47,0,0,1,37.45,101.65ZM3,9.52V69.79C3,75.63,6,81,10.54,83.56L37.45,98.44,64.37,83.56a15.47,15.47,0,0,0,7.47-12.29H59a1.5,1.5,0,0,1-1.5-1.5V54.68a1.4,1.4,0,0,1,.12-.58V24.5a1.5,1.5,0,0,1,1.5-1.5H71.91V9.52H56.25A1.5,1.5,0,0,1,54.75,8V3H20.16V8a1.5,1.5,0,0,1-1.5,1.5Z"/><path class="cls-1" d="M101.3,41.09H59.13a1.5,1.5,0,0,1-1.5-1.5V24.5a1.5,1.5,0,0,1,1.5-1.5H101.3a1.5,1.5,0,0,1,1.5,1.5V39.59A1.5,1.5,0,0,1,101.3,41.09Zm-40.67-3H99.8V26H60.63Z"/><path class="cls-1" d="M101.3,56.18H59.13a1.5,1.5,0,0,1-1.5-1.5V39.59a1.5,1.5,0,0,1,1.5-1.5H101.3a1.5,1.5,0,0,1,1.5,1.5V54.68A1.5,1.5,0,0,1,101.3,56.18Zm-40.67-3H99.8V41.09H60.63Z"/><path class="cls-1" d="M101.19,71.27H59a1.5,1.5,0,0,1-1.5-1.5V54.68a1.5,1.5,0,0,1,1.5-1.5h42.18a1.5,1.5,0,0,1,1.5,1.5V69.77A1.5,1.5,0,0,1,101.19,71.27Zm-40.68-3H99.69V56.18H60.51Z"/><path class="cls-2" d="M80.1,79.69a1.5,1.5,0,0,1-1.5-1.5V69.77a1.5,1.5,0,0,1,3,0v8.42A1.5,1.5,0,0,1,80.1,79.69Z"/><path class="cls-2" d="M80.1,92.1a7.25,7.25,0,1,1,7.25-7.25A7.26,7.26,0,0,1,80.1,92.1Zm0-11.5a4.25,4.25,0,1,0,4.25,4.25A4.26,4.26,0,0,0,80.1,80.6Z"/><path class="cls-2" d="M29.83,36.92h-.07A1.5,1.5,0,0,1,28.44,36l-2.69-6.67a1.5,1.5,0,0,1,2.79-1.12L30,31.83l3.78-7.31a1.5,1.5,0,0,1,2.67,1.37L31.16,36.11A1.48,1.48,0,0,1,29.83,36.92Z"/><path class="cls-2" d="M31.13,43.4a13,13,0,0,1,0-26h0a13,13,0,0,1,0,26Zm0-23a10,10,0,1,0,10,10A10,10,0,0,0,31.13,20.42Z"/><path class="cls-2" d="M29.83,70.37h-.07a1.52,1.52,0,0,1-1.32-.94l-2.69-6.67a1.5,1.5,0,0,1,2.79-1.12L30,65.27,33.78,58a1.5,1.5,0,0,1,2.67,1.38L31.16,69.56A1.48,1.48,0,0,1,29.83,70.37Z"/><path class="cls-2" d="M31.13,76.85a13,13,0,0,1,0-26h0a13,13,0,0,1,0,26Zm0-23a10,10,0,1,0,10,10,10,10,0,0,0-10-10Z"/></g></g></svg>