<svg xmlns="http://www.w3.org/2000/svg" viewBox="0 0 103.02 101.6"><defs><style>.cls-1{fill:#444;}</style></defs><title>Asset 2045</title><g id="Layer_2" data-name="Layer 2"><g id="Layer_1-2" data-name="Layer 1"><path class="cls-1" d="M98.39,83.43H4.63A4.64,4.64,0,0,1,0,78.8V4.63A4.64,4.64,0,0,1,4.63,0H98.39A4.63,4.63,0,0,1,103,4.63V78.8A4.63,4.63,0,0,1,98.39,83.43ZM4.63,3A1.63,1.63,0,0,0,3,4.63V78.8a1.63,1.63,0,0,0,1.63,1.63H98.39A1.63,1.63,0,0,0,100,78.8V4.63A1.63,1.63,0,0,0,98.39,3ZM95.26,77.16H7.76a1.5,1.5,0,0,1-1.5-1.5V7.76a1.51,1.51,0,0,1,1.5-1.5h87.5a1.5,1.5,0,0,1,1.5,1.5v67.9A1.5,1.5,0,0,1,95.26,77.16Zm-86-3h84.5V9.26H9.26Z"/><path class="cls-1" d="M72.36,101.6H29.05a1.5,1.5,0,0,1-1.5-1.5V94.18a1.5,1.5,0,0,1,1.5-1.5H72.36a1.5,1.5,0,0,1,1.5,1.5v5.92A1.5,1.5,0,0,1,72.36,101.6Zm-41.81-3H70.86V95.68H30.55Z"/><path class="cls-1" d="M66.25,95.68H35.9a1.5,1.5,0,0,1-1.36-2.13L40.22,81.3a1.49,1.49,0,0,1,1.36-.87h19a1.49,1.49,0,0,1,1.36.87l5.68,12.25a1.5,1.5,0,0,1-.1,1.44A1.49,1.49,0,0,1,66.25,95.68Zm-28-3H63.9l-4.29-9.25H42.54Z"/><path class="cls-1" d="M53.62,65A24.49,24.49,0,0,1,30.67,31.94l-1,.38a1.5,1.5,0,0,1-1.14,0,1.46,1.46,0,0,1-.78-.84l-2.28-6.21a1.46,1.46,0,0,1,0-1.14,1.5,1.5,0,0,1,.84-.78L38.2,18.94a4.8,4.8,0,0,1,6.16,2.85l4.36,11.87a1.5,1.5,0,0,1-.89,1.93l-6.2,2.28A1.51,1.51,0,0,1,39.7,37l-.31-.87a14.61,14.61,0,0,0-.68,4.41,14.91,14.91,0,1,0,14.91-14.9,1.5,1.5,0,0,1-1.5-1.5v-6.6a1.5,1.5,0,0,1,1.5-1.5,24.51,24.51,0,0,1,0,49ZM33.55,27.79a1.49,1.49,0,0,1,1.14.52A1.51,1.51,0,0,1,34.86,30,21.5,21.5,0,1,0,55.12,19.07v3.62a17.92,17.92,0,1,1-16.88,8.68,1.51,1.51,0,0,1,2.7.25L42,34.53l3.39-1.24L41.55,22.83a1.85,1.85,0,0,0-.94-1,1.76,1.76,0,0,0-1.37,0L28.77,25.6,30,29l3-1.1A1.33,1.33,0,0,1,33.55,27.79Z"/></g></g></svg>