<svg xmlns="http://www.w3.org/2000/svg" viewBox="0 0 104.78 104.35"><defs><style>.cls-1{fill:#444;}</style></defs><title>Asset 2040</title><g id="Layer_2" data-name="Layer 2"><g id="Layer_1-2" data-name="Layer 1"><path class="cls-1" d="M92.24,104.35A11.6,11.6,0,0,1,84,100.93L51.39,68.35a1.49,1.49,0,0,1,0-2.12L65.8,51.82a1.5,1.5,0,0,1,1.06-.44h0a1.5,1.5,0,0,1,1.06.44L100.5,84.4a11.69,11.69,0,0,1-8.26,19.95ZM54.57,67.29,86.09,98.81A8.69,8.69,0,0,0,98.38,86.52L66.86,55Z"/><path class="cls-1" d="M57.07,64.17A1.51,1.51,0,0,1,56,63.73l-5.25-5.25a1.5,1.5,0,0,1,0-2.12l5.17-5.17a1.49,1.49,0,0,1,2.12,0l5.25,5.25a1.49,1.49,0,0,1,0,2.12l-5.17,5.17A1.51,1.51,0,0,1,57.07,64.17Zm-3.13-6.75,3.13,3.13,3-3L57,54.37Z"/><path class="cls-1" d="M47.36,54.47A1.53,1.53,0,0,1,46.3,54L21.44,29.16a1.5,1.5,0,0,1,0-2.12l5.17-5.17a1.49,1.49,0,0,1,2.12,0L53.6,46.73a1.5,1.5,0,0,1,0,2.12L48.42,54A1.49,1.49,0,0,1,47.36,54.47ZM24.62,28.1,47.36,50.84l3.06-3.05L27.67,25.05Z"/><path class="cls-1" d="M19.59,103.85h-.18a1.54,1.54,0,0,1-1-.56l-3.89-5a1.46,1.46,0,0,1-.31-1.1,1.49,1.49,0,0,1,.56-1l8.11-6.37A3.79,3.79,0,0,0,24.51,87a6.23,6.23,0,0,0-2.05-4.67,6.18,6.18,0,0,0-4.67-2A3.68,3.68,0,0,0,15,81.83L8.57,90a1.54,1.54,0,0,1-1,.56,1.57,1.57,0,0,1-1.11-.31L1.51,86.38a1.5,1.5,0,0,1-.56-1,1.46,1.46,0,0,1,.31-1.1l6.36-8.1A12.89,12.89,0,0,1,17.13,71a14.51,14.51,0,0,1,8.17,1.91L73.84,24.37a14.54,14.54,0,0,1-1.91-8.18,13,13,0,0,1,5.25-9.57l8-6.3a1.5,1.5,0,0,1,2.1.25l3.9,5a1.5,1.5,0,0,1-.26,2.1L82.84,14a3.79,3.79,0,0,0-1.63,2.85,6.18,6.18,0,0,0,2.05,4.67,6.18,6.18,0,0,0,4.67,2.05A3.7,3.7,0,0,0,90.72,22l6.43-8.18a1.47,1.47,0,0,1,1-.57,1.55,1.55,0,0,1,1.1.31l5,3.9a1.5,1.5,0,0,1,.25,2.1l-6.37,8.1a12.85,12.85,0,0,1-9.5,5.17,14.49,14.49,0,0,1-8.17-1.91L31.88,79.49a14.49,14.49,0,0,1,1.91,8.17,13,13,0,0,1-5.25,9.57l-8,6.3A1.5,1.5,0,0,1,19.59,103.85Zm-1.78-6.2,2,2.59,6.87-5.39a10,10,0,0,0,4.08-7.4,11.76,11.76,0,0,0-2.06-7.36,1.49,1.49,0,0,1,.19-1.89L79.13,28A1.49,1.49,0,0,1,81,27.8a11.89,11.89,0,0,0,7.36,2.06,9.9,9.9,0,0,0,7.33-4l5.46-6.95-2.59-2-5.48,7a6.66,6.66,0,0,1-5,2.72,9.23,9.23,0,0,1-7-2.92,9.22,9.22,0,0,1-2.93-7,6.76,6.76,0,0,1,2.8-5l6.9-5.42-2-2.59L79,9a10,10,0,0,0-4.08,7.41A11.74,11.74,0,0,0,77,23.76a1.51,1.51,0,0,1-.19,1.89L26.58,75.87a1.51,1.51,0,0,1-1.89.19A11.81,11.81,0,0,0,17.34,74,9.94,9.94,0,0,0,10,78l-5.46,7,2.6,2,5.48-7a6.69,6.69,0,0,1,5-2.72,9.2,9.2,0,0,1,7,2.93,9.18,9.18,0,0,1,2.92,7,6.73,6.73,0,0,1-2.8,5Z"/><path class="cls-1" d="M22.5,29.6a1.58,1.58,0,0,1-.38-.05l-7.79-2.06a1.5,1.5,0,0,1-.68-.39L.44,13.89a1.49,1.49,0,0,1,0-2.12L11.57.64a1.49,1.49,0,0,1,2.12,0L26.9,13.85a1.43,1.43,0,0,1,.41.75L29,22.74a1.51,1.51,0,0,1-.41,1.37l-5.05,5.05A1.49,1.49,0,0,1,22.5,29.6Zm-7-4.91,6.57,1.74,3.86-3.87-1.45-6.91L12.63,3.82l-9,9Z"/></g></g></svg>