<svg xmlns="http://www.w3.org/2000/svg" viewBox="0 0 104.7 104.7"><defs><style>.cls-1{fill:#444;}</style></defs><title>Asset 2044</title><g id="Layer_2" data-name="Layer 2"><g id="Layer_1-2" data-name="Layer 1"><path class="cls-1" d="M103.2,104.7H1.5A1.5,1.5,0,0,1,0,103.2v-85a1.5,1.5,0,0,1,1.5-1.5H103.2a1.5,1.5,0,0,1,1.5,1.5v85A1.5,1.5,0,0,1,103.2,104.7ZM3,101.7h98.7v-82H3Z"/><path class="cls-1" d="M103.2,19.67H1.5A1.5,1.5,0,0,1,0,18.17V1.5A1.5,1.5,0,0,1,1.5,0H103.2a1.5,1.5,0,0,1,1.5,1.5V18.17A1.5,1.5,0,0,1,103.2,19.67ZM3,16.67h98.7V3H3Z"/><path class="cls-1" d="M42.74,89.5H26.07a1.5,1.5,0,0,1-1.5-1.5V46.49H17.65A1.5,1.5,0,0,1,16.56,44L33.31,26.15a1.54,1.54,0,0,1,2.19,0L52.25,44a1.49,1.49,0,0,1-1.09,2.52H44.24V88A1.5,1.5,0,0,1,42.74,89.5Zm-15.17-3H41.24V45a1.5,1.5,0,0,1,1.5-1.5h4.95L34.41,29.36,21.12,43.49h4.95a1.5,1.5,0,0,1,1.5,1.5Z"/><path class="cls-1" d="M69.09,93.18A1.48,1.48,0,0,1,68,92.71L51.24,74.89a1.51,1.51,0,0,1,1.09-2.53h6.92V30.86a1.5,1.5,0,0,1,1.5-1.5H77.42a1.5,1.5,0,0,1,1.5,1.5v41.5h6.92a1.51,1.51,0,0,1,1.38.91,1.49,1.49,0,0,1-.29,1.62L70.18,92.71A1.5,1.5,0,0,1,69.09,93.18ZM55.8,75.36,69.09,89.49,82.37,75.36h-5a1.5,1.5,0,0,1-1.5-1.5V32.36H62.25v41.5a1.5,1.5,0,0,1-1.5,1.5Z"/><path class="cls-1" d="M9.32,11.34a1.5,1.5,0,0,1-1.5-1.5,1.5,1.5,0,0,1,.44-1.06,1.56,1.56,0,0,1,2.13,0,1.5,1.5,0,0,1-1.07,2.56Z"/><path class="cls-1" d="M20.12,9.84a1.5,1.5,0,0,1,1.5-1.5h0a1.5,1.5,0,0,1,1.5,1.5h0a1.5,1.5,0,0,1-1.5,1.5h0A1.5,1.5,0,0,1,20.12,9.84Z"/><path class="cls-1" d="M33.92,11.34a1.5,1.5,0,0,1-1.06-.44,1.5,1.5,0,0,1,0-2.12,1.55,1.55,0,0,1,2.12,0,1.5,1.5,0,0,1,.44,1.06,1.36,1.36,0,0,1,0,.29,2.29,2.29,0,0,1-.08.28,2.15,2.15,0,0,1-.14.26,2.11,2.11,0,0,1-.19.23A1.5,1.5,0,0,1,33.92,11.34Z"/></g></g></svg>