<svg xmlns="http://www.w3.org/2000/svg" viewBox="0 0 101.26 101.26"><defs><style>.cls-1{fill:#444;}</style></defs><title>Asset 2037</title><g id="Layer_2" data-name="Layer 2"><g id="Layer_1-2" data-name="Layer 1"><path class="cls-1" d="M50.63,101.26a50.63,50.63,0,1,1,50.63-50.63A50.68,50.68,0,0,1,50.63,101.26ZM50.63,3A47.63,47.63,0,1,0,98.26,50.63,47.69,47.69,0,0,0,50.63,3Zm0,88.52A40.89,40.89,0,1,1,91.52,50.63,40.93,40.93,0,0,1,50.63,91.52Zm0-78.78A37.89,37.89,0,1,0,88.52,50.63,37.92,37.92,0,0,0,50.63,12.74Z"/><path class="cls-1" d="M50.63,82A31.33,31.33,0,0,1,25,32.56,1.53,1.53,0,0,1,26,32a1.49,1.49,0,0,1,1.12.26L35.28,38a1.51,1.51,0,0,1,.36,2.09,18.13,18.13,0,0,0-3.36,10.55,18.35,18.35,0,0,0,36.7,0,18.13,18.13,0,0,0-3.36-10.55A1.51,1.51,0,0,1,66,38l8.16-5.78A1.49,1.49,0,0,1,75.26,32a1.53,1.53,0,0,1,1,.61A31.33,31.33,0,0,1,50.63,82Zm-24-46.44a28.1,28.1,0,0,0-4.36,15.09,28.35,28.35,0,0,0,56.7,0,28.1,28.1,0,0,0-4.36-15.09L68.9,39.6a21.12,21.12,0,0,1,3.08,11,21.35,21.35,0,0,1-42.7,0,21.12,21.12,0,0,1,3.08-11Z"/><path class="cls-1" d="M55.63,52.13h-10a1.5,1.5,0,0,1-1.5-1.5V24.84a1.5,1.5,0,0,1,1.5-1.5h10a1.5,1.5,0,0,1,1.5,1.5V50.63A1.5,1.5,0,0,1,55.63,52.13Zm-8.5-3h7V26.34h-7Z"/></g></g></svg>