<svg xmlns="http://www.w3.org/2000/svg" viewBox="0 0 101.45 102.48"><defs><style>.cls-1{fill:#363636;}</style></defs><title>Asset 2064</title><g id="Layer_2" data-name="Layer 2"><g id="Layer_1-2" data-name="Layer 1"><path class="cls-1" d="M88.14,65.78H13.32a13.83,13.83,0,0,1-.71-27.6,20.26,20.26,0,0,1-2-8.89c0-10.88,8.52-19.73,19-19.73a17.61,17.61,0,0,1,2.8.22,17.46,17.46,0,0,1,32.68,3.69,18.51,18.51,0,0,1,11-3.64c10.5,0,19.05,8.87,19.05,19.78a20.35,20.35,0,0,1-2.3,9.44A13.87,13.87,0,0,1,101.45,52,13.58,13.58,0,0,1,88.14,65.78ZM13.32,41.16a10.82,10.82,0,0,0,0,21.62H88.14A10.58,10.58,0,0,0,98.45,52,10.75,10.75,0,0,0,90.29,41.4a1.49,1.49,0,0,1-1.16-1.64v-.12a1.64,1.64,0,0,1,.23-.64,17.19,17.19,0,0,0,2.75-9.39c0-9.25-7.2-16.78-16.05-16.78a15.59,15.59,0,0,0-11,4.52,1.5,1.5,0,0,1-2.54-.89A15,15,0,0,0,48,3a14.73,14.73,0,0,0-13.39,9.06,1.49,1.49,0,0,1-1.7.87,15.19,15.19,0,0,0-3.34-.37c-8.82,0-16,7.5-16,16.73a17.14,17.14,0,0,0,2.87,9.54,1.52,1.52,0,0,1,.07,1.54,1.49,1.49,0,0,1-1.32.79Z"/><path class="cls-1" d="M50.89,102.48a38.23,38.23,0,0,1-38.2-38.2,38.2,38.2,0,1,1,66,26.17A37.83,37.83,0,0,1,50.89,102.48Zm0-73.39A35.19,35.19,0,0,0,25.27,88.41,35.19,35.19,0,0,0,86.08,64.28,35.23,35.23,0,0,0,50.89,29.09Z"/><path class="cls-1" d="M50.53,102.48c-11,0-19.61-16.78-19.61-38.2s8.61-38.19,19.61-38.19a1.5,1.5,0,0,1,0,3c-9,0-16.61,16.11-16.61,35.19s7.61,35.2,16.61,35.2a1.5,1.5,0,0,1,0,3Z"/><path class="cls-1" d="M50.89,102.48a1.5,1.5,0,0,1,0-3c9,0,16.6-16.12,16.6-35.2s-7.6-35.19-16.6-35.19a1.5,1.5,0,0,1,0-3c11,0,19.6,16.77,19.6,38.19S61.88,102.48,50.89,102.48Z"/><path class="cls-1" d="M50.89,102.48a1.5,1.5,0,0,1-1.5-1.5V27.59a1.5,1.5,0,0,1,3,0V101A1.5,1.5,0,0,1,50.89,102.48Z"/><path class="cls-1" d="M48.84,17.54A5.17,5.17,0,1,1,54,12.37,5.18,5.18,0,0,1,48.84,17.54Zm0-7.34A2.17,2.17,0,1,0,51,12.37,2.17,2.17,0,0,0,48.84,10.2Z"/><path class="cls-1" d="M80.25,30a5.17,5.17,0,1,1,5.17-5.16A5.17,5.17,0,0,1,80.25,30Zm0-7.33a2.17,2.17,0,1,0,2.17,2.17A2.17,2.17,0,0,0,80.25,22.69Z"/></g></g></svg>