<svg xmlns="http://www.w3.org/2000/svg" viewBox="0 0 104.59 103.54"><defs><style>.cls-1{fill:#474747;}</style></defs><title>Asset 2060</title><g id="Layer_2" data-name="Layer 2"><g id="Layer_1-2" data-name="Layer 1"><path class="cls-1" d="M92.76,103.54H11.83A11.84,11.84,0,0,1,0,91.71a1.5,1.5,0,0,1,1.5-1.5H103.09a1.5,1.5,0,0,1,1.5,1.5A11.84,11.84,0,0,1,92.76,103.54ZM3.13,93.21a8.83,8.83,0,0,0,8.7,7.33H92.76a8.83,8.83,0,0,0,8.7-7.33Z"/><path class="cls-1" d="M82.6,13.4H22.1a1.5,1.5,0,0,1-1.5-1.5V1.5A1.5,1.5,0,0,1,22.1,0H82.6a1.5,1.5,0,0,1,1.5,1.5V11.9A1.5,1.5,0,0,1,82.6,13.4Zm-59-3H81.1V3H23.6Z"/><path class="cls-1" d="M11.89,93.21h-6a1.5,1.5,0,0,1-1.5-1.5V24.3a4.51,4.51,0,0,1,4.5-4.5H22.1a1.5,1.5,0,0,1,1.5,1.5v6a1.5,1.5,0,0,1-1.5,1.5H13.39V91.71A1.5,1.5,0,0,1,11.89,93.21Zm-4.5-3h3V27.3a1.5,1.5,0,0,1,1.5-1.5H20.6v-3H8.89a1.5,1.5,0,0,0-1.5,1.5Z"/><path class="cls-1" d="M98.59,93.21h-6a1.5,1.5,0,0,1-1.5-1.5V28.8H82.6a1.5,1.5,0,0,1-1.5-1.5v-6a1.5,1.5,0,0,1,1.5-1.5h13a4.51,4.51,0,0,1,4.5,4.5V91.71A1.5,1.5,0,0,1,98.59,93.21Zm-4.5-3h3V24.3a1.5,1.5,0,0,0-1.5-1.5H84.1v3h8.49a1.5,1.5,0,0,1,1.5,1.5Z"/><path class="cls-1" d="M82.6,85.75H22.1a1.5,1.5,0,0,1-1.5-1.5V11.9a1.5,1.5,0,0,1,1.5-1.5H82.6a1.5,1.5,0,0,1,1.5,1.5V84.25A1.5,1.5,0,0,1,82.6,85.75Zm-59-3H81.1V13.4H23.6Z"/><path class="cls-1" d="M28.33,8.2a1.56,1.56,0,0,1-.57-.11,1.5,1.5,0,0,1,.86-2.86,1.31,1.31,0,0,1,.28.09,1.26,1.26,0,0,1,.26.13,2.11,2.11,0,0,1,.23.19,1.52,1.52,0,0,1,.44,1.06,1.5,1.5,0,0,1-.44,1.06A1.46,1.46,0,0,1,28.33,8.2Z"/><path class="cls-1" d="M34.42,6.7a1.5,1.5,0,0,1,1.5-1.5h0a1.5,1.5,0,0,1,1.5,1.5h0a1.5,1.5,0,0,1-1.5,1.5h0A1.5,1.5,0,0,1,34.42,6.7Z"/><path class="cls-1" d="M43.51,8.2a1.56,1.56,0,0,1-.57-.11,1.5,1.5,0,0,1-.49-2.45,1.55,1.55,0,0,1,2.12,0A1.52,1.52,0,0,1,45,6.7a1.5,1.5,0,0,1-1.5,1.5Z"/><path class="cls-1" d="M58,28.73H29.48a1.5,1.5,0,0,1-1.5-1.5v-6.9a1.5,1.5,0,0,1,1.5-1.5H58a1.5,1.5,0,0,1,1.5,1.5v6.9A1.5,1.5,0,0,1,58,28.73Zm-27-3H56.51v-3.9H31Z"/><path class="cls-1" d="M75.22,28.73H63.9a1.5,1.5,0,0,1-1.5-1.5v-6.9a1.5,1.5,0,0,1,1.5-1.5H75.22a1.5,1.5,0,0,1,1.5,1.5v6.9A1.5,1.5,0,0,1,75.22,28.73Zm-9.82-3h8.32v-3.9H65.4Z"/><path class="cls-1" d="M40.8,42H29.48A1.5,1.5,0,0,1,28,40.5V33.6a1.5,1.5,0,0,1,1.5-1.5H40.8a1.51,1.51,0,0,1,1.5,1.5v6.9A1.5,1.5,0,0,1,40.8,42ZM31,39H39.3V35.1H31Z"/><path class="cls-1" d="M58,42H46.69a1.5,1.5,0,0,1-1.5-1.5V33.6a1.5,1.5,0,0,1,1.5-1.5H58a1.5,1.5,0,0,1,1.5,1.5v6.9A1.5,1.5,0,0,1,58,42Zm-9.82-3h8.32V35.1H48.19Z"/><path class="cls-1" d="M75.22,42H63.9a1.5,1.5,0,0,1-1.5-1.5V33.6a1.5,1.5,0,0,1,1.5-1.5H75.22a1.5,1.5,0,0,1,1.5,1.5v6.9A1.5,1.5,0,0,1,75.22,42ZM65.4,39h8.32V35.1H65.4Z"/><path class="cls-1" d="M36.37,55.27H29.48a1.5,1.5,0,0,1-1.5-1.5V46.88a1.5,1.5,0,0,1,1.5-1.5h6.89a1.5,1.5,0,0,1,1.5,1.5v6.89A1.5,1.5,0,0,1,36.37,55.27Zm-5.39-3h3.89V48.38H31Z"/><path class="cls-1" d="M60.84,55.27h-20a1.5,1.5,0,0,1-1.5-1.5V46.88a1.5,1.5,0,0,1,1.5-1.5h20a1.5,1.5,0,0,1,1.5,1.5v6.89A1.5,1.5,0,0,1,60.84,55.27Zm-18.54-3h17V48.38h-17Z"/><path class="cls-1" d="M75.22,55.27H66.51a1.5,1.5,0,0,1-1.5-1.5V46.88a1.5,1.5,0,0,1,1.5-1.5h8.71a1.5,1.5,0,0,1,1.5,1.5v6.89A1.5,1.5,0,0,1,75.22,55.27Zm-7.21-3h5.71V48.38H68Z"/><path class="cls-1" d="M40.8,68.54H29.48A1.5,1.5,0,0,1,28,67V60.15a1.5,1.5,0,0,1,1.5-1.5H40.8a1.5,1.5,0,0,1,1.5,1.5V67A1.5,1.5,0,0,1,40.8,68.54Zm-9.82-3H39.3V61.65H31Z"/><path class="cls-1" d="M58,68.54H46.69a1.5,1.5,0,0,1-1.5-1.5V60.15a1.5,1.5,0,0,1,1.5-1.5H58a1.5,1.5,0,0,1,1.5,1.5V67A1.5,1.5,0,0,1,58,68.54Zm-9.82-3h8.32V61.65H48.19Z"/><path class="cls-1" d="M75.22,68.54H63.9A1.5,1.5,0,0,1,62.4,67V60.15a1.5,1.5,0,0,1,1.5-1.5H75.22a1.5,1.5,0,0,1,1.5,1.5V67A1.5,1.5,0,0,1,75.22,68.54Zm-9.82-3h8.32V61.65H65.4Z"/></g></g></svg>