<svg xmlns="http://www.w3.org/2000/svg" viewBox="0 0 101.44 103.07"><defs><style>.cls-1{fill:#363636;}</style></defs><title>Asset 2062</title><g id="Layer_2" data-name="Layer 2"><g id="Layer_1-2" data-name="Layer 1"><path class="cls-1" d="M99.94,95.4H1.61a1.5,1.5,0,0,1-1.5-1.5V1.5A1.5,1.5,0,0,1,1.61,0H99.94a1.5,1.5,0,0,1,1.5,1.5V93.9A1.5,1.5,0,0,1,99.94,95.4Zm-96.83-3H98.44V3H3.11Z"/><path class="cls-1" d="M18.85,103.07H1.5a1.5,1.5,0,0,1-1.5-1.5V93.9a1.5,1.5,0,0,1,1.5-1.5H18.85a1.5,1.5,0,0,1,1.5,1.5v7.67A1.5,1.5,0,0,1,18.85,103.07ZM3,100.07H17.35V95.4H3Z"/><path class="cls-1" d="M99.94,103.07H82.59a1.5,1.5,0,0,1-1.5-1.5V93.9a1.5,1.5,0,0,1,1.5-1.5H99.94a1.5,1.5,0,0,1,1.5,1.5v7.67A1.5,1.5,0,0,1,99.94,103.07Zm-15.85-3H98.44V95.4H84.09Z"/><path class="cls-1" d="M18.46,84.64a1.5,1.5,0,0,1-1.5-1.5V70.36a1.5,1.5,0,0,1,3,0V83.14A1.5,1.5,0,0,1,18.46,84.64Z"/><path class="cls-1" d="M34.61,84.64a1.5,1.5,0,0,1-1.5-1.5V70.36a1.5,1.5,0,0,1,3,0V83.14A1.5,1.5,0,0,1,34.61,84.64Z"/><path class="cls-1" d="M50.77,84.64a1.5,1.5,0,0,1-1.5-1.5V70.36a1.5,1.5,0,0,1,3,0V83.14A1.5,1.5,0,0,1,50.77,84.64Z"/><path class="cls-1" d="M66.93,84.64a1.5,1.5,0,0,1-1.5-1.5V70.36a1.5,1.5,0,0,1,3,0V83.14A1.5,1.5,0,0,1,66.93,84.64Z"/><path class="cls-1" d="M83.09,84.64a1.5,1.5,0,0,1-1.5-1.5V70.36a1.5,1.5,0,1,1,3,0V83.14A1.5,1.5,0,0,1,83.09,84.64Z"/><path class="cls-1" d="M29.83,40.75h-8A4.84,4.84,0,0,1,17,35.91v-8A4.85,4.85,0,0,1,21.8,23h8a4.85,4.85,0,0,1,4.84,4.85v8A4.84,4.84,0,0,1,29.83,40.75ZM21.8,26A1.84,1.84,0,0,0,20,27.88v8a1.84,1.84,0,0,0,1.84,1.84h8a1.85,1.85,0,0,0,1.84-1.84v-8A1.85,1.85,0,0,0,29.83,26Z"/><path class="cls-1" d="M54.79,40.75h-8a4.84,4.84,0,0,1-4.84-4.84v-8A4.85,4.85,0,0,1,46.76,23h8a4.85,4.85,0,0,1,4.84,4.85v8A4.84,4.84,0,0,1,54.79,40.75ZM46.76,26a1.84,1.84,0,0,0-1.84,1.85v8a1.84,1.84,0,0,0,1.84,1.84h8a1.84,1.84,0,0,0,1.84-1.84v-8A1.84,1.84,0,0,0,54.79,26Z"/><path class="cls-1" d="M79.75,40.75h-8a4.84,4.84,0,0,1-4.84-4.84v-8A4.85,4.85,0,0,1,71.72,23h8a4.85,4.85,0,0,1,4.84,4.85v8A4.84,4.84,0,0,1,79.75,40.75ZM71.72,26a1.84,1.84,0,0,0-1.84,1.85v8a1.84,1.84,0,0,0,1.84,1.84h8a1.84,1.84,0,0,0,1.84-1.84v-8A1.84,1.84,0,0,0,79.75,26Z"/><path class="cls-1" d="M29.83,63.91h-8A4.85,4.85,0,0,1,17,59.06V51a4.84,4.84,0,0,1,4.84-4.84h8A4.84,4.84,0,0,1,34.67,51v8A4.85,4.85,0,0,1,29.83,63.91Zm-8-14.72A1.84,1.84,0,0,0,20,51v8a1.84,1.84,0,0,0,1.84,1.85h8a1.85,1.85,0,0,0,1.84-1.85V51a1.85,1.85,0,0,0-1.84-1.84Z"/><path class="cls-1" d="M54.79,63.91h-8a4.85,4.85,0,0,1-4.84-4.85V51a4.84,4.84,0,0,1,4.84-4.84h8A4.84,4.84,0,0,1,59.63,51v8A4.85,4.85,0,0,1,54.79,63.91Zm-8-14.72A1.84,1.84,0,0,0,44.92,51v8a1.84,1.84,0,0,0,1.84,1.85h8a1.84,1.84,0,0,0,1.84-1.85V51a1.84,1.84,0,0,0-1.84-1.84Z"/><path class="cls-1" d="M79.75,63.91h-8a4.85,4.85,0,0,1-4.84-4.85V51a4.84,4.84,0,0,1,4.84-4.84h8A4.84,4.84,0,0,1,84.59,51v8A4.85,4.85,0,0,1,79.75,63.91Zm-8-14.72A1.84,1.84,0,0,0,69.88,51v8a1.84,1.84,0,0,0,1.84,1.85h8a1.84,1.84,0,0,0,1.84-1.85V51a1.84,1.84,0,0,0-1.84-1.84Z"/><path class="cls-1" d="M12,14a1.62,1.62,0,0,1-.58-.11,1.58,1.58,0,0,1-.48-.33,1.42,1.42,0,0,1-.33-.48,1.46,1.46,0,0,1-.11-.58A1.52,1.52,0,0,1,11,11.43,1.5,1.5,0,0,1,12.33,11a1.31,1.31,0,0,1,.28.09,1.26,1.26,0,0,1,.26.13,2.11,2.11,0,0,1,.23.19,1.65,1.65,0,0,1,.41.77,1.36,1.36,0,0,1,0,.29,1.5,1.5,0,0,1-.44,1.06A1.47,1.47,0,0,1,12,14Z"/><path class="cls-1" d="M77.38,12.49a1.5,1.5,0,0,1,1.5-1.5h0a1.5,1.5,0,0,1,1.5,1.5h0a1.5,1.5,0,0,1-1.5,1.5h0A1.5,1.5,0,0,1,77.38,12.49Zm-11.14,0a1.5,1.5,0,0,1,1.5-1.5h0a1.5,1.5,0,0,1,1.5,1.5h0a1.5,1.5,0,0,1-1.5,1.5h0A1.5,1.5,0,0,1,66.24,12.49Zm-11.14,0A1.5,1.5,0,0,1,56.6,11h0a1.5,1.5,0,0,1,1.5,1.5h0A1.5,1.5,0,0,1,56.6,14h0A1.5,1.5,0,0,1,55.1,12.49ZM44,12.49a1.5,1.5,0,0,1,1.5-1.5h0a1.5,1.5,0,0,1,1.5,1.5h0a1.5,1.5,0,0,1-1.5,1.5h0A1.5,1.5,0,0,1,44,12.49Zm-11.14,0a1.5,1.5,0,0,1,1.5-1.5h0a1.5,1.5,0,0,1,1.5,1.5h0a1.5,1.5,0,0,1-1.5,1.5h0A1.5,1.5,0,0,1,32.82,12.49Zm-11.14,0a1.5,1.5,0,0,1,1.5-1.5h0a1.5,1.5,0,0,1,1.5,1.5h0a1.5,1.5,0,0,1-1.5,1.5h0A1.5,1.5,0,0,1,21.68,12.49Z"/><path class="cls-1" d="M90,14a1.62,1.62,0,0,1-.58-.11,1.58,1.58,0,0,1-.48-.33,1.47,1.47,0,0,1-.45-1.06A1.53,1.53,0,0,1,89,11.43,1.49,1.49,0,0,1,90.31,11a1.31,1.31,0,0,1,.28.09,1.26,1.26,0,0,1,.26.13,2.11,2.11,0,0,1,.23.19,1.52,1.52,0,0,1,.44,1.06,1.5,1.5,0,0,1-.44,1.06A1.47,1.47,0,0,1,90,14Z"/></g></g></svg>