<svg xmlns="http://www.w3.org/2000/svg" viewBox="0 0 102.98 102.98"><defs><style>.cls-1{fill:#444;}</style></defs><title>Asset 2052</title><g id="Layer_2" data-name="Layer 2"><g id="Layer_1-2" data-name="Layer 1"><path class="cls-1" d="M24.45,40.54h0a1.52,1.52,0,0,1-1.06-.44L20,36.67a1.51,1.51,0,0,1,0-2.12l14.31-14.3a1.49,1.49,0,0,1,2.12,0l3.43,3.43a1.5,1.5,0,0,1,.44,1.06,1.52,1.52,0,0,1-.44,1.06L25.51,40.1A1.5,1.5,0,0,1,24.45,40.54Zm-1.3-4.93,1.3,1.31L36.64,24.74l-1.31-1.31Z"/><path class="cls-1" d="M67.09,83.22h0A1.5,1.5,0,0,1,66,82.78l-3.1-3.1a1.49,1.49,0,0,1,0-2.12l14.3-14.31a1.51,1.51,0,0,1,2.12,0l3.1,3.1a1.49,1.49,0,0,1,0,2.12L68.15,82.78A1.5,1.5,0,0,1,67.09,83.22Zm-1-4.6,1,1L79.27,67.41l-1-1Z"/><path class="cls-1" d="M60.07,84A1.47,1.47,0,0,1,59,83.59L19.38,44a1.5,1.5,0,0,1-.44-1.06,1.53,1.53,0,0,1,.44-1.06L41.82,19.4a1.51,1.51,0,0,1,2.12,0L83.57,59a1.5,1.5,0,0,1,0,2.13L61.13,83.59A1.46,1.46,0,0,1,60.07,84ZM22.56,42.9,60.07,80.41,80.39,60.09,42.88,22.59Z"/><path class="cls-1" d="M33.46,54a1.36,1.36,0,0,1-.29,0,1.31,1.31,0,0,1-.28-.09,1.08,1.08,0,0,1-.26-.14,1.41,1.41,0,0,1-.23-.18,2.11,2.11,0,0,1-.19-.23,2.15,2.15,0,0,1-.14-.26c0-.09-.06-.19-.08-.28a1.5,1.5,0,0,1,0-.29,1.52,1.52,0,0,1,.44-1.07,1.57,1.57,0,0,1,2.12,0A1.52,1.52,0,0,1,35,52.48a1.41,1.41,0,0,1-.12.57,1.26,1.26,0,0,1-.13.26,2.11,2.11,0,0,1-.19.23,2,2,0,0,1-.23.18,1.61,1.61,0,0,1-.54.23A1.36,1.36,0,0,1,33.46,54Z"/><path class="cls-1" d="M41.77,44.16a1.51,1.51,0,0,1,0-2.12h0a1.51,1.51,0,0,1,2.12,0h0a1.49,1.49,0,0,1,0,2.12h0a1.49,1.49,0,0,1-1.06.44h0A1.51,1.51,0,0,1,41.77,44.16Z"/><path class="cls-1" d="M52.2,35.23l-.29,0a1.52,1.52,0,0,1-.28-.09,1.26,1.26,0,0,1-.26-.13,2.11,2.11,0,0,1-.23-.19,1.55,1.55,0,0,1-.43-1.06,1.36,1.36,0,0,1,0-.29,1,1,0,0,1,.08-.29A1.23,1.23,0,0,1,51,32.9a1.41,1.41,0,0,1,.18-.23,2.11,2.11,0,0,1,.23-.19l.26-.14.28-.08a1.47,1.47,0,0,1,.59,0l.28.08.26.14a2.11,2.11,0,0,1,.23.19,1.5,1.5,0,0,1,.44,1.06,1.52,1.52,0,0,1-.44,1.06A2.11,2.11,0,0,1,53,35a1.26,1.26,0,0,1-.26.13,1.52,1.52,0,0,1-.28.09Z"/><path class="cls-1" d="M53.62,74.13a1.53,1.53,0,0,1-.3,0L53,74l-.26-.14a2.11,2.11,0,0,1-.23-.19,1.41,1.41,0,0,1-.18-.23,1.08,1.08,0,0,1-.14-.26,1.31,1.31,0,0,1-.09-.28,1.37,1.37,0,0,1,0-.29,1.55,1.55,0,0,1,.43-1.06,2.11,2.11,0,0,1,.23-.19,1.26,1.26,0,0,1,.26-.13,1.52,1.52,0,0,1,.28-.09,1.47,1.47,0,0,1,.59,0,1.52,1.52,0,0,1,.28.09,1.26,1.26,0,0,1,.26.13,2.11,2.11,0,0,1,.23.19,1.56,1.56,0,0,1,.44,1.06,1.36,1.36,0,0,1,0,.29,1.31,1.31,0,0,1-.09.28,1.08,1.08,0,0,1-.14.26,1.41,1.41,0,0,1-.18.23,2.11,2.11,0,0,1-.23.19l-.26.14-.28.08Z"/><path class="cls-1" d="M61.93,64.32a1.49,1.49,0,0,1,0-2.12h0a1.49,1.49,0,0,1,2.12,0h0a1.51,1.51,0,0,1,0,2.12h0a1.51,1.51,0,0,1-1.06.44h0A1.49,1.49,0,0,1,61.93,64.32Z"/><path class="cls-1" d="M72.36,55.38A1.55,1.55,0,0,1,71.3,55a1.51,1.51,0,0,1,0-2.13,1.57,1.57,0,0,1,2.12,0,1.5,1.5,0,0,1-1.06,2.56Z"/><path class="cls-1" d="M23,35.18a1.49,1.49,0,0,1-1.06-.44L17.67,30.5a1.5,1.5,0,0,1-.44-1.06,1.53,1.53,0,0,1,.44-1.06l11-10.95a1.51,1.51,0,0,1,2.12,0L35,21.66a1.5,1.5,0,0,1,0,2.12L24,34.74A1.51,1.51,0,0,1,23,35.18Zm-2.11-5.74L23,31.55l8.83-8.83-2.11-2.11Z"/><path class="cls-1" d="M72.58,85.06a1.51,1.51,0,0,1-1.06-.44L67.86,81a1.49,1.49,0,0,1,0-2.12l11-11a1.49,1.49,0,0,1,2.12,0l3.66,3.66a1.49,1.49,0,0,1,0,2.12l-11,11A1.49,1.49,0,0,1,72.58,85.06ZM71,79.89l1.54,1.54,8.83-8.83-1.54-1.54Z"/><path class="cls-1" d="M75.56,45.83a1.53,1.53,0,0,1-1.06-.44L57.59,28.48a1.5,1.5,0,0,1,0-2.13L83.51.44a1.49,1.49,0,0,1,2.12,0l16.91,16.91a1.51,1.51,0,0,1,0,2.12L76.62,45.39A1.49,1.49,0,0,1,75.56,45.83ZM60.77,27.42,75.56,42.21l23.8-23.8L84.57,3.62Z"/><path class="cls-1" d="M62.7,41.78a1.5,1.5,0,0,1-1.06-2.56l3.45-3.45a1.5,1.5,0,1,1,2.12,2.12l-3.45,3.45A1.51,1.51,0,0,1,62.7,41.78Z"/><path class="cls-1" d="M18.41,103h0a1.5,1.5,0,0,1-1.06-.44L.44,85.63a1.49,1.49,0,0,1,0-2.12L26.35,57.59a1.5,1.5,0,0,1,2.13,0L45.39,74.5a1.52,1.52,0,0,1,.44,1.06,1.5,1.5,0,0,1-.44,1.06L19.47,102.54A1.5,1.5,0,0,1,18.41,103ZM3.62,84.57,18.41,99.36l23.8-23.8L27.42,60.77Z"/><path class="cls-1" d="M36.83,67.65a1.45,1.45,0,0,1-1.06-.44,1.49,1.49,0,0,1,0-2.12l3.45-3.45a1.5,1.5,0,0,1,2.12,2.12l-3.45,3.45A1.48,1.48,0,0,1,36.83,67.65Z"/><path class="cls-1" d="M10,94.52a1.45,1.45,0,0,1-1.06-.44A1.49,1.49,0,0,1,8.9,92L35.65,65.2a1.5,1.5,0,1,1,2.12,2.13L11,94.08A1.48,1.48,0,0,1,10,94.52Z"/><path class="cls-1" d="M26.53,94.86a1.51,1.51,0,0,1-1.06-.44L8.56,77.51a1.5,1.5,0,0,1,2.12-2.12L27.59,92.3a1.5,1.5,0,0,1-1.06,2.56Z"/><path class="cls-1" d="M35.73,85.65a1.52,1.52,0,0,1-1.06-.43L17.76,68.3a1.5,1.5,0,0,1,2.12-2.12L36.8,83.09a1.5,1.5,0,0,1-1.07,2.56Z"/><path class="cls-1" d="M66.15,38.33a1.5,1.5,0,0,1-1.06-2.56L91.85,9A1.5,1.5,0,0,1,94,11.13L67.21,37.89A1.49,1.49,0,0,1,66.15,38.33Z"/><path class="cls-1" d="M82.73,38.66a1.45,1.45,0,0,1-1.06-.44L64.75,21.31a1.5,1.5,0,1,1,2.13-2.12L83.79,36.1a1.51,1.51,0,0,1,0,2.12A1.47,1.47,0,0,1,82.73,38.66Z"/><path class="cls-1" d="M91.93,29.46A1.51,1.51,0,0,1,90.87,29L74,12.11A1.5,1.5,0,0,1,76.08,10L93,26.9A1.49,1.49,0,0,1,93,29,1.51,1.51,0,0,1,91.93,29.46Z"/></g></g></svg>