<svg xmlns="http://www.w3.org/2000/svg" viewBox="0 0 104.33 103.39"><defs><style>.cls-1{fill:#444;}.cls-2{fill:#363636;}</style></defs><title>Asset 2057</title><g id="Layer_2" data-name="Layer 2"><g id="Layer_1-2" data-name="Layer 1"><path class="cls-1" d="M102.83,103.39H1.5a1.5,1.5,0,0,1-1.5-1.5V16.32a1.5,1.5,0,0,1,1.5-1.5H102.83a1.5,1.5,0,0,1,1.5,1.5v85.57A1.5,1.5,0,0,1,102.83,103.39ZM3,100.39h98.33V17.82H3Z"/><path class="cls-1" d="M102.83,17.82H1.5A1.5,1.5,0,0,1,0,16.32V1.5A1.5,1.5,0,0,1,1.5,0H102.83a1.5,1.5,0,0,1,1.5,1.5V16.32A1.5,1.5,0,0,1,102.83,17.82ZM3,14.82h98.33V3H3Z"/><path class="cls-1" d="M9.3,10.41a1.47,1.47,0,0,1-.58-.12A1.29,1.29,0,0,1,8.24,10,1.44,1.44,0,0,1,7.8,8.91a1.53,1.53,0,0,1,0-.3c0-.09,0-.19.08-.28a2.15,2.15,0,0,1,.14-.26,1.37,1.37,0,0,1,.19-.22,1.55,1.55,0,0,1,2.12,0,1.48,1.48,0,0,1,0,2.11,1.33,1.33,0,0,1-.49.33A1.39,1.39,0,0,1,9.3,10.41Z"/><path class="cls-1" d="M20.05,8.91a1.5,1.5,0,0,1,1.5-1.5h0a1.5,1.5,0,0,1,1.5,1.5h0a1.5,1.5,0,0,1-1.5,1.5h0A1.5,1.5,0,0,1,20.05,8.91Z"/><path class="cls-1" d="M33.81,10.41a1.43,1.43,0,0,1-.58-.12,1.33,1.33,0,0,1-.49-.33,1.48,1.48,0,0,1-.44-1.05,1.41,1.41,0,0,1,.12-.58,1.3,1.3,0,0,1,.14-.26,1,1,0,0,1,.18-.22,1.55,1.55,0,0,1,1.36-.42,1.52,1.52,0,0,1,.28.09,1.3,1.3,0,0,1,.26.14,1,1,0,0,1,.22.19,1.49,1.49,0,0,1,.45,1.06,1.54,1.54,0,0,1-1.5,1.5Z"/><path class="cls-2" d="M43,40.32H13.23a1.5,1.5,0,0,1-1.5-1.5V28a1.5,1.5,0,0,1,1.5-1.5H43a1.5,1.5,0,0,1,1.5,1.5v10.8A1.5,1.5,0,0,1,43,40.32Zm-28.23-3H41.46v-7.8H14.73Z"/><path class="cls-2" d="M67.09,40.32H48.8a1.5,1.5,0,0,1-1.5-1.5V28a1.5,1.5,0,0,1,1.5-1.5H67.09a1.5,1.5,0,0,1,1.5,1.5v10.8A1.5,1.5,0,0,1,67.09,40.32Zm-16.79-3H65.59v-7.8H50.3Z"/><path class="cls-2" d="M90.93,40.32H72.65a1.5,1.5,0,0,1-1.5-1.5V28a1.5,1.5,0,0,1,1.5-1.5H90.93a1.5,1.5,0,0,1,1.5,1.5v10.8A1.5,1.5,0,0,1,90.93,40.32Zm-16.78-3H89.43v-7.8H74.15Z"/><path class="cls-2" d="M42.64,63.75H12.92a1.5,1.5,0,0,1-1.5-1.5V51.45a1.5,1.5,0,0,1,1.5-1.5H42.64a1.5,1.5,0,0,1,1.5,1.5v10.8A1.5,1.5,0,0,1,42.64,63.75Zm-28.22-3H41.14V53H14.42Z"/><path class="cls-2" d="M90.61,63.75H48.8a1.5,1.5,0,0,1-1.5-1.5V51.45A1.5,1.5,0,0,1,48.8,50H90.61a1.5,1.5,0,0,1,1.5,1.5v10.8A1.5,1.5,0,0,1,90.61,63.75Zm-40.31-3H89.11V53H50.3Z"/><path class="cls-2" d="M37.93,87.18H12.6a1.5,1.5,0,0,1-1.5-1.5V74.88a1.5,1.5,0,0,1,1.5-1.5H37.93a1.5,1.5,0,0,1,1.5,1.5v10.8A1.5,1.5,0,0,1,37.93,87.18Zm-23.83-3H36.43v-7.8H14.1Z"/><path class="cls-2" d="M56.81,87.18h-13a1.5,1.5,0,0,1-1.5-1.5V74.88a1.5,1.5,0,0,1,1.5-1.5h13a1.5,1.5,0,0,1,1.5,1.5v10.8A1.51,1.51,0,0,1,56.81,87.18Zm-11.52-3h10v-7.8h-10Z"/><path class="cls-2" d="M90.61,87.18H62.75a1.5,1.5,0,0,1-1.5-1.5V74.88a1.5,1.5,0,0,1,1.5-1.5H90.61a1.5,1.5,0,0,1,1.5,1.5v10.8A1.5,1.5,0,0,1,90.61,87.18Zm-26.36-3H89.11v-7.8H64.25Z"/></g></g></svg>