<svg xmlns="http://www.w3.org/2000/svg" viewBox="0 0 103.64 103.62"><defs><style>.cls-1{fill:#444;}</style></defs><title>Asset 2038</title><g id="Layer_2" data-name="Layer 2"><g id="Layer_1-2" data-name="Layer 1"><path class="cls-1" d="M4,53.62a4,4,0,0,1-2.94-1.07,2.41,2.41,0,0,1-.21-.24c-4.12-4.82,7.06-20.1,19.21-32.25S47.46-3.24,52.35.87l.21.18c4.65,4.64-6.59,20.1-19,32.5C23.13,44,10.51,53.62,4,53.62Zm-.78-3.16c1.74,1.45,13.07-3.88,28.21-19S51.93,5,50.49,3.22l-.07-.05h0c-1.73-1.49-13,3.74-28.22,19S1.7,48.67,3.19,50.4Zm-.05,0h0Z"/><path class="cls-1" d="M21.11,70.72a4,4,0,0,1-2.95-1.08,1.51,1.51,0,0,1,0-2.12,1.49,1.49,0,0,1,2.12,0c.42.42,2.93.62,9.4-3.42A114.45,114.45,0,0,0,48.54,48.52,114.45,114.45,0,0,0,64.12,29.66c4-6.47,3.84-9,3.42-9.4a1.49,1.49,0,0,1,0-2.12,1.51,1.51,0,0,1,2.12,0c2.12,2.13,1.11,6.54-3,13.11a117,117,0,0,1-16,19.39,117,117,0,0,1-19.39,16C26.93,69.36,23.53,70.72,21.11,70.72Z"/><path class="cls-1" d="M38.6,88.19a4,4,0,0,1-3-1.06,1.51,1.51,0,0,1,0-2.12,1.49,1.49,0,0,1,2.12,0c1.58,1.57,13-3.72,28.26-19S86.6,39.32,85,37.75a1.49,1.49,0,0,1,0-2.12,1.51,1.51,0,0,1,2.12,0c4.63,4.64-6.6,20.1-19,32.5C57.7,78.58,45.08,88.19,38.6,88.19Z"/><path class="cls-1" d="M92.89,102.42a10.46,10.46,0,1,1,7.39-17.85h0a10.46,10.46,0,0,1-7.39,17.85Zm0-17.91a7.46,7.46,0,1,0,5.27,2.18h0A7.4,7.4,0,0,0,92.89,84.51Z"/><path class="cls-1" d="M96.3,96.87a1.5,1.5,0,0,1-1.06-2.56,3.34,3.34,0,0,0,0-4.7,1.5,1.5,0,0,1,2.12-2.12,6.34,6.34,0,0,1,0,8.94A1.51,1.51,0,0,1,96.3,96.87Z"/><path class="cls-1" d="M86.55,87.13a1.5,1.5,0,0,1-1-.39l-3.8-3.4a1.5,1.5,0,0,1,2-2.24l3.8,3.41a1.5,1.5,0,0,1,.11,2.12A1.48,1.48,0,0,1,86.55,87.13Z"/><path class="cls-1" d="M54,103.62a4,4,0,0,1-2.95-1.08l-50-50h0a1.49,1.49,0,0,1,0-2.12,1.51,1.51,0,0,1,2.12,0c1.57,1.57,13-3.71,28.25-19h0C46.74,16.15,52,4.75,50.45,3.18a1.51,1.51,0,0,1,0-2.12,1.49,1.49,0,0,1,2.12,0l50,50c2.12,2.13,1.11,6.54-3,13.11a117,117,0,0,1-16,19.39,117,117,0,0,1-19.39,16C59.83,102.26,56.43,103.62,54,103.62ZM6.11,53.35l47.07,47.07c.42.42,2.93.62,9.4-3.42A114.45,114.45,0,0,0,81.44,81.42,114.45,114.45,0,0,0,97,62.56c4-6.47,3.84-9,3.42-9.4L53.37,6.09C51.73,13,43,24.14,33.57,33.55h0C24.16,43,13,51.71,6.11,53.35Zm26.4-20.86h0Z"/></g></g></svg>