<svg xmlns="http://www.w3.org/2000/svg" viewBox="0 0 102.82 103.73"><defs><style>.cls-1{fill:#444;}</style></defs><title>Asset 2046</title><g id="Layer_2" data-name="Layer 2"><g id="Layer_1-2" data-name="Layer 1"><path class="cls-1" d="M98,81.78H4.85A4.85,4.85,0,0,1,0,76.93V4.85A4.86,4.86,0,0,1,4.85,0H98a4.86,4.86,0,0,1,4.85,4.85V76.93A4.85,4.85,0,0,1,98,81.78ZM4.85,3A1.85,1.85,0,0,0,3,4.85V76.93a1.85,1.85,0,0,0,1.85,1.85H98a1.85,1.85,0,0,0,1.85-1.85V4.85A1.85,1.85,0,0,0,98,3ZM94.61,75.08H8.2a1.5,1.5,0,0,1-1.5-1.5V8.2A1.5,1.5,0,0,1,8.2,6.7H94.61a1.5,1.5,0,0,1,1.5,1.5V73.58A1.5,1.5,0,0,1,94.61,75.08Zm-84.91-3H93.11V9.7H9.7Z"/><path class="cls-1" d="M61.8,94.69H41a1.5,1.5,0,0,1-1.5-1.5V80.28a1.5,1.5,0,0,1,1.5-1.5H61.8a1.5,1.5,0,0,1,1.5,1.5V93.19A1.5,1.5,0,0,1,61.8,94.69Zm-19.28-3H60.3V81.78H42.52Z"/><path class="cls-1" d="M73.8,103.73H29a1.5,1.5,0,0,1-1.5-1.5A10.55,10.55,0,0,1,38.05,91.69H64.76A10.55,10.55,0,0,1,75.3,102.23,1.5,1.5,0,0,1,73.8,103.73Zm-43.14-3H72.15a7.55,7.55,0,0,0-7.39-6H38.05A7.56,7.56,0,0,0,30.66,100.73Z"/><path class="cls-1" d="M50.39,52.3a9.77,9.77,0,0,1-9.76-9.76,1.5,1.5,0,0,1,3,0,6.76,6.76,0,1,0,6.76-6.75,1.5,1.5,0,0,1,0-3,9.76,9.76,0,1,1,0,19.51Z"/><path class="cls-1" d="M50.39,65.45a24,24,0,0,1-4-.34,1.5,1.5,0,0,1-1-.62,1.48,1.48,0,0,1-.25-1.12l.61-3.51a17.63,17.63,0,0,1-3.1-1.12l-1.78,3.08a1.5,1.5,0,0,1-2,.55,23.06,23.06,0,0,1-6.13-5.13,1.5,1.5,0,0,1,.18-2.11l2.72-2.3A18.24,18.24,0,0,1,34,50l-3.34,1.23a1.51,1.51,0,0,1-1.93-.9,23.15,23.15,0,0,1-1.4-7.88,1.5,1.5,0,0,1,1.5-1.5h3.54A17.9,17.9,0,0,1,33,37.68L29.6,36.47a1.55,1.55,0,0,1-.85-.78,1.46,1.46,0,0,1-.05-1.14,23.16,23.16,0,0,1,4-6.95,1.49,1.49,0,0,1,2.11-.18l2.73,2.27a19.1,19.1,0,0,1,2.52-2.12L38.26,24.5a1.51,1.51,0,0,1,.54-2.05,23.09,23.09,0,0,1,7.53-2.77,1.54,1.54,0,0,1,1.12.25,1.5,1.5,0,0,1,.62,1l.62,3.49a16.54,16.54,0,0,1,3.3,0l.6-3.49a1.5,1.5,0,0,1,1.73-1.23,22.82,22.82,0,0,1,7.54,2.72,1.47,1.47,0,0,1,.7.91,1.44,1.44,0,0,1-.15,1.13l-1.77,3.09a17.7,17.7,0,0,1,2.53,2.11l2.72-2.3A1.5,1.5,0,0,1,68,27.5a23.1,23.1,0,0,1,4,6.91,1.51,1.51,0,0,1-.89,1.93l-3.34,1.23a18.54,18.54,0,0,1,.6,3.28l3.53,0a1.6,1.6,0,0,1,1.07.44,1.5,1.5,0,0,1,.44,1.06,23,23,0,0,1-1.38,8,1.52,1.52,0,0,1-.78.85,1.48,1.48,0,0,1-1.15.05L66.8,50a18.81,18.81,0,0,1-1.65,2.86l2.73,2.28a1.51,1.51,0,0,1,.18,2.12,23.08,23.08,0,0,1-6.12,5.14,1.5,1.5,0,0,1-2-.54L58.1,58.73A17.56,17.56,0,0,1,55,59.86l.62,3.5a1.48,1.48,0,0,1-.25,1.12,1.5,1.5,0,0,1-1,.62A23.47,23.47,0,0,1,50.39,65.45Zm-2-3.1a20.36,20.36,0,0,0,4,0L51.81,59A1.5,1.5,0,0,1,53,57.22a14.79,14.79,0,0,0,4.91-1.79,1.51,1.51,0,0,1,1.14-.15A1.48,1.48,0,0,1,60,56l1.72,3a19.84,19.84,0,0,0,3.06-2.57l-2.64-2.21a1.52,1.52,0,0,1-.53-1,1.5,1.5,0,0,1,.35-1.09,15,15,0,0,0,2.61-4.53,1.5,1.5,0,0,1,1.92-.9l3.24,1.18a19.83,19.83,0,0,0,.69-4l-3.41,0a1.55,1.55,0,0,1-1.07-.43,1.47,1.47,0,0,1-.45-1.06,15.05,15.05,0,0,0-.94-5.19,1.49,1.49,0,0,1,.89-1.93l3.23-1.19a20.08,20.08,0,0,0-2-3.44L64,32.84a1.49,1.49,0,0,1-2.11-.18,15.28,15.28,0,0,0-4-3.35,1.5,1.5,0,0,1-.56-2l1.72-3a19.39,19.39,0,0,0-3.76-1.35l-.58,3.39a1.5,1.5,0,0,1-.62,1,1.47,1.47,0,0,1-1.12.25,13.93,13.93,0,0,0-5.23,0,1.53,1.53,0,0,1-1.12-.25,1.5,1.5,0,0,1-.62-1L45.39,23a19.79,19.79,0,0,0-3.75,1.37l1.73,3a1.5,1.5,0,0,1-.54,2.05,15.18,15.18,0,0,0-4,3.37,1.5,1.5,0,0,1-2.11.19l-2.64-2.2a20.74,20.74,0,0,0-2,3.45l3.24,1.18a1.49,1.49,0,0,1,.9,1.92,15.1,15.1,0,0,0-.91,5.12,1.53,1.53,0,0,1-1.5,1.53H30.39a19.52,19.52,0,0,0,.7,3.93l3.23-1.19a1.5,1.5,0,0,1,1.92.89,15.25,15.25,0,0,0,2.62,4.53,1.5,1.5,0,0,1-.18,2.11l-2.63,2.22A20.26,20.26,0,0,0,39.11,59l1.72-3a1.51,1.51,0,0,1,2.05-.54,15.23,15.23,0,0,0,4.91,1.78A1.5,1.5,0,0,1,49,59Z"/><path class="cls-1" d="M48.89,42.54a1.5,1.5,0,0,1,1.5-1.5h0a1.5,1.5,0,0,1,1.5,1.5h0a1.5,1.5,0,0,1-1.5,1.5h0A1.5,1.5,0,0,1,48.89,42.54Z"/></g></g></svg>