<svg xmlns="http://www.w3.org/2000/svg" viewBox="0 0 100.67 103.5"><defs><style>.cls-1{fill:#363636;}</style></defs><title>Asset 2063</title><g id="Layer_2" data-name="Layer 2"><g id="Layer_1-2" data-name="Layer 1"><path class="cls-1" d="M58.75,68.14a1.51,1.51,0,0,1-1.06-.44L44.21,54.29a5.1,5.1,0,0,1,7.21-7.21L64.89,60.49a1.5,1.5,0,1,1-2.11,2.13L49.3,49.2a2.1,2.1,0,0,0-3,3L59.81,65.58a1.5,1.5,0,0,1-1.06,2.56Z"/><path class="cls-1" d="M63.61,62.83a1.51,1.51,0,0,1-1.06-.44L52.25,52.15a5.09,5.09,0,0,1,7.2-7.21L69.92,55.47a1.5,1.5,0,1,1-2.12,2.11L57.33,47.06a2.09,2.09,0,0,0-3,3l10.3,10.24a1.5,1.5,0,0,1,0,2.12A1.48,1.48,0,0,1,63.61,62.83Z"/><path class="cls-1" d="M71,93.86a1.51,1.51,0,0,1-1.06-.44l-.08-.08a8.46,8.46,0,0,0-5-2.38c-4.65-.54-13.15-2.42-17.82-9-.84-1.18-6.24-4.27-11-6.58l-.22-.13a4.21,4.21,0,0,1-.92-5.88c2.58-3.54,7.26-1.49,9.78-.38h0s2.09.79,4.28,1.36L28.4,48.64a5.09,5.09,0,0,1,7.23-7.18L59.81,65.58a1.51,1.51,0,0,1,0,2.12,1.49,1.49,0,0,1-2.12,0L33.51,43.58a2.14,2.14,0,0,0-3,0,2.09,2.09,0,0,0,0,3L52.62,69.83a2.35,2.35,0,0,1-2.09,3.94,44.28,44.28,0,0,1-7-2c-4.21-1.84-5.52-1.58-6.22-.63a1.23,1.23,0,0,0,.18,1.63c2,1,10.31,5.14,12,7.46,4,5.61,11.57,7.26,15.73,7.74a11.59,11.59,0,0,1,5.7,2.32L87.4,73.81,85.69,72.1a9.29,9.29,0,0,1-2.58-4.88c-.66-3.48-1.7-6.14-2.87-7.3L65,44.63a2.11,2.11,0,0,0-2.41-.4,2.15,2.15,0,0,0-.55.4,2.1,2.1,0,0,0,0,3l7.92,7.86a1.5,1.5,0,1,1-2.12,2.13l-7.92-7.87a5.11,5.11,0,0,1,0-7.21,5.2,5.2,0,0,1,1.36-1,5.1,5.1,0,0,1,5.85,1L82.36,57.79c2.06,2.06,3.15,6,3.7,8.87A6.35,6.35,0,0,0,87.81,70l2.78,2.77A1.51,1.51,0,0,1,91,73.81a1.49,1.49,0,0,1-.43,1.06L72,93.42A1.51,1.51,0,0,1,71,93.86Z"/><path class="cls-1" d="M75.63,103.5a1.48,1.48,0,0,1-1.06-.44l-7.15-7.15A1.5,1.5,0,0,1,67,94.85a1.52,1.52,0,0,1,.44-1.06L91,70.26a1.55,1.55,0,0,1,2.12,0l7.15,7.15a1.5,1.5,0,0,1,0,2.12L76.7,103.06A1.49,1.49,0,0,1,75.63,103.5Zm-5-8.65,5,5L97.05,78.47l-5-5Z"/><path class="cls-1" d="M50.2,89.9H1.5A1.5,1.5,0,0,1,0,88.4V14.51A1.5,1.5,0,0,1,1.5,13H50.2a1.5,1.5,0,0,1,1.5,1.5V47.76a1.5,1.5,0,1,1-3,0V16H3V86.9H48.7V83.29a1.5,1.5,0,0,1,3,0V88.4A1.5,1.5,0,0,1,50.2,89.9Z"/><path class="cls-1" d="M50.2,16H1.5A1.5,1.5,0,0,1,0,14.51V7.64A7.65,7.65,0,0,1,7.64,0H44.07A7.64,7.64,0,0,1,51.7,7.64v6.87A1.5,1.5,0,0,1,50.2,16ZM3,13H48.7V7.64A4.64,4.64,0,0,0,44.07,3H7.64A4.64,4.64,0,0,0,3,7.64Z"/><path class="cls-1" d="M44.07,102.6H7.64A7.65,7.65,0,0,1,0,95V88.4a1.5,1.5,0,0,1,1.5-1.5H50.2a1.5,1.5,0,0,1,1.5,1.5V95A7.64,7.64,0,0,1,44.07,102.6ZM3,89.9V95A4.64,4.64,0,0,0,7.64,99.6H44.07A4.64,4.64,0,0,0,48.7,95V89.9Z"/><path class="cls-1" d="M29.73,9.5H22a1.5,1.5,0,0,1,0-3h7.75a1.5,1.5,0,1,1,0,3Z"/><path class="cls-1" d="M23.85,39.21h-15a1.5,1.5,0,0,1-1.5-1.5v-15a1.5,1.5,0,0,1,1.5-1.5h15a1.5,1.5,0,0,1,1.5,1.5v15A1.5,1.5,0,0,1,23.85,39.21Zm-13.53-3h12v-12h-12Z"/><path class="cls-1" d="M23.85,60.35h-15a1.5,1.5,0,0,1-1.5-1.5v-15a1.5,1.5,0,0,1,1.5-1.5h15a1.51,1.51,0,0,1,1.5,1.5v15A1.5,1.5,0,0,1,23.85,60.35Zm-13.53-3h12v-12h-12Z"/><path class="cls-1" d="M23.85,81.5h-15A1.5,1.5,0,0,1,7.32,80V65a1.5,1.5,0,0,1,1.5-1.5h15a1.5,1.5,0,0,1,1.5,1.5V80A1.5,1.5,0,0,1,23.85,81.5Zm-13.53-3h12v-12h-12Z"/></g></g></svg>