<svg xmlns="http://www.w3.org/2000/svg" viewBox="0 0 103.87 103.27"><defs><style>.cls-1{fill:#444;}</style></defs><title>Asset 2036</title><g id="Layer_2" data-name="Layer 2"><g id="Layer_1-2" data-name="Layer 1"><path class="cls-1" d="M85.24,69.42H64.13a1.5,1.5,0,0,1-.69-2.83,25.33,25.33,0,1,0-23.33,0,1.5,1.5,0,0,1-.69,2.83H18.64a18.64,18.64,0,0,1-2.23-37.14,23.65,23.65,0,0,1-1.5-8.36A23.92,23.92,0,0,1,57.52,9a23.94,23.94,0,0,1,31,22.86c0,.19,0,.38,0,.58a18.64,18.64,0,0,1-3.26,37Zm-16-3h16a15.64,15.64,0,0,0,1.54-31.2,1.5,1.5,0,0,1-1.35-1.62c0-.64.08-1.21.08-1.75a20.95,20.95,0,0,0-28-19.69,1.49,1.49,0,0,1-1.72-.52A20.93,20.93,0,0,0,20,33a1.5,1.5,0,0,1-1.35,2.15A15.66,15.66,0,0,0,3,50.78,15.65,15.65,0,0,0,18.64,66.42H34.32a28.34,28.34,0,1,1,34.91,0Z"/><path class="cls-1" d="M51.78,72.44a29,29,0,0,1-4.71-.39A28.37,28.37,0,0,1,23.45,44.11a28.31,28.31,0,1,1,33,27.94A28.84,28.84,0,0,1,51.78,72.44Zm0-53.65A25.32,25.32,0,1,0,77.11,44.11,25.35,25.35,0,0,0,51.78,18.79Z"/><path class="cls-1" d="M51.72,65.83a22.17,22.17,0,0,1-3.61-.3,21.77,21.77,0,1,1,7.22,0A22.07,22.07,0,0,1,51.72,65.83Zm0-40.53A18.77,18.77,0,1,0,70.49,44.06,18.79,18.79,0,0,0,51.72,25.3Z"/><path class="cls-1" d="M53,56.3a11.35,11.35,0,0,1-9.59-17.44A1.5,1.5,0,1,1,46,40.46,8.36,8.36,0,1,0,53,36.59a1.5,1.5,0,0,1,0-3A11.36,11.36,0,0,1,53,56.3Z"/><path class="cls-1" d="M48,45.82A1.51,1.51,0,0,1,46.59,45l-2.15-4.54-4.55,2.15a1.5,1.5,0,1,1-1.28-2.71l5.9-2.8a1.5,1.5,0,0,1,2,.72l2.8,5.9a1.5,1.5,0,0,1-.71,2A1.64,1.64,0,0,1,48,45.82Z"/><path class="cls-1" d="M51.76,98a3.71,3.71,0,1,1,3.71-3.71A3.71,3.71,0,0,1,51.76,98Zm0-4.41a.7.7,0,0,0-.71.7.71.71,0,1,0,1.42,0A.7.7,0,0,0,51.76,93.59Z"/><path class="cls-1" d="M51.78,103.27a9,9,0,0,1-6.72-2.7A5.89,5.89,0,0,1,43.53,96l2.3-25.55a1.53,1.53,0,0,1,.58-1.05,1.47,1.47,0,0,1,1.16-.29,25.26,25.26,0,0,0,8.41,0,1.49,1.49,0,0,1,1.17.29,1.53,1.53,0,0,1,.58,1.05L60,96a5.92,5.92,0,0,1-1.54,4.58A9,9,0,0,1,51.78,103.27Zm-3.1-31-2.16,24a2.9,2.9,0,0,0,.77,2.29,6.06,6.06,0,0,0,4.49,1.71,6,6,0,0,0,4.48-1.71A2.87,2.87,0,0,0,57,96.3v0l-2.16-24A27.94,27.94,0,0,1,48.68,72.27Z"/></g></g></svg>