<svg xmlns="http://www.w3.org/2000/svg" viewBox="0 0 104.33 103.39"><defs><style>.cls-1{fill:#444;}.cls-2{fill:#363636;}</style></defs><title>Asset 2048</title><g id="Layer_2" data-name="Layer 2"><g id="Layer_1-2" data-name="Layer 1"><path class="cls-1" d="M102.83,103.39H1.5a1.5,1.5,0,0,1-1.5-1.5V16.32a1.5,1.5,0,0,1,1.5-1.5H102.83a1.5,1.5,0,0,1,1.5,1.5v85.57A1.5,1.5,0,0,1,102.83,103.39ZM3,100.39h98.33V17.82H3Z"/><path class="cls-1" d="M102.83,17.82H1.5A1.5,1.5,0,0,1,0,16.32V1.5A1.5,1.5,0,0,1,1.5,0H102.83a1.5,1.5,0,0,1,1.5,1.5V16.32A1.5,1.5,0,0,1,102.83,17.82ZM3,14.82h98.33V3H3Z"/><path class="cls-1" d="M9.29,10.41a1.51,1.51,0,0,1-1-.44,1.73,1.73,0,0,1-.32-.49,1.31,1.31,0,0,1-.09-.28,1.07,1.07,0,0,1,0-.58,1.31,1.31,0,0,1,.09-.28,1.08,1.08,0,0,1,.14-.26,1,1,0,0,1,.18-.23A1.52,1.52,0,0,1,9.6,7.44l.28.08.26.14.22.19a.8.8,0,0,1,.18.23,1.1,1.1,0,0,1,.15.26.9.9,0,0,1,.08.28,1.37,1.37,0,0,1,0,.29,1.37,1.37,0,0,1,0,.29.9.9,0,0,1-.08.28,1.35,1.35,0,0,1-.15.26,1,1,0,0,1-.18.23l-.22.19a2.1,2.1,0,0,1-.26.13,1.52,1.52,0,0,1-.28.09A1.55,1.55,0,0,1,9.29,10.41Z"/><path class="cls-1" d="M20.06,8.91a1.5,1.5,0,0,1,1.5-1.5h0a1.5,1.5,0,0,1,1.5,1.5h0a1.5,1.5,0,0,1-1.5,1.5h0A1.5,1.5,0,0,1,20.06,8.91Z"/><path class="cls-1" d="M33.81,10.41a1.36,1.36,0,0,1-.29,0,1.31,1.31,0,0,1-.28-.09,1.26,1.26,0,0,1-.26-.13,1.45,1.45,0,0,1-.23-.19,2.11,2.11,0,0,1-.19-.23,2.15,2.15,0,0,1-.14-.26,2.29,2.29,0,0,1-.08-.28,1.36,1.36,0,0,1,0-.29,1.5,1.5,0,0,1,.44-1.06A1.45,1.45,0,0,1,33,7.66l.26-.14.28-.08A1.5,1.5,0,0,1,34.87,10l-.23.19a1.26,1.26,0,0,1-.26.13,1.31,1.31,0,0,1-.28.09A1.36,1.36,0,0,1,33.81,10.41Z"/><path class="cls-2" d="M55.89,75.8a1.53,1.53,0,0,1-.82-.24L43.24,67.82a1.5,1.5,0,1,1,1.64-2.51l11.83,7.74a1.5,1.5,0,0,1-.82,2.75Z"/><path class="cls-2" d="M43.27,52.21A1.51,1.51,0,0,1,42,51.53a1.49,1.49,0,0,1,.44-2.07l12.66-8.28a1.5,1.5,0,1,1,1.64,2.51L44.09,52A1.56,1.56,0,0,1,43.27,52.21Z"/><path class="cls-2" d="M36.59,71.13a12.14,12.14,0,1,1,8.52-3.49A12.15,12.15,0,0,1,36.59,71.13Zm0-21.28a9.16,9.16,0,1,0,5.73,2A9,9,0,0,0,36.59,49.85Z"/><path class="cls-2" d="M64.36,48.1A12.18,12.18,0,0,1,52.22,36,12.15,12.15,0,1,1,64.74,48.08Zm0-21.29a9.15,9.15,0,0,0,0,18.29l.29,0a9.14,9.14,0,0,0-.29-18.27Z"/><path class="cls-2" d="M64.36,42.93a6.89,6.89,0,0,1-5.52-2.73,1.49,1.49,0,0,1,.27-2.1,1.5,1.5,0,0,1,2.1.27,4,4,0,0,0,3.15,1.56h.13a4,4,0,0,0,3.85-4,1.5,1.5,0,0,1,3,0,6.93,6.93,0,0,1-6.76,7Z"/><path class="cls-2" d="M36.66,65.74A6.94,6.94,0,0,1,31.13,63a1.5,1.5,0,0,1,2.38-1.83,4,4,0,0,0,3.15,1.56h.11a4,4,0,0,0,3.86-4,1.5,1.5,0,0,1,3,0,6.94,6.94,0,0,1-6.76,7Z"/><path class="cls-2" d="M65,87.56a7,7,0,0,1-5.53-2.73A1.5,1.5,0,0,1,61.81,83,4,4,0,0,0,65,84.56h.13a4,4,0,0,0,3.85-4,1.5,1.5,0,1,1,3,0,7,7,0,0,1-6.76,7Z"/><path class="cls-2" d="M64.69,92.43A12.15,12.15,0,1,1,76.83,80.28,12.15,12.15,0,0,1,64.69,92.43Zm0-21.29a9.14,9.14,0,0,0-7.56,4h0a9,9,0,0,0-1.58,5.13,9.14,9.14,0,1,0,9.14-9.14Zm-8.8,3.16h0Z"/></g></g></svg>