<svg xmlns="http://www.w3.org/2000/svg" viewBox="0 0 101.73 103.66"><defs><style>.cls-1{fill:#444;}</style></defs><title>Asset 2039</title><g id="Layer_2" data-name="Layer 2"><g id="Layer_1-2" data-name="Layer 1"><path class="cls-1" d="M50.61,46.41h-.06a1.5,1.5,0,0,1-1.37-1l-2.83-8.56a1.5,1.5,0,0,1,2.84-.94l1.59,4.78,4-9.45a1.5,1.5,0,0,1,2.76,1.18L52,45.5A1.49,1.49,0,0,1,50.61,46.41Z"/><path class="cls-1" d="M51,52.83a14.08,14.08,0,0,1-13.16-9.51,14.83,14.83,0,0,1-.86-5,14.26,14.26,0,0,1,14-14.46h0A14.26,14.26,0,0,1,65,38.36,14.27,14.27,0,0,1,51,52.83ZM51,26.9h0A11.25,11.25,0,0,0,40,38.36a12,12,0,0,0,.68,4A11.11,11.11,0,0,0,51,49.83,11.27,11.27,0,0,0,62,38.36,11.26,11.26,0,0,0,51,26.9Zm0-1.5h0Z"/><path class="cls-1" d="M50.87,78.9a1.47,1.47,0,0,1-.79-.22L37.91,71.24C26.13,64,19,51.85,18.94,38.63c0-.13,0-.2,0-.27V1.5A1.5,1.5,0,0,1,20.43,0H81.3a1.5,1.5,0,0,1,1.5,1.5V38.56c-.1,13.28-7.19,25.47-19,32.68L51.65,78.68A1.46,1.46,0,0,1,50.87,78.9ZM21.93,3V38.61C22,50.78,28.58,62,39.48,68.68l11.39,7,11.39-7C73.15,62,79.71,50.77,79.79,38.6V3Z"/><path class="cls-1" d="M94.16,95.67H87.88a1.5,1.5,0,0,1-1.5-1.5V31.46H81.61a1.5,1.5,0,0,1-1.5-1.5v-6.5a1.5,1.5,0,0,1,1.5-1.5H91a4.7,4.7,0,0,1,4.64,4.75V94.17A1.5,1.5,0,0,1,94.16,95.67Zm-4.78-3h3.28v-66A1.71,1.71,0,0,0,91,25H83.11v3.5h4.77a1.5,1.5,0,0,1,1.5,1.5Z"/><path class="cls-1" d="M13.85,95.67H7.57a1.5,1.5,0,0,1-1.5-1.5V26.71A4.7,4.7,0,0,1,10.71,22h9.62a1.5,1.5,0,0,1,1.5,1.5V30a1.5,1.5,0,0,1-1.5,1.5h-5V94.17A1.5,1.5,0,0,1,13.85,95.67Zm-4.78-3h3.28V30a1.5,1.5,0,0,1,1.5-1.5h5V25H10.71a1.71,1.71,0,0,0-1.64,1.75Z"/><path class="cls-1" d="M95.45,103.66H6.29A6.29,6.29,0,0,1,0,97.37V95.12a2.45,2.45,0,0,1,2.45-2.45H99.29a2.45,2.45,0,0,1,2.44,2.45v2.25A6.29,6.29,0,0,1,95.45,103.66ZM3,95.67v1.7a3.29,3.29,0,0,0,3.29,3.29H95.45a3.28,3.28,0,0,0,3.28-3.29v-1.7Z"/></g></g></svg>