<svg xmlns="http://www.w3.org/2000/svg" viewBox="0 0 103.56 101.59"><defs><style>.cls-1{fill:#444;}</style></defs><title>Asset 2047</title><g id="Layer_2" data-name="Layer 2"><g id="Layer_1-2" data-name="Layer 1"><path class="cls-1" d="M88.41,53.05a1.5,1.5,0,0,1-1.5-1.5V3H34.22V20.37a1.5,1.5,0,0,1-1.5,1.5H15.46V50.81a1.5,1.5,0,0,1-3,0V20.37a1.5,1.5,0,0,1,1.5-1.5H31.22V1.5A1.5,1.5,0,0,1,32.72,0H88.41a1.5,1.5,0,0,1,1.5,1.5V51.55A1.5,1.5,0,0,1,88.41,53.05Z"/><path class="cls-1" d="M32.72,21.87H14a1.5,1.5,0,0,1-1.06-2.55L31.66.44A1.5,1.5,0,0,1,34.22,1.5V20.37A1.5,1.5,0,0,1,32.72,21.87Zm-15.15-3H31.22V5.14Z"/><path class="cls-1" d="M102.06,101.59H1.5a1.5,1.5,0,0,1-1.5-1.5V43a1.48,1.48,0,0,1,.72-1.28L13.18,34.1a1.5,1.5,0,0,1,1.56,2.56L3,43.83V98.59h97.56V43.83L87.63,35.94a1.5,1.5,0,0,1,1.56-2.56l13.65,8.33a1.48,1.48,0,0,1,.72,1.28v57.1A1.5,1.5,0,0,1,102.06,101.59Z"/><path class="cls-1" d="M102.06,101.59a1.42,1.42,0,0,1-.74-.2L.76,44.29a1.5,1.5,0,0,1,1.48-2.61L102.8,98.79a1.5,1.5,0,0,1-.74,2.8Z"/><path class="cls-1" d="M1.5,101.59a1.5,1.5,0,0,1-.74-2.8L101.32,41.68a1.5,1.5,0,0,1,1.48,2.61L2.24,101.39A1.42,1.42,0,0,1,1.5,101.59Z"/><path class="cls-1" d="M68.1,37.92H34.15a1.5,1.5,0,0,1-1.5-1.5V29.28a1.5,1.5,0,0,1,1.5-1.5H68.1a1.5,1.5,0,0,1,1.5,1.5v7.14A1.5,1.5,0,0,1,68.1,37.92Zm-32.45-3H66.6V30.78H35.65Z"/><path class="cls-1" d="M68.08,50.49h-34a1.5,1.5,0,0,1-1.5-1.5V41.85a1.5,1.5,0,0,1,1.5-1.5h34a1.5,1.5,0,0,1,1.5,1.5V49A1.5,1.5,0,0,1,68.08,50.49Zm-32.46-3h31V43.35h-31Z"/></g></g></svg>