<svg xmlns="http://www.w3.org/2000/svg" viewBox="0 0 103.6 105.71"><defs><style>.cls-1{fill:#474747;}.cls-2{fill:#363636;}</style></defs><title>Asset 2053</title><g id="Layer_2" data-name="Layer 2"><g id="Layer_1-2" data-name="Layer 1"><path class="cls-1" d="M51.33,72.14c-7.51,0-13.61-7.69-13.61-17.15a20.09,20.09,0,0,1,3.1-10.89,14.67,14.67,0,0,1,4.75-4.64,1.5,1.5,0,0,1,1.8.22,5.68,5.68,0,0,0,7.92,0,1.51,1.51,0,0,1,1.81-.22,14.74,14.74,0,0,1,4.74,4.64h0A20,20,0,0,1,65,55C65,64.45,58.84,72.14,51.33,72.14ZM46.22,42.63a12.18,12.18,0,0,0-2.89,3.11A17.1,17.1,0,0,0,40.72,55c0,7.8,4.76,14.15,10.61,14.15S62,62.79,62,55a17,17,0,0,0-2.62-9.25,12.18,12.18,0,0,0-2.89-3.11,8.7,8.7,0,0,1-10.22,0Z"/><path class="cls-1" d="M51.33,44.29a8.7,8.7,0,1,1,6.05-2.46A8.63,8.63,0,0,1,51.33,44.29Zm0-14.38a5.69,5.69,0,0,0,0,11.38A5.7,5.7,0,0,0,57,35.6,5.7,5.7,0,0,0,51.33,29.91Z"/><path class="cls-1" d="M51.86,29.91A10.45,10.45,0,0,1,41.41,19.46V18.38a1.5,1.5,0,1,1,3,0v1.08a7.45,7.45,0,0,0,14.9,0V18.38a1.5,1.5,0,1,1,3,0v1.08A10.46,10.46,0,0,1,51.86,29.91Z"/><path class="cls-1" d="M63.45,51.46a1.5,1.5,0,0,1-.26-3,7.44,7.44,0,0,0,5.47-10.55l-.47-1a1.5,1.5,0,0,1,2.71-1.28l.47,1a10.46,10.46,0,0,1-5,13.92,10.58,10.58,0,0,1-2.71.87Z"/><path class="cls-1" d="M68.47,61.22a10.51,10.51,0,0,1-3.58-.63,10.65,10.65,0,0,1-2.52-1.33,1.5,1.5,0,1,1,1.75-2.44,7.15,7.15,0,0,0,1.79,1,7.46,7.46,0,0,0,9.55-4.46l.37-1a1.52,1.52,0,0,1,1.93-.89,1.49,1.49,0,0,1,.89,1.92l-.37,1a10.38,10.38,0,0,1-5.4,5.9A10.52,10.52,0,0,1,68.47,61.22Z"/><path class="cls-1" d="M66.7,73.66h-.18a10.42,10.42,0,0,1-9-5.48,1.49,1.49,0,0,1,.6-2,1.51,1.51,0,0,1,2,.6,7.13,7.13,0,0,0,1.2,1.64,7.46,7.46,0,0,0,10.54.17l.77-.75A1.5,1.5,0,1,1,74.74,70l-.78.76A10.38,10.38,0,0,1,66.7,73.66Z"/><path class="cls-1" d="M39,51.46l-.25,0A10,10,0,0,1,36,50.57a10.45,10.45,0,0,1-5-13.92l.46-1A1.5,1.5,0,1,1,34.21,37l-.46,1a7.43,7.43,0,0,0,5.46,10.55,1.5,1.5,0,0,1-.26,3Z"/><path class="cls-1" d="M33.94,61.22a10.53,10.53,0,0,1-4.42-1,10.41,10.41,0,0,1-5.4-5.9l-.37-1a1.5,1.5,0,0,1,2.82-1l.37,1a7.45,7.45,0,0,0,9.55,4.46,7.21,7.21,0,0,0,1.8-1A1.5,1.5,0,1,1,40,59.26a10.78,10.78,0,0,1-2.51,1.33A10.59,10.59,0,0,1,33.94,61.22Z"/><path class="cls-1" d="M35.71,73.66a10.38,10.38,0,0,1-7.27-2.94L27.66,70a1.5,1.5,0,1,1,2.09-2.15l.78.75a7.47,7.47,0,0,0,11.74-1.81,1.5,1.5,0,1,1,2.63,1.43,10.21,10.21,0,0,1-1.68,2.3,10.43,10.43,0,0,1-7.34,3.18Z"/><path class="cls-1" d="M51.33,72.14a1.5,1.5,0,0,1-1.5-1.5V42.79a1.5,1.5,0,0,1,3,0V70.64A1.5,1.5,0,0,1,51.33,72.14Z"/><path class="cls-1" d="M44.85,56.75a1.5,1.5,0,0,1-1.5-1.5,1.36,1.36,0,0,1,0-.29,1.31,1.31,0,0,1,.09-.28,1.26,1.26,0,0,1,.13-.26,2.11,2.11,0,0,1,.19-.23,1.55,1.55,0,0,1,2.12,0,2.11,2.11,0,0,1,.19.23,2.15,2.15,0,0,1,.14.26,2.29,2.29,0,0,1,.08.28,1.36,1.36,0,0,1,0,.29,1.52,1.52,0,0,1-.44,1.06A1.5,1.5,0,0,1,44.85,56.75Z"/><path class="cls-1" d="M49.91,55.25a1.5,1.5,0,0,1,1.5-1.5h0a1.5,1.5,0,0,1,1.5,1.5h0a1.5,1.5,0,0,1-1.5,1.5h0A1.5,1.5,0,0,1,49.91,55.25Z"/><path class="cls-1" d="M58,56.75a1.5,1.5,0,0,1-1.5-1.5,1.36,1.36,0,0,1,0-.29,1.69,1.69,0,0,1,.41-.77,1.47,1.47,0,0,1,1.64-.32,1.58,1.58,0,0,1,.26.13l.22.19a1.37,1.37,0,0,1,.19.23,2.15,2.15,0,0,1,.14.26,1.29,1.29,0,0,1,.08.28,1.36,1.36,0,0,1,0,.29A1.52,1.52,0,0,1,59,56.31l-.22.19-.26.14-.28.08A1.53,1.53,0,0,1,58,56.75Z"/><path class="cls-1" d="M53.46,36H49.61a1.5,1.5,0,0,1,0-3h3.85a1.5,1.5,0,0,1,0,3Z"/><path class="cls-2" d="M51.8,105.71a1.44,1.44,0,0,1-.67-.16L31,95.48C11.76,85.85.17,69.5,0,51.75c0-.18,0-.27,0-.36V1.5A1.5,1.5,0,0,1,1.5,0H102.1a1.5,1.5,0,0,1,1.5,1.5V51.39a2.09,2.09,0,0,1,0,.25c-.15,17.85-11.74,34.21-31,43.84L52.47,105.55A1.44,1.44,0,0,1,51.8,105.71ZM3,3V51.39c0,.17,0,.25,0,.33.15,16.61,11.12,32,29.35,41.08l19.44,9.73L71.25,92.8c18.23-9.12,29.2-24.49,29.34-41.1a1.85,1.85,0,0,1,0-.23V3Z"/><path class="cls-2" d="M11.15,11.18a1.52,1.52,0,0,1-1.07-.44,2,2,0,0,1-.18-.23A1.61,1.61,0,0,1,9.67,10a2.83,2.83,0,0,1,0-.29,2.64,2.64,0,0,1,0-.29,1.4,1.4,0,0,1,.09-.29,1.65,1.65,0,0,1,.14-.26,1.32,1.32,0,0,1,.18-.22,1.56,1.56,0,0,1,2.13,0,1.32,1.32,0,0,1,.18.22,1.65,1.65,0,0,1,.14.26,1.4,1.4,0,0,1,.09.29,1.36,1.36,0,0,1,0,.29,1.43,1.43,0,0,1,0,.29,1.61,1.61,0,0,1-.23.54,2,2,0,0,1-.18.23A1.52,1.52,0,0,1,11.15,11.18Z"/><path class="cls-2" d="M40.69,90.82a1.5,1.5,0,0,1-.67-2h0a1.5,1.5,0,0,1,2-.67h0a1.51,1.51,0,0,1,.67,2h0a1.49,1.49,0,0,1-1.34.82h0A1.44,1.44,0,0,1,40.69,90.82ZM30.28,85.24a1.52,1.52,0,0,1-.45-2.08h0a1.51,1.51,0,0,1,2.07-.45h0a1.51,1.51,0,0,1,.46,2.08h0a1.52,1.52,0,0,1-1.27.69h0A1.5,1.5,0,0,1,30.28,85.24ZM21,77.69a1.5,1.5,0,0,1,0-2.12h0a1.5,1.5,0,0,1,2.12,0h0a1.49,1.49,0,0,1,0,2.12h0a1.5,1.5,0,0,1-1,.42h0A1.51,1.51,0,0,1,21,77.69ZM13.87,68a1.49,1.49,0,0,1,.62-2h0a1.5,1.5,0,0,1,2,.62h0a1.51,1.51,0,0,1-.63,2h0a1.45,1.45,0,0,1-.7.17h0A1.5,1.5,0,0,1,13.87,68ZM10,56.51a1.5,1.5,0,0,1,1.26-1.71h0A1.51,1.51,0,0,1,13,56.06h0a1.51,1.51,0,0,1-1.26,1.71h-.23A1.51,1.51,0,0,1,10,56.51ZM9.65,44.65a1.5,1.5,0,0,1,1.5-1.5h0a1.5,1.5,0,0,1,1.5,1.5h0a1.51,1.51,0,0,1-1.5,1.5h0A1.5,1.5,0,0,1,9.65,44.65ZM9.65,33a1.5,1.5,0,0,1,1.5-1.5h0a1.5,1.5,0,0,1,1.5,1.5h0a1.5,1.5,0,0,1-1.5,1.5h0A1.5,1.5,0,0,1,9.65,33Zm0-11.66a1.5,1.5,0,0,1,1.5-1.5h0a1.5,1.5,0,0,1,1.5,1.5h0a1.5,1.5,0,0,1-1.5,1.5h0A1.5,1.5,0,0,1,9.65,21.33Z"/><path class="cls-2" d="M51.8,96.21a1.5,1.5,0,0,1-1.06-.44,1.5,1.5,0,0,1-.41-1.36c0-.09.05-.18.08-.28a2,2,0,0,1,.14-.25,1.45,1.45,0,0,1,.19-.23,1.55,1.55,0,0,1,2.12,0,1,1,0,0,1,.18.23.89.89,0,0,1,.14.25,1.8,1.8,0,0,1,.09.28,1.5,1.5,0,0,1-1.47,1.8Z"/><path class="cls-2" d="M60.88,90.16a1.5,1.5,0,0,1,.67-2h0a1.5,1.5,0,0,1,2,.67h0a1.5,1.5,0,0,1-.67,2h0a1.44,1.44,0,0,1-.67.16h0A1.49,1.49,0,0,1,60.88,90.16ZM71.22,84.8a1.51,1.51,0,0,1,.46-2.08h0a1.5,1.5,0,0,1,2.07.45h0a1.51,1.51,0,0,1-.45,2.08h0a1.49,1.49,0,0,1-.81.23h0A1.51,1.51,0,0,1,71.22,84.8Zm9.25-7.07a1.5,1.5,0,0,1,0-2.12h0a1.5,1.5,0,0,1,2.12,0h0a1.49,1.49,0,0,1,0,2.12h0a1.49,1.49,0,0,1-1.07.46h0A1.48,1.48,0,0,1,80.47,77.73Zm7.22-9.11a1.5,1.5,0,0,1-.62-2h0a1.5,1.5,0,0,1,2-.62h0a1.5,1.5,0,0,1,.62,2h0a1.5,1.5,0,0,1-1.33.8h0A1.52,1.52,0,0,1,87.69,68.62Zm4.16-10.84a1.49,1.49,0,0,1-1.25-1.71h0a1.48,1.48,0,0,1,1.7-1.25h0a1.5,1.5,0,0,1,1.26,1.71h0a1.49,1.49,0,0,1-1.48,1.27h0A.9.9,0,0,1,91.85,57.78ZM91,44.66a1.5,1.5,0,0,1,1.5-1.5h0a1.5,1.5,0,0,1,1.5,1.5h0a1.5,1.5,0,0,1-1.5,1.5h0A1.5,1.5,0,0,1,91,44.66ZM91,33a1.5,1.5,0,0,1,1.5-1.5h0A1.5,1.5,0,0,1,94,33h0a1.5,1.5,0,0,1-1.5,1.5h0A1.5,1.5,0,0,1,91,33Zm0-11.66a1.5,1.5,0,0,1,1.5-1.5h0a1.5,1.5,0,0,1,1.5,1.5h0a1.5,1.5,0,0,1-1.5,1.5h0A1.5,1.5,0,0,1,91,21.35Z"/><path class="cls-2" d="M92.45,11.18a1.52,1.52,0,0,1-1.06-.44,2.11,2.11,0,0,1-.19-.23,1.26,1.26,0,0,1-.13-.26A1.31,1.31,0,0,1,91,10a1.43,1.43,0,0,1,0-.29,1.36,1.36,0,0,1,0-.29,1.4,1.4,0,0,1,.09-.29,1.58,1.58,0,0,1,.13-.26,1.37,1.37,0,0,1,.19-.22,1.55,1.55,0,0,1,2.12,0,1.37,1.37,0,0,1,.19.22c0,.09.1.17.14.26a2.45,2.45,0,0,1,.08.29,1.36,1.36,0,0,1,0,.29,1.43,1.43,0,0,1,0,.29,2.29,2.29,0,0,1-.08.28,2.15,2.15,0,0,1-.14.26,2.11,2.11,0,0,1-.19.23A1.5,1.5,0,0,1,92.45,11.18Z"/><path class="cls-2" d="M79.34,9.68a1.5,1.5,0,0,1,1.5-1.5h0a1.5,1.5,0,0,1,1.5,1.5h0a1.5,1.5,0,0,1-1.5,1.5h0A1.5,1.5,0,0,1,79.34,9.68Zm-11.62,0a1.5,1.5,0,0,1,1.5-1.5h0a1.5,1.5,0,0,1,1.5,1.5h0a1.5,1.5,0,0,1-1.5,1.5h0A1.5,1.5,0,0,1,67.72,9.68Zm-11.62,0a1.5,1.5,0,0,1,1.5-1.5h0a1.51,1.51,0,0,1,1.51,1.5h0a1.51,1.51,0,0,1-1.51,1.5h0A1.5,1.5,0,0,1,56.1,9.68Zm-11.61,0A1.5,1.5,0,0,1,46,8.18h0a1.5,1.5,0,0,1,1.5,1.5h0a1.5,1.5,0,0,1-1.5,1.5h0A1.5,1.5,0,0,1,44.49,9.68Zm-11.62,0a1.5,1.5,0,0,1,1.5-1.5h0a1.51,1.51,0,0,1,1.51,1.5h0a1.51,1.51,0,0,1-1.51,1.5h0A1.5,1.5,0,0,1,32.87,9.68Zm-11.61,0a1.5,1.5,0,0,1,1.5-1.5h0a1.5,1.5,0,0,1,1.5,1.5h0a1.5,1.5,0,0,1-1.5,1.5h0A1.5,1.5,0,0,1,21.26,9.68Z"/></g></g></svg>