<svg xmlns="http://www.w3.org/2000/svg" viewBox="0 0 102.66 103.31"><defs><style>.cls-1{fill:#444;}</style></defs><title>Asset 2041</title><g id="Layer_2" data-name="Layer 2"><g id="Layer_1-2" data-name="Layer 1"><path class="cls-1" d="M15,18.77A4.74,4.74,0,1,1,19.69,14,4.74,4.74,0,0,1,15,18.77Zm0-6.47A1.74,1.74,0,1,0,16.69,14,1.74,1.74,0,0,0,15,12.3Z"/><path class="cls-1" d="M57.56,19.26a1.5,1.5,0,0,1-1.5-1.5V8.64a1.5,1.5,0,1,1,3,0v9.12A1.5,1.5,0,0,1,57.56,19.26Z"/><path class="cls-1" d="M68.12,19.26a1.5,1.5,0,0,1-1.5-1.5V8.64a1.5,1.5,0,0,1,3,0v9.12A1.5,1.5,0,0,1,68.12,19.26Z"/><path class="cls-1" d="M78.69,19.26a1.5,1.5,0,0,1-1.5-1.5V8.64a1.5,1.5,0,0,1,3,0v9.12A1.5,1.5,0,0,1,78.69,19.26Z"/><path class="cls-1" d="M89.25,19.26a1.5,1.5,0,0,1-1.5-1.5V8.64a1.5,1.5,0,1,1,3,0v9.12A1.5,1.5,0,0,1,89.25,19.26Z"/><path class="cls-1" d="M15,51.86a4.73,4.73,0,1,1,4.73-4.73A4.74,4.74,0,0,1,15,51.86Zm0-6.46a1.73,1.73,0,1,0,1.73,1.73A1.73,1.73,0,0,0,15,45.4Z"/><path class="cls-1" d="M57.56,52.35a1.5,1.5,0,0,1-1.5-1.5V41.74a1.5,1.5,0,0,1,3,0v9.11A1.5,1.5,0,0,1,57.56,52.35Z"/><path class="cls-1" d="M68.12,52.35a1.5,1.5,0,0,1-1.5-1.5V41.74a1.5,1.5,0,0,1,3,0v9.11A1.5,1.5,0,0,1,68.12,52.35Z"/><path class="cls-1" d="M78.69,52.35a1.5,1.5,0,0,1-1.5-1.5V41.74a1.5,1.5,0,0,1,3,0v9.11A1.5,1.5,0,0,1,78.69,52.35Z"/><path class="cls-1" d="M89.25,52.35a1.5,1.5,0,0,1-1.5-1.5V41.74a1.5,1.5,0,0,1,3,0v9.11A1.5,1.5,0,0,1,89.25,52.35Z"/><path class="cls-1" d="M15,85a4.74,4.74,0,1,1,4.73-4.73A4.74,4.74,0,0,1,15,85Zm0-6.47a1.74,1.74,0,1,0,1.73,1.74A1.74,1.74,0,0,0,15,78.49Z"/><path class="cls-1" d="M57.56,85.45a1.5,1.5,0,0,1-1.5-1.5V74.83a1.5,1.5,0,1,1,3,0V84A1.5,1.5,0,0,1,57.56,85.45Z"/><path class="cls-1" d="M68.12,85.45a1.5,1.5,0,0,1-1.5-1.5V74.83a1.5,1.5,0,1,1,3,0V84A1.5,1.5,0,0,1,68.12,85.45Z"/><path class="cls-1" d="M78.69,85.45a1.5,1.5,0,0,1-1.5-1.5V74.83a1.5,1.5,0,1,1,3,0V84A1.5,1.5,0,0,1,78.69,85.45Z"/><path class="cls-1" d="M89.25,85.45a1.5,1.5,0,0,1-1.5-1.5V74.83a1.5,1.5,0,1,1,3,0V84A1.5,1.5,0,0,1,89.25,85.45Z"/><path class="cls-1" d="M101.16,29.53H1.5A1.5,1.5,0,0,1,0,28V1.5A1.5,1.5,0,0,1,1.5,0h99.66a1.5,1.5,0,0,1,1.5,1.5V28A1.5,1.5,0,0,1,101.16,29.53ZM3,26.53H99.66V3H3Z"/><path class="cls-1" d="M101.16,95.72H1.5A1.5,1.5,0,0,1,0,94.22V67.69a1.5,1.5,0,0,1,1.5-1.5h99.66a1.5,1.5,0,0,1,1.5,1.5V94.22A1.5,1.5,0,0,1,101.16,95.72ZM3,92.72H99.66V69.19H3Z"/><path class="cls-1" d="M89.25,69.19H13.41a1.5,1.5,0,0,1-1.5-1.5V61.13a1.5,1.5,0,0,1,1.5-1.5H89.25a1.5,1.5,0,0,1,1.5,1.5v6.56A1.5,1.5,0,0,1,89.25,69.19Zm-74.34-3H87.75V62.63H14.91Z"/><path class="cls-1" d="M89.25,36.1H13.41a1.5,1.5,0,0,1-1.5-1.5V28a1.5,1.5,0,0,1,1.5-1.5H89.25a1.5,1.5,0,0,1,1.5,1.5V34.6A1.5,1.5,0,0,1,89.25,36.1Zm-74.34-3H87.75V29.53H14.91Z"/><path class="cls-1" d="M101.16,62.63H1.5A1.5,1.5,0,0,1,0,61.13V34.6a1.5,1.5,0,0,1,1.5-1.5h99.66a1.5,1.5,0,0,1,1.5,1.5V61.13A1.5,1.5,0,0,1,101.16,62.63ZM3,59.63H99.66V36.1H3Z"/><path class="cls-1" d="M22.47,103.31H12a1.5,1.5,0,0,1-1.5-1.5V94.22a1.5,1.5,0,0,1,1.5-1.5H22.47a1.5,1.5,0,0,1,1.5,1.5v7.59A1.5,1.5,0,0,1,22.47,103.31Zm-9-3H21V95.72H13.5Z"/><path class="cls-1" d="M90.66,103.31H80.2a1.5,1.5,0,0,1-1.5-1.5V94.22a1.5,1.5,0,0,1,1.5-1.5H90.66a1.5,1.5,0,0,1,1.5,1.5v7.59A1.5,1.5,0,0,1,90.66,103.31Zm-9-3h7.46V95.72H81.7Z"/></g></g></svg>