<svg xmlns="http://www.w3.org/2000/svg" viewBox="0 0 103.94 102.76"><defs><style>.cls-1{fill:#444;}</style></defs><title>Asset 2065</title><g id="Layer_2" data-name="Layer 2"><g id="Layer_1-2" data-name="Layer 1"><path class="cls-1" d="M74.38,35.07A7.63,7.63,0,1,1,82,27.44,7.64,7.64,0,0,1,74.38,35.07Zm0-12.26A4.63,4.63,0,1,0,79,27.44,4.63,4.63,0,0,0,74.38,22.81Z"/><path class="cls-1" d="M74.38,31.17a1.5,1.5,0,0,1,0-3,.73.73,0,0,0,.72-.73,1.5,1.5,0,1,1,3,0A3.73,3.73,0,0,1,74.38,31.17Z"/><path class="cls-1" d="M31.91,62.06a7.63,7.63,0,1,1,7.63-7.62A7.64,7.64,0,0,1,31.91,62.06Zm0-12.25a4.63,4.63,0,1,0,4.63,4.63A4.63,4.63,0,0,0,31.91,49.81Z"/><path class="cls-1" d="M31.91,58.16a1.5,1.5,0,1,1,0-3,.73.73,0,0,0,.73-.72,1.5,1.5,0,0,1,3,0A3.73,3.73,0,0,1,31.91,58.16Z"/><path class="cls-1" d="M99.1,81.88H4.84A4.84,4.84,0,0,1,0,77V4.84A4.84,4.84,0,0,1,4.84,0H99.1a4.84,4.84,0,0,1,4.84,4.84V77A4.84,4.84,0,0,1,99.1,81.88ZM4.84,3A1.84,1.84,0,0,0,3,4.84V77a1.84,1.84,0,0,0,1.84,1.84H99.1A1.84,1.84,0,0,0,100.94,77V4.84A1.84,1.84,0,0,0,99.1,3ZM95.77,75.21H8.17a1.51,1.51,0,0,1-1.5-1.5V8.17a1.51,1.51,0,0,1,1.5-1.5h87.6a1.51,1.51,0,0,1,1.5,1.5V73.71A1.51,1.51,0,0,1,95.77,75.21Zm-86.1-3h84.6V9.67H9.67Z"/><path class="cls-1" d="M59.87,94.23H43.66a1.5,1.5,0,0,1-1.5-1.5V80.38a1.5,1.5,0,0,1,1.5-1.5H59.87a1.5,1.5,0,0,1,1.5,1.5V92.73A1.5,1.5,0,0,1,59.87,94.23Zm-14.71-3H58.37V81.88H45.16Z"/><path class="cls-1" d="M77.7,102.76H25.77a1.51,1.51,0,0,1-1.5-1.5,10,10,0,0,1,10-10H69.17a10,10,0,0,1,10,10A1.5,1.5,0,0,1,77.7,102.76Zm-50.26-3H76a7,7,0,0,0-6.87-5.53H34.3A7,7,0,0,0,27.44,99.76Z"/><path class="cls-1" d="M75.09,39.55H30.82A11.47,11.47,0,0,1,19.36,28.09v-1.3A11.47,11.47,0,0,1,30.82,15.33H75.09A11.47,11.47,0,0,1,86.55,26.79v1.3A11.47,11.47,0,0,1,75.09,39.55ZM30.82,18.33a8.48,8.48,0,0,0-8.46,8.46v1.3a8.47,8.47,0,0,0,8.46,8.46H75.09a8.47,8.47,0,0,0,8.46-8.46v-1.3a8.48,8.48,0,0,0-8.46-8.46Z"/><path class="cls-1" d="M75.09,66.54H30.82A11.47,11.47,0,0,1,19.36,55.08V53.79A11.47,11.47,0,0,1,30.82,42.33H75.09A11.47,11.47,0,0,1,86.55,53.79v1.29A11.47,11.47,0,0,1,75.09,66.54ZM30.82,45.33a8.47,8.47,0,0,0-8.46,8.46v1.29a8.47,8.47,0,0,0,8.46,8.46H75.09a8.47,8.47,0,0,0,8.46-8.46V53.79a8.47,8.47,0,0,0-8.46-8.46Z"/></g></g></svg>