<svg xmlns="http://www.w3.org/2000/svg" viewBox="0 0 104.33 103.7"><defs><style>.cls-1{fill:#444;}.cls-2{fill:#363636;}</style></defs><title>Asset 2055</title><g id="Layer_2" data-name="Layer 2"><g id="Layer_1-2" data-name="Layer 1"><path d="M103.47,103.7H.77V1h102.7Zm-101.7-1h100.7V2H1.77Z"/><path class="cls-1" d="M102.83,103.39H1.5a1.5,1.5,0,0,1-1.5-1.5V16.32a1.5,1.5,0,0,1,1.5-1.5H102.83a1.5,1.5,0,0,1,1.5,1.5v85.57A1.5,1.5,0,0,1,102.83,103.39ZM3,100.39h98.33V17.82H3Z"/><path class="cls-1" d="M102.83,17.82H1.5A1.5,1.5,0,0,1,0,16.32V1.5A1.5,1.5,0,0,1,1.5,0H102.83a1.5,1.5,0,0,1,1.5,1.5V16.32A1.5,1.5,0,0,1,102.83,17.82ZM3,14.82h98.33V3H3Z"/><path class="cls-1" d="M9.3,10.41a1.56,1.56,0,0,1-.57-.11A1.63,1.63,0,0,1,8.24,10a1.58,1.58,0,0,1-.33-.48,1.66,1.66,0,0,1-.11-.58,1.36,1.36,0,0,1,0-.29,1.31,1.31,0,0,1,.09-.28,1.26,1.26,0,0,1,.13-.26,2.11,2.11,0,0,1,.19-.23,1.55,1.55,0,0,1,2.12,0,2.11,2.11,0,0,1,.19.23,2.15,2.15,0,0,1,.14.26,2.29,2.29,0,0,1,.08.28,1.36,1.36,0,0,1,0,.29,1.66,1.66,0,0,1-.11.58,1.6,1.6,0,0,1-.81.81A1.66,1.66,0,0,1,9.3,10.41Z"/><path class="cls-1" d="M20.05,8.91a1.51,1.51,0,0,1,1.51-1.5h0a1.5,1.5,0,0,1,1.5,1.5h0a1.5,1.5,0,0,1-1.5,1.5h0A1.51,1.51,0,0,1,20.05,8.91Z"/><path class="cls-1" d="M33.81,10.41A1.5,1.5,0,0,1,32.75,10a1.58,1.58,0,0,1-.33-.48,1.66,1.66,0,0,1-.11-.58,1.36,1.36,0,0,1,0-.29,1.29,1.29,0,0,1,.08-.28,2.15,2.15,0,0,1,.14-.26,1.37,1.37,0,0,1,.19-.23,1.49,1.49,0,0,1,1.35-.41,1.31,1.31,0,0,1,.28.09,1.26,1.26,0,0,1,.26.13,2.11,2.11,0,0,1,.23.19,1.73,1.73,0,0,1,.32.49,1.31,1.31,0,0,1,.09.28,1.36,1.36,0,0,1,0,.29,1.47,1.47,0,0,1-.12.58,1.39,1.39,0,0,1-.32.48A1.5,1.5,0,0,1,33.81,10.41Z"/><path class="cls-2" d="M52.16,80.12c-10.14,0-20.77-4.27-31.59-12.68A92.81,92.81,0,0,1,9.36,57.1a1.49,1.49,0,0,1,0-2c6.34-6.92,23.2-23,42.8-23,14.94,0,28.36,9.37,37,17.23,2.58,2.35,4.6,4.45,5.83,5.79a1.49,1.49,0,0,1,0,2C88.63,64,71.77,80.12,52.16,80.12Zm-39.65-24a91.92,91.92,0,0,0,9.9,9c7.07,5.5,18,12.05,29.75,12.05,17.53,0,33-14,39.65-21-1.17-1.24-2.77-2.84-4.69-4.59-8.23-7.51-21-16.45-35-16.45C34.63,35.06,19.19,49,12.51,56.09Z"/><path class="cls-2" d="M52.16,73.41A20.68,20.68,0,1,1,72.84,52.74,20.69,20.69,0,0,1,52.16,73.41Zm0-38.35A17.68,17.68,0,1,0,69.84,52.74,17.7,17.7,0,0,0,52.16,35.06Z"/><path class="cls-2" d="M52.16,62.1a9.36,9.36,0,1,1,9.36-9.36A9.37,9.37,0,0,1,52.16,62.1Zm0-15.72a6.36,6.36,0,1,0,6.36,6.36A6.37,6.37,0,0,0,52.16,46.38Z"/></g></g></svg>