<svg xmlns="http://www.w3.org/2000/svg" viewBox="0 0 105.34 102.03"><defs><style>.cls-1{fill:#444;}.cls-2{fill:#363636;}</style></defs><title>Asset 2042</title><g id="Layer_2" data-name="Layer 2"><g id="Layer_1-2" data-name="Layer 1"><path class="cls-1" d="M101.64,87.61H40.48a3.71,3.71,0,0,1-3.71-3.7V36.56a3.71,3.71,0,0,1,3.71-3.7h61.16a3.7,3.7,0,0,1,3.7,3.7V83.91A3.7,3.7,0,0,1,101.64,87.61ZM40.48,35.86a.71.71,0,0,0-.71.7V83.91a.7.7,0,0,0,.71.7h61.16a.7.7,0,0,0,.7-.7V36.56a.7.7,0,0,0-.7-.7Z"/><path class="cls-1" d="M98.67,82.63H43.45a1.5,1.5,0,0,1-1.5-1.5V39.35a1.5,1.5,0,0,1,1.5-1.5H98.67a1.5,1.5,0,0,1,1.5,1.5V81.13A1.5,1.5,0,0,1,98.67,82.63ZM45,79.63H97.17V40.85H45Z"/><path class="cls-1" d="M77.88,96.09H64.24a1.5,1.5,0,0,1-1.5-1.5V86.11a1.5,1.5,0,0,1,1.5-1.5H77.88a1.5,1.5,0,0,1,1.5,1.5v8.48A1.5,1.5,0,0,1,77.88,96.09Zm-12.14-3H76.38V87.61H65.74Z"/><path class="cls-1" d="M85.77,102H56.35a1.5,1.5,0,0,1-1.5-1.5,7.45,7.45,0,0,1,7.44-7.44H79.83a7.45,7.45,0,0,1,7.44,7.44A1.5,1.5,0,0,1,85.77,102ZM58.11,99H84a4.46,4.46,0,0,0-4.18-2.94H62.29A4.46,4.46,0,0,0,58.11,99Z"/><path class="cls-1" d="M70.39,77.84a18.29,18.29,0,0,1-3-.26,1.5,1.5,0,0,1-1-.62,1.47,1.47,0,0,1-.25-1.12l.4-2.3a15.39,15.39,0,0,1-1.76-.64l-1.17,2a1.49,1.49,0,0,1-2,.55,17.75,17.75,0,0,1-4.72-4A1.5,1.5,0,0,1,57,69.42l1.79-1.51a15,15,0,0,1-.93-1.61l-2.2.8a1.49,1.49,0,0,1-1.92-.89,17.54,17.54,0,0,1-1.08-6,1.51,1.51,0,0,1,1.5-1.51H56.5a12.88,12.88,0,0,1,.32-1.84L54.62,56a1.51,1.51,0,0,1-.9-1.92,17.9,17.9,0,0,1,3.07-5.34,1.5,1.5,0,0,1,2.11-.19l1.8,1.5a13.64,13.64,0,0,1,1.42-1.2l-1.17-2a1.49,1.49,0,0,1,.54-2.05,17.35,17.35,0,0,1,5.78-2.12,1.49,1.49,0,0,1,1.12.24,1.5,1.5,0,0,1,.62,1l.41,2.29a11.55,11.55,0,0,1,1.86,0l.4-2.3a1.5,1.5,0,0,1,1.73-1.22,17.63,17.63,0,0,1,5.79,2.08,1.54,1.54,0,0,1,.71.91,1.51,1.51,0,0,1-.15,1.14l-1.17,2A15.17,15.17,0,0,1,80,50l1.78-1.51a1.5,1.5,0,0,1,2.11.18A17.62,17.62,0,0,1,87,54a1.5,1.5,0,0,1-.89,1.93l-2.19.81a14.5,14.5,0,0,1,.34,1.86l2.32,0a1.42,1.42,0,0,1,1.07.43,1.52,1.52,0,0,1,.44,1.07,17.88,17.88,0,0,1-1.06,6.11,1.55,1.55,0,0,1-.78.85,1.53,1.53,0,0,1-1.15,0l-2.2-.8A12.24,12.24,0,0,1,82,67.89l1.79,1.51a1.44,1.44,0,0,1,.53,1,1.51,1.51,0,0,1-.34,1.1,17.67,17.67,0,0,1-4.71,3.95,1.44,1.44,0,0,1-1.13.15,1.5,1.5,0,0,1-.92-.69l-1.17-2a13.56,13.56,0,0,1-1.75.64l.41,2.31A1.59,1.59,0,0,1,74.45,77a1.53,1.53,0,0,1-1,.61A17.75,17.75,0,0,1,70.39,77.84Zm-1-3a15.14,15.14,0,0,0,2.13,0l-.38-2.15a1.5,1.5,0,0,1,1.22-1.73,11,11,0,0,0,3.56-1.31A1.52,1.52,0,0,1,77,69.46a1.43,1.43,0,0,1,.91.7L79,72.05a16.41,16.41,0,0,0,1.63-1.37L79,69.28a1.5,1.5,0,0,1-.19-2.11,10.73,10.73,0,0,0,1.9-3.3,1.51,1.51,0,0,1,1.92-.9l2.06.75A15.44,15.44,0,0,0,85,61.58l-2.16,0a1.64,1.64,0,0,1-1.07-.43,1.5,1.5,0,0,1-.44-1.06,11.22,11.22,0,0,0-.69-3.78,1.5,1.5,0,0,1,0-1.14,1.45,1.45,0,0,1,.85-.78l2.05-.76a14.76,14.76,0,0,0-1.08-1.84l-1.66,1.41a1.48,1.48,0,0,1-1.09.35,1.52,1.52,0,0,1-1-.52,10.73,10.73,0,0,0-2.92-2.44,1.51,1.51,0,0,1-.56-2l1.09-1.89a16,16,0,0,0-2-.73L74,48.1a1.5,1.5,0,0,1-.62,1,1.47,1.47,0,0,1-1.12.25,10.17,10.17,0,0,0-3.81,0,1.51,1.51,0,0,1-1.74-1.22L66.33,46a14.52,14.52,0,0,0-2,.73l1.1,1.89a1.5,1.5,0,0,1-.54,2A11.33,11.33,0,0,0,62,53.09a1.49,1.49,0,0,1-2.11.19l-1.67-1.39a13.49,13.49,0,0,0-1.06,1.84l2,.74a1.52,1.52,0,0,1,.85.78,1.48,1.48,0,0,1,0,1.15,10.65,10.65,0,0,0-.66,3.67v.08a1.51,1.51,0,0,1-1.5,1.5H55.75a14.89,14.89,0,0,0,.37,2.1L58.17,63a1.51,1.51,0,0,1,1.93.9A10.8,10.8,0,0,0,62,67.18a1.5,1.5,0,0,1-.18,2.11L60.15,70.7a15.06,15.06,0,0,0,1.63,1.36l1.09-1.89a1.55,1.55,0,0,1,.92-.7,1.49,1.49,0,0,1,1.13.15,10.84,10.84,0,0,0,3.58,1.3,1.5,1.5,0,0,1,1.22,1.73Z"/><path class="cls-2" d="M29.56,53.07H1.5A1.5,1.5,0,0,1,0,51.57V9A1.5,1.5,0,0,1,1.5,7.5H29.56A1.5,1.5,0,0,1,31.06,9V51.57A1.5,1.5,0,0,1,29.56,53.07ZM3,50.07H28.06V10.5H3Z"/><path class="cls-2" d="M29.56,10.5H1.5A1.5,1.5,0,0,1,0,9V5A5,5,0,0,1,5,0H26a5,5,0,0,1,5,5V9A1.5,1.5,0,0,1,29.56,10.5ZM3,7.5H28.06V5a2,2,0,0,0-2-2H5A2,2,0,0,0,3,5Z"/><path class="cls-2" d="M26,60.39H5a5,5,0,0,1-5-5V51.57a1.5,1.5,0,0,1,1.5-1.5H29.56a1.5,1.5,0,0,1,1.5,1.5v3.78A5,5,0,0,1,26,60.39ZM3,53.07v2.28a2,2,0,0,0,2,2H26a2,2,0,0,0,2-2V53.07Z"/><path class="cls-2" d="M17.77,6.75H13.3a1.5,1.5,0,0,1,0-3h4.47a1.5,1.5,0,0,1,0,3Z"/><path class="cls-2" d="M17.77,56.73H13.3a1.5,1.5,0,0,1,0-3h4.47a1.5,1.5,0,1,1,0,3Z"/><path class="cls-1" d="M36,85.13H9.33a1.5,1.5,0,0,1-1.5-1.5V61.27a1.5,1.5,0,0,1,3,0V82.13H36a1.5,1.5,0,0,1,0,3Z"/><path class="cls-1" d="M14.5,67.4a1.48,1.48,0,0,1-1.12-.5L9.33,62.38l-4,4.52a1.5,1.5,0,1,1-2.23-2l5.16-5.77a1.56,1.56,0,0,1,2.24,0l5.16,5.77A1.5,1.5,0,0,1,15.5,67,1.54,1.54,0,0,1,14.5,67.4Z"/><path class="cls-1" d="M30.6,90.29a1.5,1.5,0,0,1-1-2.61l4.52-4.05-4.52-4a1.5,1.5,0,0,1,2-2.23l5.77,5.16a1.5,1.5,0,0,1,.5,1.12,1.52,1.52,0,0,1-.5,1.12L31.6,89.91A1.46,1.46,0,0,1,30.6,90.29Z"/><path class="cls-1" d="M70.48,34.27a1.5,1.5,0,0,1-1.5-1.5V11.91H30.8a1.5,1.5,0,0,1,0-3H70.48a1.5,1.5,0,0,1,1.5,1.5V32.77A1.5,1.5,0,0,1,70.48,34.27Z"/><path class="cls-1" d="M70.48,35.41a1.48,1.48,0,0,1-1.11-.5L64.2,29.14a1.5,1.5,0,0,1,2.24-2l4,4.52,4-4.52a1.5,1.5,0,1,1,2.23,2L71.6,34.91A1.49,1.49,0,0,1,70.48,35.41Z"/><path class="cls-1" d="M36.2,17.08a1.5,1.5,0,0,1-1-.39l-5.76-5.16a1.49,1.49,0,0,1,0-2.23L35.2,4.13a1.5,1.5,0,1,1,2,2.24l-4.51,4,4.51,4.05a1.5,1.5,0,0,1,.12,2.12A1.48,1.48,0,0,1,36.2,17.08Z"/><path class="cls-1" d="M22.78,42.59H8.28a1.5,1.5,0,0,1-1.5-1.5V21a1.5,1.5,0,0,1,1.5-1.5h14.5a1.5,1.5,0,0,1,1.5,1.5V41.09A1.5,1.5,0,0,1,22.78,42.59Zm-13-3h11.5V22.46H9.78Z"/></g></g></svg>