<svg xmlns="http://www.w3.org/2000/svg" viewBox="0 0 104.64 105"><defs><style>.cls-1{fill:#444;}</style></defs><title>Asset 2056</title><g id="Layer_2" data-name="Layer 2"><g id="Layer_1-2" data-name="Layer 1"><path class="cls-1" d="M103.14,105H1.5A1.5,1.5,0,0,1,0,103.5V13.58a1.5,1.5,0,0,1,1.5-1.5H103.14a1.5,1.5,0,0,1,1.5,1.5V103.5A1.5,1.5,0,0,1,103.14,105ZM3,102h98.64V15.08H3Z"/><path class="cls-1" d="M103.14,15.08H1.5A1.5,1.5,0,0,1,0,13.58V1.5A1.5,1.5,0,0,1,1.5,0H103.14a1.5,1.5,0,0,1,1.5,1.5V13.58A1.5,1.5,0,0,1,103.14,15.08ZM3,12.08h98.64V3H3Z"/><path class="cls-1" d="M9.32,9A1.44,1.44,0,0,1,8.27,8.6a1.47,1.47,0,0,1-.45-1.06,1.48,1.48,0,0,1,.45-1.06,1.37,1.37,0,0,1,.22-.19l.26-.13A1,1,0,0,1,9,6.07a1.52,1.52,0,0,1,1.36.41,1.56,1.56,0,0,1,.44,1.06,1.5,1.5,0,0,1-.44,1.06A1.48,1.48,0,0,1,9.32,9Z"/><path class="cls-1" d="M20.12,7.54A1.5,1.5,0,0,1,21.62,6h0a1.5,1.5,0,0,1,1.5,1.5h0A1.5,1.5,0,0,1,21.62,9h0A1.5,1.5,0,0,1,20.12,7.54Z"/><path class="cls-1" d="M33.91,9a1.5,1.5,0,0,1-1.5-1.5,1.5,1.5,0,0,1,3,0A1.5,1.5,0,0,1,35,8.6,1.47,1.47,0,0,1,33.91,9Z"/><path class="cls-1" d="M82.38,88.72h0a1.5,1.5,0,0,1-1.45-1.55v-.45c0-.45,0-.88,0-1.32a56.56,56.56,0,0,0-56.5-56.5,1.5,1.5,0,0,1,0-3,59.57,59.57,0,0,1,59.5,59.5c0,.48,0,.95,0,1.42v.44A1.51,1.51,0,0,1,82.38,88.72Z"/><path class="cls-1" d="M71.27,88.75h0a1.51,1.51,0,0,1-1.45-1.56c0-.59,0-1.19,0-1.79a45.59,45.59,0,0,0-45.4-45.51,1.5,1.5,0,0,1,0-3h0A48.6,48.6,0,0,1,72.82,85.4c0,.64,0,1.27,0,1.91A1.5,1.5,0,0,1,71.27,88.75Z"/><path class="cls-1" d="M71.27,88.75h0a1.51,1.51,0,0,1-1.45-1.56c0-.59,0-1.19,0-1.79a45.59,45.59,0,0,0-45.4-45.51,1.5,1.5,0,0,1,0-3h0A48.6,48.6,0,0,1,72.82,85.4c0,.64,0,1.27,0,1.91A1.5,1.5,0,0,1,71.27,88.75Z"/><path class="cls-1" d="M60.39,88.79h-.08a1.5,1.5,0,0,1-1.42-1.57c0-.6,0-1.21,0-1.81A34.56,34.56,0,0,0,24.42,50.88a1.5,1.5,0,0,1,0-3A37.56,37.56,0,0,1,61.94,85.4c0,.66,0,1.31,0,2A1.51,1.51,0,0,1,60.39,88.79Z"/><path class="cls-1" d="M60.39,88.79h-.08a1.5,1.5,0,0,1-1.42-1.57c0-.6,0-1.21,0-1.81A34.56,34.56,0,0,0,24.42,50.88a1.5,1.5,0,0,1,0-3A37.56,37.56,0,0,1,61.94,85.4c0,.66,0,1.31,0,2A1.51,1.51,0,0,1,60.39,88.79Z"/><path class="cls-1" d="M49.37,88.86h-.12a1.5,1.5,0,0,1-1.38-1.61c.05-.67.08-1.27.08-1.85A23.56,23.56,0,0,0,24.42,61.87a1.5,1.5,0,1,1,0-3A26.56,26.56,0,0,1,51,85.4c0,.66,0,1.34-.09,2.08A1.49,1.49,0,0,1,49.37,88.86Z"/><path class="cls-1" d="M28.8,88.48a7.92,7.92,0,1,1,7.92-7.91A7.92,7.92,0,0,1,28.8,88.48Zm0-12.83a4.92,4.92,0,1,0,4.92,4.92A4.92,4.92,0,0,0,28.8,75.65Z"/></g></g></svg>