<svg xmlns="http://www.w3.org/2000/svg" viewBox="0 0 103.02 101.6"><defs><style>.cls-1{fill:#444;}.cls-2{fill:#474747;}</style></defs><title>Asset 2059</title><g id="Layer_2" data-name="Layer 2"><g id="Layer_1-2" data-name="Layer 1"><path class="cls-1" d="M98.39,83.43H4.63A4.64,4.64,0,0,1,0,78.8V4.63A4.64,4.64,0,0,1,4.63,0H98.39A4.63,4.63,0,0,1,103,4.63V78.8A4.63,4.63,0,0,1,98.39,83.43ZM4.63,3A1.63,1.63,0,0,0,3,4.63V78.8a1.63,1.63,0,0,0,1.63,1.63H98.39A1.63,1.63,0,0,0,100,78.8V4.63A1.63,1.63,0,0,0,98.39,3ZM95.26,77.17H7.76a1.51,1.51,0,0,1-1.5-1.5V7.76a1.51,1.51,0,0,1,1.5-1.5h87.5a1.5,1.5,0,0,1,1.5,1.5V75.67A1.5,1.5,0,0,1,95.26,77.17Zm-86-3h84.5V9.26H9.26Z"/><path class="cls-1" d="M72.36,101.6H29.05a1.5,1.5,0,0,1-1.5-1.5V94.18a1.5,1.5,0,0,1,1.5-1.5H72.36a1.5,1.5,0,0,1,1.5,1.5v5.92A1.5,1.5,0,0,1,72.36,101.6Zm-41.81-3H70.86V95.68H30.55Z"/><path class="cls-1" d="M66.25,95.68H35.9a1.5,1.5,0,0,1-1.36-2.13L40.22,81.3a1.49,1.49,0,0,1,1.36-.87h19a1.49,1.49,0,0,1,1.36.87l5.68,12.25a1.5,1.5,0,0,1-.1,1.44A1.49,1.49,0,0,1,66.25,95.68Zm-28-3H63.9l-4.29-9.25H42.54Z"/><path class="cls-2" d="M50.44,69.52C42.33,69.52,36,57.31,36,41.71s6.36-27.8,14.47-27.8a1.5,1.5,0,0,1,0,3C44.22,16.91,39,28.27,39,41.71s5.25,24.81,11.47,24.81a1.5,1.5,0,0,1,0,3Z"/><path class="cls-2" d="M50.7,69.52a1.5,1.5,0,0,1,0-3c6.22,0,11.48-11.36,11.48-24.81s-5.26-24.8-11.48-24.8a1.5,1.5,0,0,1,0-3c8.12,0,14.48,12.21,14.48,27.8S58.82,69.52,50.7,69.52Z"/><path class="cls-2" d="M50.7,69.52A1.5,1.5,0,0,1,49.2,68V15.41a1.5,1.5,0,1,1,3,0V68A1.5,1.5,0,0,1,50.7,69.52Z"/><path class="cls-2" d="M77,43.21H24.4a1.5,1.5,0,0,1,0-3H77a1.5,1.5,0,0,1,0,3Z"/><path class="cls-2" d="M50.7,69.52A27.81,27.81,0,0,1,22.9,41.71,27.81,27.81,0,1,1,78,46.79a27.32,27.32,0,0,1-2.7,7.81l0,.09A27.84,27.84,0,0,1,50.7,69.52Zm0-52.61A24.8,24.8,0,0,0,32.65,58.72a24.52,24.52,0,0,0,21.73,7.53A24.82,24.82,0,0,0,72.63,53.31a.33.33,0,0,1,.06-.1,24.81,24.81,0,0,0-22-36.3Z"/></g></g></svg>