<svg xmlns="http://www.w3.org/2000/svg" viewBox="0 0 54.68 45.91"><defs><style>.cls-1{fill:#414042;}</style></defs><title>Asset 8</title><g id="Layer_2" data-name="Layer 2"><g id="data_analytics_and_network_icons" data-name="data analytics and network icons"><path class="cls-1" d="M45.48,45.91H41.15V43.48a9.19,9.19,0,0,1-2.62-1.09L36.81,44.1l-3.06-3.05,1.71-1.71a9.06,9.06,0,0,1-1.08-2.63H32V32.37h2.43a9.06,9.06,0,0,1,1.08-2.63L33.75,28,36.81,25l1.72,1.71a9.19,9.19,0,0,1,2.62-1.09V23.17h4.33v2.42a9.25,9.25,0,0,1,2.63,1.09L49.82,25,52.89,28l-1.72,1.71a9.09,9.09,0,0,1,1.09,2.63h2.42v4.34H52.26a9.09,9.09,0,0,1-1.09,2.63l1.72,1.71L49.82,44.1l-1.71-1.71a9.25,9.25,0,0,1-2.63,1.09Zm2.44-11.37a4.6,4.6,0,1,0-4.6,4.6A4.61,4.61,0,0,0,47.92,34.54Z"/><path class="cls-1" d="M42.75,16.88A6.15,6.15,0,0,1,45.08,21a12.9,12.9,0,0,0-1.76-.11,13.69,13.69,0,0,0-13.09,9.66,49.25,49.25,0,0,1-7.68.59C10.1,31.11,0,26.7,0,21.26a5.94,5.94,0,0,1,2.35-4.38c3.69,3.24,11.34,5.48,20.2,5.48S39.05,20.12,42.75,16.88Z"/><path class="cls-1" d="M22.55,33.74a49.44,49.44,0,0,0,7.15-.5c0,.43-.07.86-.07,1.3a13.62,13.62,0,0,0,2,7.13,48,48,0,0,1-9.09.84C10.1,42.51,0,38.1,0,32.65a6,6,0,0,1,2.35-4.37C6,31.52,13.69,33.74,22.55,33.74Z"/><path class="cls-1" d="M22.55,0C35,0,45.1,4.41,45.1,9.85S35,19.71,22.55,19.71,0,15.29,0,9.85,10.1,0,22.55,0Zm0,.8C14.91.8,8.72,3.5,8.72,6.85s6.19,6,13.83,6,13.82-2.7,13.82-6S30.18.8,22.55.8Z"/></g></g></svg>