<svg xmlns="http://www.w3.org/2000/svg" viewBox="0 0 35.11 57.72"><defs><style>.cls-1{fill:#414042;}</style></defs><title>Asset 101</title><g id="Layer_2" data-name="Layer 2"><g id="data_analytics_and_network_icons" data-name="data analytics and network icons"><rect class="cls-1" x="26.11" y="23.95" width="4.37" height="20.02"/><rect class="cls-1" x="26.11" y="14.8" width="4.37" height="7.37"/><rect class="cls-1" x="21.49" y="46.53" width="1.37" height="1.37"/><rect class="cls-1" x="18.86" y="46.53" width="1.37" height="1.37"/><rect class="cls-1" x="16.07" y="46.53" width="1.37" height="1.37"/><rect class="cls-1" x="13.44" y="46.53" width="1.37" height="1.37"/><rect class="cls-1" x="4.64" y="14.8" width="19.77" height="29.17"/><rect class="cls-1" x="4.64" y="6.79" width="25.84" height="6.1"/><path class="cls-1" d="M17.56,56.32a2.1,2.1,0,1,0-2.1-2.1A2.09,2.09,0,0,0,17.56,56.32Zm14,1.4h-28A3.46,3.46,0,0,1,0,54.35v-51A3.46,3.46,0,0,1,3.55,0h28a3.46,3.46,0,0,1,3.54,3.37v51A3.46,3.46,0,0,1,31.57,57.72ZM33.3,3.84H1.82V49.7H33.3Z"/></g></g></svg>