<svg xmlns="http://www.w3.org/2000/svg" viewBox="0 0 33.35 54.82"><defs><style>.cls-1{fill:#414042;}</style></defs><title>Asset 65</title><g id="Layer_2" data-name="Layer 2"><g id="data_analytics_and_network_icons" data-name="data analytics and network icons"><path class="cls-1" d="M24.91,37.53H22.55V36.21a5.1,5.1,0,0,1-1.63-.67l-.93.93L18.32,34.8l.93-.93a5.1,5.1,0,0,1-.67-1.63H17.26V29.88h1.32a5.2,5.2,0,0,1,.67-1.63l-.93-.93L20,25.65l.93.93a5.1,5.1,0,0,1,1.63-.67V24.6h2.36v1.31a5.29,5.29,0,0,1,1.63.67l.93-.93,1.67,1.67-.93.93a5.2,5.2,0,0,1,.67,1.63H30.2v2.36H28.88a5.1,5.1,0,0,1-.67,1.63l.93.93-1.67,1.67-.93-.93a5.29,5.29,0,0,1-1.63.67Zm-1.18-3.82a2.65,2.65,0,1,0-2.65-2.65A2.65,2.65,0,0,0,23.73,33.71Z"/><path class="cls-1" d="M19.16,18.77a2.65,2.65,0,1,0-2.65,2.65A2.65,2.65,0,0,0,19.16,18.77Zm-7.8-1.18A5,5,0,0,1,12,16L11.1,15l1.67-1.67.94.93a5.14,5.14,0,0,1,1.62-.67V12.3H17.7v1.32a5.14,5.14,0,0,1,1.62.67l.93-.93L21.92,15,21,16a5.46,5.46,0,0,1,.68,1.63H23V20H21.67A5.46,5.46,0,0,1,21,21.58l.93.93-1.67,1.67-.93-.93a5.14,5.14,0,0,1-1.62.67v1.32H15.33V23.92a5.14,5.14,0,0,1-1.62-.67l-.94.93L11.1,22.51l.94-.93A5,5,0,0,1,11.36,20H10.05V17.59Z"/><path class="cls-1" d="M12.26,31.06a2.64,2.64,0,1,0-2.64,2.65A2.64,2.64,0,0,0,12.26,31.06Zm.17-4.48.93-.93L15,27.32l-.93.93a5.2,5.2,0,0,1,.67,1.63h1.32v2.36H14.77a5.1,5.1,0,0,1-.67,1.63l.93.93-1.67,1.67-.93-.93a5.29,5.29,0,0,1-1.63.67v1.32H8.44V36.21a5.1,5.1,0,0,1-1.63-.67l-.93.93L4.21,34.8l.93-.93a5.1,5.1,0,0,1-.67-1.63H3.15V29.88H4.47a5.2,5.2,0,0,1,.67-1.63l-.93-.93,1.67-1.67.93.93a5.1,5.1,0,0,1,1.63-.67V24.6H10.8v1.31A5.29,5.29,0,0,1,12.43,26.58Z"/><path class="cls-1" d="M31.62,47.19V3.65H1.73V47.19ZM30,54.82H3.37A3.29,3.29,0,0,1,0,51.62V3.2A3.29,3.29,0,0,1,3.37,0H30a3.29,3.29,0,0,1,3.37,3.2V51.62A3.29,3.29,0,0,1,30,54.82ZM18.66,51.49a2,2,0,1,0-2,2A2,2,0,0,0,18.66,51.49Z"/></g></g></svg>