<svg xmlns="http://www.w3.org/2000/svg" viewBox="0 0 51.38 53.1"><defs><style>.cls-1{fill:#414042;}</style></defs><title>Asset 95</title><g id="Layer_2" data-name="Layer 2"><g id="data_analytics_and_network_icons" data-name="data analytics and network icons"><path class="cls-1" d="M30.68,47.78V43.3H27.6v4.48Zm1.08-22.94h11.7a7.91,7.91,0,0,1,7.92,7.91v11.7a7.91,7.91,0,0,1-7.92,7.92H31.76a7.91,7.91,0,0,1-7.91-7.92V32.75A7.91,7.91,0,0,1,31.76,24.84ZM34.9,47.78V36.47H31.82V47.78Zm4.13,0v-9H36v9Zm4.22,0V36.47H40.17V47.78Zm4.24,0v-18H44.41v18Z"/><path class="cls-1" d="M22.05,16.66c8.6,0,15.56-3.07,15.56-6.85S30.65,3,22.05,3,6.49,6,6.49,9.81,13.46,16.66,22.05,16.66ZM44.1,23.13H31a8.9,8.9,0,0,0-8.9,8.9V45.19a8.88,8.88,0,0,0,4.46,7.71c-1.45.13-2.94.2-4.48.2-12.18,0-22-4.35-22-9.71V9.71C0,4.35,9.87,0,22.05,0S44.1,4.35,44.1,9.71Z"/></g></g></svg>