<svg xmlns="http://www.w3.org/2000/svg" viewBox="0 0 40.29 63.96"><defs><style>.cls-1{fill:#414042;}</style></defs><title>Asset 10</title><g id="Layer_2" data-name="Layer 2"><g id="data_analytics_and_network_icons" data-name="data analytics and network icons"><rect class="cls-1" x="29.41" y="9.07" width="2.79" height="2.79"/><rect class="cls-1" x="29.35" y="13.54" width="2.79" height="2.8"/><rect class="cls-1" x="25.7" y="5.87" width="2.79" height="2.8"/><rect class="cls-1" x="24.39" y="17.99" width="2.8" height="2.79"/><rect class="cls-1" x="24.38" y="13.54" width="2.8" height="2.8"/><rect class="cls-1" x="24.3" y="27.06" width="2.8" height="2.79"/><rect class="cls-1" x="19.44" y="17.99" width="2.8" height="2.79"/><rect class="cls-1" x="19.42" width="2.8" height="2.8"/><rect class="cls-1" x="19.42" y="13.54" width="2.8" height="2.8"/><rect class="cls-1" x="19.36" y="4.47" width="2.8" height="2.8"/><rect class="cls-1" x="19.34" y="27.06" width="2.79" height="2.79"/><path class="cls-1" d="M12.07,59.64V52.5S.55,34.19.61,34.06A3.66,3.66,0,0,1,0,32.12c0-4.4,9-8,20.15-8s20.14,3.57,20.14,8a3.63,3.63,0,0,1-.65,2c0,.11-11.48,18.38-11.48,18.38v7.14h0a2.7,2.7,0,0,1-.06.66,3.07,3.07,0,0,1-.22.6,3.51,3.51,0,0,1-.74,1A6,6,0,0,1,25,63.2a15.75,15.75,0,0,1-4.82.76h0a15.8,15.8,0,0,1-4.82-.76,6,6,0,0,1-2.19-1.28,3.7,3.7,0,0,1-.74-1,2.51,2.51,0,0,1-.21-.6,2.27,2.27,0,0,1-.07-.66Zm8.12-34.92c-8.57,0-15.52,2.75-15.52,6.14S11.62,37,20.19,37s15.52-2.74,15.52-6.13S28.76,24.72,20.19,24.72Zm16.25,12.1c-3.67,2-9.58,3.26-16.25,3.26S7.51,38.77,3.85,36.77l9.77,15.41v7.54a1.43,1.43,0,0,0,0,.33,1.74,1.74,0,0,0,.13.36,2.32,2.32,0,0,0,.48.66,4.54,4.54,0,0,0,1.64,1,14.28,14.28,0,0,0,8.52,0,4.54,4.54,0,0,0,1.64-1,2.32,2.32,0,0,0,.48-.66,1.74,1.74,0,0,0,.13-.36,1.53,1.53,0,0,0,0-.33V52.18Z"/><rect class="cls-1" x="14.65" y="9.07" width="2.8" height="2.79"/><rect class="cls-1" x="14.6" y="17.99" width="2.8" height="2.79"/><rect class="cls-1" x="14.59" y="13.54" width="2.8" height="2.8"/><rect class="cls-1" x="14.53" y="4.47" width="2.8" height="2.8"/><rect class="cls-1" x="14.51" y="27.06" width="2.79" height="2.79"/><rect class="cls-1" x="11.08" y="30.86" width="2.79" height="2.8"/><rect class="cls-1" x="9.68" y="9.07" width="2.8" height="2.79"/><rect class="cls-1" x="9.63" y="17.99" width="2.79" height="2.79"/><rect class="cls-1" x="9.62" y="13.54" width="2.79" height="2.8"/><rect class="cls-1" x="4.85" y="9.07" width="2.8" height="2.79"/><rect class="cls-1" x="4.74" y="22.46" width="2.79" height="2.8"/></g></g></svg>