<svg xmlns="http://www.w3.org/2000/svg" viewBox="0 0 64.07 44.76"><defs><style>.cls-1{fill:#414042;}</style></defs><title>Asset 104</title><g id="Layer_2" data-name="Layer 2"><g id="data_analytics_and_network_icons" data-name="data analytics and network icons"><path class="cls-1" d="M64.07,23.77a14.58,14.58,0,0,1-5.73,11.62C57,23.78,45.71,14.72,32,14.72c-11.29,0-20.92,6.16-24.73,14.82A13.45,13.45,0,0,1,18.42,11.81,13.32,13.32,0,0,1,44.55,10a14.4,14.4,0,0,1,4.89-.85A14.64,14.64,0,0,1,64.07,23.77Z"/><path class="cls-1" d="M23.74,32.27a4.43,4.43,0,1,0-4.44-4.43A4.44,4.44,0,0,0,23.74,32.27Zm22.62,8.52a5.25,5.25,0,1,0-5.24-5.25A5.25,5.25,0,0,0,46.36,40.79ZM9.49,38.73A3.47,3.47,0,1,0,6,42.2,3.46,3.46,0,0,0,9.49,38.73ZM6,32.71a6,6,0,0,1,4.29,1.8l6.25-3.85A7.81,7.81,0,0,1,16,27.84a7.71,7.71,0,1,1,15.41,0,7.36,7.36,0,0,1-.1,1.16l6.92,2.36a9.11,9.11,0,1,1-1,4.18,8.75,8.75,0,0,1,.16-1.63l-6.92-2.36A7.69,7.69,0,0,1,18,33l-6.26,3.85a5.77,5.77,0,0,1,.32,1.92,6,6,0,1,1-6-6Z"/></g></g></svg>