<svg xmlns="http://www.w3.org/2000/svg" viewBox="0 0 63.67 57.12"><defs><style>.cls-1{fill:#414042;}</style></defs><title>Asset 49</title><g id="Layer_2" data-name="Layer 2"><g id="data_analytics_and_network_icons" data-name="data analytics and network icons"><path class="cls-1" d="M44.21,38.81l4.51-22.16,1.2-5.91.6-3,.31-1.47L51,5.56a6.82,6.82,0,0,1,.3-1,7,7,0,0,1,2.49-3.17A7.83,7.83,0,0,1,57.45.05c.31,0,.61,0,.91,0h5.31V3.68H58.42a5.68,5.68,0,0,0-.59,0,3.47,3.47,0,0,0-3.12,2.18,2.43,2.43,0,0,0-.13.42L54.43,7l-.3,1.48-.6,3-1.2,5.91L47.21,42.49H7.75L0,14.43H45.71v3.68H4.83l5.72,20.7Z"/><path class="cls-1" d="M41.5,54.38a4.08,4.08,0,1,0-4.08-4.08A4.08,4.08,0,0,0,41.5,54.38Zm0-10.9a6.82,6.82,0,1,1-6.82,6.82A6.82,6.82,0,0,1,41.5,43.48Z"/><path class="cls-1" d="M27.38,20a8.16,8.16,0,1,1-8.15,8.15h8.15Z"/><path class="cls-1" d="M25.61,26.33H19.69a5.92,5.92,0,0,1,5.92-5.93Z"/><path class="cls-1" d="M14.42,54.38a4.08,4.08,0,1,0-4.08-4.08A4.08,4.08,0,0,0,14.42,54.38Zm0-10.9A6.82,6.82,0,1,1,7.6,50.3,6.82,6.82,0,0,1,14.42,43.48Z"/></g></g></svg>