<svg xmlns="http://www.w3.org/2000/svg" viewBox="0 0 54.21 50.24"><defs><style>.cls-1{fill:#414042;}</style></defs><title>Asset 72</title><g id="Layer_2" data-name="Layer 2"><g id="data_analytics_and_network_icons" data-name="data analytics and network icons"><polygon class="cls-1" points="51.18 6.08 43.57 12.05 35.95 6.08 51.18 6.08"/><path class="cls-1" d="M53,6.25a2.06,2.06,0,0,1,1.25,1.89V20a2.06,2.06,0,0,1-2.06,2.06H35a2,2,0,0,1-2-2.06V8.14a2,2,0,0,1,1.25-1.89l9.39,7.35Z"/><path class="cls-1" d="M19.21,49.2a1.56,1.56,0,1,0-1.55-1.56A1.56,1.56,0,0,0,19.21,49.2ZM30.86,22H32.2V47.74a2.56,2.56,0,0,1-2.62,2.5H8.84a2.56,2.56,0,0,1-2.62-2.5V22H7.56V44.3h23.3Z"/><path class="cls-1" d="M26.15,10.29l5.82,5-5.82,5V17.62c-8.09,1.26-12.86,8.31-12.86,8.31s1.6-11.06,12.86-12.49Z"/><rect class="cls-1" x="22.12" y="41.95" width="1.01" height="1.02"/><rect class="cls-1" x="20.17" y="41.95" width="1.01" height="1.02"/><path class="cls-1" d="M25.81,6.79l-1.12.76L21,2.11,1.72,15.17l3.69,5.44-1.12.75L.41,15.63a2.57,2.57,0,0,1,.78-3.54L18.35.47a2.57,2.57,0,0,1,3.58.59Z"/><rect class="cls-1" x="18.11" y="41.95" width="1.02" height="1.02"/><rect class="cls-1" x="16.16" y="41.95" width="1.02" height="1.02"/></g></g></svg>