<svg xmlns="http://www.w3.org/2000/svg" viewBox="0 0 52.26 49.07"><defs><style>.cls-1{fill:#414042;}</style></defs><title>Asset 18</title><g id="Layer_2" data-name="Layer 2"><g id="data_analytics_and_network_icons" data-name="data analytics and network icons"><path class="cls-1" d="M35.44,23.86l-1.66-2.62-1.67,2.62h1v2.48h1.42V23.86Zm-10,2.61-3.25-5.1-3.24,5.1h1.86V31.3h2.77V26.47Zm6.71-12.64L27.13,6l-5,7.82H25v7.41h4.24V13.83Zm9.35,4.46-3-4.68-3,4.68h1.72v4.43h2.54V18.29Zm2.11,5.59h1.28l-2.23-3.51-2.25,3.51h1.29v3.34h1.91Zm-4.23,10c-6.4,0-19.85.15-26,.15A11.86,11.86,0,0,1,12,10.42,11.76,11.76,0,0,1,35,8.8a12.92,12.92,0,1,1,4.31,25.1Zm-24.23-10-2.24-3.51-2.24,3.51h1.28v3.34h1.91V23.88Zm7-7.89-3-4.69-3,4.69h1.71v4.45h2.55V16Z"/><path class="cls-1" d="M48.35,48.65H34a2.39,2.39,0,0,0,.2-1V42.85a2.31,2.31,0,0,0-.2-1H48.35a3.38,3.38,0,0,1,0,6.75Z"/><rect class="cls-1" x="23.98" y="34.85" width="3.76" height="5.75"/><rect class="cls-1" x="18.45" y="41.47" width="14.82" height="7.61" rx="1.82"/><path class="cls-1" d="M3.37,41.9H17.68a2.31,2.31,0,0,0-.2,1v4.84a2.39,2.39,0,0,0,.2,1H3.37a3.38,3.38,0,0,1,0-6.75Z"/></g></g></svg>