<svg xmlns="http://www.w3.org/2000/svg" viewBox="0 0 50.4 56.55"><defs><style>.cls-1{fill:#414042;}</style></defs><title>Asset 89</title><g id="Layer_2" data-name="Layer 2"><g id="data_analytics_and_network_icons" data-name="data analytics and network icons"><path class="cls-1" d="M29.85,35.54A15.13,15.13,0,1,0,14.72,20.41,15.12,15.12,0,0,0,29.85,35.54Zm16-2a20.6,20.6,0,0,1-26.45,4.81,3.79,3.79,0,0,1-.84,2.21L6.76,55.13A3.8,3.8,0,1,1,.85,50.35L12.61,35.81a3.76,3.76,0,0,1,2-1.28,20.61,20.61,0,1,1,31.22-1Z"/><path class="cls-1" d="M32.27,30.45H21.35V26.5a2,2,0,0,1,.7-1.44l4.79-1.26,1-2.69c-1-.39-1.34-2.12-1.34-2.12a40.76,40.76,0,0,1-.68-6.26c0-2.69,4-2.89,4-2.89h0s4,.2,4,2.89A40.76,40.76,0,0,1,33.23,19s-.38,1.73-1.34,2.12l1,2.69,4.79,1.26a2,2,0,0,1,.7,1.44v3.95Z"/></g></g></svg>