<svg xmlns="http://www.w3.org/2000/svg" viewBox="0 0 53.9 51.69"><defs><style>.cls-1{fill:#414042;}</style></defs><title>Asset 68</title><g id="Layer_2" data-name="Layer 2"><g id="data_analytics_and_network_icons" data-name="data analytics and network icons"><path class="cls-1" d="M43.54,42c.25-.24.93.05,1.54.65s.87,1.31.58,1.58a27.15,27.15,0,0,1-37.43,0c-.28-.27,0-1,.58-1.58s1.3-.89,1.55-.65a24.1,24.1,0,0,0,33.18,0Z"/><path class="cls-1" d="M40.18,8.55a13.72,13.72,0,0,1,3.58,27C42,29.43,35.12,24.91,27,24.91c-8.34,0-15.31,4.71-16.93,11a12.59,12.59,0,0,1,1.1-24.83A12.48,12.48,0,0,1,35.6,9.34,13.64,13.64,0,0,1,40.18,8.55Z"/><path class="cls-1" d="M39.12,36.2c.18-.18.81.17,1.42.77s.92,1.26.7,1.47a20.78,20.78,0,0,1-28.59,0c-.21-.22.1-.87.71-1.47s1.24-.95,1.42-.77a17.69,17.69,0,0,0,24.34,0Z"/><path class="cls-1" d="M34.91,31.45c.12-.12.7.28,1.31.88s1,1.21.81,1.36a14.62,14.62,0,0,1-20.17,0c-.15-.14.22-.75.82-1.35s1.19-1,1.31-.88a11.55,11.55,0,0,0,15.92,0Z"/></g></g></svg>