<svg xmlns="http://www.w3.org/2000/svg" viewBox="0 0 53.05 50.48"><defs><style>.cls-1{fill:#414042;}</style></defs><title>Asset 82</title><g id="Layer_2" data-name="Layer 2"><g id="data_analytics_and_network_icons" data-name="data analytics and network icons"><path class="cls-1" d="M31.58,38.75c-1.71-5.5,1.72-11.45,7.64-13.28s12.13,1.12,13.83,6.62Z"/><path class="cls-1" d="M22.66,37.89a3,3,0,1,0-3-3A3,3,0,0,0,22.66,37.89Zm3.63,12.59A12.48,12.48,0,0,1,14.87,43L6.59,36.15,14.87,33A12.44,12.44,0,0,1,32.6,27.25a15.46,15.46,0,0,0-2.79,14.06l8.94-2.79A12.47,12.47,0,0,1,26.29,50.48Z"/><path class="cls-1" d="M23.62,13.85H14.16V11.23h9.46Zm0-5.65H6V5.57h17.6ZM4.76,20.26V31.63l6.61-11.37H28.78V0H0V20.26Z"/></g></g></svg>