<svg xmlns="http://www.w3.org/2000/svg" viewBox="0 0 49.43 54.36"><defs><style>.cls-1{fill:#414042;}</style></defs><title>Asset 97</title><g id="Layer_2" data-name="Layer 2"><g id="data_analytics_and_network_icons" data-name="data analytics and network icons"><path class="cls-1" d="M33.21,32.7a6.64,6.64,0,1,0-6.63-6.63A6.63,6.63,0,0,0,33.21,32.7ZM49.43,29h-3.3a13,13,0,0,1-1.69,4.08l2.34,2.33-4.19,4.19L40.25,37.3A12.9,12.9,0,0,1,36.17,39v3.3H30.25V39a12.9,12.9,0,0,1-4.08-1.69l-2.34,2.33-4.19-4.19L22,33.11A13.36,13.36,0,0,1,20.28,29H17V23.1h3.29A13.36,13.36,0,0,1,22,19l-2.34-2.33,4.19-4.19,2.34,2.33a13.38,13.38,0,0,1,4.08-1.69V9.85h5.92v3.29a13.38,13.38,0,0,1,4.08,1.69l2.34-2.33,4.19,4.19L44.44,19a13.1,13.1,0,0,1,1.69,4.08h3.3Z"/><path class="cls-1" d="M16.53,53a2,2,0,1,0-2-2A2,2,0,0,0,16.53,53Zm13.2,1.32H3.34A3.26,3.26,0,0,1,0,51.19v-48A3.26,3.26,0,0,1,3.34,0H29.73a3.26,3.26,0,0,1,3.34,3.18V7.94A16.37,16.37,0,0,0,31.35,8V3.63H1.71V46.8H31.35V44.11c.57,0,1.14.08,1.72.08v7A3.26,3.26,0,0,1,29.73,54.36Z"/><path class="cls-1" d="M9.21,30.52A2.25,2.25,0,1,1,7,32.76,2.24,2.24,0,0,1,9.21,30.52Z"/><rect class="cls-1" x="6.96" y="17.13" width="4.49" height="11.96"/></g></g></svg>