<svg xmlns="http://www.w3.org/2000/svg" viewBox="0 0 53.8 57.42"><defs><style>.cls-1{fill:#414042;}</style></defs><title>Asset 11</title><g id="Layer_2" data-name="Layer 2"><g id="data_analytics_and_network_icons" data-name="data analytics and network icons"><path class="cls-1" d="M38.38,35.79v-3.2a2.71,2.71,0,0,0-.92-1.89l-4-1,2.78-.72,1-2.79c-1-.39-1.39-2.18-1.39-2.18a42.28,42.28,0,0,1-.7-6.46c0-2.78,4.18-3,4.18-3h0s4.18.2,4.18,3a42.28,42.28,0,0,1-.7,6.46s-.39,1.79-1.39,2.18l1,2.79,4.94,1.28a2.14,2.14,0,0,1,.72,1.49v4.08H38.38Z"/><path class="cls-1" d="M53.8,26.9a26.91,26.91,0,0,1-17,25A11.39,11.39,0,0,0,37,50.27a25.46,25.46,0,1,0-20.21,0,10.2,10.2,0,0,0,.26,1.67,26.9,26.9,0,1,1,36.75-25Z"/><path class="cls-1" d="M26.9,41.68A7.87,7.87,0,1,1,19,49.55,7.87,7.87,0,0,1,26.9,41.68Zm1.39,12.18V50.94h2.92V48.16H28.29V45.24H25.5v2.92H22.59v2.78H25.5v2.92Z"/><path class="cls-1" d="M37.47,38.23H16.33V33.31a2.54,2.54,0,0,1,.87-1.79l6-1.57,1.2-3.35c-1.2-.48-1.68-2.63-1.68-2.63a51.27,51.27,0,0,1-.84-7.79c0-3.36,5-3.6,5-3.6h.05s5,.24,5,3.6A51.86,51.86,0,0,1,31.12,24s-.49,2.15-1.68,2.63L30.63,30l6,1.57a2.54,2.54,0,0,1,.87,1.79Z"/><path class="cls-1" d="M12,35.79H5.71V31.71a2.14,2.14,0,0,1,.72-1.49l4.94-1.28,1-2.79C11.37,25.76,11,24,11,24a42.87,42.87,0,0,1-.69-6.46c0-2.78,4.17-3,4.17-3h0s4.17.2,4.17,3A42.87,42.87,0,0,1,18,24s-.4,1.79-1.39,2.18l1,2.79,2.78.72-4,1a2.71,2.71,0,0,0-.92,1.89v3.2Z"/></g></g></svg>