<svg xmlns="http://www.w3.org/2000/svg" viewBox="0 0 51.25 51.26"><defs><style>.cls-1{fill:#414042;}</style></defs><title>Asset 9</title><g id="Layer_2" data-name="Layer 2"><g id="data_analytics_and_network_icons" data-name="data analytics and network icons"><rect class="cls-1" x="26.44" y="26.84" width="9.5" height="2.4"/><rect class="cls-1" x="26.44" y="22.6" width="9.5" height="2.4"/><rect class="cls-1" x="26.44" y="18.43" width="9.5" height="2.4"/><rect class="cls-1" x="26.44" y="14.18" width="9.5" height="2.4"/><rect class="cls-1" x="26.44" y="9.84" width="9.5" height="2.4"/><rect class="cls-1" x="26.44" y="5.59" width="9.5" height="2.4"/><path class="cls-1" d="M45.87,45.91H20V32.19H45.87ZM39.35,44.1H26.74V45H39.35Zm-9.67-2.72h1.18l-2.05-2.77-2.07,2.77h1.19v1.45h1.75ZM34,42.83v-4h1.19l-2.07-2.77-2,2.77h1.18v4Zm4.13,0v-7h1.18l-2.06-2.77-2.06,2.77h1.18v7Z"/><rect class="cls-1" x="5.38" y="36.69" width="4.3" height="1.76"/><rect class="cls-1" x="5.38" y="33.98" width="10.83" height="1.76"/><rect class="cls-1" x="5.38" y="31.33" width="8.6" height="1.76"/><rect class="cls-1" x="5.38" y="28.63" width="10.83" height="1.76"/><rect class="cls-1" x="5.38" y="25.92" width="17.19" height="1.76"/><path class="cls-1" d="M22.39,22.85h-17v-17h17Zm-5.59-14c0-1.93-2.9-2.07-2.9-2.07h0S11,6.93,11,8.86a29,29,0,0,0,.49,4.49s.27,1.25,1,1.52l-.69,1.93-3.43.9a1.5,1.5,0,0,0-.5,1v2.83H20V18.74a1.5,1.5,0,0,0-.5-1L16,16.8l-.69-1.93c.69-.27,1-1.52,1-1.52A29.62,29.62,0,0,0,16.8,8.86Z"/><path class="cls-1" d="M0,0H51.25V51.26H0ZM44.78,3H43L44.9,5.61l-2,2.63h1.75l.56-.94a9.56,9.56,0,0,0,.53-.93h0c.2.3.36.57.61.93l.61.94h1.77l-2-2.66L48.69,3H46.94l-.57,1c-.17.3-.31.53-.47.86h0c-.15-.29-.31-.54-.51-.86Zm3.63,7H41.22V2.85H2.84V48.41H48.41Z"/></g></g></svg>