<svg xmlns="http://www.w3.org/2000/svg" viewBox="0 0 65.9 43.35"><defs><style>.cls-1{fill:#414042;}</style></defs><title>Asset 83</title><g id="Layer_2" data-name="Layer 2"><g id="data_analytics_and_network_icons" data-name="data analytics and network icons"><path class="cls-1" d="M37.79,41.56h2.29V29.89H25.82V41.56h2.47v-2.9h-.75V36.23H30v2.43h-.75v2.9h3.28v-2.9h-.75V36.23h2.42v2.43h-.75v2.9h3.46v-2.9h-.75V36.23h2.42v2.43h-.75ZM52.1,15.75a13.8,13.8,0,1,1,0,27.6H13.8a13.8,13.8,0,1,1,0-27.6,14.43,14.43,0,0,1,2.88.3A16.65,16.65,0,0,1,50,15.92,13.86,13.86,0,0,1,52.1,15.75Z"/></g></g></svg>