<svg xmlns="http://www.w3.org/2000/svg" viewBox="0 0 46.45 60.68"><defs><style>.cls-1{fill:#414042;}</style></defs><title>Asset 79</title><g id="Layer_2" data-name="Layer 2"><g id="data_analytics_and_network_icons" data-name="data analytics and network icons"><rect class="cls-1" x="34.71" y="9.88" width="3.82" height="3.82"/><polygon class="cls-1" points="37.3 23.34 39.52 23.34 39.52 18.52 34.72 18.52 34.71 18.52 34.71 23.34 37.3 23.34"/><path class="cls-1" d="M29.9,37.78H25.08V33H15.45V28.15h4.82V18.52H15.45V15.81c-4.2,1.16-7.85,2.7-9.74,3.26-5.41,1.6-2.3,5.35-2.3,5.35S2,32.2,3.35,35.54L3.76,37,.06,42.93a1.48,1.48,0,0,0,1.51,2l2,.07s-.52,3.23-.13,3.65.45,1.07.65,2.21.79.84.8,2.7.72,5.14,5,2.94,5.44-2.41,5.44-2.41.57,0,2.45,2,4.06,4.68,4.06,4.68l11.66-9.86S30.07,45.43,31.21,43c.47-1,2.32-2.7,4-5.17A17.77,17.77,0,0,0,37.59,33H34.71v4.82Z"/><polygon class="cls-1" points="29.9 28.15 25.08 28.15 25.08 32.96 29.9 32.96 34.71 32.96 34.71 28.15 34.71 23.34 29.9 23.34 29.9 28.15"/><polygon class="cls-1" points="34.71 13.71 29.9 13.71 29.9 15.23 29.9 18.52 34.71 18.52 34.71 18.51 34.71 13.71"/><rect class="cls-1" x="25.08" y="18.52" width="4.82" height="4.82"/><rect class="cls-1" x="25.08" y="8.89" width="4.82" height="4.82"/><polygon class="cls-1" points="25.08 14.4 25.08 13.71 20.27 13.71 20.27 14.75 20.27 18.52 25.08 18.52 25.08 14.4"/><rect class="cls-1" x="39.33" y="6.17" width="3.08" height="3.09"/><rect class="cls-1" x="36.19" y="3.08" width="3.08" height="3.08"/><rect class="cls-1" x="20.27" y="4.07" width="4.82" height="4.82"/><rect class="cls-1" x="43.49" y="9.25" width="2.95" height="2.95"/><rect class="cls-1" x="42.42" y="3.08" width="3.08" height="3.08"/><rect class="cls-1" x="33.17" width="3.08" height="3.08"/></g></g></svg>