<svg xmlns="http://www.w3.org/2000/svg" viewBox="0 0 51.38 53.1"><defs><style>.cls-1{fill:#414042;}</style></defs><title>Asset 94</title><g id="Layer_2" data-name="Layer 2"><g id="data_analytics_and_network_icons" data-name="data analytics and network icons"><path class="cls-1" d="M31.76,24.84h11.7a7.92,7.92,0,0,1,7.92,7.91v11.7a7.92,7.92,0,0,1-7.92,7.92H31.76a7.92,7.92,0,0,1-7.92-7.92V32.75A7.92,7.92,0,0,1,31.76,24.84ZM43.94,49.12a3,3,0,0,0,3-3V36.58H42.52V35.3h2V31.08a3,3,0,0,0-3-3H33.66a3,3,0,0,0-3,3v5.5H28.29v9.55a3,3,0,0,0,3,3Z"/><path class="cls-1" d="M40.09,42.85a2.49,2.49,0,1,1-.73-1.75A2.48,2.48,0,0,1,40.09,42.85Z"/><path class="cls-1" d="M34.81,30.13H40.4a2.11,2.11,0,0,1,2.12,2.11v4.34H30.67V35.3h2V32.24A2.11,2.11,0,0,1,34.81,30.13Z"/><path class="cls-1" d="M22.05,16.66c8.59,0,15.56-3.07,15.56-6.85S30.64,3,22.05,3,6.49,6,6.49,9.81,13.46,16.66,22.05,16.66ZM44.1,23.13H31A8.91,8.91,0,0,0,22.06,32V45.19a8.9,8.9,0,0,0,4.46,7.71c-1.44.13-2.94.2-4.47.2-12.18,0-22-4.35-22-9.71V9.71C0,4.35,9.87,0,22.05,0S44.1,4.35,44.1,9.71Z"/></g></g></svg>