<svg xmlns="http://www.w3.org/2000/svg" viewBox="0 0 52.07 51.37"><defs><style>.cls-1{fill:#414042;}</style></defs><title>Asset 99</title><g id="Layer_2" data-name="Layer 2"><g id="data_analytics_and_network_icons" data-name="data analytics and network icons"><path class="cls-1" d="M37.78,0H52.07V51.37H37.78V28.61a15.44,15.44,0,0,0,0-19.38Z"/><path class="cls-1" d="M25.75,34.38a15.4,15.4,0,0,0,7-1.7V51.37H18.51V32.57A15.32,15.32,0,0,0,25.75,34.38Z"/><polygon class="cls-1" points="31.44 20.62 29.1 24.3 26.76 20.62 28.1 20.62 28.1 17.14 30.1 17.14 30.1 20.62 31.44 20.62"/><path class="cls-1" d="M16.44,9.34a13.36,13.36,0,1,1,1.22,20.21,2.52,2.52,0,0,1-.72,1.36L8.25,39.36a2.46,2.46,0,1,1-3.43-3.54l8.69-8.45a2.43,2.43,0,0,1,1.38-.67A13.35,13.35,0,0,1,16.44,9.34Zm2.37,16.32A9.67,9.67,0,1,0,19,12,9.67,9.67,0,0,0,18.81,25.66Z"/><polygon class="cls-1" points="24.9 17.23 23.56 17.23 23.56 20.71 21.57 20.71 21.57 17.23 20.23 17.23 22.57 13.55 24.9 17.23"/><path class="cls-1" d="M14.29,35.28V51.37H0V24.81H11.46a16.51,16.51,0,0,0,1,1.93L3.91,35a3.71,3.71,0,1,0,5.17,5.32Z"/></g></g></svg>