<svg xmlns="http://www.w3.org/2000/svg" viewBox="0 0 59.37 59.41"><defs><style>.cls-1{fill:#414042;}</style></defs><title>Asset 91</title><g id="Layer_2" data-name="Layer 2"><g id="data_analytics_and_network_icons" data-name="data analytics and network icons"><path class="cls-1" d="M47.21,24.32h5.57a21.64,21.64,0,0,1-32.44,16,4,4,0,0,1-.88,2.33L7.1,57.92a4,4,0,1,1-6.21-5L13.24,37.62a4,4,0,0,1,2.09-1.35A21.65,21.65,0,1,1,52.7,18.39H47.1a16.13,16.13,0,1,0,.11,5.93Z"/><path class="cls-1" d="M58,22H41.74l-3.27,7.5-7-13.85-3.52,9.57H23.2c-.76,0-1.38-.41-1.38-.91s.62-.92,1.38-.92h3.45l4.51-12.29,7.18,14.13,2.2-5.05H58c.77,0,1.39.41,1.39.91S58.75,22,58,22Z"/></g></g></svg>