<svg xmlns="http://www.w3.org/2000/svg" viewBox="0 0 63.2 49.19"><defs><style>.cls-1{fill:#414042;}</style></defs><title>Asset 29</title><g id="Layer_2" data-name="Layer 2"><g id="data_analytics_and_network_icons" data-name="data analytics and network icons"><path class="cls-1" d="M53.84,42.14H37V36.05a3.19,3.19,0,0,1,1.07-2.23l7.39-1.93L47,27.74c-1.48-.6-2.07-3.27-2.07-3.27a63.54,63.54,0,0,1-1-9.65c0-4.16,6.23-4.46,6.23-4.46h.06s6.24.3,6.24,4.46a63.54,63.54,0,0,1-1,9.65s-.59,2.67-2.08,3.27l1.49,4.15,7.38,1.93a3.18,3.18,0,0,1,1.08,2.23v6.09Z"/><path class="cls-1" d="M31.79,17.47H26.65V14.12a1.75,1.75,0,0,1,.59-1.22l4.06-1.07.82-2.28C31.3,9.22,31,7.75,31,7.75a35,35,0,0,1-.57-5.3C30.4.16,33.83,0,33.83,0h0s3.43.16,3.43,2.45a35,35,0,0,1-.57,5.3s-.33,1.47-1.14,1.8l.81,2.28,4.07,1.07a1.75,1.75,0,0,1,.59,1.22v3.35H31.79Z"/><path class="cls-1" d="M41.5,46.23c0-.79-2-1.42-4.49-1.42s-4.49.63-4.49,1.42,2,1.41,4.49,1.41S41.5,47,41.5,46.23ZM21.64,32c1.61,0,2.93-.41,2.93-.92s-1.32-.93-2.93-.93-2.92.42-2.92.93S20,32,21.64,32ZM35.87,20c0-.35-.91-.64-2-.64s-2,.29-2,.64.91.64,2,.64S35.87,20.32,35.87,20Zm-2,1.24a.44.44,0,0,1-.08.11l-9,8.13c1.17.37,1.93.94,1.93,1.59S26,32.31,24.7,32.68L35.47,43.33c.5,0,1-.06,1.54-.06,4.11,0,7.45,1.32,7.45,3s-3.34,3-7.45,3-7.45-1.33-7.45-3c0-1.06,1.4-2,3.51-2.52L22.3,33.07h-.66c-2.84,0-5.14-.91-5.14-2S18.8,29,21.64,29c.26,0,.52,0,.77,0l9.07-8.23c-.48-.22-.77-.5-.77-.82,0-.69,1.41-1.24,3.14-1.24S37,19.28,37,20,35.61,21.21,33.91,21.21Z"/><path class="cls-1" d="M21.64,27.76H0v-5a2.61,2.61,0,0,1,.89-1.84L7,19.29l1.23-3.44C7,15.37,6.5,13.16,6.5,13.16a52.39,52.39,0,0,1-.86-8c0-3.43,5.16-3.68,5.16-3.68h0S16,1.75,16,5.18a52.39,52.39,0,0,1-.86,8s-.49,2.21-1.72,2.69l1.23,3.44,6.1,1.6a2.61,2.61,0,0,1,.89,1.84Z"/></g></g></svg>