<svg xmlns="http://www.w3.org/2000/svg" viewBox="0 0 66.05 36.08"><defs><style>.cls-1{fill:#414042;}</style></defs><title>Asset 63</title><g id="Layer_2" data-name="Layer 2"><g id="data_analytics_and_network_icons" data-name="data analytics and network icons"><path class="cls-1" d="M47.08,7.74a2.4,2.4,0,1,1-2.4,2.4A2.4,2.4,0,0,1,47.08,7.74Z"/><path class="cls-1" d="M46.78,15.11a2.4,2.4,0,1,1-2.4-2.4A2.4,2.4,0,0,1,46.78,15.11Z"/><path class="cls-1" d="M39.2,14.68a2.4,2.4,0,1,1-2.41,2.4A2.4,2.4,0,0,1,39.2,14.68Z"/><path class="cls-1" d="M34.1,12.28a2.4,2.4,0,1,1-2.4,2.4A2.39,2.39,0,0,1,34.1,12.28Z"/><path class="cls-1" d="M31.31,7.2a2.4,2.4,0,1,1-2.39,2.4A2.4,2.4,0,0,1,31.31,7.2Z"/><path class="cls-1" d="M28.66,2a2.4,2.4,0,1,1-2.4,2.4A2.4,2.4,0,0,1,28.66,2Z"/><path class="cls-1" d="M23.43,0A2.4,2.4,0,1,1,21,2.4,2.41,2.41,0,0,1,23.43,0Z"/><path class="cls-1" d="M18.32,2.4a2.4,2.4,0,1,1-2.4,2.4A2.41,2.41,0,0,1,18.32,2.4Z"/><path class="cls-1" d="M15.55,7.36a2.4,2.4,0,1,1-2.4,2.4A2.4,2.4,0,0,1,15.55,7.36Z"/><path class="cls-1" d="M66.05,31.21H0L14.26,23H51.79ZM50.77,24.77H15.27L9.84,28.85H56.21Z"/><path class="cls-1" d="M63.17,36.08H2.87A2.88,2.88,0,0,1,0,33.2v-.73a2.82,2.82,0,0,1,.09-.71H66a2.83,2.83,0,0,1,.1.71v.73A2.88,2.88,0,0,1,63.17,36.08Z"/></g></g></svg>