<svg xmlns="http://www.w3.org/2000/svg" viewBox="0 0 58.33 56.46"><defs><style>.cls-1{fill:#414042;}</style></defs><title>Asset 20</title><g id="Layer_2" data-name="Layer 2"><g id="data_analytics_and_network_icons" data-name="data analytics and network icons"><polygon class="cls-1" points="48.59 39.79 8.24 39.79 1.27 11.7 12.8 11.7 36.25 11.7 40.18 4.97 57.06 4.97 48.59 39.79"/><path class="cls-1" d="M38.39,48.37H54.53a3.8,3.8,0,0,1,0,7.6H38.39a2.7,2.7,0,0,0,.23-1.07V49.45A2.71,2.71,0,0,0,38.39,48.37Z"/><rect class="cls-1" x="27.04" y="40.42" width="4.25" height="6.49"/><path class="cls-1" d="M35.47,56.46H22.86a2.05,2.05,0,0,1-2.05-2.05V49.93a2,2,0,0,1,2.05-2H35.47a2,2,0,0,1,2.05,2v4.48A2.05,2.05,0,0,1,35.47,56.46Z"/><path class="cls-1" d="M4.57,0h13.3l1.77,6.58H36.51l-1.95,3.95H3.69L1.27,3.36S.33,0,4.57,0Z"/><path class="cls-1" d="M3.8,48.37H19.94a2.71,2.71,0,0,0-.23,1.08V54.9A2.7,2.7,0,0,0,19.94,56H3.8a3.8,3.8,0,0,1,0-7.6Z"/></g></g></svg>