<svg xmlns="http://www.w3.org/2000/svg" viewBox="0 0 57.98 45.79"><defs><style>.cls-1{fill:#414042;}</style></defs><title>Asset 21</title><g id="Layer_2" data-name="Layer 2"><g id="data_analytics_and_network_icons" data-name="data analytics and network icons"><polygon class="cls-1" points="16.68 25.35 23 34.38 37.79 16.65 48.36 31.85 56.45 27.23 56.45 43.42 56.45 45.78 1.53 45.78 1.53 43.42 16.68 25.35"/><path class="cls-1" d="M27.64,13a3,3,0,0,1,1.52-.43,3,3,0,0,1,1.37.33L38.2,4a3.18,3.18,0,0,1-.18-1,2.95,2.95,0,0,1,5.89,0,2.89,2.89,0,0,1-.22,1.11l8,8.69.93-1.07a2.89,2.89,0,0,1-.49-1.62A2.95,2.95,0,1,1,55,13a2.77,2.77,0,0,1-.42,0L51.7,16.33,42,5.71a3,3,0,0,1-1,.17,3.07,3.07,0,0,1-1.1-.2L32,14.8a2.61,2.61,0,0,1,.09.69,2.95,2.95,0,0,1-5.89,0,2.83,2.83,0,0,1,.05-.5L23,11.6a3,3,0,0,1-1,.16,2.92,2.92,0,0,1-1.49-.41L5.8,22.21a2.51,2.51,0,0,1,.08.67,2.94,2.94,0,1,1-2.94-2.94,3,3,0,0,1,1.43.37L19.16,9.41a2.88,2.88,0,0,1-.06-.59,2.95,2.95,0,0,1,5.89,0A2.8,2.8,0,0,1,24.75,10Z"/></g></g></svg>