<svg xmlns="http://www.w3.org/2000/svg" viewBox="0 0 50 56.1"><defs><style>.cls-1{fill:#414042;}</style></defs><title>Asset 86</title><g id="Layer_2" data-name="Layer 2"><g id="data_analytics_and_network_icons" data-name="data analytics and network icons"><path class="cls-1" d="M27.65,19.45a2.16,2.16,0,1,0-2.16-2.16A2.16,2.16,0,0,0,27.65,19.45Zm13.6,1.6a2.56,2.56,0,1,0-2.56,2.56A2.56,2.56,0,0,0,41.25,21.05ZM19,19.67a2.91,2.91,0,0,1,2.09.87l3.05-1.87a3.72,3.72,0,0,1-.26-1.38,3.76,3.76,0,1,1,7.51,0,3.66,3.66,0,0,1-.05.57L34.74,19a4.44,4.44,0,1,1-.5,2,4.26,4.26,0,0,1,.08-.8l-3.38-1.14a3.75,3.75,0,0,1-6.09.68L21.8,21.67a2.88,2.88,0,0,1,.16.93A2.94,2.94,0,1,1,19,19.67Zm1.69,2.93A1.69,1.69,0,1,0,19,24.3,1.69,1.69,0,0,0,20.71,22.6Z"/><path class="cls-1" d="M44.62,20.25a15,15,0,1,0-15,15A15,15,0,0,0,44.62,20.25Zm.83,13a20.44,20.44,0,0,1-26.24,4.77,3.82,3.82,0,0,1-.83,2.2L6.71,54.7A3.78,3.78,0,0,1,.84,50L12.51,35.52a3.74,3.74,0,0,1,2-1.27,20.44,20.44,0,1,1,31-1Z"/></g></g></svg>