<svg xmlns="http://www.w3.org/2000/svg" viewBox="0 0 56.22 55.1"><defs><style>.cls-1{fill:#414042;}</style></defs><title>Asset 93</title><g id="Layer_2" data-name="Layer 2"><g id="data_analytics_and_network_icons" data-name="data analytics and network icons"><path class="cls-1" d="M51.39,41.37A27.53,27.53,0,0,1,45,48.88a5,5,0,1,1,6.41-7.51Z"/><path class="cls-1" d="M45,48.88a4.93,4.93,0,0,0,2.5.68,5,5,0,0,0,3.91-8.19,28.08,28.08,0,0,0,1.72-3.53A8.74,8.74,0,1,1,41.78,51.15,27.62,27.62,0,0,0,45,48.88Z"/><path class="cls-1" d="M53.11,37.84a8.73,8.73,0,0,0-13.39,2.69l-6.63-2.26a6.94,6.94,0,0,0,.1-1.11,7.38,7.38,0,1,0-14.76,0,7.17,7.17,0,0,0,.52,2.7l-6,3.69a5.76,5.76,0,0,0-8-.23A27.38,27.38,0,0,1,0,27.55H27.55V0A27.56,27.56,0,0,1,55.1,27.55,27.25,27.25,0,0,1,53.11,37.84Z"/><path class="cls-1" d="M25.8,32.91a4.24,4.24,0,1,1-4.24,4.25A4.25,4.25,0,0,1,25.8,32.91Z"/><path class="cls-1" d="M24,1.78V24H1.78A22.26,22.26,0,0,1,24,1.78Z"/><path class="cls-1" d="M32.27,40.71,38.89,43a9,9,0,0,0-.15,1.56,8.71,8.71,0,0,0,3,6.62,27.59,27.59,0,0,1-28.42,0,5.74,5.74,0,0,0,1.25-3.58,5.4,5.4,0,0,0-.31-1.85l6-3.69a7.29,7.29,0,0,0,5.49,2.48A7.38,7.38,0,0,0,32.27,40.71Z"/><path class="cls-1" d="M11.31,49.8a23.58,23.58,0,0,0,2,1.37A5.77,5.77,0,1,1,5,43.32c.47.67,1,1.33,1.5,2a3.32,3.32,0,1,0,4.85,4.52Z"/><path class="cls-1" d="M12.16,47.59a3.27,3.27,0,0,1-.85,2.21,27.36,27.36,0,0,1-4.85-4.52,3.29,3.29,0,0,1,2.37-1A3.33,3.33,0,0,1,12.16,47.59Z"/></g></g></svg>