<svg xmlns="http://www.w3.org/2000/svg" viewBox="0 0 57.6 43.42"><defs><style>.cls-1{fill:#414042;}</style></defs><title>Asset 64</title><g id="Layer_2" data-name="Layer 2"><g id="data_analytics_and_network_icons" data-name="data analytics and network icons"><path class="cls-1" d="M33.92,41.36v.54a2.25,2.25,0,0,1-.6,1.52H11.82a2.25,2.25,0,0,1-.6-1.52v-.54Z"/><rect class="cls-1" x="14.68" y="38.97" width="15.78" height="1.82"/><path class="cls-1" d="M25.6,15.52v1.54a1.54,1.54,0,0,1-.46,1.11,1.56,1.56,0,0,1-2.67-1.11V15.52a1.54,1.54,0,0,1,.46-1.11,1.56,1.56,0,0,1,2.67,1.11Zm-1,1.15V15.9c0-.43-.25-.78-.56-.78a.5.5,0,0,0-.4.23,1,1,0,0,0-.17.55v.77c0,.44.25.79.57.79a.49.49,0,0,0,.39-.23A.91.91,0,0,0,24.6,16.67Z"/><path class="cls-1" d="M25.57,27.23v1.54a1.58,1.58,0,0,1-.46,1.11,1.57,1.57,0,0,1-2.68-1.11V27.23a1.57,1.57,0,0,1,3.14,0Zm-1,1.16v-.77c0-.43-.25-.79-.56-.79a.5.5,0,0,0-.4.23,1,1,0,0,0-.17.56v.77c0,.43.26.78.57.78a.51.51,0,0,0,.4-.23A.94.94,0,0,0,24.56,28.39Z"/><path class="cls-1" d="M24.92,8.73v3.08a.66.66,0,0,1-.68.63.71.71,0,0,1-.48-.19.61.61,0,0,1-.2-.44V8.73a.66.66,0,0,1,.68-.63.71.71,0,0,1,.48.18A.61.61,0,0,1,24.92,8.73Z"/><path class="cls-1" d="M24.89,20.45v3.07a.66.66,0,0,1-.68.63.71.71,0,0,1-.48-.18.58.58,0,0,1-.2-.45V20.45a.65.65,0,0,1,.68-.63.75.75,0,0,1,.48.18A.61.61,0,0,1,24.89,20.45Z"/><path class="cls-1" d="M22.08,9.51v1.54a1.57,1.57,0,0,1-2.69,1.1,1.55,1.55,0,0,1-.45-1.1V9.51a1.57,1.57,0,0,1,1.57-1.57,1.59,1.59,0,0,1,1.57,1.57Zm-1,1.15V9.89a1,1,0,0,0-.17-.55.47.47,0,0,0-.39-.23c-.32,0-.57.35-.57.78v.77a1.09,1.09,0,0,0,.16.56.55.55,0,0,0,.41.22C20.82,11.44,21.07,11.1,21.07,10.66Z"/><path class="cls-1" d="M22,21.22v1.54a1.56,1.56,0,0,1-2.67,1.11,1.54,1.54,0,0,1-.46-1.11V21.22a1.57,1.57,0,0,1,1.56-1.57A1.55,1.55,0,0,1,22,21.22Zm-1,1.15v-.76a.93.93,0,0,0-.17-.56.5.5,0,0,0-.4-.23c-.3,0-.56.35-.56.79v.76a1,1,0,0,0,.17.56.49.49,0,0,0,.39.23C20.78,23.16,21,22.81,21,22.37Z"/><path class="cls-1" d="M21,14.74v3.08a.61.61,0,0,1-.2.44.69.69,0,0,1-.48.19.65.65,0,0,1-.68-.63V14.74a.57.57,0,0,1,.2-.44.69.69,0,0,1,1.16.44Z"/><path class="cls-1" d="M20.94,26.46v3.07a.63.63,0,0,1-.2.45.71.71,0,0,1-.48.18.66.66,0,0,1-.68-.63V26.46a.63.63,0,0,1,.2-.45.71.71,0,0,1,.48-.18A.66.66,0,0,1,20.94,26.46Z"/><path class="cls-1" d="M18,15.52v1.54a1.58,1.58,0,0,1-.46,1.11,1.6,1.6,0,0,1-1.11.46,1.57,1.57,0,0,1-1.57-1.57V15.52a1.54,1.54,0,0,1,.46-1.11A1.57,1.57,0,0,1,18,15.52Zm-1,1.15V15.9c0-.43-.25-.78-.56-.78a.5.5,0,0,0-.4.23,1,1,0,0,0-.16.55v.77c0,.44.25.79.56.79a.53.53,0,0,0,.4-.23A1,1,0,0,0,17,16.67Z"/><path class="cls-1" d="M18,27.23v1.54a1.58,1.58,0,0,1-.46,1.11,1.54,1.54,0,0,1-1.11.46,1.57,1.57,0,0,1-1.57-1.57V27.23a1.57,1.57,0,1,1,3.14,0Zm-1,1.16v-.77c0-.43-.25-.79-.56-.79a.51.51,0,0,0-.4.23,1,1,0,0,0-.16.56v.77c0,.43.25.78.56.78a.51.51,0,0,0,.4-.23A.94.94,0,0,0,17,28.39Z"/><path class="cls-1" d="M17.35,8.73v3.08a.66.66,0,0,1-.68.63.67.67,0,0,1-.48-.19.61.61,0,0,1-.2-.44V8.73a.65.65,0,0,1,.68-.63.71.71,0,0,1,.48.18A.65.65,0,0,1,17.35,8.73Z"/><path class="cls-1" d="M17.31,20.45v3.07a.65.65,0,0,1-.68.63.73.73,0,0,1-.48-.18.61.61,0,0,1-.2-.45V20.45a.66.66,0,0,1,.68-.63.71.71,0,0,1,.48.18A.58.58,0,0,1,17.31,20.45Z"/><path class="cls-1" d="M14.5,9.51v1.54a1.57,1.57,0,0,1-3.14,0V9.51a1.57,1.57,0,0,1,1.57-1.57A1.52,1.52,0,0,1,14,8.4,1.56,1.56,0,0,1,14.5,9.51Zm-1,1.15V9.89a1,1,0,0,0-.17-.55.47.47,0,0,0-.4-.23c-.31,0-.56.35-.56.78v.77a1,1,0,0,0,.16.56.53.53,0,0,0,.4.22C13.24,11.44,13.5,11.1,13.5,10.66Z"/><path class="cls-1" d="M14.46,21.22v1.54a1.56,1.56,0,0,1-2.67,1.11,1.54,1.54,0,0,1-.46-1.11V21.22a1.57,1.57,0,1,1,3.13,0Zm-1,1.15v-.76a1,1,0,0,0-.17-.56.5.5,0,0,0-.4-.23c-.31,0-.56.35-.56.79v.76a.91.91,0,0,0,.17.56.49.49,0,0,0,.39.23C13.2,23.16,13.46,22.81,13.46,22.37Z"/><path class="cls-1" d="M13.41,14.74v3.08a.61.61,0,0,1-.2.44.67.67,0,0,1-.48.19.65.65,0,0,1-.68-.63V14.74a.61.61,0,0,1,.2-.44.69.69,0,0,1,1.16.44Z"/><path class="cls-1" d="M13.37,26.46v3.07a.63.63,0,0,1-.2.45.71.71,0,0,1-.48.18.66.66,0,0,1-.68-.63V26.46a.63.63,0,0,1,.2-.45.73.73,0,0,1,.48-.18A.65.65,0,0,1,13.37,26.46Z"/><path class="cls-1" d="M10.46,15.52v1.54A1.54,1.54,0,0,1,10,18.17a1.56,1.56,0,0,1-2.67-1.11V15.52a1.54,1.54,0,0,1,.46-1.11,1.56,1.56,0,0,1,2.67,1.11Zm-1,1.15V15.9c0-.43-.25-.78-.57-.78a.49.49,0,0,0-.39.23.9.9,0,0,0-.17.55v.77c0,.44.25.79.56.79a.5.5,0,0,0,.4-.23A1,1,0,0,0,9.46,16.67Z"/><path class="cls-1" d="M10.43,27.23v1.54A1.55,1.55,0,0,1,10,29.88a1.52,1.52,0,0,1-1.1.46,1.57,1.57,0,0,1-1.57-1.57V27.23a1.59,1.59,0,0,1,1.57-1.57A1.58,1.58,0,0,1,10.43,27.23Zm-1,1.16v-.77c0-.43-.25-.79-.56-.79a.5.5,0,0,0-.4.23,1,1,0,0,0-.17.56v.77c0,.43.26.78.57.78a.49.49,0,0,0,.39-.23A.88.88,0,0,0,9.42,28.39Z"/><path class="cls-1" d="M9.78,8.73v3.08a.66.66,0,0,1-.68.63.69.69,0,0,1-.48-.19.61.61,0,0,1-.2-.44V8.73A.66.66,0,0,1,9.1,8.1a.71.71,0,0,1,.48.18A.65.65,0,0,1,9.78,8.73Z"/><path class="cls-1" d="M9.75,20.45v3.07a.66.66,0,0,1-.69.63A.68.68,0,0,1,8.59,24a.58.58,0,0,1-.2-.45V20.45a.65.65,0,0,1,.67-.63.71.71,0,0,1,.48.18A.59.59,0,0,1,9.75,20.45Z"/><path class="cls-1" d="M6.93,9.51v1.54a1.57,1.57,0,0,1-1.56,1.57A1.59,1.59,0,0,1,3.8,11.05V9.51A1.57,1.57,0,0,1,5.37,7.94,1.57,1.57,0,0,1,6.93,9.51Zm-1,1.15V9.89a1,1,0,0,0-.17-.55.47.47,0,0,0-.39-.23c-.32,0-.57.35-.57.78v.77a.93.93,0,0,0,.17.56.51.51,0,0,0,.4.22C5.67,11.44,5.93,11.1,5.93,10.66Z"/><path class="cls-1" d="M6.89,21.22v1.54a1.56,1.56,0,0,1-2.67,1.11,1.54,1.54,0,0,1-.46-1.11V21.22a1.56,1.56,0,0,1,2.67-1.11A1.56,1.56,0,0,1,6.89,21.22Zm-1,1.15v-.76a.93.93,0,0,0-.17-.56.49.49,0,0,0-.39-.23c-.32,0-.57.35-.57.79v.76a1,1,0,0,0,.17.56.5.5,0,0,0,.4.23C5.64,23.16,5.89,22.81,5.89,22.37Z"/><path class="cls-1" d="M5.83,14.74v3.08a.6.6,0,0,1-.19.44.71.71,0,0,1-.48.19.65.65,0,0,1-.68-.63V14.74a.6.6,0,0,1,.19-.44.71.71,0,0,1,.49-.19A.66.66,0,0,1,5.83,14.74Z"/><path class="cls-1" d="M5.8,26.46v3.07a.63.63,0,0,1-.2.45.73.73,0,0,1-.48.18.65.65,0,0,1-.68-.63V26.46a.63.63,0,0,1,.2-.45.71.71,0,0,1,.48-.18A.66.66,0,0,1,5.8,26.46Z"/><path class="cls-1" d="M43.17,33.16H2V4.47H25.76V3.06H1.05A1,1,0,0,0,0,4.11v33A1,1,0,0,0,1.05,38.2h43a1,1,0,0,0,1-1.05V31.29h-2Zm-20.6,4.09a1.5,1.5,0,1,1,1.5-1.5A1.5,1.5,0,0,1,22.57,37.25Z"/><path class="cls-1" d="M38,12.33c.3.22.61.3.68.2s-.11-.36-.42-.57l.34,0h0a1.16,1.16,0,0,0,.7.32c.15,0,.13-.16,0-.35l.33,0a1.72,1.72,0,0,0,.78.54c.19.06.29,0,.26-.12l.46,0a.06.06,0,0,0,0,0,1.38,1.38,0,0,0,.65.61.82.82,0,0,0,.34.1l.7.23c0,.12.15.35.43.55a1.18,1.18,0,0,0,.57.24l.56.41c-.07.07,0,.23.21.42a1.29,1.29,0,0,0,.79.4l.16.44c-.06,0,0,.14.05.26a1.67,1.67,0,0,0,.78.55l-.07.28c-.15,0-.23,0-.2.14a1,1,0,0,0,.32.39l-.26.23a.13.13,0,0,0-.11.05c-.07.09.08.31.32.5l-.34,0a1.12,1.12,0,0,0-.59-.25c-.13,0-.14.12,0,.26l-.32.05a1.78,1.78,0,0,0-.72-.45c-.17-.05-.27,0-.27.07h-.45s0,0,0,0a1.4,1.4,0,0,0-.64-.61c-.25-.12-.43-.14-.47-.06l-.7-.21a.12.12,0,0,0,.11,0c.07-.11-.11-.36-.42-.57s-.61-.3-.68-.2l-.53-.42c.18,0,.13-.22-.13-.46a1.41,1.41,0,0,0-.79-.4h0l-.2-.42c.15,0,.17-.11,0-.29a1.72,1.72,0,0,0-.78-.54l.08-.28c.14,0,.22,0,.19-.14a1.33,1.33,0,0,0-.65-.6.86.86,0,0,0-.35-.11l.2-.3A.79.79,0,0,0,38,12.33Z"/><path class="cls-1" d="M54.54,22.82c-.85-.6-1.71-.85-1.92-.55s.33,1,1.19,1.6,1.71.85,1.91.55S55.4,23.41,54.54,22.82Zm-1.06,2.64c.51,0,.35-.61-.36-1.27a3.78,3.78,0,0,0-2.22-1.12c-.51,0-.35.61.36,1.27A3.75,3.75,0,0,0,53.48,25.46Zm-.7-5.09a3.88,3.88,0,0,0,1.82,1.7c.87.43,1.46.39,1.32-.11a3.83,3.83,0,0,0-1.82-1.69C53.23,19.82,52.64,19.87,52.78,20.37Zm-1.44-2.7a4.83,4.83,0,0,0,2.19,1.53c.75.21,1-.12.52-.75a4.83,4.83,0,0,0-2.19-1.53C51.11,16.71,50.87,17,51.34,17.67Zm-1.28,6.51a4.83,4.83,0,0,0-2.19-1.53c-.75-.21-1,.12-.52.76a4.89,4.89,0,0,0,2.19,1.52C50.29,25.14,50.52,24.81,50.06,24.18Zm.33-9.75a3.86,3.86,0,0,0-2.23-1.13c-.51,0-.35.61.36,1.28a3.87,3.87,0,0,0,2.22,1.12C51.26,15.66,51.1,15.09,50.39,14.43Zm-1.47,6.22A2.32,2.32,0,0,0,47.56,20c-.31,0-.21.37.22.78a2.34,2.34,0,0,0,1.36.68C49.46,21.41,49.36,21.06,48.92,20.65Zm.87-.84c-.53-.36-1-.51-1.17-.33s.2.62.72,1,1,.51,1.17.34S50.31,20.18,49.79,19.81Zm-2-3.14a2.94,2.94,0,0,0,1.34.93c.45.13.6-.08.32-.46a3,3,0,0,0-1.34-.93C47.69,16.08,47.55,16.28,47.83,16.67Zm.88,1.65a2.43,2.43,0,0,0,1.12,1c.53.26.89.24.8-.07a2.3,2.3,0,0,0-1.11-1C49,18,48.63,18,48.71,18.32Zm-2.6-3.55a2.34,2.34,0,0,0,1.36.69c.31,0,.21-.37-.22-.78A2.37,2.37,0,0,0,45.89,14C45.57,14,45.67,14.37,46.11,14.77Zm-1.35-3.21c.85.6,1.71.84,1.91.55s-.32-1-1.17-1.61-1.72-.84-1.92-.55S43.91,11,44.76,11.56Zm1,8.16c-.46-.14-.6.07-.32.45a2.86,2.86,0,0,0,1.34.93c.46.13.6-.08.32-.45A2.91,2.91,0,0,0,45.71,19.72ZM44,21.09c-.87-.44-1.46-.39-1.32.1a3.88,3.88,0,0,0,1.82,1.7c.87.44,1.46.39,1.32-.11A3.82,3.82,0,0,0,44,21.09Zm.46-1.3a2.37,2.37,0,0,0-1.12-1c-.53-.27-.89-.24-.8.06a2.3,2.3,0,0,0,1.11,1C44.17,20.12,44.54,20.1,44.45,19.79Zm-1.37-7.85c-.12.18.2.62.73,1s1,.51,1.17.33-.2-.62-.72-1S43.21,11.77,43.08,11.94Zm-2.92-1.57a2.34,2.34,0,0,0,1.12,1c.53.27.89.24.8-.06a2.3,2.3,0,0,0-1.11-1C40.44,10,40.08,10.07,40.16,10.37Zm1.37,7.85c.12-.18-.2-.62-.72-1s-1.05-.52-1.18-.34.2.62.72,1S41.4,18.4,41.53,18.22ZM40.12,7.28c-.87-.44-1.46-.39-1.32.1a3.79,3.79,0,0,0,1.82,1.7c.87.44,1.46.39,1.32-.11A3.78,3.78,0,0,0,40.12,7.28Zm-1.61,8.11a2.37,2.37,0,0,0-1.36-.68c-.32,0-.22.37.21.77a2.42,2.42,0,0,0,1.36.7C39,16.15,38.94,15.8,38.51,15.39Zm1.34,3.22c-.85-.6-1.71-.84-1.91-.55s.32,1,1.18,1.61,1.71.84,1.91.54S40.71,19.2,39.85,18.61ZM37.56,9.52a3,3,0,0,0,1.34.93c.46.13.6-.07.32-.45a2.88,2.88,0,0,0-1.34-.94C37.43,8.93,37.29,9.14,37.56,9.52Zm.75,4.1c-.26-.08-.34,0-.18.27a1.72,1.72,0,0,0,.78.54l.14,0,.2.42c-.12.05,0,.24.18.45a1.44,1.44,0,0,0,.79.4l.53.42c-.07.11.12.36.42.57a1.22,1.22,0,0,0,.57.24l.7.21a.17.17,0,0,0,0,.1,1.37,1.37,0,0,0,.65.6c.29.15.49.14.47,0H44a.32.32,0,0,0,.09.19,1.67,1.67,0,0,0,.78.55c.27.07.35-.05.19-.27L45,18.23l.32-.05a1,1,0,0,0,.17.2,1.44,1.44,0,0,0,.79.4c.19,0,.13-.22-.12-.46l-.2-.15.34,0,.1.07c.3.21.6.3.68.2s-.12-.36-.42-.58a1.18,1.18,0,0,0-.57-.24l.26-.23a2.3,2.3,0,0,0,.33.21c.31.16.52.14.47,0a1.33,1.33,0,0,0-.65-.6.75.75,0,0,0-.27-.1l.07-.28c.27.07.35-.05.18-.27a1.65,1.65,0,0,0-.78-.54.29.29,0,0,0-.23,0l-.16-.44c.18,0,.12-.21-.13-.45a1.35,1.35,0,0,0-.79-.4.11.11,0,0,0-.08,0l-.56-.41s.09,0,.11-.05-.11-.36-.42-.57-.61-.29-.68-.19,0,0,0,0l-.7-.23c.1,0,.15-.05.13-.14a1.38,1.38,0,0,0-.65-.61c-.28-.14-.48-.14-.48,0l-.46,0a.37.37,0,0,0-.08-.15,1.72,1.72,0,0,0-.78-.54c-.27-.08-.35,0-.18.27l-.33,0-.1-.1a1.31,1.31,0,0,0-.79-.4c-.18,0-.13.22.13.45a.34.34,0,0,0,.09.08l-.34,0c-.3-.22-.6-.3-.68-.2s0,.26.25.43l-.2.3c-.09,0-.15,0-.12.15a1.37,1.37,0,0,0,.65.6,1.61,1.61,0,0,0,.28.1ZM33.71,7.1c.52,0,.35-.61-.36-1.28A3.84,3.84,0,0,0,31.13,4.7c-.51,0-.36.61.36,1.27A3.84,3.84,0,0,0,33.71,7.1Zm2.74,9.76c.51,0,.35-.61-.36-1.27a3.87,3.87,0,0,0-2.22-1.12c-.52,0-.36.61.36,1.27A3.78,3.78,0,0,0,36.45,16.86Zm-1-8.13c-.31,0-.21.38.22.78a2.37,2.37,0,0,0,1.36.69c.31,0,.22-.38-.22-.78A2.4,2.4,0,0,0,35.47,8.73Zm1.79-2a4.89,4.89,0,0,0-2.19-1.52c-.74-.22-1,.12-.52.75a4.86,4.86,0,0,0,2.19,1.52C37.49,7.72,37.73,7.39,37.26,6.76ZM35.9,11.85a2.3,2.3,0,0,0-1.11-1c-.54-.27-.9-.24-.82.07a2.37,2.37,0,0,0,1.12,1C35.63,12.18,36,12.16,35.9,11.85ZM36,10.69c.13-.18-.19-.62-.72-1s-1-.52-1.17-.34.2.62.72,1S35.87,10.87,36,10.69Zm-.55,1.88c-.45-.13-.6.07-.32.45a3,3,0,0,0,1.34.94c.46.13.61-.08.32-.46A2.94,2.94,0,0,0,35.44,12.57ZM27,0H57.6V30.58H27Zm3.79,6.29c-.86-.59-1.72-.84-1.92-.55s.32,1,1.18,1.61,1.71.84,1.91.55S31.66,6.89,30.81,6.29ZM31.08,11c-.74-.21-1,.12-.52.75a4.79,4.79,0,0,0,2.19,1.52c.75.22,1-.12.52-.74A4.83,4.83,0,0,0,31.08,11ZM30,8.1c-.87-.44-1.46-.39-1.32.11A3.82,3.82,0,0,0,30.51,9.9c.87.44,1.46.39,1.32-.1A3.84,3.84,0,0,0,30,8.1Z"/></g></g></svg>