<svg xmlns="http://www.w3.org/2000/svg" viewBox="0 0 59.53 53.18"><defs><style>.cls-1{fill:#414042;}</style></defs><title>Asset 35</title><g id="Layer_2" data-name="Layer 2"><g id="data_analytics_and_network_icons" data-name="data analytics and network icons"><path class="cls-1" d="M30.19,31.19c-.36-.34-.09-3.2-.09-3.2l-1.78.06a1.3,1.3,0,0,1-1.44-1.63L29.79,21l-.44-1.27C28,16.92,28.77,10,28.77,10S25.83,6.91,30.48,5.2,51.89-6,57.84,5.94C62.92,16.16,55,22.43,54.17,24.67s2.48,6.76,2.48,6.76L47,40.73s-2-2.25-3.82-3.88-2.26-1.57-2.26-1.57A24.57,24.57,0,0,0,36.3,37.7c-3.64,2.18-4.44-.64-4.55-2.28s-.61-1.34-.86-2.32S30.56,31.54,30.19,31.19Z"/><path class="cls-1" d="M.5,37.09l32,14.47a1.4,1.4,0,0,1-.11.37l-.16.35a1.53,1.53,0,0,1-2,.76L.9,39.8a1.53,1.53,0,0,1-.76-2l.15-.35A1.55,1.55,0,0,1,.5,37.09Z"/><path class="cls-1" d="M28.42,39.2c0,.37-.06.68-.19.69a9.13,9.13,0,0,1-9.51-8.23c0-.13.29-.26.66-.28s.68,0,.69.15a7.78,7.78,0,0,0,8.09,7C28.28,38.53,28.39,38.83,28.42,39.2Z"/><path class="cls-1" d="M28.32,36.41c0,.38,0,.69-.12.69a6.44,6.44,0,0,1-6.71-5.81c0-.09.29-.19.66-.21s.69,0,.69.08a5.07,5.07,0,0,0,5.29,4.58C28.21,35.74,28.29,36,28.32,36.41Z"/><path class="cls-1" d="M28,41.73c.15,0,.3.29.33.66s-.09.69-.26.7A12,12,0,0,1,15.59,32.31c0-.17.27-.33.65-.36s.69.08.7.23a10.61,10.61,0,0,0,11,9.55Z"/><path class="cls-1" d="M8.49,37.75l3.36,1.52,11.53,5.21L26.74,46l6,5.2L16.68,43.94.62,36.69Zm8.93,4.57-8.64-3.9-3.1-.16L17,43.35l11.27,5.09-2.17-2.22Z"/></g></g></svg>