<svg xmlns="http://www.w3.org/2000/svg" viewBox="0 0 53.61 60.15"><defs><style>.cls-1{fill:#414042;}</style></defs><title>Asset 85</title><g id="Layer_2" data-name="Layer 2"><g id="data_analytics_and_network_icons" data-name="data analytics and network icons"><path class="cls-1" d="M32.65,25.91H24.71a.64.64,0,0,0-.47.21.71.71,0,0,0-.2.5.7.7,0,0,0,.67.71h7.94a.71.71,0,0,0,0-1.42Zm6.13-4.67a.69.69,0,0,0,.67-.71.68.68,0,0,0-.67-.7H24.71a.67.67,0,0,0-.47.2.75.75,0,0,0-.2.5.7.7,0,0,0,.67.71Zm0,3.11a.72.72,0,0,0,0-1.43H24.71a.64.64,0,0,0-.47.21.75.75,0,0,0-.2.51.7.7,0,0,0,.67.71Zm-1.13-7.87A6.3,6.3,0,0,1,43.76,23a6.31,6.31,0,0,1-6.11,6.48c-3,0-9.39.08-12.3.08a5.78,5.78,0,0,1-5.61-5.94,5.84,5.84,0,0,1,5-5.91,5.51,5.51,0,0,1,10.91-.81A5.77,5.77,0,0,1,37.65,16.48Z"/><path class="cls-1" d="M47.84,21.71a16.09,16.09,0,1,0-16.09,16.1A16.08,16.08,0,0,0,47.84,21.71ZM7.19,58.64A4,4,0,1,1,.9,53.56L13.41,38.09a4,4,0,0,1,2.12-1.36,21.92,21.92,0,1,1,5.07,4.1,4,4,0,0,1-.9,2.35Z"/></g></g></svg>