<svg xmlns="http://www.w3.org/2000/svg" viewBox="0 0 60.98 44.35"><defs><style>.cls-1{fill:#414042;}</style></defs><title>Asset 58</title><g id="Layer_2" data-name="Layer 2"><g id="data_analytics_and_network_icons" data-name="data analytics and network icons"><path class="cls-1" d="M51.48,18.11A1.48,1.48,0,1,1,50,19.58,1.48,1.48,0,0,1,51.48,18.11Z"/><path class="cls-1" d="M47.76,18.11a1.48,1.48,0,1,1-1.48,1.47A1.47,1.47,0,0,1,47.76,18.11Z"/><path class="cls-1" d="M44,18.13a1.48,1.48,0,1,1-1.48,1.48A1.48,1.48,0,0,1,44,18.13Z"/><path class="cls-1" d="M40.29,18.13a1.48,1.48,0,0,1,0,3,1.48,1.48,0,1,1,0-3Z"/><path class="cls-1" d="M39.65,22.64a1.48,1.48,0,1,1-1.48-1.48A1.48,1.48,0,0,1,39.65,22.64Z"/><path class="cls-1" d="M36.13,24.28a1.48,1.48,0,1,1-1.48,1.48A1.48,1.48,0,0,1,36.13,24.28Z"/><path class="cls-1" d="M33.67,26.68a1.48,1.48,0,1,1-1.47,1.48A1.48,1.48,0,0,1,33.67,26.68Z"/><path class="cls-1" d="M32.36,22.81a1.48,1.48,0,1,1-1.48,1.47A1.47,1.47,0,0,1,32.36,22.81Z"/><path class="cls-1" d="M31.05,19.19a1.48,1.48,0,1,1-1.48,1.48A1.48,1.48,0,0,1,31.05,19.19Z"/><path class="cls-1" d="M29.72,15.46a1.48,1.48,0,1,1-1.48,1.48A1.48,1.48,0,0,1,29.72,15.46Z"/><path class="cls-1" d="M28.4,11.78a1.48,1.48,0,1,1-1.47,1.47A1.48,1.48,0,0,1,28.4,11.78Z"/><path class="cls-1" d="M26.76,8a1.48,1.48,0,1,1-1.48,1.48A1.48,1.48,0,0,1,26.76,8Z"/><path class="cls-1" d="M24.62,11.09a1.48,1.48,0,1,1-1.48,1.48A1.47,1.47,0,0,1,24.62,11.09Z"/><path class="cls-1" d="M22.45,14.57a1.48,1.48,0,1,1,0,3,1.48,1.48,0,1,1,0-3Z"/><path class="cls-1" d="M20.24,18.27a1.48,1.48,0,1,1-1.47,1.48A1.48,1.48,0,0,1,20.24,18.27Z"/><path class="cls-1" d="M16.68,18.27a1.48,1.48,0,1,1-1.48,1.48A1.48,1.48,0,0,1,16.68,18.27Z"/><path class="cls-1" d="M13,18.27a1.48,1.48,0,1,1-1.48,1.48A1.49,1.49,0,0,1,13,18.27Z"/><path class="cls-1" d="M9.51,18.27A1.48,1.48,0,1,1,8,19.75,1.48,1.48,0,0,1,9.51,18.27Z"/><path class="cls-1" d="M3.33,0H57.66V37.69H3.33ZM55.52,35.36v-33H5.46v33Z"/><polygon class="cls-1" points="43.02 42.11 17.96 42.11 0 42.11 3.33 39.02 30.49 39.02 57.66 39.02 60.98 42.11 43.02 42.11"/><path class="cls-1" d="M0,42.7H61V43c0,.74-1,1.35-2.33,1.35H2.33C1.05,44.35,0,43.74,0,43Z"/></g></g></svg>