<svg xmlns="http://www.w3.org/2000/svg" viewBox="0 0 70.24 43.08"><defs><style>.cls-1{fill:#414042;}</style></defs><title>Asset 45</title><g id="Layer_2" data-name="Layer 2"><g id="data_analytics_and_network_icons" data-name="data analytics and network icons"><path class="cls-1" d="M42.39,4.7a7.54,7.54,0,1,1,0,15.07l-4.25,0V11h-6v8.86l-4.86,0a6.91,6.91,0,0,1-.8-13.78,6.86,6.86,0,0,1,13.45-1A7.43,7.43,0,0,1,42.39,4.7Z"/><path class="cls-1" d="M42.22,21.56l-7.1,11.15L28,21.56h4.07V19.84l6-.05v1.77Z"/><path class="cls-1" d="M54,34.11H16.24l-5.77,2.24h49.3Zm16.25,3.55H0l15.16-4.53H55.07Z"/><path class="cls-1" d="M.1,38.48h70a3.17,3.17,0,0,1,.1.76V40a3.07,3.07,0,0,1-3.07,3.07H3.06A3.07,3.07,0,0,1,0,40v-.77A3.17,3.17,0,0,1,.1,38.48Z"/></g></g></svg>