<svg xmlns="http://www.w3.org/2000/svg" viewBox="0 0 55.51 55.16"><defs><style>.cls-1{fill:#414042;}</style></defs><title>Asset 23</title><g id="Layer_2" data-name="Layer 2"><g id="data_analytics_and_network_icons" data-name="data analytics and network icons"><polygon class="cls-1" points="41.72 5.07 44.47 8.89 37.48 16.57 33.24 7.63 18.64 26.4 14.59 15.53 0 31.25 0 38.08 13.15 23.91 17.42 35.38 32.43 16.08 36.46 24.57 47.24 12.73 50.02 16.6 55.51 0 41.72 5.07"/><polygon class="cls-1" points="31.78 23.51 26.35 30.1 26.35 55.16 31.78 55.16 31.78 23.51"/><polygon class="cls-1" points="18.74 55.16 24.84 55.16 24.84 31.94 18.74 39.34 18.74 55.16"/><polygon class="cls-1" points="33.29 55.16 38.76 55.16 38.76 28.18 36.37 30.95 33.29 24.85 33.29 55.16"/><polygon class="cls-1" points="10.29 35.33 3.59 43.2 3.59 55.16 10.29 55.16 10.29 35.33"/><polygon class="cls-1" points="11.8 55.16 17.23 55.16 17.23 41.18 15.55 43.2 11.8 33.82 11.8 55.16"/><polygon class="cls-1" points="40.27 26.43 40.27 55.16 46.9 55.16 46.9 18.74 40.27 26.43"/></g></g></svg>