<svg xmlns="http://www.w3.org/2000/svg" viewBox="0 0 60.69 48.14"><defs><style>.cls-1{fill:#414042;}</style></defs><title>Asset 40</title><g id="Layer_2" data-name="Layer 2"><g id="data_analytics_and_network_icons" data-name="data analytics and network icons"><path class="cls-1" d="M46.58,31.82h-6v9.73l-9.91-9.73H9.05V0H46.58Zm-2.52-3.68V6.8H39.83V2.94H12.05v25.2ZM44,5.68h.67l-1.39-1.5,1.35-1.43H44l-.6.69c-.17.19-.29.32-.42.49h0a6.26,6.26,0,0,0-.4-.49l-.59-.69h-.68L42.58,4.2,41.21,5.68h.66L42.41,5c.23-.26.36-.42.49-.58h0c.13.16.27.32.5.57Z"/><path class="cls-1" d="M35.43,19a3.1,3.1,0,1,1-3.1,3.1A3.09,3.09,0,0,1,35.43,19Zm1.74,3.63V21.57H36V20.35H34.89v1.22H33.68v1.06h1.21v1.21H36V22.63Z"/><path class="cls-1" d="M32.69,25.62H18.8V21.76a2,2,0,0,1,.69-1.41l4.69-1.23.94-2.63c-.94-.38-1.32-2.08-1.32-2.08a40.12,40.12,0,0,1-.66-6.12c0-2.64,3.95-2.83,3.95-2.83h.05s3.95.19,3.95,2.83a40.71,40.71,0,0,1-.65,6.12s-.38,1.7-1.33,2.08l.95,2.63,1.69.45A4.39,4.39,0,0,0,31,22.1,4.44,4.44,0,0,0,32.69,25.62Z"/><polygon class="cls-1" points="60.69 43.47 30.35 43.47 0 43.47 13.1 39.55 19.45 39.55 36.69 39.55 37.55 40.4 30.35 40.4 14.03 40.4 9.05 42.34 30.35 42.34 51.65 42.34 46.66 40.4 41.73 40.4 41.73 39.55 47.59 39.55 60.69 43.47"/><path class="cls-1" d="M.08,44.17H60.61a2.44,2.44,0,0,1,.08.66v.67a2.64,2.64,0,0,1-2.64,2.64H2.64A2.64,2.64,0,0,1,0,45.5v-.67A2.91,2.91,0,0,1,.08,44.17Z"/></g></g></svg>