<svg xmlns="http://www.w3.org/2000/svg" viewBox="0 0 54.57 55.7"><defs><style>.cls-1{fill:#414042;}</style></defs><title>Asset 30</title><g id="Layer_2" data-name="Layer 2"><g id="data_analytics_and_network_icons" data-name="data analytics and network icons"><path class="cls-1" d="M53.51,19.85a24.91,24.91,0,0,1,.7,3.13,26.87,26.87,0,0,1,.26,6.62l-4-.25a23.94,23.94,0,0,0-.3-3.54A23.35,23.35,0,0,0,49,21.22Z"/><path class="cls-1" d="M50.4,31.75l3.77.23a27.31,27.31,0,0,1-2.63,7.85l-2.85-1.39A22.87,22.87,0,0,0,50.4,31.75Z"/><path class="cls-1" d="M52.77,17.57,48,19a23,23,0,0,0-7.3-8.37l3.88-4.43A27.38,27.38,0,0,1,52.77,17.57Z"/><path class="cls-1" d="M50.37,43.81l-7.21,10-1-2.47a27.3,27.3,0,0,1-10.41,4,27.88,27.88,0,0,1-5,.35l.48-6.47a20.92,20.92,0,0,0,3.6-.31,22.78,22.78,0,0,0,8.89-3.42L38.16,42Z"/><path class="cls-1" d="M30.3.18A27.21,27.21,0,0,1,42.64,4.77l-4,4.6a22.85,22.85,0,0,0-8.82-2.78Z"/><path class="cls-1" d="M11.41,1.86l1,2.48a27.31,27.31,0,0,1,10.41-4A27,27,0,0,1,27.91,0l-.48,6.46a24.64,24.64,0,0,0-3.61.3,22.77,22.77,0,0,0-8.88,3.44l1.47,3.47L4.19,11.88Z"/><path class="cls-1" d="M15.92,46.33a22.68,22.68,0,0,0,8.82,2.78l-.47,6.42a27.33,27.33,0,0,1-12.35-4.6Z"/><path class="cls-1" d="M6.57,36.69a23.28,23.28,0,0,0,7.29,8.36L10,49.5A27.27,27.27,0,0,1,1.8,38.13Z"/><path class="cls-1" d="M5.88,17.26A22.87,22.87,0,0,0,4.17,24L.39,23.72A27.66,27.66,0,0,1,3,15.88Z"/><path class="cls-1" d="M5.59,34.48,1.05,35.85a24.74,24.74,0,0,1-.69-3.12,27,27,0,0,1-.27-6.64l4,.25a21.45,21.45,0,0,0,.3,3.55A23.33,23.33,0,0,0,5.59,34.48Z"/><polygon class="cls-1" points="32.78 20.39 17.64 16.86 19.63 32.28 22.89 29.33 30.46 39.29 34.26 35.85 34.38 35.75 38.18 32.31 29.03 23.78 32.78 20.39"/></g></g></svg>