<svg xmlns="http://www.w3.org/2000/svg" viewBox="0 0 59.94 45.75"><defs><style>.cls-1{fill:#414042;}</style></defs><title>Asset 53</title><g id="Layer_2" data-name="Layer 2"><g id="data_analytics_and_network_icons" data-name="data analytics and network icons"><path class="cls-1" d="M38.9,30.76a7,7,0,0,1-2.59-1v16H38.9Z"/><path class="cls-1" d="M41,45.75h3.19V30.29a6.36,6.36,0,0,0-2.43.23,5.56,5.56,0,0,1-.76.18Z"/><path class="cls-1" d="M26.55,45.75h2.58V23.29L28,22.22c-.53-.49-1-.94-1.46-1.34Z"/><path class="cls-1" d="M31.2,45.75h3V28.25c-1-.82-2-1.81-3-2.9Z"/><path class="cls-1" d="M53.92,39.31a23.9,23.9,0,0,0-3-4.76v11.2h3Z"/><path class="cls-1" d="M56,45.75h3.95a8.63,8.63,0,0,1-3.95-3Z"/><path class="cls-1" d="M15,32.16a32.16,32.16,0,0,1-3,4.07v9.52h3Z"/><path class="cls-1" d="M5.2,42.38A43.14,43.14,0,0,1,0,45.75H5.2Z"/><path class="cls-1" d="M48.81,32.44a10.3,10.3,0,0,0-2.58-1.62V45.75h2.58Z"/><path class="cls-1" d="M7.27,45.75H9.85V38.42C9,39.26,8.11,40,7.27,40.75Z"/><path class="cls-1" d="M17,45.75h2.59V22c-.72,1.45-1.52,3.4-2.5,5.92l-.09.22Z"/><path class="cls-1" d="M21.69,45.75h2.79V19.25c-1.1-.69-2-.81-2.79-.21Z"/><polygon class="cls-1" points="58.29 0 45.67 6.96 49.57 9.97 44.3 17.66 38.13 7.22 29.5 19.75 32.15 21.83 37.92 13.46 44.1 23.92 52.24 12.03 56.06 14.97 58.29 0"/></g></g></svg>