<svg xmlns="http://www.w3.org/2000/svg" viewBox="0 0 65.83 47.88"><defs><style>.cls-1{fill:#414042;}</style></defs><title>Asset 61</title><g id="Layer_2" data-name="Layer 2"><g id="data_analytics_and_network_icons" data-name="data analytics and network icons"><polygon class="cls-1" points="57.06 12.66 48.6 12.66 47.2 16.66 46.33 16.36 47.95 11.75 57.06 11.75 57.06 12.66"/><path class="cls-1" d="M29.74,23.69a10.32,10.32,0,0,1,.67-2.55,10.1,10.1,0,0,1,1.51-2.5,8.43,8.43,0,0,0-5.61-2.14,7.88,7.88,0,0,0-2,.25,8.43,8.43,0,0,0,5.48,6.94Zm4.93.26a8.42,8.42,0,0,0-1.75-4.25,8.43,8.43,0,0,0-1.77,4.37,9,9,0,0,0,1.47.13A8.22,8.22,0,0,0,34.67,24Zm-1.75,6.19a8.46,8.46,0,0,0,1.8-4.73,9.86,9.86,0,0,1-2.1.23,10.56,10.56,0,0,1-1.49-.11A8.47,8.47,0,0,0,32.92,30.14ZM41,16.63a7.4,7.4,0,0,0-1.48-.13,8.43,8.43,0,0,0-5.62,2.14,9.53,9.53,0,0,1,1.51,2.5,10,10,0,0,1,.64,2.32,8.27,8.27,0,0,0,2.52-1.73A8.44,8.44,0,0,0,41,16.63ZM42.92,25,47,28.73A8.3,8.3,0,0,0,48,24.92a8.4,8.4,0,0,0-2.47-6,8.23,8.23,0,0,0-3.07-2,9.72,9.72,0,0,1-.67,2.54,9.62,9.62,0,0,1-2.14,3.2,9.78,9.78,0,0,1-3.2,2.14l-.23.09a9.8,9.8,0,0,1-2.26,6.22,8.42,8.42,0,0,0,11.57-.33,7.72,7.72,0,0,0,1.09-1.33l-4.26-3.85ZM23.51,19.55a9.73,9.73,0,0,1-.64-2.32A8.24,8.24,0,0,0,20.35,19a8.43,8.43,0,0,0,0,11.9,8.42,8.42,0,0,0,11.57.33,10.29,10.29,0,0,1-1.51-2.5,9.85,9.85,0,0,1-.74-3.52,8,8,0,0,1-.82-.29,9.88,9.88,0,0,1-3.2-2.14A9.78,9.78,0,0,1,23.51,19.55ZM30.08,34A9.87,9.87,0,0,1,22.53,15.8a1.57,1.57,0,0,0,.23-.09A9.86,9.86,0,0,1,39.6,8.8,9.72,9.72,0,0,1,41.74,12a9.43,9.43,0,0,1,.74,3.51c.28.09.56.18.82.29A9.8,9.8,0,0,1,46.5,18a9.68,9.68,0,0,1,2.14,3.19,9.9,9.9,0,0,1,0,7.56,9.63,9.63,0,0,1-.5,1L49.56,31h7.5v.91H49.21l-1.56-1.41a9,9,0,0,1-1.15,1.38A9.8,9.8,0,0,1,43.3,34a10,10,0,0,1-7.55,0,10.09,10.09,0,0,1-2.83-1.8A10.14,10.14,0,0,1,30.08,34ZM24.22,15.28a9.77,9.77,0,0,1,2.09-.23,9.83,9.83,0,0,1,6.61,2.55,9.87,9.87,0,0,1,2.83-1.8,10,10,0,0,1,3.78-.75,10.83,10.83,0,0,1,1.5.12,8.42,8.42,0,0,0-16.81.11Z"/><rect class="cls-1" x="8.14" y="30.55" width="6.71" height="1.83"/><rect class="cls-1" x="8.14" y="26.35" width="6.71" height="1.83"/><rect class="cls-1" x="8.14" y="22.04" width="6.71" height="1.83"/><path class="cls-1" d="M3.59,0H62.24V40.7H3.59ZM59.94,2.52h-54V38.18H59.94Z"/><polygon class="cls-1" points="46.44 45.46 19.39 45.46 0 45.46 3.59 42.14 32.92 42.14 62.24 42.14 65.83 45.46 46.44 45.46"/><path class="cls-1" d="M63.32,47.88H2.52C1.13,47.88,0,47.23,0,46.42V46.1H65.83v.32C65.83,47.23,64.71,47.88,63.32,47.88Z"/></g></g></svg>