<svg xmlns="http://www.w3.org/2000/svg" viewBox="0 0 67.83 38.03"><defs><style>.cls-1{fill:#414042;}</style></defs><title>Asset 44</title><g id="Layer_2" data-name="Layer 2"><g id="data_analytics_and_network_icons" data-name="data analytics and network icons"><path class="cls-1" d="M28.68,16.4V27.07c-3.85-.81-6.52-2.54-6.52-4.55V5c0-2.78,5.12-5,11.44-5S45,2.26,45,5V22.52c0,2-2.66,3.74-6.53,4.55V18.69a.92.92,0,1,0-1.84,0v8.68c-.71.09-1.44.14-2.2.17V20.12a.93.93,0,0,0-1.85,0v7.41c-.72,0-1.41-.08-2.09-.16v-11a.93.93,0,0,0-1.85,0Zm13-11.31c0-2-3.62-3.56-8.08-3.56s-8.08,1.6-8.08,3.56,3.62,3.56,8.08,3.56S41.68,7.05,41.68,5.09Z"/><rect class="cls-1" x="29.83" y="32.44" width="8.16" height="5.59"/><rect class="cls-1" y="17.39" width="10.53" height="4.33"/><rect class="cls-1" x="57.29" y="17.39" width="10.53" height="4.33"/><polygon class="cls-1" points="20.19 9.71 14.42 12.77 6.97 8.82 12.74 5.76 20.19 9.71"/><polygon class="cls-1" points="60.7 31.19 54.93 34.25 47.48 30.3 53.25 27.24 60.7 31.19"/><polygon class="cls-1" points="13.76 26.89 19.53 29.95 12.08 33.9 6.31 30.84 13.76 26.89"/><polygon class="cls-1" points="54.27 5.41 60.04 8.47 52.59 12.42 46.82 9.36 54.27 5.41"/><polygon class="cls-1" points="50.89 35.83 43.35 37.49 39.32 32.33 46.86 30.67 50.89 35.83"/><polygon class="cls-1" points="10.62 22.33 13.75 26.33 4.01 28.47 0.89 24.47 10.62 22.33"/><polygon class="cls-1" points="63.56 10.7 66.68 14.7 56.95 16.84 53.83 12.84 63.56 10.7"/><polygon class="cls-1" points="14 13.28 10.88 17.27 1.15 15.13 4.27 11.14 14 13.28"/><polygon class="cls-1" points="66.94 24.91 63.81 28.9 54.08 26.76 57.2 22.77 66.94 24.91"/><polygon class="cls-1" points="20.46 30.46 28 32.12 23.97 37.27 16.43 35.62 20.46 30.46"/></g></g></svg>