<svg xmlns="http://www.w3.org/2000/svg" viewBox="0 0 59.92 59.92"><defs><style>.cls-1{fill:#414042;}</style></defs><title>Asset 27</title><g id="Layer_2" data-name="Layer 2"><g id="data_analytics_and_network_icons" data-name="data analytics and network icons"><path class="cls-1" d="M57.64,18.49A30,30,0,0,0,8.77,8.77a30.38,30.38,0,0,0-6.5,9.72,30,30,0,1,0,55.37,0Zm.42,10.56H51.62A40.33,40.33,0,0,0,50.4,20a35.5,35.5,0,0,0-1.54-4.71,24.57,24.57,0,0,1,3.26,2.48,20.86,20.86,0,0,1,3.13,3.51,16.54,16.54,0,0,1,2.1,4.15A14.58,14.58,0,0,1,58.06,29.05Zm-8.21-19a28.21,28.21,0,0,1,6.09,9.09,21.94,21.94,0,0,0-2.6-2.76,27.56,27.56,0,0,0-4.09-3c-.56-.34-1.14-.66-1.72-1-.31-.58-.63-1.16-1-1.72a26.82,26.82,0,0,0-3-4.09A23.4,23.4,0,0,0,40.77,4,28,28,0,0,1,49.85,10.06Zm-19-8.2a14.14,14.14,0,0,1,3.64.71,16.54,16.54,0,0,1,4.15,2.1A20,20,0,0,1,42.17,7.8a25.46,25.46,0,0,1,2.48,3.26,36.17,36.17,0,0,0-4.72-1.55A40.15,40.15,0,0,0,30.87,8.3Zm-5.46.71a14.14,14.14,0,0,1,3.64-.71V8.3A40.32,40.32,0,0,0,20,9.51a35.54,35.54,0,0,0-4.71,1.55A25.46,25.46,0,0,1,17.75,7.8a20,20,0,0,1,3.51-3.13A16.54,16.54,0,0,1,25.41,2.57ZM10.06,10.06A28.18,28.18,0,0,1,19.15,4a22.64,22.64,0,0,0-2.76,2.6,26.82,26.82,0,0,0-3,4.09c-.35.56-.67,1.14-1,1.72-.58.31-1.16.63-1.72,1a27.56,27.56,0,0,0-4.09,3A21.94,21.94,0,0,0,4,19.15,28.18,28.18,0,0,1,10.06,10.06ZM2.57,25.41a16.54,16.54,0,0,1,2.1-4.15A20.43,20.43,0,0,1,7.8,17.75a24.57,24.57,0,0,1,3.26-2.48A35.54,35.54,0,0,0,9.51,20,40.9,40.9,0,0,0,8.3,29.05H1.86A14.14,14.14,0,0,1,2.57,25.41Zm-.71,5.46H8.3a40.73,40.73,0,0,0,1.21,9.06,35.68,35.68,0,0,0,1.55,4.72A25.46,25.46,0,0,1,7.8,42.17a20.43,20.43,0,0,1-3.13-3.51,16.54,16.54,0,0,1-2.1-4.15A14.14,14.14,0,0,1,1.86,30.87Zm8.2,19A28,28,0,0,1,4,40.77a23.4,23.4,0,0,0,2.6,2.76,26.82,26.82,0,0,0,4.09,3c.56.35,1.14.67,1.72,1,.31.58.63,1.16,1,1.72a27.32,27.32,0,0,0,3,4.09,22.64,22.64,0,0,0,2.76,2.6A28.21,28.21,0,0,1,10.06,49.85Zm19,8.21a14.58,14.58,0,0,1-3.64-.71,16.54,16.54,0,0,1-4.15-2.1,20.86,20.86,0,0,1-3.51-3.13,25.46,25.46,0,0,1-2.48-3.26A35.5,35.5,0,0,0,20,50.4a40.33,40.33,0,0,0,9.07,1.22Zm0-11.9V49.8a39.06,39.06,0,0,1-8.62-1.16,33.46,33.46,0,0,1-6.68-2.47,32.94,32.94,0,0,1-2.47-6.69,38.39,38.39,0,0,1-1.16-8.61h3.64c0-.3,0-.6,0-.91s0-.61,0-.91H10.12a38.47,38.47,0,0,1,1.16-8.62,32.86,32.86,0,0,1,2.47-6.68,33.46,33.46,0,0,1,6.68-2.47,38.47,38.47,0,0,1,8.62-1.16v3.64c.3,0,.6,0,.91,0s.61,0,.91,0V10.12a38.39,38.39,0,0,1,8.61,1.16,33.55,33.55,0,0,1,6.69,2.47,33.46,33.46,0,0,1,2.47,6.68,39.06,39.06,0,0,1,1.16,8.62H46.16c0,.3,0,.6,0,.91s0,.61,0,.91H49.8a39,39,0,0,1-1.16,8.61,33.55,33.55,0,0,1-2.47,6.69,33.55,33.55,0,0,1-6.69,2.47,39,39,0,0,1-8.61,1.16V46.16c-.3,0-.61,0-.91,0S29.35,46.18,29.05,46.16Zm5.46,11.19a14.58,14.58,0,0,1-3.64.71V51.62a40.16,40.16,0,0,0,9.06-1.22,36.12,36.12,0,0,0,4.72-1.54,25.46,25.46,0,0,1-2.48,3.26,20.86,20.86,0,0,1-3.51,3.13A16.54,16.54,0,0,1,34.51,57.35Zm15.34-7.5a28.06,28.06,0,0,1-9.08,6.09,23.4,23.4,0,0,0,2.76-2.6,27.32,27.32,0,0,0,3-4.09c.35-.56.67-1.14,1-1.72.58-.31,1.16-.63,1.72-1a26.82,26.82,0,0,0,4.09-3,23.4,23.4,0,0,0,2.6-2.76A28.06,28.06,0,0,1,49.85,49.85Zm7.5-15.34a16.54,16.54,0,0,1-2.1,4.15,20.86,20.86,0,0,1-3.13,3.51,25.46,25.46,0,0,1-3.26,2.48,35.63,35.63,0,0,0,1.54-4.72,40.16,40.16,0,0,0,1.22-9.06h6.44A14.58,14.58,0,0,1,57.35,34.51Z"/><path class="cls-1" d="M30,14.77A15.19,15.19,0,1,1,14.76,30,15.19,15.19,0,0,1,30,14.77Zm0,.94A14.25,14.25,0,1,0,44.21,30,14.25,14.25,0,0,0,30,15.71Z"/><path class="cls-1" d="M39.23,30.81a.44.44,0,0,0,.44-.44V27.83a.44.44,0,0,0-.44-.44H38a.44.44,0,0,0-.44.44v2.54a.44.44,0,0,0,.44.44Zm1.34-3.55v3.68a.73.73,0,0,1-.81.63h-2.3a.73.73,0,0,1-.81-.63V27.26a.73.73,0,0,1,.81-.63h2.3A.73.73,0,0,1,40.57,27.26Z"/><path class="cls-1" d="M39.21,36.85a.44.44,0,0,0,.44-.44V33.87a.44.44,0,0,0-.44-.44H38a.44.44,0,0,0-.44.44v2.54a.44.44,0,0,0,.44.44Zm1.34-3.55V37a.73.73,0,0,1-.81.63h-2.3a.73.73,0,0,1-.81-.63V33.3a.73.73,0,0,1,.81-.63h2.3A.73.73,0,0,1,40.55,33.3Z"/><path class="cls-1" d="M38.86,20.92a.32.32,0,0,1,.36.28v4.24a.32.32,0,0,1-.36.28h-.37a.32.32,0,0,1-.36-.28V21.2a.32.32,0,0,1,.36-.28Z"/><path class="cls-1" d="M36.58,21.48v3.68a.73.73,0,0,1-.81.63h-2.3a.73.73,0,0,1-.81-.63V21.48a.73.73,0,0,1,.81-.63h2.3A.73.73,0,0,1,36.58,21.48Zm-1.34.13H34a.44.44,0,0,0-.43.44v2.54A.44.44,0,0,0,34,25h1.24a.44.44,0,0,0,.44-.44V22.05A.44.44,0,0,0,35.24,21.61Z"/><path class="cls-1" d="M35.1,31.22a.32.32,0,0,1-.36.28h-.37a.32.32,0,0,1-.36-.28V27a.33.33,0,0,1,.36-.29h.37a.33.33,0,0,1,.36.29Z"/><path class="cls-1" d="M34.58,32.74c.2,0,.37.12.37.28v4.24c0,.16-.17.28-.37.28h-.36a.32.32,0,0,1-.36-.28V33a.32.32,0,0,1,.36-.28Z"/><path class="cls-1" d="M30.82,25.44a.32.32,0,0,1-.36.28H30.1c-.21,0-.37-.12-.37-.28V21.2c0-.16.16-.28.37-.28h.36a.32.32,0,0,1,.36.28Z"/><path class="cls-1" d="M29.44,33.43a.44.44,0,0,0-.44.44v2.54a.44.44,0,0,0,.44.44h1.24a.44.44,0,0,0,.43-.44V33.87a.44.44,0,0,0-.43-.44Zm1.77,4.18h-2.3A.73.73,0,0,1,28.1,37V33.3a.73.73,0,0,1,.81-.63h2.3a.74.74,0,0,1,.81.63V37A.74.74,0,0,1,31.21,37.61Z"/><path class="cls-1" d="M30.39,26.69a.33.33,0,0,1,.36.29v4.24a.32.32,0,0,1-.36.28H30c-.2,0-.37-.12-.37-.28V27a.34.34,0,0,1,.37-.29Z"/><path class="cls-1" d="M25,24.59a.44.44,0,0,0,.44.44h1.24a.44.44,0,0,0,.44-.44V22.05a.44.44,0,0,0-.44-.44H25.47a.44.44,0,0,0-.44.44Zm2.21,1.2h-2.3a.73.73,0,0,1-.81-.63V21.48a.73.73,0,0,1,.81-.63h2.3a.73.73,0,0,1,.81.63v3.68A.73.73,0,0,1,27.24,25.79Z"/><path class="cls-1" d="M26.57,31.22c0,.16-.17.28-.37.28h-.36c-.2,0-.37-.12-.37-.28V27a.34.34,0,0,1,.37-.29h.36a.34.34,0,0,1,.37.29Z"/><path class="cls-1" d="M26.55,37.26c0,.16-.17.28-.37.28h-.36c-.2,0-.37-.12-.37-.28V33c0-.16.17-.28.37-.28h.36c.2,0,.37.12.37.28Z"/><path class="cls-1" d="M21.93,33.43H20.69a.44.44,0,0,0-.44.44v2.54a.44.44,0,0,0,.44.44h1.24a.44.44,0,0,0,.44-.44V33.87A.44.44,0,0,0,21.93,33.43Zm.53,4.18h-2.3a.73.73,0,0,1-.81-.63V33.3a.73.73,0,0,1,.81-.63h2.3a.73.73,0,0,1,.81.63V37A.73.73,0,0,1,22.46,37.61Z"/><path class="cls-1" d="M21.49,20.92c.2,0,.37.12.37.28v4.24c0,.16-.17.28-.37.28h-.36c-.2,0-.37-.12-.37-.28V21.2c0-.16.17-.28.37-.28Z"/><path class="cls-1" d="M21.49,26.69a.34.34,0,0,1,.37.29v4.24c0,.16-.17.28-.37.28h-.36c-.2,0-.37-.12-.37-.28V27a.34.34,0,0,1,.37-.29Z"/></g></g></svg>