<svg xmlns="http://www.w3.org/2000/svg" viewBox="0 0 34.7 57.04"><defs><style>.cls-1{fill:#414042;}</style></defs><title>Asset 96</title><g id="Layer_2" data-name="Layer 2"><g id="data_analytics_and_network_icons" data-name="data analytics and network icons"><rect class="cls-1" x="22.96" y="42.13" width="7.16" height="1.13"/><path class="cls-1" d="M21.3,43.57V41.81a.47.47,0,0,1,.47-.47.48.48,0,0,1,.48.47v1.76a.49.49,0,0,1-.48.48A.48.48,0,0,1,21.3,43.57Z"/><rect class="cls-1" x="15.28" y="42.13" width="5.44" height="1.13"/><path class="cls-1" d="M13.82,42.69a5.43,5.43,0,0,1-1.48,3.7c-.05,0-.19,0-.31-.12s-.18-.25-.13-.3a4.75,4.75,0,0,0,0-6.55c-.05-.05,0-.19.13-.31s.26-.17.31-.11A5.39,5.39,0,0,1,13.82,42.69Z"/><path class="cls-1" d="M11.2,39.87a4.08,4.08,0,0,1,0,5.64c0,.05-.17,0-.29-.13s-.19-.25-.15-.29a3.48,3.48,0,0,0,0-4.8s0-.16.15-.28S11.16,39.83,11.2,39.87Z"/><path class="cls-1" d="M11.06,42.69a2.94,2.94,0,0,1-.8,2s-.15,0-.26-.17-.2-.23-.18-.26a2.27,2.27,0,0,0,0-3.14s.06-.14.18-.26.23-.19.26-.16A2.9,2.9,0,0,1,11.06,42.69Z"/><polygon class="cls-1" points="9.33 39.96 9.33 45.42 6.07 43.94 6.07 41.45 9.33 39.96"/><rect class="cls-1" x="4.64" y="41.73" width="1.03" height="1.93"/><path class="cls-1" d="M27.86,34.42V29.53A2.57,2.57,0,0,0,27,27.74l-5.93-1.55-1.19-3.34c1.19-.47,1.67-2.62,1.67-2.62a51.2,51.2,0,0,0,.83-7.75c0-3.34-5-3.58-5-3.58h-.05s-5,.24-5,3.58a50.62,50.62,0,0,0,.84,7.75s.47,2.15,1.66,2.62l-1.19,3.34L7.7,27.74a2.56,2.56,0,0,0-.87,1.79v4.89h21ZM4.58,7.25H30.12V36.08H4.58Z"/><path class="cls-1" d="M17.35,55.65a2.07,2.07,0,1,0-2.07-2.07A2.07,2.07,0,0,0,17.35,55.65ZM32.9,3.8H1.8V49.11H32.9ZM3.5,0H31.19A3.42,3.42,0,0,1,34.7,3.33V53.71A3.42,3.42,0,0,1,31.19,57H3.5A3.42,3.42,0,0,1,0,53.71V3.33A3.42,3.42,0,0,1,3.5,0Z"/></g></g></svg>