<svg xmlns="http://www.w3.org/2000/svg" viewBox="0 0 61.23 48.85"><defs><style>.cls-1{fill:#414042;}</style></defs><title>Asset 37</title><g id="Layer_2" data-name="Layer 2"><g id="data_analytics_and_network_icons" data-name="data analytics and network icons"><path class="cls-1" d="M61.15,24.57c0,.34-.64.54-1.35.46s-1.28-.38-1.25-.66A20.33,20.33,0,0,0,40.94,2.59c-.29,0-.47-.65-.39-1.36S40.94,0,41.28,0A22.94,22.94,0,0,1,61.15,24.57Z"/><path class="cls-1" d="M55,24.74c0,.25-.62.39-1.34.31s-1.29-.31-1.26-.52a14.92,14.92,0,0,0-12.92-16c-.21,0-.32-.63-.24-1.34s.33-1.28.58-1.25A17.55,17.55,0,0,1,55,24.74Z"/><path class="cls-1" d="M39,11.26A12.34,12.34,0,0,1,49.65,24.5c0,.18-.6.26-1.32.18s-1.28-.25-1.27-.39a9.76,9.76,0,0,0-8.45-10.45c-.14,0-.19-.61-.12-1.33S38.77,11.23,39,11.26Z"/><path class="cls-1" d="M21.52,36.48,43,24.1V48.85H0V24.1ZM40,44.23H27.91v1.94H40Zm0-3.58H27.91v1.94H40Z"/><polygon class="cls-1" points="21.52 7.12 43.03 19.49 43.03 22.91 0 22.91 0 19.49 21.52 7.12"/></g></g></svg>