<svg xmlns="http://www.w3.org/2000/svg" viewBox="0 0 47.22 53.67"><defs><style>.cls-1{fill:#414042;}</style></defs><title>Asset 39</title><g id="Layer_2" data-name="Layer 2"><g id="data_analytics_and_network_icons" data-name="data analytics and network icons"><path class="cls-1" d="M26,50.41a2,2,0,1,0-2,2A2,2,0,0,0,26,50.41ZM38.68,34.79h1.69V50.54a3.22,3.22,0,0,1-3.3,3.13H11a3.22,3.22,0,0,1-3.3-3.13V23.37H9.41V46.21H38.68Z"/><polygon class="cls-1" points="47.22 33.18 34.07 33.18 34.07 38.25 20.21 29.43 34.07 20.6 34.07 25.66 47.22 25.66 47.22 33.18"/><rect class="cls-1" x="27.7" y="43.26" width="1.28" height="1.27"/><rect class="cls-1" x="25.25" y="43.26" width="1.28" height="1.27"/><rect class="cls-1" x="22.66" y="43.26" width="1.27" height="1.27"/><rect class="cls-1" x="20.21" y="43.26" width="1.28" height="1.27"/><polygon class="cls-1" points="0 14.04 13.15 14.04 13.15 8.97 27.01 17.8 13.15 26.63 13.15 21.56 0 21.56 0 14.04"/><path class="cls-1" d="M40.37,23.9H38.68V3.58H9.41v8.9H7.72V3.13A3.22,3.22,0,0,1,11,0H37.07a3.22,3.22,0,0,1,3.3,3.13Z"/></g></g></svg>