<svg xmlns="http://www.w3.org/2000/svg" viewBox="0 0 68.28 43.68"><defs><style>.cls-1{fill:#414042;}</style></defs><title>Asset 38</title><g id="Layer_2" data-name="Layer 2"><g id="data_analytics_and_network_icons" data-name="data analytics and network icons"><path class="cls-1" d="M68.28,22.73A2.25,2.25,0,1,1,66,20.49,2.24,2.24,0,0,1,68.28,22.73Z"/><path class="cls-1" d="M60.39,20.49a2.25,2.25,0,1,1-2.24,2.24A2.24,2.24,0,0,1,60.39,20.49Z"/><path class="cls-1" d="M13.59,27.38h2c.18.62.39,1.24.63,1.84a19.92,19.92,0,0,0,24.9,11.47A19.64,19.64,0,0,0,47.65,37a19.9,19.9,0,0,0,4.69-5.87,19.57,19.57,0,0,0,1.5-3.72h2A21.83,21.83,0,0,1,33.58,43.65,21.9,21.9,0,0,1,14.43,29.94,21.27,21.27,0,0,1,13.59,27.38Z"/><path class="cls-1" d="M54.68,20.53a2.25,2.25,0,1,1-2.25,2.25A2.25,2.25,0,0,1,54.68,20.53Z"/><path class="cls-1" d="M49,20.53a2.25,2.25,0,1,1-2.25,2.25A2.25,2.25,0,0,1,49,20.53Z"/><path class="cls-1" d="M45.81,25.13a2.25,2.25,0,1,1-2.25,2.25A2.24,2.24,0,0,1,45.81,25.13Z"/><path class="cls-1" d="M42.7,29.87a2.25,2.25,0,1,1-2.24,2.25A2.25,2.25,0,0,1,42.7,29.87Z"/><path class="cls-1" d="M41.22,35.76A2.25,2.25,0,1,1,39,33.52,2.25,2.25,0,0,1,41.22,35.76Z"/><path class="cls-1" d="M39.22,29.87A2.25,2.25,0,1,1,37,27.63,2.24,2.24,0,0,1,39.22,29.87Z"/><path class="cls-1" d="M15.05,18.71h-2a21.48,21.48,0,0,1,1.33-5,21.84,21.84,0,0,1,39.62-2.06,21.56,21.56,0,0,1,2.28,7H54.38A20,20,0,0,0,41.12,3a20.17,20.17,0,0,0-7.44-1A20,20,0,0,0,16.22,14.46,20.29,20.29,0,0,0,15.05,18.71Z"/><path class="cls-1" d="M35,22.13a2.25,2.25,0,1,1-2.25,2.25A2.25,2.25,0,0,1,35,22.13Z"/><path class="cls-1" d="M33,16.47a2.25,2.25,0,1,1-2.24,2.24A2.24,2.24,0,0,1,33,16.47Z"/><path class="cls-1" d="M31,10.86a2.25,2.25,0,1,1-2.25,2.25A2.24,2.24,0,0,1,31,10.86Z"/><path class="cls-1" d="M30.72,7.41a2.25,2.25,0,1,1-2.25-2.25A2.25,2.25,0,0,1,30.72,7.41Z"/><path class="cls-1" d="M27.45,12.07a2.25,2.25,0,1,1-2.24-2.25A2.24,2.24,0,0,1,27.45,12.07Z"/><path class="cls-1" d="M21.92,15.11a2.25,2.25,0,1,1-2.24,2.24A2.24,2.24,0,0,1,21.92,15.11Z"/><path class="cls-1" d="M20.81,23a2.25,2.25,0,1,1-2.25-2.25A2.24,2.24,0,0,1,20.81,23Z"/><path class="cls-1" d="M13.14,20.74A2.25,2.25,0,1,1,10.9,23,2.24,2.24,0,0,1,13.14,20.74Z"/><path class="cls-1" d="M7.61,20.74A2.25,2.25,0,1,1,5.36,23,2.25,2.25,0,0,1,7.61,20.74Z"/><path class="cls-1" d="M2.25,20.74A2.25,2.25,0,1,1,0,23,2.24,2.24,0,0,1,2.25,20.74Z"/></g></g></svg>