<svg xmlns="http://www.w3.org/2000/svg" viewBox="0 0 55.37 57.01"><defs><style>.cls-1{fill:#414042;}</style></defs><title>Asset 31</title><g id="Layer_2" data-name="Layer 2"><g id="data_analytics_and_network_icons" data-name="data analytics and network icons"><rect class="cls-1" x="24.36" y="53.98" width="6.66" height="3.03"/><rect class="cls-1" y="45.82" width="8.6" height="2.34"/><rect class="cls-1" x="46.77" y="45.82" width="8.6" height="2.34"/><polygon class="cls-1" points="16.48 41.66 11.77 43.32 5.69 41.18 10.4 39.52 16.48 41.66"/><polygon class="cls-1" points="49.55 53.3 44.85 54.96 38.77 52.82 43.47 51.16 49.55 53.3"/><polygon class="cls-1" points="11.23 50.97 15.94 52.63 9.86 54.77 5.15 53.11 11.23 50.97"/><polygon class="cls-1" points="44.31 39.33 49.02 40.99 42.94 43.13 38.23 41.47 44.31 39.33"/><polygon class="cls-1" points="41.55 55.82 35.39 56.72 32.1 53.92 38.26 53.02 41.55 55.82"/><polygon class="cls-1" points="8.67 48.5 11.22 50.67 3.28 51.83 0.73 49.66 8.67 48.5"/><polygon class="cls-1" points="51.89 42.2 54.44 44.37 46.49 45.52 43.94 43.36 51.89 42.2"/><polygon class="cls-1" points="11.43 43.6 8.88 45.76 0.94 44.6 3.49 42.44 11.43 43.6"/><polygon class="cls-1" points="54.65 49.9 52.1 52.06 44.15 50.9 46.7 48.74 54.65 49.9"/><polygon class="cls-1" points="16.71 52.91 22.86 53.8 19.57 56.6 13.41 55.7 16.71 52.91"/><path class="cls-1" d="M7.26,20.91H28.18V0A20.92,20.92,0,1,1,7.26,20.91Z"/><path class="cls-1" d="M25.37,1.58a16.61,16.61,0,0,0-16.6,16.6h16.6Z"/></g></g></svg>