<svg xmlns="http://www.w3.org/2000/svg" viewBox="0 0 62.24 52.57"><defs><style>.cls-1{fill:#414042;}</style></defs><title>Asset 55</title><g id="Layer_2" data-name="Layer 2"><g id="data_analytics_and_network_icons" data-name="data analytics and network icons"><path class="cls-1" d="M58.73,51.14a2.09,2.09,0,0,0,2.09-2.09V34.45a2.08,2.08,0,0,0-2.09-2.08H44.1A2.08,2.08,0,0,0,42,34.45v14.6a2.09,2.09,0,0,0,2.09,2.09Zm-40.59,0a2.09,2.09,0,0,0,2.08-2.09V34.45a2.08,2.08,0,0,0-2.08-2.08H3.5a2.09,2.09,0,0,0-2.09,2.08v14.6A2.1,2.1,0,0,0,3.5,51.14ZM34.3,40.93A2.91,2.91,0,0,0,32,38.09a4.24,4.24,0,0,1-.64,5.75A2.91,2.91,0,0,0,34.3,40.93Zm6.3,1.19H35.24a4.27,4.27,0,0,1-8.24,0H21.64v8.05a2.41,2.41,0,0,1-2.4,2.4H2.41A2.41,2.41,0,0,1,0,50.17V33.34a2.41,2.41,0,0,1,2.41-2.41H19.24a2.41,2.41,0,0,1,2.4,2.41v7h5.27a4.26,4.26,0,0,1,3.14-3.45V21.63H22.7a2.4,2.4,0,0,1-2.4-2.4V2.4A2.41,2.41,0,0,1,22.7,0H39.54a2.41,2.41,0,0,1,2.4,2.4V19.23a2.4,2.4,0,0,1-2.4,2.4H31.83V36.81a4.26,4.26,0,0,1,3.5,3.52H40.6v-7A2.4,2.4,0,0,1,43,30.93H59.84a2.41,2.41,0,0,1,2.4,2.41V50.17a2.41,2.41,0,0,1-2.4,2.4H43a2.4,2.4,0,0,1-2.4-2.4ZM38.43,20.21a2.09,2.09,0,0,0,2.09-2.09V3.51a2.08,2.08,0,0,0-2.09-2.08H23.8a2.08,2.08,0,0,0-2.08,2.08V18.12a2.09,2.09,0,0,0,2.08,2.09Z"/></g></g></svg>