<svg xmlns="http://www.w3.org/2000/svg" viewBox="0 0 52.68 52.46"><defs><style>.cls-1{fill:#414042;}</style></defs><title>Asset 28</title><g id="Layer_2" data-name="Layer 2"><g id="data_analytics_and_network_icons" data-name="data analytics and network icons"><path class="cls-1" d="M43.67,37.22a6.23,6.23,0,1,0-6.23,6.23A6.22,6.22,0,0,0,43.67,37.22Zm.39-10.54,2.19-2.2,3.93,3.94L48,30.61a12.47,12.47,0,0,1,1.59,3.83h3.1V40h-3.1A12.86,12.86,0,0,1,48,43.84L50.18,46,46.25,50l-2.19-2.19a12.57,12.57,0,0,1-3.83,1.59v3.1H34.66v-3.1a12.47,12.47,0,0,1-3.83-1.59L28.64,50,24.7,46l2.2-2.19A12.14,12.14,0,0,1,25.31,40h-3.1V34.44h3.1A12.14,12.14,0,0,1,26.9,30.6l-2.2-2.18,3.94-3.94,2.19,2.2a12.23,12.23,0,0,1,3.83-1.59V22h5.57v3.1A12.33,12.33,0,0,1,44.06,26.68Z"/><path class="cls-1" d="M3.3,0H34.14a3.3,3.3,0,0,1,3.3,3.3V19.07A18.15,18.15,0,0,0,22.09,46.9H3.3A3.29,3.29,0,0,1,0,43.61V3.3A3.3,3.3,0,0,1,3.3,0ZM22.21,7.7H4.53v3H22.21Zm0,5.78H4.53v3H22.21ZM17.12,35V32H4.53v3Zm5.09-15.23H4.53v3H22.21Zm-5.09,6.05H4.53v3H17.12Z"/></g></g></svg>