<svg xmlns="http://www.w3.org/2000/svg" viewBox="0 0 51.15 48.32"><defs><style>.cls-1{fill:#414042;}</style></defs><title>Asset 71</title><g id="Layer_2" data-name="Layer 2"><g id="data_analytics_and_network_icons" data-name="data analytics and network icons"><path class="cls-1" d="M44,16.41s7.11-2.16,7.11,6.25V39.05S50.93,48.32,41,48.32s-21.78-5-21.78-5H11v-17s5.83-.22,6.9-3.67S22.68,0,22.68,0s8.41-.65,8.2,5.18a39.21,39.21,0,0,1-2.59,11.64s-.21,4.1,4.53,3A115.16,115.16,0,0,0,44,16.41Z"/><path class="cls-1" d="M.12,23.31H5.85a3.76,3.76,0,0,1,3.76,3.76V42.63a3.76,3.76,0,0,1-3.76,3.76H0V23.32Z"/></g></g></svg>