<svg xmlns="http://www.w3.org/2000/svg" viewBox="0 0 54.21 53.1"><defs><style>.cls-1{fill:#414042;}</style></defs><title>Asset 56</title><g id="Layer_2" data-name="Layer 2"><g id="data_analytics_and_network_icons" data-name="data analytics and network icons"><path class="cls-1" d="M47.33,30.51a.54.54,0,0,0,.56-.53V24.07a.55.55,0,0,0-.56-.53H39.06a.56.56,0,0,0-.57.53V30a.55.55,0,0,0,.57.53Zm-32.26,0a.55.55,0,0,0,.57-.53V24.07a.56.56,0,0,0-.57-.53H6.8a.55.55,0,0,0-.56.53V30a.54.54,0,0,0,.56.53Zm16-23.08H22.82a.55.55,0,0,0-.56.54v5.91a.55.55,0,0,0,.56.53h8.27a.55.55,0,0,0,.56-.53V8A.55.55,0,0,0,31.09,7.43Zm0,16.11H22.86a.55.55,0,0,0-.56.53V30a.54.54,0,0,0,.56.53h8.27A.55.55,0,0,0,31.7,30V24.07A.56.56,0,0,0,31.13,23.54ZM26.3,15.6H21.8a.71.71,0,0,1-.71-.71V7a.7.7,0,0,1,.71-.71H32.19A.7.7,0,0,1,32.9,7v7.93a.71.71,0,0,1-.71.71H27.68v6.75h4.56a.71.71,0,0,1,.71.71v3.28h4.37V23.06a.71.71,0,0,1,.71-.71h10.4a.7.7,0,0,1,.71.71V31a.71.71,0,0,1-.71.72H38a.71.71,0,0,1-.71-.72V27.72H33V31a.71.71,0,0,1-.71.72H21.84a.71.71,0,0,1-.71-.72V27.72H16.89V31a.71.71,0,0,1-.71.72H5.78A.71.71,0,0,1,5.07,31V23.06a.71.71,0,0,1,.71-.71h10.4a.71.71,0,0,1,.71.71v3.28h4.24V23.06a.71.71,0,0,1,.71-.71H26.3Z"/><rect class="cls-1" x="18.96" y="44.84" width="16.29" height="2.68"/><path class="cls-1" d="M35.83,53.1H18.38c-2.14,0-3.88-1.13-3.88-2.52v-2H39.71v2C39.71,52,38,53.1,35.83,53.1Z"/><path class="cls-1" d="M29.45,42a1.23,1.23,0,1,0,0-2.46H24.76a1.23,1.23,0,0,0-.86.36,1.2,1.2,0,0,0-.37.87A1.24,1.24,0,0,0,24.76,42ZM0,0H54.21V43.73H0ZM52.21,1.79H2V37.48H52.21Z"/></g></g></svg>