<svg xmlns="http://www.w3.org/2000/svg" viewBox="0 0 54.66 55.29"><defs><style>.cls-1{fill:#414042;}</style></defs><title>Asset 12</title><g id="Layer_2" data-name="Layer 2"><g id="data_analytics_and_network_icons" data-name="data analytics and network icons"><path class="cls-1" d="M21.29,37.92H24.1V36.61H21.29Zm3.77-3.31v9.55h2.82V34.61Zm29.6-7A27.49,27.49,0,0,1,27.33,55.29,27.49,27.49,0,0,1,0,27.64H27.33V0A27.49,27.49,0,0,1,54.66,27.64Zm-26.78,5H25.06V34h2.82Zm16.38-3.45v15h2.81v-15Zm-12.48,15v-15H29v15Zm0-15.6V27.25H29v1.31ZM24.1,38.73H21.29v5.43H24.1ZM43.18,33.3H40.36V44.16h2.82Zm3.89-4.74V27.25H44.26v1.31Zm-6.71,4.08h2.82V31.33H40.36Zm-1,2.72H36.59v1.31H39.4Zm-2.81,2.06v6.74H39.4V37.42Zm-1-12.37v-1.3H32.74v1.3Zm0,19.11V25.81H32.74V44.16Z"/><path class="cls-1" d="M22.13,1.35V23.68H.06A22.2,22.2,0,0,1,22.13,1.35Z"/></g></g></svg>