<svg xmlns="http://www.w3.org/2000/svg" viewBox="0 0 49.68 55.74"><defs><style>.cls-1{fill:#414042;}</style></defs><title>Asset 90</title><g id="Layer_2" data-name="Layer 2"><g id="data_analytics_and_network_icons" data-name="data analytics and network icons"><rect class="cls-1" x="35.45" y="11.99" width="2.88" height="16.27"/><rect class="cls-1" x="31.49" y="18" width="2.88" height="10.25"/><path class="cls-1" d="M13.57,7.54a20.31,20.31,0,1,1,5.51,30.29A3.68,3.68,0,0,1,18.26,40L6.66,54.35A3.75,3.75,0,0,1,.83,49.63l11.6-14.34a3.75,3.75,0,0,1,2-1.26A20.31,20.31,0,0,1,13.57,7.54ZM29.42,35A14.91,14.91,0,1,0,14.51,20.12,14.91,14.91,0,0,0,29.42,35Z"/><rect class="cls-1" x="27.54" y="20.12" width="2.88" height="8.13"/><rect class="cls-1" x="23.68" y="18" width="2.88" height="10.25"/><rect class="cls-1" x="19.73" y="24.19" width="2.88" height="4.06"/></g></g></svg>