<svg xmlns="http://www.w3.org/2000/svg" viewBox="0 0 57.74 59.67"><defs><style>.cls-1{fill:#414042;}</style></defs><title>Asset 48</title><g id="Layer_2" data-name="Layer 2"><g id="data_analytics_and_network_icons" data-name="data analytics and network icons"><path class="cls-1" d="M42.82,46.39H7L0,21H7.34v3.34H4.39L9.57,43.06H40.09L44.19,23l1.09-5.36.54-2.67.28-1.35.13-.67a6.83,6.83,0,0,1,.28-.93A6.43,6.43,0,0,1,48.77,9.1,7,7,0,0,1,52.1,7.92a7.86,7.86,0,0,1,.83,0h4.81V11.2H53a4.58,4.58,0,0,0-.53,0,3.15,3.15,0,0,0-2.83,2,3.86,3.86,0,0,0-.12.38l-.13.67-.28,1.34-.54,2.68-1.09,5.36Z"/><rect class="cls-1" x="38.09" y="20.95" width="3.36" height="3.35"/><path class="cls-1" d="M37.64,57.18a3.7,3.7,0,1,0-3.7-3.7A3.7,3.7,0,0,0,37.64,57.18Zm0-9.89a6.19,6.19,0,1,1-6.18,6.19A6.19,6.19,0,0,1,37.64,47.29Z"/><rect class="cls-1" x="32.18" width="4.2" height="27.91"/><rect class="cls-1" x="26.4" y="10.32" width="4.2" height="17.59"/><rect class="cls-1" x="20.64" y="13.96" width="4.2" height="13.95"/><rect class="cls-1" x="15.01" y="10.32" width="4.2" height="17.59"/><path class="cls-1" d="M13.08,57.18a3.7,3.7,0,1,0-3.7-3.7A3.7,3.7,0,0,0,13.08,57.18Zm6.18-3.7a6.19,6.19,0,1,1-6.18-6.19A6.18,6.18,0,0,1,19.26,53.48Z"/><rect class="cls-1" x="9.24" y="20.94" width="4.2" height="6.97"/></g></g></svg>