<svg xmlns="http://www.w3.org/2000/svg" viewBox="0 0 51.63 50.57"><defs><style>.cls-1{fill:#414042;}</style></defs><title>Asset 66</title><g id="Layer_2" data-name="Layer 2"><g id="data_analytics_and_network_icons" data-name="data analytics and network icons"><path class="cls-1" d="M43.94,22.09A9.08,9.08,0,0,1,40.79,29V15.22A9.1,9.1,0,0,1,43.94,22.09Z"/><path class="cls-1" d="M39.63,29.8a9.55,9.55,0,0,1-1.5.75V13.63a9.49,9.49,0,0,1,1.5.74Z"/><path class="cls-1" d="M35.48,13a9.38,9.38,0,0,1,1.5.24V30.91a9.35,9.35,0,0,1-1.5.22Z"/><path class="cls-1" d="M34.32,31.15h-1.5V13.27a8.35,8.35,0,0,1,1.5-.22Z"/><path class="cls-1" d="M31.66,31.17l-3.63,0V8.51A8.17,8.17,0,0,1,31.66,13Z"/><path class="cls-1" d="M26.88,31.2h-1.5V7.51a7.82,7.82,0,0,1,1.5.44Z"/><path class="cls-1" d="M24.22,7.39V31.22l-7.59,0-.6,0V13.05a8.23,8.23,0,0,1,7.83-5.68Z"/><rect class="cls-1" x="18.06" y="42.71" width="15.51" height="2.54"/><path class="cls-1" d="M13.81,46.3h24v1.87c0,1.33-1.65,2.4-3.7,2.4H17.51c-2,0-3.7-1.07-3.7-2.4Z"/><path class="cls-1" d="M14.87,14.82V31.07a8.44,8.44,0,0,1-1.5-.47V15.29A8.44,8.44,0,0,1,14.87,14.82Z"/><path class="cls-1" d="M12.22,15.9V30a8.31,8.31,0,0,1,0-14.09Z"/><path class="cls-1" d="M28.05,39.94a1.17,1.17,0,1,0,0-2.33H23.58a1.18,1.18,0,0,0-1.17,1.16,1.17,1.17,0,0,0,1.17,1.17ZM49.72,1.69H1.9v34H49.72Zm1.91,40H0V0H51.63Z"/></g></g></svg>