<svg xmlns="http://www.w3.org/2000/svg" viewBox="0 0 53.4 53.41"><defs><style>.cls-1{fill:#414042;}</style></defs><title>Asset 67</title><g id="Layer_2" data-name="Layer 2"><g id="data_analytics_and_network_icons" data-name="data analytics and network icons"><path class="cls-1" d="M50.86,21.59H49.35A23.22,23.22,0,0,0,31.76,4V2.49A24.71,24.71,0,0,1,50.86,21.59Z"/><path class="cls-1" d="M49.35,31.7h1.51a24.71,24.71,0,0,1-19.1,19.1V49.29A23.25,23.25,0,0,0,49.35,31.7Z"/><rect class="cls-1" x="47.69" y="23.79" width="5.72" height="5.72"/><path class="cls-1" d="M43.07,27.52h-8.3L27.2,42.93l-5-24.32L16.76,29.18H10.33a1.61,1.61,0,0,1,0-3.21h4.48L23.5,9l4.95,24.06,4.31-8.78H43.07a1.61,1.61,0,0,1,0,3.21Z"/><rect class="cls-1" x="23.84" y="47.69" width="5.72" height="5.72"/><rect class="cls-1" x="23.84" width="5.72" height="5.72"/><path class="cls-1" d="M2.54,31.7H4.06A23.22,23.22,0,0,0,21.65,49.29V50.8A24.71,24.71,0,0,1,2.54,31.7Z"/><path class="cls-1" d="M4.06,21.59H2.54A24.71,24.71,0,0,1,21.65,2.49V4A23.19,23.19,0,0,0,4.06,21.59Z"/><rect class="cls-1" y="23.79" width="5.71" height="5.72"/></g></g></svg>