<svg xmlns="http://www.w3.org/2000/svg" viewBox="0 0 59.16 54.35"><defs><style>.cls-1{fill:#414042;}</style></defs><title>Asset 22</title><g id="Layer_2" data-name="Layer 2"><g id="data_analytics_and_network_icons" data-name="data analytics and network icons"><path class="cls-1" d="M59.16,51H45.55V46.5a3.78,3.78,0,0,0-1.28-2.64l-5.52-1.44,3.88-1L44,37.53c-1.38-.56-1.94-3.05-1.94-3.05a59.27,59.27,0,0,1-1-9c0-3.88,5.82-4.16,5.82-4.16H47s5.81.28,5.81,4.16a59.27,59.27,0,0,1-1,9s-.55,2.49-1.94,3.05l1.39,3.87,6.89,1.8a3,3,0,0,1,1,2.08Z"/><path class="cls-1" d="M40.7,5.56A20.59,20.59,0,0,0,25.61,3.15c-.28.07-.66-.45-.84-1.15S24.7.65,25,.57A23.27,23.27,0,0,1,52.54,17c.08.32-.42.73-1.13.91s-1.34.09-1.42-.2A20.53,20.53,0,0,0,40.7,5.56Z"/><path class="cls-1" d="M25.75,6.76a17.75,17.75,0,0,1,21,12.52c.07.25-.45.6-1.16.78s-1.32.15-1.38-.06A15.11,15.11,0,0,0,26.33,9.34c-.21.05-.52-.49-.71-1.19S25.5,6.82,25.75,6.76Z"/><path class="cls-1" d="M40.38,21.57c-.7.18-1.31.21-1.35.08a9.87,9.87,0,0,0-11.69-7c-.14,0-.39-.52-.57-1.23s-.19-1.31,0-1.35a12.53,12.53,0,0,1,14.82,8.84C41.63,21.11,41.09,21.39,40.38,21.57Z"/><path class="cls-1" d="M33.75,54.35H14.8V47.5A3.57,3.57,0,0,1,16,45l8.32-2.17L26,38.15c-1.67-.67-2.34-3.67-2.34-3.67a71.56,71.56,0,0,1-1.17-10.87c0-4.68,7-5,7-5h.07s7,.33,7,5a71.56,71.56,0,0,1-1.17,10.87s-.67,3-2.34,3.67l1.67,4.68L43.06,45a3.57,3.57,0,0,1,1.21,2.5v6.85Z"/><path class="cls-1" d="M8.72,51H0V45.28A3,3,0,0,1,1,43.2l6.89-1.8,1.39-3.87C7.89,37,7.34,34.48,7.34,34.48a59.27,59.27,0,0,1-1-9c0-3.88,5.82-4.16,5.82-4.16h.05s5.82.28,5.82,4.16a59.27,59.27,0,0,1-1,9s-.56,2.49-1.94,3.05l1.38,3.87,3.88,1-5.52,1.44a3.78,3.78,0,0,0-1.28,2.64V51Z"/></g></g></svg>