<svg xmlns="http://www.w3.org/2000/svg" viewBox="0 0 49.85 55.93"><defs><style>.cls-1{fill:#414042;}</style></defs><title>Asset 88</title><g id="Layer_2" data-name="Layer 2"><g id="data_analytics_and_network_icons" data-name="data analytics and network icons"><path class="cls-1" d="M39.67,19.21a3.09,3.09,0,1,1-1.91-3.93A3.08,3.08,0,0,1,39.67,19.21Z"/><path class="cls-1" d="M33.4,24.08a2.65,2.65,0,1,1,1.65,3.37A2.65,2.65,0,0,1,33.4,24.08Z"/><path class="cls-1" d="M45.32,33.21A20.41,20.41,0,0,1,19.15,38a3.72,3.72,0,0,1-.83,2.18L6.69,54.54A3.76,3.76,0,1,1,.84,49.8L12.47,35.42a3.74,3.74,0,0,1,2-1.27,20.38,20.38,0,1,1,30.88-.94Zm-.83-13a15,15,0,1,0-15,15A15,15,0,0,0,44.49,20.19Z"/><path class="cls-1" d="M29.15,27.79a2.36,2.36,0,1,1,1.46,3A2.35,2.35,0,0,1,29.15,27.79Z"/><path class="cls-1" d="M34.68,13.8a3.32,3.32,0,1,1-2.06-4.23A3.32,3.32,0,0,1,34.68,13.8Z"/><path class="cls-1" d="M27,11.43a.69.69,0,1,1-.88.42A.69.69,0,0,1,27,11.43Z"/><path class="cls-1" d="M24,28a2.18,2.18,0,1,1,1.35,2.77A2.18,2.18,0,0,1,24,28Z"/><path class="cls-1" d="M24.9,11.87a1.05,1.05,0,1,1-1.34.65A1.05,1.05,0,0,1,24.9,11.87Z"/><path class="cls-1" d="M22.56,13.53a1.32,1.32,0,1,1-1.68.82A1.33,1.33,0,0,1,22.56,13.53Z"/><path class="cls-1" d="M20.07,25.34a1.92,1.92,0,1,1,1.19,2.44A1.91,1.91,0,0,1,20.07,25.34Z"/><path class="cls-1" d="M18.87,17.28a1.57,1.57,0,1,1,3,1,1.57,1.57,0,0,1-3-1Z"/><path class="cls-1" d="M18.35,21.33a1.82,1.82,0,0,1,2.3-1.12,1.8,1.8,0,1,1-2.3,1.12Z"/></g></g></svg>