<svg xmlns="http://www.w3.org/2000/svg" viewBox="0 0 66.35 45.29"><defs><style>.cls-1{fill:#414042;}</style></defs><title>Asset 25</title><g id="Layer_2" data-name="Layer 2"><g id="data_analytics_and_network_icons" data-name="data analytics and network icons"><path class="cls-1" d="M61,33.28a5.95,5.95,0,0,0-11.67-.82,6.38,6.38,0,0,0-2.19-.38,6.55,6.55,0,0,0-4.41,1.72l-4.72-1.93a4.77,4.77,0,0,0,.07-.76,4.37,4.37,0,0,0-3.45-4.27V17.19l5.51,0a6.54,6.54,0,0,0,0-13.08A6.28,6.28,0,0,0,38,4.46a6,6,0,0,0-11.68.82,6,6,0,0,0,.7,12l5.8,0v9.63a4.37,4.37,0,0,0-3.45,4.27,4.81,4.81,0,0,0,.12,1L24.28,34.6A6.56,6.56,0,0,0,17,32.5a6,6,0,0,0-11.67.83,6,6,0,0,0,.69,12c3.11,0,9.92-.08,13.16-.08a6.55,6.55,0,0,0,6.06-9l5.07-2.42a4.37,4.37,0,0,0,7.06-.2l4.21,1.72a6.47,6.47,0,0,0-.92,3.32,6.54,6.54,0,0,0,6.54,6.54c3.24,0,10.06.08,13.17.08a6,6,0,0,0,.69-12Z"/></g></g></svg>