<svg xmlns="http://www.w3.org/2000/svg" viewBox="0 0 34.7 57.04"><defs><style>.cls-1{fill:#414042;}</style></defs><title>Asset 100</title><g id="Layer_2" data-name="Layer 2"><g id="data_analytics_and_network_icons" data-name="data analytics and network icons"><rect class="cls-1" x="21.24" y="45.98" width="1.35" height="1.35"/><rect class="cls-1" x="18.63" y="45.98" width="1.36" height="1.35"/><path class="cls-1" d="M23.52,24.59a6.17,6.17,0,1,0-6.17,6.17A6.17,6.17,0,0,0,23.52,24.59Zm-4.6,17.1a1.57,1.57,0,1,1-3.14,0V34a1.59,1.59,0,0,1,.3-.93,8.53,8.53,0,1,1,2.54,0,1.59,1.59,0,0,1,.3.93Z"/><rect class="cls-1" x="15.88" y="45.98" width="1.36" height="1.35"/><rect class="cls-1" x="13.28" y="45.98" width="1.36" height="1.35"/><path class="cls-1" d="M4.58,6.71H30.12v6H4.58Zm24.85.68H5.27v4.67H29.43Z"/><path class="cls-1" d="M32.9,3.8H1.8V49.11H32.9ZM3.5,0H31.19A3.43,3.43,0,0,1,34.7,3.33V53.71A3.43,3.43,0,0,1,31.19,57H3.5A3.42,3.42,0,0,1,0,53.71V3.33A3.42,3.42,0,0,1,3.5,0ZM17.35,55.65a2.07,2.07,0,1,0-2.07-2.07A2.07,2.07,0,0,0,17.35,55.65Z"/></g></g></svg>