<svg xmlns="http://www.w3.org/2000/svg" viewBox="0 0 66.82 44.82"><defs><style>.cls-1{fill:#414042;}</style></defs><title>Asset 33</title><g id="Layer_2" data-name="Layer 2"><g id="data_analytics_and_network_icons" data-name="data analytics and network icons"><path class="cls-1" d="M49.82,10.61a16.88,16.88,0,0,0-5.67,1,15.48,15.48,0,0,0-30.36,2.14,15.6,15.6,0,0,0-6.65,28.6V41.05A2.42,2.42,0,0,1,8,39.36l5.6-1.46,1.13-3.15c-1.13-.46-1.58-2.48-1.58-2.48A48.1,48.1,0,0,1,12.32,25c0-3.15,4.73-3.38,4.73-3.38h.05s4.73.23,4.73,3.38A48.1,48.1,0,0,1,21,32.27s-.45,2-1.58,2.48l1.13,3.15,3.15.82-4.49,1.17a3.07,3.07,0,0,0-1,2.15v2.78h1.28v-2a2.92,2.92,0,0,1,1-2L27.23,39l1.36-3.81c-1.36-.54-1.9-3-1.9-3a58,58,0,0,1-1-8.83c0-3.8,5.71-4.07,5.71-4.07h.05s5.71.27,5.71,4.07a57.42,57.42,0,0,1-1,8.83s-.54,2.45-1.9,3L35.71,39l6.76,1.76a2.93,2.93,0,0,1,1,2v1.81h1.21V42a3.07,3.07,0,0,0-1-2.15l-4.49-1.17,3.15-.82,1.13-3.16c-1.13-.45-1.58-2.47-1.58-2.47A48.1,48.1,0,0,1,41,24.92c0-3.15,4.73-3.38,4.73-3.38h0s4.73.23,4.73,3.38a48.1,48.1,0,0,1-.79,7.32s-.45,2-1.58,2.47l1.13,3.16,5.6,1.46A2.42,2.42,0,0,1,55.73,41v2.54a17,17,0,0,0-5.91-32.95Z"/></g></g></svg>