<svg xmlns="http://www.w3.org/2000/svg" viewBox="0 0 68.26 61.71"><defs><style>.cls-1{fill:#414042;}</style></defs><title>Asset 4</title><g id="Layer_2" data-name="Layer 2"><g id="data_analytics_and_network_icons" data-name="data analytics and network icons"><path class="cls-1" d="M58,49.35,51.34,46l-7.91,3.48,6.69,3.38a1.58,1.58,0,0,1,.27.18l8-3.52A1.91,1.91,0,0,1,58,49.35ZM41.47,56.92l8-3.52a1.78,1.78,0,0,1-.36-.14l-6.69-3.38-7.91,3.48,6.69,3.38A1.58,1.58,0,0,1,41.47,56.92Zm-1.28.26L33.5,53.8l-7.56,3.32a2.67,2.67,0,0,1-.4.13l7.05,3.57,8-3.5A2,2,0,0,1,40.19,57.18ZM16.82,45.36,10.13,42a.71.71,0,0,1-.27-.18l-8,3.5,7.05,3.56a2.28,2.28,0,0,1,.32-.18Zm.33,7.32,7.56-3.32-7-3.55-7.56,3.32a3.17,3.17,0,0,1-.4.14l7.09,3.58A1.49,1.49,0,0,1,17.15,52.68Zm42.16-3.59,5-2.22A19.35,19.35,0,0,1,68,45.59a15.3,15.3,0,0,1-3.27-1.32L60.22,42a2.13,2.13,0,0,1-.31.18l-7.56,3.32L59,48.9A1.17,1.17,0,0,1,59.31,49.09Zm-26.7,4.26-7-3.54L18,53.13a2.55,2.55,0,0,1-.39.13l7.09,3.59a1,1,0,0,1,.31-.18Zm26.2-13,6.87,3.47c1.68.85,2.82,1.64,2.54,1.76.24.13-1.1.9-3,1.74L32.48,61.71,0,45.29l13.73-6,.84.47-3.8,1.67a2.24,2.24,0,0,1,.36.14l6.69,3.38,3.37-1.48.84.47-3.32,1.46,7,3.54,2.94-1.29.84.48-2.89,1.26,7,3.55,7.91-3.48L40,48.65l1-.44,1.55.78,7.91-3.48-1.55-.78,1-.44,1.56.78L59,41.75a2.67,2.67,0,0,1,.4-.13l-1.61-.82Z"/><polygon class="cls-1" points="55.79 5.25 53.7 8.97 51.65 5.23 55.79 5.25"/><path class="cls-1" d="M52.41,10.7A4,4,0,1,0,50,5.59,4,4,0,0,0,52.41,10.7ZM47.24,4.59a6.94,6.94,0,1,1,7.32,9.25L48.45,21.7l.3-9.95A6.94,6.94,0,0,1,47.24,4.59Z"/><polygon class="cls-1" points="50.39 43.02 46.04 44.59 46 23.67 50.39 23.67 50.39 43.02"/><polygon class="cls-1" points="44.91 44.85 35.79 48.09 35.79 4.81 44.91 9.73 44.91 44.85"/><path class="cls-1" d="M34.67,4.2V48.44l-10.25-5V9Zm-6.94,18v-5l-1.88.24v4.79Zm.84-6.11,1.88-.24V9l-1.88.89Zm1.88,7.08H28.57V37.33l1.88.92Zm0-1V16.82l-1.88.23v5.13Zm2.79-6.69V7.72l-1.94.92v7.09Zm0,24.13V23.15H31.3V38.66Zm0-17.44V16.47l-1.94.24v5.47Zm-7.39-5.77,1.88-.24V10.31l-1.88.89Zm1.88,6.74H25.85V36l1.88.93Z"/><polygon class="cls-1" points="23.4 18.22 23.4 42.97 17.09 39.41 17.09 20.66 23.4 18.22"/></g></g></svg>