<svg xmlns="http://www.w3.org/2000/svg" viewBox="0 0 64.06 46.59"><defs><style>.cls-1{fill:#414042;}</style></defs><title>Asset 51</title><g id="Layer_2" data-name="Layer 2"><g id="data_analytics_and_network_icons" data-name="data analytics and network icons"><path class="cls-1" d="M3.5,0H60.57V39.6H3.5ZM58.32,37.15V2.45H5.74v34.7Z"/><polygon class="cls-1" points="64.06 44.23 45.19 44.23 18.87 44.23 0 44.23 3.5 41 32.03 41 60.57 41 64.06 44.23"/><path class="cls-1" d="M61.61,46.59H2.45C1.1,46.59,0,46,0,45.17v-.32H64.06v.32C64.06,46,63,46.59,61.61,46.59Z"/><path class="cls-1" d="M22.35,19c0-.92,0-1.83.06-2.75l-1.11.21L20,16.72l-.26.23c.05,1.16.13,2.32.27,3.47.8.08,1.61.16,2.41.22C22.38,20.09,22.36,19.54,22.35,19Z"/><path class="cls-1" d="M19.11,20.33c-.1-.88-.17-1.77-.21-2.65l-2.09,1.84a1.52,1.52,0,0,0-.18.53l1.37.16Z"/><path class="cls-1" d="M33.65,22c-.08.52-.17,1-.26,1.53s-.25,1.22-.39,1.82c1.16-.11,2.32-.26,3.47-.45.13-.43.25-.86.37-1.29s.28-1.1.39-1.66C36,22,34.85,22,33.65,22Z"/><path class="cls-1" d="M43.26,21.55l-.94.1c-.1.38-.2.76-.32,1.14A12.24,12.24,0,0,0,43.26,21.55Z"/><path class="cls-1" d="M23.35,15.22a54.26,54.26,0,0,1,5.4-.55c0-1.23-.07-2.46-.13-3.69a34.42,34.42,0,0,0-4.83,1C23.59,13,23.45,14.12,23.35,15.22Z"/><path class="cls-1" d="M38.12,21.93c-.13.64-.28,1.28-.45,1.91-.08.3-.17.61-.26.91.92-.16,1.82-.35,2.73-.56l.66-.46c.22-.66.43-1.33.61-2l-.89.07C39.72,21.85,38.92,21.9,38.12,21.93Z"/><path class="cls-1" d="M30.43,14.6c.93,0,1.85,0,2.78,0,0-.11,0-.21,0-.31a27,27,0,0,0-.5-3.59h-.81c-.81,0-1.61.08-2.41.16.07,1.25.12,2.5.14,3.74Z"/><path class="cls-1" d="M28.76,18.27c0-.91,0-1.83,0-2.74-1.83.1-3.66.29-5.47.57-.06,1-.09,1.92-.08,2.88,0,.58,0,1.15.06,1.73q2.72.22,5.43.33C28.73,20.12,28.75,19.2,28.76,18.27Z"/><path class="cls-1" d="M29.56,21.07c.64,0,1.27.05,1.91.06l1.44,0c.1-.76.19-1.53.24-2.29a32,32,0,0,0,.09-3.39c-.93,0-1.86,0-2.79,0l-.83,0c0,.94,0,1.87,0,2.81S29.59,20.14,29.56,21.07Z"/><path class="cls-1" d="M31.42,25.48l.68,0c.16-.69.31-1.37.44-2.06.09-.45.17-.91.24-1.37l-1.33,0q-1,0-1.92-.06c-.05,1.21-.11,2.42-.19,3.63C30,25.55,30.72,25.53,31.42,25.48Z"/><path class="cls-1" d="M35.66,29.89l-.16,0c-.42.95-.88,1.89-1.36,2.81l-.36.66,3-1.32c.28-.45.56-.9.82-1.35a.83.83,0,0,0,.07-.13c-.06-.3-.13-.67-.19-1.05C36.88,29.67,36.28,29.79,35.66,29.89Z"/><path class="cls-1" d="M37.09,7.18a21.5,21.5,0,0,1,.81,2.38c.07.22.13.45.18.68a35.68,35.68,0,0,1,3.56.74l.73.2,0-.27c-.11-.93-.27-1.84-.47-2.75l-.4-.11A34.62,34.62,0,0,0,37.09,7.18Z"/><path class="cls-1" d="M31.1,6.08c-.08-.16-.15-.32-.24-.47a15.49,15.49,0,0,0-.79-1.36l-1.19.06c.09.65.16,1.3.23,2C29.77,6.18,30.44,6.12,31.1,6.08Z"/><path class="cls-1" d="M26.34,6.72c.64-.13,1.28-.25,1.92-.35-.07-.67-.15-1.34-.24-2-.73.05-1.38.09-1.92.11-.21.46-.41.93-.59,1.4s-.3.78-.44,1.17Z"/><path class="cls-1" d="M34.49,30.06a28,28,0,0,1-2.88.24c-.25.74-.5,1.46-.78,2.19s-.56,1.45-.87,2.16c-.07.17-.14.35-.22.52L32.46,34c.31-.54.62-1.09.92-1.65C33.77,31.58,34.14,30.83,34.49,30.06Z"/><path class="cls-1" d="M34,18.92c0,.75-.13,1.49-.23,2.23,1.21,0,2.42,0,3.63,0,.12-.69.23-1.38.31-2.07a29,29,0,0,0,.18-3.23c-1.26-.15-2.53-.25-3.8-.3A32.55,32.55,0,0,1,34,18.92Z"/><path class="cls-1" d="M20.77,12.91a6.94,6.94,0,0,0-.24,2.26v.56l.61-.12,1.35-.25q.12-1.59.39-3.15l-.47.14C21.85,12.53,21.31,12.71,20.77,12.91Z"/><path class="cls-1" d="M33.57,10.71A26.46,26.46,0,0,1,34,14.24l0,.39c1.27.06,2.54.16,3.81.31l0-.57A23.83,23.83,0,0,0,37.38,11l-.69-.09C35.65,10.8,34.61,10.74,33.57,10.71Z"/><path class="cls-1" d="M32.48,9.85v0a21.08,21.08,0,0,0-1-2.9c-.77,0-1.53.1-2.3.19q.09.84.15,1.68c0,.41.06.82.08,1.23.81-.08,1.62-.13,2.43-.16Z"/><path class="cls-1" d="M19.4,22.45c-.07-.42-.13-.83-.18-1.24l-1.32-.14-.84-.1a1.57,1.57,0,0,0,.39.18l1.36.45s-1,2.09-.82,2.45h0q.9.28,1.8.51C19.64,23.86,19.51,23.15,19.4,22.45Z"/><path class="cls-1" d="M38.29,11.15a22.39,22.39,0,0,1,.41,3.16c0,.24,0,.49,0,.73.35.05.69.09,1,.15.9.13,1.79.29,2.68.47l0-.63a26,26,0,0,0,0-2.93l-1-.29C40.39,11.54,39.34,11.32,38.29,11.15Z"/><path class="cls-1" d="M28.32,27.7l.09-1.27a42.66,42.66,0,0,1-4.52-.27q.15.86.33,1.71c.07.34.15.68.23,1a31,31,0,0,0,3.72.49Z"/><path class="cls-1" d="M29.17,34.31c.3-.7.59-1.41.86-2.12s.45-1.24.66-1.87q-.87,0-1.74,0c-.07.73-.15,1.46-.24,2.2s-.18,1.57-.29,2.35c0,.33-.09.65-.13,1l.27-.12.15-.33C28.87,35,29,34.66,29.17,34.31Z"/><path class="cls-1" d="M27.57,34.73c.1-.78.2-1.56.29-2.34s.16-1.43.23-2.15a32.62,32.62,0,0,1-3.42-.44c0,.11,0,.21.08.32a1.14,1.14,0,0,1,.22,0s.36.09,1.26,1.81c.5.93,1,2,1.33,2.83A0,0,0,0,0,27.57,34.73Z"/><path class="cls-1" d="M23.52,28.7c-.05-.22-.09-.44-.14-.65-.14-.67-.27-1.34-.38-2l-.85-.13c-.41-.06-.81-.14-1.21-.22.21.85.45,1.7.73,2.53l.33.09C22.5,28.46,23,28.58,23.52,28.7Z"/><path class="cls-1" d="M23.74,29.62c-.58-.12-1.16-.26-1.73-.41,0,.15.11.31.17.46l.27.7c.6-.09,1.07-.15,1.43-.19C23.83,30,23.79,29.81,23.74,29.62Z"/><path class="cls-1" d="M43.34,15.07c0,.26,0,.51,0,.77.83.19,1.66.39,2.48.62A12.11,12.11,0,0,0,46,13.33c-.86-.36-1.74-.68-2.63-1C43.37,13.27,43.38,14.17,43.34,15.07Z"/><path class="cls-1" d="M43.19,10.81c0,.21.05.42.06.63.89.28,1.75.58,2.61.92a8.47,8.47,0,0,0-1.1-3.28c-.64-.23-1.3-.45-1.95-.65C43,9.22,43.1,10,43.19,10.81Z"/><path class="cls-1" d="M22.74,7.75c.44-.16.88-.3,1.33-.43.19-.6.4-1.19.64-1.78.14-.35.28-.7.43-1-3.64.14-2.35,3.16-2.35,3.16Z"/><path class="cls-1" d="M21.37,30c-.13-.35-.25-.71-.38-1.06a29.72,29.72,0,0,1-3-1.09c-.33,1.3-.36,3.44,2.85,2.83l.78-.14Z"/><path class="cls-1" d="M20.67,27.92c-.25-.8-.47-1.62-.67-2.43-.65-.15-1.29-.32-1.93-.51,0,.2-.05.43-.08.7-.07.62.18.72.14,1.3C19,27.33,19.81,27.64,20.67,27.92Z"/><path class="cls-1" d="M31.63,5.21c.14.27.28.55.41.83a34.31,34.31,0,0,1,3.65.11l-.35-.66c-.21-.4-.44-.79-.68-1.18-1.23-.09-2.44-.1-3.59-.09C31.27,4.55,31.45,4.88,31.63,5.21Z"/><path class="cls-1" d="M42.36,6.63c.08.28.16.56.23.84.43.12.85.26,1.28.4a8.34,8.34,0,0,0-1.53-1.32S42.35,6.6,42.36,6.63Z"/><path class="cls-1" d="M28.67,21.9c-1.79-.07-3.57-.18-5.35-.32.09,1.24.24,2.47.43,3.69a39.1,39.1,0,0,0,4.72.3C28.55,24.35,28.62,23.12,28.67,21.9Z"/><path class="cls-1" d="M35.35,28.06c.3-.73.57-1.48.82-2.23-1.12.18-2.25.31-3.38.41-.15.62-.31,1.22-.49,1.83s-.27.91-.41,1.36c1-.05,2-.14,3-.29C35.06,28.78,35.21,28.43,35.35,28.06Z"/><path class="cls-1" d="M42.85,19.29c-.09.5-.19,1-.31,1.47L44,20.6a10.2,10.2,0,0,0,1.57-3.3c-.78-.22-1.57-.41-2.37-.59C43.14,17.57,43,18.44,42.85,19.29Z"/><path class="cls-1" d="M37.92,25.77a2.57,2.57,0,0,1,.33-.3l-1.12.2c-.29.92-.62,1.82-1,2.71l-.24.6c.5-.09,1-.19,1.48-.3A4.14,4.14,0,0,1,37.92,25.77Z"/><path class="cls-1" d="M31,29.46c.17-.54.34-1.08.49-1.62s.29-1,.42-1.53l-.42,0c-.73,0-1.46.07-2.19.08,0,.45-.07.9-.11,1.35s-.09,1.11-.14,1.66Q30,29.48,31,29.46Z"/><path class="cls-1" d="M22.86,25.15c-.18-1.2-.32-2.42-.4-3.64h-.05L20.1,21.3c0,.33.09.67.15,1,.13.82.29,1.64.47,2.46.52.11,1,.21,1.57.29C22.48,25.1,22.67,25.12,22.86,25.15Z"/><path class="cls-1" d="M36.1,5.08c.21.38.4.78.59,1.18a35.89,35.89,0,0,1,4.94,1c0-.12-.06-.23-.1-.35-.09-.32-.18-.63-.29-1a16.64,16.64,0,0,0-5.51-1.5C35.85,4.63,36,4.85,36.1,5.08Z"/><path class="cls-1" d="M38.76,15.91a26.34,26.34,0,0,1-.19,3.21c-.07.65-.17,1.3-.28,1.94.72,0,1.45-.07,2.17-.12l1.18-.09c.14-.57.26-1.14.37-1.71.16-.87.28-1.74.37-2.61-.91-.19-1.82-.36-2.74-.49Z"/><path class="cls-1" d="M32.41,6.89a22.2,22.2,0,0,1,.9,2.72l.06.24c1.14,0,2.28.09,3.42.22l.37,0-.09-.33a20.62,20.62,0,0,0-1-2.73A32.44,32.44,0,0,0,32.41,6.89Z"/><path class="cls-1" d="M24,11a34.27,34.27,0,0,1,4.6-.89l-.09-1.26c0-.55-.09-1.09-.14-1.63-.61.09-1.21.2-1.82.33s-1.19.29-1.77.45c-.22.7-.41,1.4-.58,2.1C24.1,10.41,24,10.71,24,11Z"/><path class="cls-1" d="M21.05,11.9c.36-.13.72-.25,1.09-.36l.9-.28c.09-.45.19-.9.29-1.35s.27-1.07.43-1.6c-.52.17-1,.35-1.54.55A32.24,32.24,0,0,0,21.05,11.9Z"/></g></g></svg>