<svg xmlns="http://www.w3.org/2000/svg" viewBox="0 0 44.34 57.79"><defs><style>.cls-1{fill:#414042;}</style></defs><title>Asset 47</title><g id="Layer_2" data-name="Layer 2"><g id="data_analytics_and_network_icons" data-name="data analytics and network icons"><path class="cls-1" d="M44.22,36c0,.49-.93.79-2,.67s-1.87-.55-1.83-1A29.83,29.83,0,0,0,14.57,3.79c-.42,0-.67-.94-.57-2S14.59-.06,15.08,0A33.67,33.67,0,0,1,44.22,36Z"/><path class="cls-1" d="M35.21,36.28c0,.37-.91.58-2,.47s-1.88-.46-1.85-.77A21.88,21.88,0,0,0,12.46,12.55c-.31,0-.47-.91-.37-2s.5-1.88.86-1.83A25.71,25.71,0,0,1,35.21,36.28Z"/><path class="cls-1" d="M11.66,16.51A18.13,18.13,0,0,1,27.37,35.93c0,.26-.9.38-1.95.27s-1.88-.37-1.87-.57A14.3,14.3,0,0,0,11.16,20.3c-.2,0-.28-.9-.17-1.95S11.4,16.48,11.66,16.51Z"/><path class="cls-1" d="M18.29,56.54,13,41.05a8.82,8.82,0,0,1-2.07.26,8.74,8.74,0,0,1-2.06-.26L3.59,56.54A1.84,1.84,0,0,1,.1,55.35L5.53,39.41a8.68,8.68,0,1,1,10.82,0l5.44,15.94a1.85,1.85,0,0,1-3.5,1.19Zm-.2-24.08a5,5,0,0,0-4.6-5,6.45,6.45,0,0,1,1.13,9.81A5.05,5.05,0,0,0,18.09,32.46Z"/></g></g></svg>