<svg xmlns="http://www.w3.org/2000/svg" viewBox="0 0 53.4 57.89"><defs><style>.cls-1{fill:#414042;}</style></defs><title>Asset 50</title><g id="Layer_2" data-name="Layer 2"><g id="data_analytics_and_network_icons" data-name="data analytics and network icons"><polygon class="cls-1" points="39.95 31.96 53.4 41.63 39.95 51.29 39.95 43.9 24.91 43.9 24.91 39.35 39.95 39.35 39.95 31.96"/><path class="cls-1" d="M34.37,28.79H24v1.66H34.37Zm2.57-14.21V35.83H0V14.58L18.47,25.21ZM34.37,31.86H24v1.67H34.37Z"/><polygon class="cls-1" points="36.94 13.56 0 13.56 0 10.62 18.47 0 36.94 10.62 36.94 13.56"/><polygon class="cls-1" points="13.45 38.55 13.45 45.94 28.48 45.94 28.48 50.5 13.45 50.5 13.45 57.89 0 48.22 13.45 38.55"/></g></g></svg>