<svg xmlns="http://www.w3.org/2000/svg" viewBox="0 0 59.42 47.34"><defs><style>.cls-1{fill:#414042;}</style></defs><title>Asset 5</title><g id="Layer_2" data-name="Layer 2"><g id="data_analytics_and_network_icons" data-name="data analytics and network icons"><path class="cls-1" d="M33.32,0h8.36V4.67a17.72,17.72,0,0,1,5.07,2.11l3.3-3.31L56,9.38l-3.3,3.3a17.72,17.72,0,0,1,2.09,5.07h4.67V26.1H54.75a18,18,0,0,1-2.09,5.07l3.3,3.3-5.91,5.91-3.3-3.31a17.47,17.47,0,0,1-2.06,1.07,21,21,0,0,0,.22-3c0-.2,0-.41,0-.62A14.6,14.6,0,1,0,24.77,14.76h-.25a20.93,20.93,0,0,0-3.38.28,18.08,18.08,0,0,1,1.21-2.36L19,9.38,25,3.47l3.3,3.31a17.84,17.84,0,0,1,5.07-2.11Z"/><path class="cls-1" d="M16.4,17.88a3,3,0,1,0-3,3A3,3,0,0,0,16.4,17.88Zm-6.11-5.11a5.71,5.71,0,0,1,1.71-.7V10.49h2.82v1.58a5.82,5.82,0,0,1,1.71.7l1.11-1.11,2,2-1.11,1.11a6.1,6.1,0,0,1,.7,1.71H20.8v2.82H19.22a5.92,5.92,0,0,1-.7,1.7l1.11,1.12-2,2L16.53,23a6.15,6.15,0,0,1-1.71.72v1.57H12V23.7A6,6,0,0,1,10.29,23L9.18,24.11l-2-2L8.3,21a5.94,5.94,0,0,1-.71-1.7H6V16.47H7.59a6.12,6.12,0,0,1,.71-1.71L7.19,13.65l2-2Z"/><path class="cls-1" d="M29.45,35.14a4.94,4.94,0,1,0-4.93,4.94A4.92,4.92,0,0,0,29.45,35.14ZM14.93,37.47h-2.6V32.83h2.6A9.67,9.67,0,0,1,16.1,30l-1.84-1.83,3.28-3.28,1.84,1.83a9.87,9.87,0,0,1,2.82-1.16V23h4.63v2.6a9.81,9.81,0,0,1,2.83,1.16l1.84-1.83,3.27,3.28L32.94,30a10,10,0,0,1,1.17,2.83h2.6v4.64h-2.6a10,10,0,0,1-1.17,2.82l1.83,1.84L31.5,45.41l-1.84-1.84a9.83,9.83,0,0,1-2.83,1.17v2.6H22.2v-2.6a9.89,9.89,0,0,1-2.82-1.17l-1.84,1.84-3.28-3.28,1.84-1.84A9.61,9.61,0,0,1,14.93,37.47Z"/><path class="cls-1" d="M8.46,30.76A2.44,2.44,0,1,0,6,33.19,2.44,2.44,0,0,0,8.46,30.76Zm-1.29,6H4.87V35.49a5.15,5.15,0,0,1-1.39-.57l-.91.9L1,34.2l.91-.91a4.5,4.5,0,0,1-.58-1.39H0V29.61H1.28a4.5,4.5,0,0,1,.58-1.39L1,27.31l1.62-1.62.91.9A4.85,4.85,0,0,1,4.87,26V24.73h2.3V26a4.85,4.85,0,0,1,1.39.57l.91-.9,1.62,1.62-.91.91a4.76,4.76,0,0,1,.58,1.39H12V31.9H10.76a4.76,4.76,0,0,1-.58,1.39l.91.91L9.47,35.82l-.91-.9a5.15,5.15,0,0,1-1.39.57Z"/></g></g></svg>