<svg xmlns="http://www.w3.org/2000/svg" viewBox="0 0 55.03 54.69"><defs><style>.cls-1{fill:#414042;}</style></defs><title>Asset 15</title><g id="Layer_2" data-name="Layer 2"><g id="data_analytics_and_network_icons" data-name="data analytics and network icons"><path class="cls-1" d="M49.5,10.63a2.07,2.07,0,1,1-2.06-2.06A2.06,2.06,0,0,1,49.5,10.63Z"/><path class="cls-1" d="M22.84,32l-5.9-2.25a5.17,5.17,0,1,1,.79-3.84,4.76,4.76,0,0,1,0,1.68l5.9,2.25a6.6,6.6,0,0,1,10.76-.81L39.89,26a7.5,7.5,0,0,1-.39-1.35A7.86,7.86,0,1,1,41,28l-5.47,3.1a5.14,5.14,0,0,1,.27,1,6.61,6.61,0,1,1-13,0Zm28.79-9.7A4.51,4.51,0,1,0,48,27.58,4.51,4.51,0,0,0,51.63,22.32ZM25.59,34a3.81,3.81,0,1,0,3-4.44A3.81,3.81,0,0,0,25.59,34Zm-10-7.63a3,3,0,1,0-2.37,3.48A3,3,0,0,0,15.58,26.34Z"/><rect class="cls-1" x="41.99" y="36.56" width="5.36" height="5.36" transform="translate(-8.87 65.11) rotate(-67.08)"/><path class="cls-1" d="M43.09,43.72a23.16,23.16,0,0,1-23.44,9.53l.55-1.32a21.75,21.75,0,0,0,21.59-8.76Z"/><path class="cls-1" d="M41.1,0A4.12,4.12,0,1,1,37,4.12,4.12,4.12,0,0,1,41.1,0Z"/><rect class="cls-1" x="30.09" y="7.34" width="5.36" height="5.36" transform="translate(10.8 36.31) rotate(-67.12)"/><path class="cls-1" d="M5.08,17.37A23.16,23.16,0,0,1,28.53,7.85L28,9.16A21.75,21.75,0,0,0,6.39,17.92Z"/><rect class="cls-1" x="12.7" y="48.5" width="5.36" height="5.36" transform="translate(-37.75 45.4) rotate(-67.07)"/><path class="cls-1" d="M11.47,48.25l-.56,1.31A23.21,23.21,0,0,1,1.39,26.1l1.31.55A21.77,21.77,0,0,0,11.47,48.25Z"/><rect class="cls-1" x="0.83" y="19.17" width="5.36" height="5.36" transform="translate(-17.98 16.57) rotate(-67.07)"/></g></g></svg>