<svg xmlns="http://www.w3.org/2000/svg" viewBox="0 0 62.02 48.16"><defs><style>.cls-1{fill:#414042;}</style></defs><title>Asset 77</title><g id="Layer_2" data-name="Layer 2"><g id="data_analytics_and_network_icons" data-name="data analytics and network icons"><path class="cls-1" d="M62,23.39c0,2.9-4.8,5.24-10.72,5.24a20.15,20.15,0,0,1-3.55-.3V13.85c0-2.67-2.87-5-7.17-6.31V5.24C40.58,2.35,45.38,0,51.3,0S62,2.35,62,5.24ZM58.87,5.3c0-2-3.39-3.7-7.57-3.7s-7.57,1.65-7.57,3.7S47.12,9,51.3,9,58.87,7.34,58.87,5.3Z"/><path class="cls-1" d="M46.21,40.73c0,4.1-6.81,7.43-15.22,7.43s-15.2-3.33-15.2-7.43V15c0-4.1,6.8-7.43,15.2-7.43S46.21,10.87,46.21,15ZM31,20.29c5.93,0,10.74-2.35,10.74-5.24S36.92,9.81,31,9.81s-10.73,2.34-10.73,5.24S25.06,20.29,31,20.29Z"/><path class="cls-1" d="M10.72,0c5.92,0,10.72,2.35,10.72,5.24v2.3c-4.31,1.31-7.17,3.64-7.17,6.31V28.33a20.15,20.15,0,0,1-3.55.3C4.8,28.63,0,26.29,0,23.39V5.24C0,2.35,4.8,0,10.72,0Zm0,9c4.18,0,7.56-1.65,7.56-3.69S14.9,1.6,10.72,1.6,3.15,3.25,3.15,5.3,6.54,9,10.72,9Z"/></g></g></svg>