<svg xmlns="http://www.w3.org/2000/svg" viewBox="0 0 60.75 43.79"><defs><style>.cls-1{fill:#414042;}</style></defs><title>Asset 13</title><g id="Layer_2" data-name="Layer 2"><g id="data_analytics_and_network_icons" data-name="data analytics and network icons"><polygon class="cls-1" points="42.8 13.2 49.76 7.08 47.02 4.04 60.75 0 55.28 13.22 52.52 10.14 41.8 19.57 37.79 12.81 22.85 28.18 18.6 19.05 5.52 30.33 5.52 24.89 20.03 12.37 24.06 21.03 38.59 6.08 42.8 13.2"/><path class="cls-1" d="M18.07,39.93a1.5,1.5,0,1,0-1.51,1.5A1.5,1.5,0,0,0,18.07,39.93Zm13.2,3.86H1.86a2,2,0,0,1-1.86-2V4.48A2,2,0,0,1,1.86,2.43H31.27a2,2,0,0,1,1.87,2.05v3.4l-2.53,2.39V5.18H2.52V37.07H30.61V23.24L33.14,21V41.74A2,2,0,0,1,31.27,43.79Z"/></g></g></svg>