<svg xmlns="http://www.w3.org/2000/svg" viewBox="0 0 17.98 16.98"><defs><style>.cls-1{fill:#414042;}</style></defs><title>Asset 60</title><g id="Layer_2" data-name="Layer 2"><g id="data_analytics_and_network_icons" data-name="data analytics and network icons"><path class="cls-1" d="M15.48,5.77S18,5,18,8v5.77A3.35,3.35,0,0,1,14.42,17a24,24,0,0,1-7.66-1.74H3.88v-6S5.93,9.18,6.31,8,8,0,8,0s2.95-.23,2.88,1.82A14.05,14.05,0,0,1,10,5.92S9.87,7.36,11.54,7,15.48,5.77,15.48,5.77Z"/><path class="cls-1" d="M2.06,16.3H0V8.2H2.06A1.32,1.32,0,0,1,3.38,9.51V15A1.32,1.32,0,0,1,2.06,16.3Z"/></g></g></svg>