<svg xmlns="http://www.w3.org/2000/svg" viewBox="0 0 65.6 55.43"><defs><style>.cls-1{fill:#414042;}</style></defs><title>Asset 7</title><g id="Layer_2" data-name="Layer 2"><g id="data_analytics_and_network_icons" data-name="data analytics and network icons"><path class="cls-1" d="M60.84,34.38a1.32,1.32,0,1,0-1.32,1.31A1.32,1.32,0,0,0,60.84,34.38Zm4.76-.54c0,4.17-4.32,7.54-9.64,7.54a12.52,12.52,0,0,1-1.86-.14l-5,7V39.13a6.8,6.8,0,0,1-2.77-5.29c0-4.16,4.32-7.54,9.64-7.54S65.6,29.68,65.6,33.84Zm-11.89.54a1.32,1.32,0,1,0-1.31,1.31A1.31,1.31,0,0,0,53.71,34.38Zm3.62,0A1.31,1.31,0,1,0,56,35.69,1.31,1.31,0,0,0,57.33,34.38Z"/><path class="cls-1" d="M48.1,51.3,52,45.88A3.57,3.57,0,0,1,52.71,48v7.46H20.65V48A3.89,3.89,0,0,1,22,45.25L31,42.89l1.81-5.09c-1.81-.73-2.55-4-2.55-4A78.31,78.31,0,0,1,29,22c0-5.09,7.63-5.45,7.63-5.45h.07s7.63.36,7.63,5.45A77.72,77.72,0,0,1,43.08,33.8s-.73,3.27-2.54,4l1.81,5.09,5.75,1.5Z"/><path class="cls-1" d="M24.85,19.3V33.07L17.31,22.48a18.36,18.36,0,0,1-2.8.21C6.5,22.69,0,17.61,0,11.34S6.5,0,14.51,0,29,5.08,29,11.34A10.25,10.25,0,0,1,24.85,19.3Zm-2-8.4a2.24,2.24,0,1,0-2.24,2.24A2.24,2.24,0,0,0,22.84,10.9Zm-12.18,0a2.24,2.24,0,1,0-2.24,2.24A2.24,2.24,0,0,0,10.66,10.9Zm6.19,0a2.25,2.25,0,1,0-2.25,2.24A2.24,2.24,0,0,0,16.85,10.9Z"/></g></g></svg>