<svg xmlns="http://www.w3.org/2000/svg" viewBox="0 0 72.65 45.93"><defs><style>.cls-1{fill:#414042;}</style></defs><title>Asset 6</title><g id="Layer_2" data-name="Layer 2"><g id="data_analytics_and_network_icons" data-name="data analytics and network icons"><path class="cls-1" d="M59.91,19.59,57,28.9,54,19.59a6.85,6.85,0,0,1-3.67-6.12,6.62,6.62,0,1,1,13.24,0A6.86,6.86,0,0,1,59.91,19.59Zm.86-6.12A3.81,3.81,0,1,0,57,17.39,3.86,3.86,0,0,0,60.77,13.47Z"/><polygon class="cls-1" points="54.99 11.8 58.94 11.8 56.97 15.48 54.99 11.8"/><polygon class="cls-1" points="15.46 7.21 20.97 7.21 18.21 12.34 15.46 7.21"/><path class="cls-1" d="M18.21,15a5.4,5.4,0,0,0,5.31-5.48,5.31,5.31,0,1,0-10.61,0A5.39,5.39,0,0,0,18.21,15Zm0-15a9.39,9.39,0,0,1,9.24,9.53,9.58,9.58,0,0,1-5.13,8.55l-4.11,13-4.1-13A9.58,9.58,0,0,1,9,9.53,9.38,9.38,0,0,1,18.21,0Z"/><path class="cls-1" d="M72.33,31.51a20.94,20.94,0,0,1-3.63-.71l-5-1.31a2,2,0,0,1-.32.15l-7.68,3,7.49,2a1.27,1.27,0,0,1,.3.11l5.11-2A28,28,0,0,1,72.33,31.51ZM46.65,36.15l7.49,2a2.14,2.14,0,0,1,.31.11l8.14-3.16a2.36,2.36,0,0,1-.4-.08L54.7,33ZM29.56,25.75l7.49,2,7.68-3,.41-.13-7.89-2.07-8.09,3.15A2.57,2.57,0,0,1,29.56,25.75ZM17.9,35.17l-7.49-2a1.27,1.27,0,0,1-.3-.11L2,36.23,9.9,38.31a2,2,0,0,1,.32-.15Zm-7.1,3.38,7.94,2.08a1.8,1.8,0,0,1,.31-.15l7.69-3L18.9,35.43l-7.69,3Zm33.84-2.26-7.85-2.06-8,3.13,7.84,2.06Zm-6.82-2.46,7.84,2.06,8-3.12L45.86,30.7Zm7.81,2.72-8,3.13,7.49,2a1.46,1.46,0,0,1,.3.11l8.14-3.16-.4-.08ZM20.5,29.27l7.49,2,8-3.13-7.49-2a1.86,1.86,0,0,1-.3-.12L20.1,29.2Zm8,13.93,7.89,2.07,8.1-3.15a1.67,1.67,0,0,1-.4-.08l-7.49-2-7.69,3Zm-.74-5.45-7.68,3a2.8,2.8,0,0,1-.41.13L27.57,43a2.38,2.38,0,0,1,.32-.16l7.68-3ZM28,31.9l-8,3.13,7.84,2.06,8-3.13ZM69.62,33l-33.28,13L0,36.37l16.86-6.55.18.57-6,2.34a2.36,2.36,0,0,1,.4.08l7.49,2,8-3.13L19.6,29.71l.35-1.1,17.33-6.74L55,26.54l.26.73-.42-.11a1.49,1.49,0,0,1-.31.15l-7.69,3,7.84,2.06,7.69-3,.4-.13-4.46-1.17.21-.61L69.72,30.4c1.88.49,3.18,1,2.89,1.1C72.89,31.57,71.55,32.23,69.62,33ZM44.87,30.44,37,28.38l-8,3.13,7.84,2.06ZM45.73,25l-7.68,3L45.89,30l7.68-3a2.8,2.8,0,0,1,.41-.13L46,24.84A1.76,1.76,0,0,1,45.73,25Z"/></g></g></svg>