<svg xmlns="http://www.w3.org/2000/svg" viewBox="0 0 26.72 14.69"><defs><style>.cls-1{fill:#414042;}</style></defs><title>Asset 59</title><g id="Layer_2" data-name="Layer 2"><g id="data_analytics_and_network_icons" data-name="data analytics and network icons"><path class="cls-1" d="M25.58,9a1.48,1.48,0,1,0-.51,2A1.49,1.49,0,0,0,25.58,9Zm0,2.82a2.39,2.39,0,0,1-3-.44l-5.31,3.2a.46.46,0,0,1-.64-.15.47.47,0,0,1,.16-.64l5.31-3.2a2.41,2.41,0,1,1,3.5,1.23Z"/><path class="cls-1" d="M14.58,2.41A1.48,1.48,0,1,0,13.1,3.89,1.48,1.48,0,0,0,14.58,2.41ZM13.1,0a2.41,2.41,0,0,1,.46,4.77V11a.47.47,0,1,1-.93,0V4.77A2.41,2.41,0,0,1,13.1,0Z"/><path class="cls-1" d="M1.64,11.06a1.48,1.48,0,1,0-.5-2A1.48,1.48,0,0,0,1.64,11.06ZM.35,8.55a2.4,2.4,0,0,1,3.3-.81,2.39,2.39,0,0,1,1,2.88L10,13.83a.46.46,0,0,1,.16.63.47.47,0,0,1-.64.16L4.19,11.41A2.4,2.4,0,0,1,.35,8.55Z"/></g></g></svg>