<svg xmlns="http://www.w3.org/2000/svg" viewBox="0 0 52.9 52.89"><defs><style>.cls-1{fill:#414042;}</style></defs><title>Asset 17</title><g id="Layer_2" data-name="Layer 2"><g id="data_analytics_and_network_icons" data-name="data analytics and network icons"><path class="cls-1" d="M31.45,2.46A24.46,24.46,0,0,1,50.37,21.38H48.88A23,23,0,0,0,31.45,4Z"/><path class="cls-1" d="M48.88,31.4h1.49A24.45,24.45,0,0,1,31.45,50.31v-1.5A23,23,0,0,0,48.88,31.4Z"/><rect class="cls-1" x="47.23" y="23.56" width="5.66" height="5.66"/><polygon class="cls-1" points="46.24 27.4 43.66 27.4 43.66 29.04 40.52 26.62 43.66 24.19 43.66 25.83 46.24 25.83 46.24 27.4"/><path class="cls-1" d="M15.25,23.85c2,1.8,6.28,3,11.2,3s9.15-1.24,11.21-3A3.31,3.31,0,0,1,39,26.29c0,3-5.6,5.46-12.51,5.46S13.94,29.3,13.94,26.29A3.29,3.29,0,0,1,15.25,23.85Z"/><path class="cls-1" d="M39,32.61c0,3-5.6,5.47-12.51,5.47s-12.51-2.45-12.51-5.47a3.29,3.29,0,0,1,1.31-2.43c2,1.8,6.28,3,11.2,3s9.15-1.23,11.21-3A3.31,3.31,0,0,1,39,32.61Z"/><polygon class="cls-1" points="28.88 43.6 27.23 43.6 27.23 46.18 25.66 46.18 25.66 43.6 24.02 43.6 26.45 40.46 28.88 43.6"/><polygon class="cls-1" points="25.66 6.83 27.23 6.83 27.23 9.41 28.88 9.41 26.45 12.55 24.02 9.41 25.66 9.41 25.66 6.83"/><path class="cls-1" d="M26.45,14.49C33.36,14.49,39,16.93,39,20s-5.6,5.47-12.51,5.47S13.94,23,13.94,20,19.54,14.49,26.45,14.49Zm0,.44c-4.24,0-7.68,1.5-7.68,3.36s3.44,3.35,7.68,3.35,7.67-1.51,7.67-3.35S30.68,14.93,26.45,14.93Z"/><rect class="cls-1" x="23.62" y="47.23" width="5.66" height="5.66"/><rect class="cls-1" x="23.62" width="5.66" height="5.66"/><path class="cls-1" d="M2.53,31.4H4A23,23,0,0,0,21.44,48.81v1.5A24.45,24.45,0,0,1,2.53,31.4Z"/><path class="cls-1" d="M21.44,2.47V4A23,23,0,0,0,4,21.38H2.53A24.44,24.44,0,0,1,21.44,2.47Z"/><polygon class="cls-1" points="6.66 25.44 9.24 25.44 9.24 23.8 12.38 26.23 9.24 28.66 9.24 27.02 6.66 27.02 6.66 25.44"/><rect class="cls-1" y="23.56" width="5.67" height="5.66"/></g></g></svg>