<svg xmlns="http://www.w3.org/2000/svg" viewBox="0 0 70.23 42.84"><defs><style>.cls-1{fill:#414042;}</style></defs><title>Asset 46</title><g id="Layer_2" data-name="Layer 2"><g id="data_analytics_and_network_icons" data-name="data analytics and network icons"><path class="cls-1" d="M42.22,17.36,35.12,6.21,28,17.36h4.07v2.48l-4.86,0a6.91,6.91,0,0,1-.81-13.78,6.86,6.86,0,0,1,13.45-1,7.54,7.54,0,1,1,2.52,14.64l-4.25,0V17.36Z"/><path class="cls-1" d="M32.09,27.93V19.84l6-.05v8.14Z"/><path class="cls-1" d="M35.12,37.42H0l15.16-4.53H55.07l15.16,4.53ZM54,33.87H16.24l-5.77,2.25H59.76Z"/><path class="cls-1" d="M67.17,42.84H3.06A3.06,3.06,0,0,1,0,39.78V39a3.23,3.23,0,0,1,.1-.76h70a3.23,3.23,0,0,1,.1.76v.78A3.06,3.06,0,0,1,67.17,42.84Z"/></g></g></svg>