<svg xmlns="http://www.w3.org/2000/svg" viewBox="0 0 46.81 54.5"><defs><style>.cls-1{fill:#414042;}</style></defs><title>Asset 3</title><g id="Layer_2" data-name="Layer 2"><g id="data_analytics_and_network_icons" data-name="data analytics and network icons"><polygon class="cls-1" points="22.3 0.04 46.81 14.57 46.81 54.5 38.78 49.73 38.78 13.23 22.3 3.46 22.3 0.04"/><polygon class="cls-1" points="11 0 35.51 14.54 35.51 54.46 27.48 49.69 27.48 13.19 11 3.43 11 0"/><path class="cls-1" d="M14.16,23.24l-2.05,4.68L8,25.42c0,3.74,1.84,7.89,4.14,9.27s4.17-.54,4.18-4.28A13.74,13.74,0,0,0,14.16,23.24Zm10.35-8.7V54.46L0,39.92V0ZM12.25,15.93V10.81C6.58,7.45,2,12.21,2,21.46S6.58,40.93,12.25,44.3s10.28-1.4,10.28-10.65A34,34,0,0,0,18.67,18.3l-1.8,3.11A23.83,23.83,0,0,1,19.4,31.79c0,6.42-3.2,9.73-7.15,7.39S5.11,29.75,5.11,23.32,8.31,13.59,12.25,15.93Zm-.31,10.39V20c-2.14-1.27-3.88.52-3.88,4Z"/></g></g></svg>