<svg xmlns="http://www.w3.org/2000/svg" viewBox="0 0 60.6 48.56"><defs><style>.cls-1{fill:#414042;}</style></defs><title>Asset 52</title><g id="Layer_2" data-name="Layer 2"><g id="data_analytics_and_network_icons" data-name="data analytics and network icons"><path class="cls-1" d="M17.61,17.4a2.82,2.82,0,0,0,5.55-1,2.82,2.82,0,1,0-5.55,1Zm15,6.2a3.61,3.61,0,1,0,2.88-4.22A3.61,3.61,0,0,0,32.66,23.6ZM49,14.12a4.27,4.27,0,1,0,3.4-5A4.26,4.26,0,0,0,49,14.12ZM51.78,6A7.43,7.43,0,1,1,47.3,17.91l-5.18,2.93a5.42,5.42,0,0,1,.26.92A6.28,6.28,0,0,1,30,24.09a6.13,6.13,0,0,1,0-2.34l-5.59-2.14a4.92,4.92,0,0,1-8.91-1.82A4.91,4.91,0,1,1,25.2,16a4.74,4.74,0,0,1,0,1.59l5.59,2.14A6.25,6.25,0,0,1,41,18.93L46.22,16a7.93,7.93,0,0,1-.36-1.29A7.42,7.42,0,0,1,51.78,6Z"/><rect class="cls-1" x="18.44" y="29.34" width="4.37" height="8.23" transform="translate(-18.36 28.46) rotate(-51.05)"/><rect class="cls-1" x="4.16" y="0.43" width="3.38" height="10.63" transform="translate(-2.3 6.68) rotate(-51.04)"/><rect class="cls-1" x="49.12" y="36.77" width="3.38" height="10.63" transform="translate(-13.86 55.17) rotate(-51.07)"/><polygon class="cls-1" points="22.39 9.22 16.36 7.42 12.46 0.3 18.49 2.1 22.39 9.22"/><polygon class="cls-1" points="43.63 47.98 37.6 46.19 33.69 39.06 39.72 40.86 43.63 47.98"/><polygon class="cls-1" points="8.9 15.59 11.93 21.11 4.14 18.79 1.12 13.27 8.9 15.59"/><polygon class="cls-1" points="51.25 28.23 54.28 33.75 46.49 31.43 43.47 25.91 51.25 28.23"/><polygon class="cls-1" points="30.24 13.61 23.51 9.83 22.88 4.14 29.61 7.91 30.24 13.61"/><polygon class="cls-1" points="33.65 44.58 26.92 40.81 26.3 35.11 33.02 38.89 33.65 44.58"/><polygon class="cls-1" points="8.69 10.84 9.17 15.24 0.48 10.37 0 5.96 8.69 10.84"/><polygon class="cls-1" points="55.94 37.34 56.42 41.75 47.73 36.88 47.25 32.47 55.94 37.34"/><polygon class="cls-1" points="15.79 7.47 11.37 7.92 4.79 0.45 9.2 0 15.79 7.47"/><polygon class="cls-1" points="51.61 48.12 47.2 48.56 40.61 41.09 45.02 40.64 51.61 48.12"/><polygon class="cls-1" points="12.41 22.02 17.51 27.8 11.81 28.38 6.71 22.59 12.41 22.02"/></g></g></svg>