<svg xmlns="http://www.w3.org/2000/svg" viewBox="0 0 44.17 47.67"><defs><style>.cls-1{fill:#414042;}</style></defs><title>Asset 24</title><g id="Layer_2" data-name="Layer 2"><g id="data_analytics_and_network_icons" data-name="data analytics and network icons"><path class="cls-1" d="M20.83,43.21A1.74,1.74,0,1,0,19.09,45,1.73,1.73,0,0,0,20.83,43.21ZM38.19,14.38l-2.9,1V3.17H2.9V39.93H35.29V39l2.9.38v5.91A2.26,2.26,0,0,1,36,47.67H2.15A2.26,2.26,0,0,1,0,45.31V2.36A2.26,2.26,0,0,1,2.15,0H36a2.26,2.26,0,0,1,2.15,2.36Z"/><path class="cls-1" d="M44.17,30.81A6.34,6.34,0,0,1,37.44,37C30.84,37,23,33.68,23,33.68H17.51V22.35s3.88-.14,4.59-2.43,3.15-15,3.15-15,5.59-.43,5.45,3.44A26.12,26.12,0,0,1,29,16.05s-.14,2.72,3,2a76,76,0,0,0,7.45-2.3s4.73-1.43,4.73,4.16Z"/><path class="cls-1" d="M14.07,35.69H10.18V20.35h3.89a2.5,2.5,0,0,1,2.49,2.49V33.2A2.5,2.5,0,0,1,14.07,35.69Z"/></g></g></svg>