<svg xmlns="http://www.w3.org/2000/svg" viewBox="0 0 65.67 51.66"><defs><style>.cls-1{fill:#414042;}</style></defs><title>Asset 80</title><g id="Layer_2" data-name="Layer 2"><g id="data_analytics_and_network_icons" data-name="data analytics and network icons"><path class="cls-1" d="M59.21,34.47A1.26,1.26,0,1,0,58,33.21,1.25,1.25,0,0,0,59.21,34.47Zm.95-3.5V25.43H58.27V31ZM52.8,35.31l-9.29,1.82,9.29-5.84V24H65.67V35.86H52.8Z"/><path class="cls-1" d="M58.79,15.82a1.26,1.26,0,1,0-1.25-1.25A1.25,1.25,0,0,0,58.79,15.82Zm1-3.49V6.78H57.85v5.55Zm-8.13-7H65.67V17.23H52.27l-4.31,4,3.65-8.07Z"/><path class="cls-1" d="M34.82,50.4a1.88,1.88,0,1,0-1.88-1.88A1.88,1.88,0,0,0,34.82,50.4ZM50.53,37.57V48.64a3.1,3.1,0,0,1-3.17,3H22.28a3.1,3.1,0,0,1-3.17-3V3a3.1,3.1,0,0,1,3.17-3H47.36a3.1,3.1,0,0,1,3.17,3v9.73L48.9,16.19V3.44H20.73v41H48.9V37.75Z"/><polygon class="cls-1" points="50.53 20.45 50.53 31.13 48.91 32.16 48.91 21.65 50.53 20.45"/><path class="cls-1" d="M42.24,32V31H37.31v1Zm0-1.8v-1H37.31v1Zm1.22-9.26V33.34H26V20.93l8.74,6.2Z"/><rect class="cls-1" x="37.81" y="41.64" width="1.23" height="1.23"/><rect class="cls-1" x="35.45" y="41.64" width="1.23" height="1.23"/><polygon class="cls-1" points="34.72 12.42 43.46 18.62 43.46 20.33 25.97 20.33 25.97 18.62 34.72 12.42"/><rect class="cls-1" x="32.96" y="41.64" width="1.23" height="1.23"/><rect class="cls-1" x="30.6" y="41.64" width="1.23" height="1.23"/><path class="cls-1" d="M8.77,19.09a1.26,1.26,0,0,0,0-2.51,1.26,1.26,0,1,0,0,2.51Zm1-3.5V10.05H7.82v5.54Zm5.19,5.27V30l-3.77-9.09H0V8.23H17.54V20.86Z"/></g></g></svg>