<svg xmlns="http://www.w3.org/2000/svg" viewBox="0 0 49.71 55.77"><defs><style>.cls-1{fill:#414042;}</style></defs><title>Asset 84</title><g id="Layer_2" data-name="Layer 2"><g id="data_analytics_and_network_icons" data-name="data analytics and network icons"><path class="cls-1" d="M39.19,20.73a.57.57,0,0,1,.2.44v3.08a.66.66,0,0,1-.68.63.71.71,0,0,1-.48-.18.63.63,0,0,1-.2-.45V21.17a.66.66,0,0,1,.68-.63A.67.67,0,0,1,39.19,20.73Z"/><path class="cls-1" d="M38.54,14.67a1.57,1.57,0,0,1,1.57,1.57v1.54a1.57,1.57,0,0,1-3.14,0V16.24a1.62,1.62,0,0,1,.46-1.12A1.59,1.59,0,0,1,38.54,14.67Zm.4,3.28a1,1,0,0,0,.16-.55v-.78c0-.43-.25-.78-.56-.78a.48.48,0,0,0-.39.23.9.9,0,0,0-.17.55v.78c0,.43.25.78.56.78A.5.5,0,0,0,38.94,18Z"/><path class="cls-1" d="M34.79,14.83a.67.67,0,0,1,.69.63v3.08a.63.63,0,0,1-.2.45.74.74,0,0,1-.49.18.65.65,0,0,1-.67-.63V15.46a.62.62,0,0,1,.19-.45A.75.75,0,0,1,34.79,14.83Z"/><path class="cls-1" d="M34.76,26.56a.66.66,0,0,1,.68.63v3.08a.63.63,0,0,1-.2.45.71.71,0,0,1-.48.18.65.65,0,0,1-.68-.63V27.19a.63.63,0,0,1,.2-.45A.71.71,0,0,1,34.76,26.56Z"/><path class="cls-1" d="M35,8.65a1.61,1.61,0,0,1,1.12.46,1.56,1.56,0,0,1,.45,1.11v1.54A1.57,1.57,0,0,1,35,13.33a1.57,1.57,0,0,1-1.56-1.57V10.22A1.56,1.56,0,0,1,35,8.65Zm0,3.51c.32,0,.57-.35.57-.78v-.77a.91.91,0,0,0-.17-.56.5.5,0,0,0-.4-.23c-.31,0-.56.35-.56.79v.77a1,1,0,0,0,.17.55A.49.49,0,0,0,35,12.16Z"/><path class="cls-1" d="M35.53,22.33a1,1,0,0,0-.16-.55.5.5,0,0,0-.4-.23c-.31,0-.56.35-.56.78v.77a1,1,0,0,0,.16.56.5.5,0,0,0,.4.23c.31,0,.56-.35.56-.79ZM35,20.38A1.57,1.57,0,0,1,36.54,22v1.54a1.57,1.57,0,0,1-2.68,1.11,1.54,1.54,0,0,1-.46-1.11V22A1.57,1.57,0,0,1,35,20.38Z"/><path class="cls-1" d="M31.65,9a.61.61,0,0,1,.2.44v3.08a.67.67,0,0,1-.68.64.72.72,0,0,1-.48-.19.59.59,0,0,1-.21-.45V9.44a.66.66,0,0,1,.69-.63A.69.69,0,0,1,31.65,9Z"/><path class="cls-1" d="M31.61,20.73a.61.61,0,0,1,.2.44v3.08a.65.65,0,0,1-.68.63.71.71,0,0,1-.48-.18.59.59,0,0,1-.2-.45V21.17a.66.66,0,0,1,.68-.63A.69.69,0,0,1,31.61,20.73Z"/><path class="cls-1" d="M32.08,18.89a1.61,1.61,0,0,1-1.12.46,1.57,1.57,0,0,1-1.57-1.57V16.24a1.62,1.62,0,0,1,.46-1.12,1.58,1.58,0,0,1,2.69,1.12v1.54A1.58,1.58,0,0,1,32.08,18.89Zm-.55-2.27c0-.43-.25-.78-.57-.78a.49.49,0,0,0-.39.23.9.9,0,0,0-.17.55v.78c0,.43.25.78.56.78a.5.5,0,0,0,.4-.23,1,1,0,0,0,.17-.55Z"/><path class="cls-1" d="M31.49,28.36c0-.44-.25-.79-.56-.79a.5.5,0,0,0-.4.23,1,1,0,0,0-.17.56v.76c0,.44.26.79.57.79a.53.53,0,0,0,.4-.23,1,1,0,0,0,.16-.56Zm-.56-2A1.57,1.57,0,0,1,32.5,28V29.5a1.57,1.57,0,1,1-3.14,0V28a1.55,1.55,0,0,1,1.57-1.57Z"/><path class="cls-1" d="M44.36,20.14A14.92,14.92,0,1,0,29.44,35.06,14.92,14.92,0,0,0,44.36,20.14Zm.83,13A20.33,20.33,0,0,1,19.1,37.86,3.78,3.78,0,0,1,18.27,40L6.67,54.38A3.75,3.75,0,0,1,.83,49.66l11.6-14.34a3.7,3.7,0,0,1,2-1.26,20.33,20.33,0,1,1,30.79-1Z"/><path class="cls-1" d="M27.22,14.83a.66.66,0,0,1,.68.63v3.08a.59.59,0,0,1-.2.45.71.71,0,0,1-.48.18.65.65,0,0,1-.68-.63V15.46a.63.63,0,0,1,.2-.45A.71.71,0,0,1,27.22,14.83Z"/><path class="cls-1" d="M27.18,26.56a.66.66,0,0,1,.69.63v3.08a.63.63,0,0,1-.2.45.76.76,0,0,1-.49.18.65.65,0,0,1-.67-.63V27.19a.62.62,0,0,1,.19-.45A.73.73,0,0,1,27.18,26.56Z"/><path class="cls-1" d="M27.42,12.16c.31,0,.57-.35.57-.78v-.77a1,1,0,0,0-.17-.56.5.5,0,0,0-.4-.23c-.31,0-.56.35-.56.79v.77a1,1,0,0,0,.16.55A.53.53,0,0,0,27.42,12.16Zm1.57-.4a1.57,1.57,0,0,1-3.14,0V10.22a1.57,1.57,0,0,1,2.68-1.11A1.52,1.52,0,0,1,29,10.22Z"/><path class="cls-1" d="M27.39,23.89c.31,0,.56-.35.56-.79v-.77a1,1,0,0,0-.17-.55.47.47,0,0,0-.39-.23c-.32,0-.57.35-.57.78v.77a.93.93,0,0,0,.17.56A.5.5,0,0,0,27.39,23.89Zm1.57-.4a1.57,1.57,0,0,1-2.68,1.11,1.54,1.54,0,0,1-.46-1.11V22a1.57,1.57,0,0,1,1.57-1.57A1.59,1.59,0,0,1,29,22Z"/><path class="cls-1" d="M24.07,9a.61.61,0,0,1,.2.44v3.08a.67.67,0,0,1-.68.64.72.72,0,0,1-.48-.19.61.61,0,0,1-.2-.45V9.44a.66.66,0,0,1,.68-.63A.67.67,0,0,1,24.07,9Z"/><path class="cls-1" d="M24,20.73a.6.6,0,0,1,.19.44v3.08a.65.65,0,0,1-.68.63.71.71,0,0,1-.48-.18.63.63,0,0,1-.2-.45V21.17a.67.67,0,0,1,.68-.63A.71.71,0,0,1,24,20.73Z"/><path class="cls-1" d="M23.78,18A1,1,0,0,0,24,17.4v-.78c0-.43-.26-.78-.57-.78a.53.53,0,0,0-.4.23,1,1,0,0,0-.16.55v.78c0,.43.25.78.56.78A.5.5,0,0,0,23.78,18Zm-.4-3.28A1.57,1.57,0,0,1,25,16.24v1.54a1.54,1.54,0,0,1-.46,1.11,1.57,1.57,0,0,1-2.68-1.11V16.24a1.62,1.62,0,0,1,.46-1.12A1.59,1.59,0,0,1,23.38,14.67Z"/><path class="cls-1" d="M23.91,28.36c0-.44-.25-.79-.56-.79a.5.5,0,0,0-.4.23,1,1,0,0,0-.17.56v.76c0,.44.25.79.57.79a.49.49,0,0,0,.39-.23.91.91,0,0,0,.17-.56Zm-.56-2A1.56,1.56,0,0,1,24.91,28V29.5a1.56,1.56,0,0,1-.46,1.12,1.52,1.52,0,0,1-1.1.46,1.58,1.58,0,0,1-1.58-1.58V28a1.55,1.55,0,0,1,1.58-1.57Z"/><path class="cls-1" d="M19.64,14.83a.66.66,0,0,1,.68.63v3.08a.63.63,0,0,1-.2.45.71.71,0,0,1-.48.18.66.66,0,0,1-.68-.63V15.46a.59.59,0,0,1,.2-.45A.71.71,0,0,1,19.64,14.83Z"/><path class="cls-1" d="M19.81,20.38A1.57,1.57,0,0,1,21.38,22v1.54A1.57,1.57,0,0,1,18.7,24.6a1.54,1.54,0,0,1-.46-1.11V22A1.57,1.57,0,0,1,19.81,20.38Zm0,3.51c.31,0,.56-.35.56-.79v-.77a1,1,0,0,0-.16-.55.47.47,0,0,0-.4-.23c-.31,0-.56.35-.56.78v.77a1,1,0,0,0,.16.56A.5.5,0,0,0,19.81,23.89Z"/></g></g></svg>