<svg xmlns="http://www.w3.org/2000/svg" viewBox="0 0 51.96 49.18"><defs><style>.cls-1{fill:#414042;}</style></defs><title>Asset 75</title><g id="Layer_2" data-name="Layer 2"><g id="data_analytics_and_network_icons" data-name="data analytics and network icons"><rect class="cls-1" y="36.1" width="4.95" height="13.08"/><rect class="cls-1" x="6.64" y="26.18" width="4.95" height="23"/><rect class="cls-1" x="13.49" y="13.1" width="4.95" height="36.08"/><rect class="cls-1" x="20.12" y="4.98" width="4.95" height="44.19"/><rect class="cls-1" x="26.89" y="32.94" width="4.95" height="16.23"/><rect class="cls-1" x="33.52" y="23.02" width="4.95" height="26.16"/><rect class="cls-1" x="40.38" y="13.1" width="4.94" height="36.08"/><rect class="cls-1" x="47.01" y="36.1" width="4.95" height="13.08"/><rect class="cls-1" y="30.98" width="4.95" height="3.16"/><rect class="cls-1" x="6.64" y="21.44" width="4.95" height="3.16"/><rect class="cls-1" x="13.49" y="8.44" width="4.95" height="3.16"/><rect class="cls-1" x="20.12" width="4.95" height="3.16"/><rect class="cls-1" x="26.89" y="27.98" width="4.95" height="3.16"/><rect class="cls-1" x="33.52" y="18.29" width="4.95" height="3.16"/><rect class="cls-1" x="40.38" y="8.44" width="4.94" height="3.16"/><rect class="cls-1" x="47.01" y="31.37" width="4.95" height="3.16"/></g></g></svg>