<svg xmlns="http://www.w3.org/2000/svg" viewBox="0 0 62.07 58.83"><defs><style>.cls-1{fill:#414042;}</style></defs><title>Asset 42</title><g id="Layer_2" data-name="Layer 2"><g id="data_analytics_and_network_icons" data-name="data analytics and network icons"><path class="cls-1" d="M59.26,20.24c0-.22,0-.44-.07-.66-.09-.82-.23-1.63-.39-2.45.67.21,1.35.44,2,.68A8.88,8.88,0,0,1,62,21.19C61.06,20.84,60.17,20.52,59.26,20.24Z"/><path class="cls-1" d="M59.33,21.19c.91.3,1.82.63,2.71,1a12.88,12.88,0,0,1-.17,3.23c-.85-.23-1.71-.44-2.57-.63,0-.27,0-.54,0-.8C59.38,23.05,59.38,22.12,59.33,21.19Z"/><path class="cls-1" d="M60.05,29.68c-.51.07-1,.12-1.53.17.12-.5.23-1,.32-1.51.17-.88.29-1.77.38-2.67.82.18,1.64.39,2.45.61A10.52,10.52,0,0,1,60.05,29.68Z"/><path class="cls-1" d="M58.57,16.14c-.08-.29-.15-.58-.24-.87a.24.24,0,0,0,0-.08,8.54,8.54,0,0,1,1.58,1.36C59.45,16.4,59,16.27,58.57,16.14Z"/><path class="cls-1" d="M58,31.94l.33-1.17,1-.1A12.84,12.84,0,0,1,58,31.94Z"/><path class="cls-1" d="M58.31,19.69l0,.28-.75-.21A37.3,37.3,0,0,0,53.92,19l-.18-.71a23.65,23.65,0,0,0-.85-2.45,36.66,36.66,0,0,1,4.53.9l.41.11A27.15,27.15,0,0,1,58.31,19.69Z"/><path class="cls-1" d="M52.48,14.89c-.19-.41-.39-.82-.61-1.22-.12-.23-.25-.46-.38-.68a17.17,17.17,0,0,1,5.69,1.54c.11.32.21.66.3,1,0,.12.07.24.1.36A35.31,35.31,0,0,0,52.48,14.89Z"/><path class="cls-1" d="M55.53,25c.94.14,1.88.31,2.82.5-.09.91-.21,1.81-.38,2.7-.11.59-.24,1.17-.38,1.76l-1.22.1-2.24.13c.12-.67.22-1.34.3-2a30.79,30.79,0,0,0,.19-3.32Z"/><path class="cls-1" d="M58.46,23.94c0,.22,0,.43,0,.65-.91-.18-1.83-.35-2.76-.49L54.6,24c0-.25,0-.5,0-.75a23.64,23.64,0,0,0-.43-3.26,32.71,32.71,0,0,1,3.24.68l1.05.29A27.85,27.85,0,0,1,58.46,23.94Z"/><path class="cls-1" d="M53.49,33c.18-.65.33-1.31.47-2,.82,0,1.65-.08,2.48-.14l.91-.07q-.29,1-.63,2.07L56,33.4c-.93.21-1.87.4-2.81.57C53.32,33.66,53.41,33.34,53.49,33Z"/><path class="cls-1" d="M49.26,19.49c1.08,0,2.15.09,3.22.21l.71.09a23.76,23.76,0,0,1,.49,3.47l0,.58c-1.31-.15-2.62-.25-3.93-.31l0-.4A26.3,26.3,0,0,0,49.26,19.49Z"/><path class="cls-1" d="M54.32,47.31a29.41,29.41,0,0,1-46.69,0h2a27.88,27.88,0,0,0,42.77,0Z"/><path class="cls-1" d="M53.75,35a4.28,4.28,0,0,0-.54,3c-.51.11-1,.22-1.53.31.08-.2.17-.4.25-.61.37-.92.7-1.85,1-2.79l1.15-.22A3.71,3.71,0,0,0,53.75,35Z"/><path class="cls-1" d="M52.58,18.82c-1.17-.13-2.34-.21-3.52-.23L49,18.34a23.4,23.4,0,0,0-.93-2.79,32.38,32.38,0,0,1,3.81.17,21.32,21.32,0,0,1,1,2.81l.09.34Z"/><path class="cls-1" d="M49.85,42.2c.5-1,1-1.92,1.41-2.9l.16,0c.64-.11,1.26-.23,1.89-.37.06.4.13.77.2,1.09l-.08.13c-.27.46-.55.93-.84,1.39l-3.11,1.37Z"/><path class="cls-1" d="M53.22,30.2c-1.24,0-2.49.06-3.74.06q.15-1.16.24-2.31c.09-1.17.12-2.35.1-3.53,1.3.06,2.61.16,3.91.32a28.58,28.58,0,0,1-.18,3.33Q53.42,29.14,53.22,30.2Z"/><path class="cls-1" d="M53.05,31.09c-.13.58-.26,1.15-.41,1.71s-.25.9-.39,1.34c-1.18.19-2.37.34-3.57.46.14-.62.28-1.25.4-1.88s.19-1,.27-1.57C50.58,31.15,51.81,31.13,53.05,31.09Z"/><path class="cls-1" d="M52,35.09c-.26.77-.54,1.54-.85,2.3-.14.37-.3.74-.46,1.11-1,.15-2.07.25-3.11.3.15-.47.29-.94.42-1.4.19-.63.35-1.26.51-1.89C49.63,35.4,50.79,35.26,52,35.09Z"/><path class="cls-1" d="M51.45,14.78a33.84,33.84,0,0,0-3.77-.12c-.13-.28-.27-.57-.42-.85s-.37-.69-.58-1c1.19,0,2.45,0,3.71.09.25.4.48.8.7,1.21Z"/><path class="cls-1" d="M48.11,43.49l-2.8,1.23.24-.54c.31-.74.61-1.48.89-2.23s.55-1.5.8-2.25c1,0,2-.12,3-.25-.37.79-.75,1.57-1.16,2.34C48.76,42.36,48.45,42.93,48.11,43.49Z"/><path class="cls-1" d="M45.19,27.3c0-1,0-1.93,0-2.89l.86,0c1,0,1.92,0,2.88,0,0,1.17,0,2.33-.09,3.5-.06.79-.15,1.58-.26,2.36l-1.48,0-2-.05Q45.18,28.74,45.19,27.3Z"/><path class="cls-1" d="M48.89,23.5c-1,0-1.91,0-2.86,0l-.85,0c0-1.29-.07-2.58-.14-3.86.82-.08,1.65-.14,2.48-.16l.83,0a25.68,25.68,0,0,1,.52,3.71C48.88,23.29,48.88,23.4,48.89,23.5Z"/><path class="cls-1" d="M45.1,31.06q1,0,2,.06l1.37,0c-.07.47-.16,1-.25,1.42-.13.71-.28,1.41-.45,2.12l-.71,0c-.71.05-1.43.07-2.14.09C45,33.56,45,32.31,45.1,31.06Z"/><path class="cls-1" d="M47.49,18.61c-.84,0-1.67.08-2.51.16,0-.42,0-.84-.08-1.27l-.15-1.73c.79-.1,1.58-.16,2.36-.2a20.81,20.81,0,0,1,1,3v0Z"/><path class="cls-1" d="M44.73,37.08c0-.46.07-.92.11-1.39.75,0,1.5,0,2.26-.08l.43,0c-.14.53-.28,1.05-.43,1.57s-.33,1.12-.51,1.68q-1,0-2,0Z"/><path class="cls-1" d="M45.66,12.82c.29.45.56.92.81,1.4.09.16.17.32.25.48-.69,0-1.38.11-2.06.19-.07-.68-.15-1.35-.23-2Z"/><path class="cls-1" d="M44,44.38q.16-1.22.3-2.43c.09-.75.17-1.51.25-2.26q.9,0,1.8,0-.33,1-.69,1.92c-.28.74-.57,1.47-.88,2.2-.16.36-.31.72-.48,1.08,0,.11-.1.23-.16.34l-.28.12C43.86,45.05,43.91,44.72,44,44.38Z"/><path class="cls-1" d="M43.54,12.92c.09.7.17,1.39.24,2.09-.66.1-1.32.22-2,.36-.44.1-.88.2-1.32.32l.45-1.21c.2-.49.4-1,.61-1.44Z"/><path class="cls-1" d="M40.57,13.06c-.16.36-.31.73-.45,1.09-.24.61-.46,1.21-.66,1.83-.46.14-.91.29-1.37.45a.66.66,0,0,0,0-.1S36.81,13.21,40.57,13.06Z"/><path class="cls-1" d="M41.7,41.38c-.94-1.78-1.31-1.87-1.31-1.87h-.23c0-.1,0-.21-.08-.31a32.41,32.41,0,0,0,3.53.44q-.11,1.11-.24,2.22c-.09.81-.19,1.61-.3,2.42v0C42.71,43.47,42.2,42.34,41.7,41.38Z"/><path class="cls-1" d="M39.56,18.86q.27-1.08.6-2.16c.61-.17,1.22-.33,1.84-.46s1.24-.25,1.87-.35c.05.56.1,1.12.14,1.68s.06.87.09,1.3a36.39,36.39,0,0,0-4.74.92C39.42,19.48,39.49,19.17,39.56,18.86Z"/><path class="cls-1" d="M43.85,37c-.05.58-.1,1.16-.16,1.74a35.4,35.4,0,0,1-3.84-.51c-.08-.35-.16-.7-.23-1.05-.12-.59-.24-1.18-.34-1.77A42.87,42.87,0,0,0,44,35.7C43.91,36.13,43.88,36.57,43.85,37Z"/><path class="cls-1" d="M44.29,23.57a55,55,0,0,0-5.57.57c.1-1.14.25-2.26.45-3.38a35.13,35.13,0,0,1,5-1C44.22,21,44.27,22.29,44.29,23.57Z"/><path class="cls-1" d="M44.21,31c-.05,1.26-.12,2.52-.2,3.78a39.59,39.59,0,0,1-4.88-.3c-.2-1.27-.35-2.54-.44-3.81Q41.45,30.91,44.21,31Z"/><path class="cls-1" d="M38.4,20.05l-.93.28-1.12.38a30.74,30.74,0,0,1,1.21-3.14c.52-.2,1-.39,1.58-.56-.16.55-.31,1.1-.44,1.65S38.49,19.58,38.4,20.05Z"/><path class="cls-1" d="M37,37.55q-.42-1.29-.75-2.61l1.25.23.88.13c.11.69.25,1.39.39,2.07l.15.67c-.53-.12-1-.25-1.57-.39Z"/><path class="cls-1" d="M44.3,27.29q0,1.42-.06,2.85c-1.87-.07-3.74-.19-5.6-.34,0-.59-.06-1.19-.06-1.79,0-1,0-2,.07-3a56.36,56.36,0,0,1,5.65-.6C44.31,25.4,44.31,26.34,44.3,27.29Z"/><path class="cls-1" d="M38.22,21c-.18,1.08-.31,2.16-.4,3.25l-1.39.25-.63.13v-.57a7.11,7.11,0,0,1,.25-2.33c.55-.21,1.11-.4,1.67-.58Z"/><path class="cls-1" d="M39.27,39.57c-.38,0-.86.1-1.47.2-.1-.24-.2-.48-.29-.72l-.18-.48c.6.16,1.19.3,1.79.43Z"/><path class="cls-1" d="M35.36,30.41c.8.07,1.59.15,2.39.21h0c.08,1.25.22,2.51.41,3.76l-.59-.1q-.81-.13-1.62-.3c-.18-.84-.35-1.69-.48-2.54C35.46,31.1,35.41,30.75,35.36,30.41Z"/><path class="cls-1" d="M35.27,34.73c.2.85.43,1.68.68,2.5-.88-.28-1.76-.6-2.62-1,.05-.6-.21-.7-.14-1.34,0-.28.06-.52.08-.73C33.93,34.4,34.6,34.58,35.27,34.73Z"/><path class="cls-1" d="M35.25,29.5c-.14-1.19-.23-2.38-.27-3.58l.26-.24,1.36-.28,1.16-.21c-.06.95-.08,1.89-.07,2.84,0,.57,0,1.13.05,1.7C36.91,29.66,36.08,29.59,35.25,29.5Z"/><path class="cls-1" d="M33.15,37.15a30.79,30.79,0,0,0,3.14,1.12c.12.37.25.73.39,1.09.07.19.14.38.22.56l-.81.15C32.77,40.7,32.81,38.49,33.15,37.15Z"/><path class="cls-1" d="M34.12,26.68c.05.91.13,1.82.23,2.73l-1.15-.12-1.42-.17a1.65,1.65,0,0,1,.2-.55Z"/><path class="cls-1" d="M34.64,31.59c.12.73.25,1.46.41,2.18-.63-.16-1.25-.33-1.86-.52h0c-.19-.37.84-2.52.84-2.52l-1.4-.47a1.66,1.66,0,0,1-.4-.18l.87.1,1.35.14C34.51,30.74,34.57,31.17,34.64,31.59Z"/><path class="cls-1" d="M11.87,9.1H9.7a29.42,29.42,0,0,1,42.55,0H50.08a27.89,27.89,0,0,0-38.21,0Z"/><path class="cls-1" d="M29.53,37.44c.38,1.33.57,3.82-3,3.15A19.71,19.71,0,0,0,22.17,40s-.38.09-1.34,1.9-1.91,4.21-1.91,4.21L8.5,41.54s1.34-4.58,0-6.11S-1,31.2.1,21.57C1.34,10.3,17.49,13,21.69,13s2.77,3.34,2.77,3.34,2.68,5.26,2.39,7.94l0,1.15,3.9,3.43a1.1,1.1,0,0,1-.67,1.72L28.67,31s1,2.2.86,2.58a3.31,3.31,0,0,0,0,1.72C29.62,36.19,29.15,36.1,29.53,37.44Z"/></g></g></svg>