<svg xmlns="http://www.w3.org/2000/svg" viewBox="0 0 61.06 53.82"><defs><style>.cls-1{fill:#414042;}</style></defs><title>Asset 74</title><g id="Layer_2" data-name="Layer 2"><g id="data_analytics_and_network_icons" data-name="data analytics and network icons"><path class="cls-1" d="M47.94,46.65a6.89,6.89,0,0,1,13.12-4.07Z"/><path class="cls-1" d="M42.49,46.12a1.85,1.85,0,1,0-1.85-1.84A1.85,1.85,0,0,0,42.49,46.12Zm2.22,7.7a7.62,7.62,0,0,1-7-4.55l-5.06-4.21,5.06-1.94a7.62,7.62,0,0,1,10.83-3.5,9.46,9.46,0,0,0-1.7,8.59l5.46-1.7A7.61,7.61,0,0,1,44.71,53.82Z"/><path class="cls-1" d="M13.12,46.46a6.63,6.63,0,0,0-4.67-8.12,6.64,6.64,0,0,0-8.45,4Z"/><path class="cls-1" d="M20.42,44.08a1.85,1.85,0,1,0-1.85,1.85A1.84,1.84,0,0,0,20.42,44.08ZM8.74,46.32,14.2,48a9.45,9.45,0,0,0-1.7-8.59,7.5,7.5,0,0,1,3.85-1,7.62,7.62,0,0,1,7,4.55l5.06,1.94-5.06,4.21A7.62,7.62,0,0,1,8.74,46.32Z"/><path class="cls-1" d="M40.28,25.44V24.05H33.23v1.39ZM42,29.94H17V12.19l12.52,8.87L42,12.19Zm-1.74-3.32H33.23V28h7.05Z"/><polygon class="cls-1" points="42.02 11.33 17 11.33 17 8.88 29.51 0 42.02 8.88 42.02 11.33"/><polygon class="cls-1" points="34.25 30.99 29.51 43.14 24.76 30.99 34.25 30.99"/></g></g></svg>