<svg xmlns="http://www.w3.org/2000/svg" viewBox="0 0 55.5 57.14"><defs><style>.cls-1{fill:#414042;}</style></defs><title>Asset 32</title><g id="Layer_2" data-name="Layer 2"><g id="data_analytics_and_network_icons" data-name="data analytics and network icons"><rect class="cls-1" x="24.41" y="54.11" width="6.68" height="3.03"/><rect class="cls-1" y="45.93" width="8.62" height="2.35"/><rect class="cls-1" x="46.88" y="45.93" width="8.62" height="2.35"/><polygon class="cls-1" points="16.52 41.75 11.8 43.42 5.71 41.27 10.42 39.61 16.52 41.75"/><polygon class="cls-1" points="49.67 53.42 44.95 55.09 38.86 52.94 43.58 51.28 49.67 53.42"/><polygon class="cls-1" points="11.26 51.09 15.98 52.75 9.88 54.9 5.16 53.24 11.26 51.09"/><polygon class="cls-1" points="44.41 39.42 49.13 41.08 43.04 43.23 38.32 41.56 44.41 39.42"/><polygon class="cls-1" points="41.64 55.95 35.48 56.84 32.18 54.04 38.34 53.14 41.64 55.95"/><polygon class="cls-1" points="8.69 48.61 11.25 50.78 3.29 51.95 0.73 49.77 8.69 48.61"/><polygon class="cls-1" points="52.01 42.3 54.56 44.47 46.6 45.63 44.05 43.46 52.01 42.3"/><polygon class="cls-1" points="11.46 43.69 8.9 45.86 0.94 44.7 3.49 42.53 11.46 43.69"/><polygon class="cls-1" points="54.77 50.01 52.22 52.18 44.25 51.02 46.81 48.85 54.77 50.01"/><polygon class="cls-1" points="16.74 53.02 22.91 53.93 19.61 56.73 13.45 55.83 16.74 53.02"/><path class="cls-1" d="M7.28,21h21V0a21,21,0,1,1-21,21Z"/><path class="cls-1" d="M21.28,15.47a2.89,2.89,0,1,1-2.89-2.89A2.89,2.89,0,0,1,21.28,15.47Z"/><rect class="cls-1" x="16.12" y="2.41" width="4.53" height="9.43"/></g></g></svg>