<svg xmlns="http://www.w3.org/2000/svg" viewBox="0 0 42.85 53.48"><defs><style>.cls-1{fill:#414042;}</style></defs><title>Asset 26</title><g id="Layer_2" data-name="Layer 2"><g id="data_analytics_and_network_icons" data-name="data analytics and network icons"><path class="cls-1" d="M36.62,35.88c-6.61-2.21-14.42.84-14.42.84V13.27s7.81-3,14.42-.84Zm-3.28-7.1a10.48,10.48,0,0,0-4-.37,15.45,15.45,0,0,0-3.86.82c-.07,0,0,.45.2.94s.38.87.44.85a14.23,14.23,0,0,1,3.38-.72,8.83,8.83,0,0,1,3.3.3c.06,0,.24-.37.41-.87S33.42,28.81,33.34,28.78Zm0-12.14a10.48,10.48,0,0,0-4-.38,16.39,16.39,0,0,0-3.86.82c-.07,0,0,.45.2.94s.38.88.44.86a13.31,13.31,0,0,1,3.38-.72,8.62,8.62,0,0,1,3.3.3,2.33,2.33,0,0,0,.41-.88C33.34,17.09,33.42,16.66,33.34,16.64Zm0,4a10.68,10.68,0,0,0-4-.37,15.45,15.45,0,0,0-3.86.82c-.07,0,0,.45.2.94s.38.87.44.85a14.23,14.23,0,0,1,3.38-.72,8.83,8.83,0,0,1,3.3.3c.06,0,.24-.37.41-.87S33.42,20.71,33.34,20.68Zm0,4.06a10.48,10.48,0,0,0-4-.38,16.39,16.39,0,0,0-3.86.82c-.07,0,0,.46.2.94s.38.88.44.86a13.76,13.76,0,0,1,3.38-.72,8.62,8.62,0,0,1,3.3.29c.06,0,.24-.37.41-.86S33.42,24.77,33.34,24.74Z"/><path class="cls-1" d="M16.76,31a2.35,2.35,0,0,0,.44-.85c.19-.49.28-.91.2-.94a15.55,15.55,0,0,0-3.86-.82,10.49,10.49,0,0,0-4,.37c-.08,0,0,.45.17.95a2.21,2.21,0,0,0,.4.87,8.88,8.88,0,0,1,3.31-.3A14.36,14.36,0,0,1,16.76,31Zm3.89-17.75V36.72s-7.81-3-14.42-.84V12.43C12.84,10.22,20.65,13.27,20.65,13.27Zm-3.89,9.65a2.35,2.35,0,0,0,.44-.85c.19-.49.28-.92.2-.94a15.55,15.55,0,0,0-3.86-.82,10.69,10.69,0,0,0-4,.37c-.08,0,0,.45.17.95a2.21,2.21,0,0,0,.4.87,8.88,8.88,0,0,1,3.31-.3A14.36,14.36,0,0,1,16.76,22.92Zm-6.68,3.63a8.68,8.68,0,0,1,3.31-.29,13.88,13.88,0,0,1,3.37.72,2.34,2.34,0,0,0,.44-.86c.19-.48.28-.91.2-.94a16.5,16.5,0,0,0-3.86-.82,10.5,10.5,0,0,0-4,.38c-.08,0,0,.45.17,1S10,26.58,10.08,26.55Zm0-8.09a8.68,8.68,0,0,1,3.31-.3,13.42,13.42,0,0,1,3.37.72A2.45,2.45,0,0,0,17.2,18c.19-.49.28-.91.2-.94a16.5,16.5,0,0,0-3.86-.82,10.5,10.5,0,0,0-4,.38c-.08,0,0,.45.17.94A2.4,2.4,0,0,0,10.08,18.46Z"/><path class="cls-1" d="M23.37,48.48a1.95,1.95,0,1,0-1.94,2A1.94,1.94,0,0,0,23.37,48.48Zm17.07,5h-38A2.54,2.54,0,0,1,0,50.83V2.64A2.53,2.53,0,0,1,2.41,0h38a2.53,2.53,0,0,1,2.41,2.64V50.83A2.54,2.54,0,0,1,40.44,53.48Zm-.85-8.68V3.55H3.26V44.8Z"/></g></g></svg>