<svg xmlns="http://www.w3.org/2000/svg" viewBox="0 0 61.31 33.1"><defs><style>.cls-1{fill:#414042;}</style></defs><title>Asset 34</title><g id="Layer_2" data-name="Layer 2"><g id="data_analytics_and_network_icons" data-name="data analytics and network icons"><path class="cls-1" d="M55.43,21.41A2.4,2.4,0,1,0,53,19,2.41,2.41,0,0,0,55.43,21.41Zm-2.55,1.67-.85.84L50.51,22.4l.85-.84a4.82,4.82,0,0,1-.61-1.48h-1.2V17.93h1.2a4.67,4.67,0,0,1,.61-1.47l-.85-.85L52,14.09l.85.85a4.76,4.76,0,0,1,1.47-.61v-1.2H56.5v1.2a4.72,4.72,0,0,1,1.48.61l.84-.85,1.52,1.52-.84.85a4.67,4.67,0,0,1,.61,1.47h1.2v2.15h-1.2a4.82,4.82,0,0,1-.61,1.48l.84.84-1.52,1.52L58,23.08a4.72,4.72,0,0,1-1.48.61v1.19H54.35V23.69A4.76,4.76,0,0,1,52.88,23.08Z"/><path class="cls-1" d="M50,9.48a2.12,2.12,0,1,0-2.11,2.11A2.12,2.12,0,0,0,50,9.48Zm.88-4.33,1.33,1.34-.74.74A4.32,4.32,0,0,1,52,8.54h1.05v1.89H52a4.37,4.37,0,0,1-.54,1.3l.74.74-1.33,1.34-.75-.75a3.93,3.93,0,0,1-1.3.54v1.06H46.94V13.6a3.93,3.93,0,0,1-1.3-.54l-.75.75-1.33-1.34.74-.74a4.37,4.37,0,0,1-.54-1.3h-1V8.54h1a4.32,4.32,0,0,1,.54-1.31l-.74-.74,1.33-1.34.75.75a3.93,3.93,0,0,1,1.3-.54V4.31h1.89V5.36a3.93,3.93,0,0,1,1.3.54Z"/><path class="cls-1" d="M39.52,27a4.23,4.23,0,1,0-4.23-4.23A4.23,4.23,0,0,0,39.52,27Zm1.89,6.12H37.64V31A8.24,8.24,0,0,1,35,29.92l-1.49,1.49-2.67-2.68,1.49-1.48a8.24,8.24,0,0,1-1.08-2.61H29.17V20.86h2.11a8.28,8.28,0,0,1,1.08-2.6l-1.49-1.49,2.67-2.67L35,15.59a8.24,8.24,0,0,1,2.61-1.08V12.4h3.77v2.11A8.24,8.24,0,0,1,44,15.59l1.49-1.49,2.67,2.67-1.49,1.49a8.28,8.28,0,0,1,1.08,2.6h2.11v3.78H47.77a8.24,8.24,0,0,1-1.08,2.61l1.49,1.48-2.67,2.68L44,29.92A8.24,8.24,0,0,1,41.41,31Z"/><path class="cls-1" d="M37.3.31a3.88,3.88,0,0,1,2.34,3.57V9.81A12.77,12.77,0,0,0,29.31,30.07H3.83A3.86,3.86,0,0,1,0,26.19V3.88A3.87,3.87,0,0,1,2.33.31L19.82,14.16Z"/><polygon class="cls-1" points="5.64 0 34 0 19.82 11.23 5.64 0"/></g></g></svg>