<svg xmlns="http://www.w3.org/2000/svg" viewBox="0 0 51.83 58.15"><defs><style>.cls-1{fill:#414042;}</style></defs><title>Asset 87</title><g id="Layer_2" data-name="Layer 2"><g id="data_analytics_and_network_icons" data-name="data analytics and network icons"><path class="cls-1" d="M46.25,21A15.56,15.56,0,1,0,30.69,36.55,15.56,15.56,0,0,0,46.25,21Zm.86,13.53a21.19,21.19,0,0,1-27.2,4.95,3.92,3.92,0,0,1-.86,2.27L7,56.7A3.91,3.91,0,0,1,.87,51.78L13,36.82a3.89,3.89,0,0,1,2-1.31,21.19,21.19,0,1,1,32.1-1Z"/><path class="cls-1" d="M34.07,19.26c1,.53,1.7-1.38,3.29-.64s0,.48.74,1.17c1.91,1.91,3,1.53,3,1.53A10.67,10.67,0,0,0,30.43,10.65s-.72,1.6.88,2S33.52,15,32.58,16s-1.43-.34-2.31.72-.13,3,.93,3S33.11,18.73,34.07,19.26ZM31.44,24.7c1.64-1.48.26-3.18-2-3.08s-.1,2.55-3.83,2.13a7.38,7.38,0,0,1-5.34-3.11A10.68,10.68,0,0,0,31,31.31s.72-1.62-.45-2.47S29.79,26.19,31.44,24.7ZM42.21,21A11.52,11.52,0,1,1,30.69,9.47,11.51,11.51,0,0,1,42.21,21Z"/></g></g></svg>