<svg xmlns="http://www.w3.org/2000/svg" viewBox="0 0 57.39 57.39"><defs><style>.cls-1{fill:#414042;}</style></defs><title>Asset 54</title><g id="Layer_2" data-name="Layer 2"><g id="data_analytics_and_network_icons" data-name="data analytics and network icons"><path class="cls-1" d="M28.33,15.31a13.52,13.52,0,1,1-13.5,13.52A13.52,13.52,0,0,1,28.33,15.31ZM30.55,23c-1.11,1.11-1.68-.39-2.7.85s-.17,3.49,1.08,3.49,2.25-1.12,3.37-.5,2-1.62,3.86-.75.06.57.87,1.37c2.24,2.25,3.52,1.8,3.52,1.8A12.52,12.52,0,0,0,28,16.69s-.85,1.88,1,2.38S31.66,21.84,30.55,23ZM29.21,33.18c1.92-1.74.31-3.74-2.3-3.62s-.13,3-4.5,2.5a8.61,8.61,0,0,1-6.26-3.65A12.52,12.52,0,0,0,28.67,40.93s.85-1.9-.51-2.9S27.28,34.92,29.21,33.18Z"/><path class="cls-1" d="M56.73,34.83A28.65,28.65,0,0,0,45.15,5.19h0l0,0-.37-.24a28.72,28.72,0,0,0-31.47-.43l0,0c.88.19,1.79.41,2.72.66a26.79,26.79,0,0,1,18.52-2.6c.74.17,1.46.36,2.18.59L36,3.23a24,24,0,0,0-8.61,3.11c-1,.59-2,1.24-3,1.93a82.87,82.87,0,0,1,13.35,7.66,82.62,82.62,0,0,1,11.52,9.68,33.24,33.24,0,0,0,.78-3.39,24.28,24.28,0,0,0,0-9.15c-.06-.25-.12-.5-.19-.74.5.64,1,1.3,1.41,2a26.9,26.9,0,0,1,3.91,18.19C55.73,33.29,56.25,34.06,56.73,34.83ZM41.88,12.54c-.46,1.37-1,2.73-1.53,4.07-.7-.55-1.41-1.08-2.14-1.59a47.9,47.9,0,0,0-7.68-4.41,41.36,41.36,0,0,0-3.86-1.54c.55-.36,1.11-.72,1.68-1.05a22.08,22.08,0,0,1,7.89-2.86,13,13,0,0,1,4.08.07,9.28,9.28,0,0,1,3.2,1.22c-.17.9-.39,1.84-.63,2.75C42.59,10.32,42.25,11.44,41.88,12.54Zm6.26,1a22.13,22.13,0,0,1,0,8.39c-.12.65-.26,1.3-.41,1.94A40.55,40.55,0,0,0,45,20.73c-1-1-2-1.94-3-2.84q1-2.33,1.79-4.73c.38-1.14.73-2.29,1-3.46.17-.63.33-1.26.47-1.9a9.52,9.52,0,0,1,1.45,1.88A12.92,12.92,0,0,1,48.14,13.49Z"/><path class="cls-1" d="M.69,22.44a.06.06,0,0,0,0,0A28.63,28.63,0,0,0,11.85,51.91l.34.26h0l0,0a28.7,28.7,0,0,0,31.8.74c-.88-.19-1.78-.42-2.7-.68A26.82,26.82,0,0,1,22.9,54.81c-.79-.17-1.58-.39-2.35-.63.26,0,.51,0,.76-.09A24,24,0,0,0,29.92,51a34.73,34.73,0,0,0,2.92-1.9,82.19,82.19,0,0,1-13-7.51A82.8,82.8,0,0,1,8,31.65a34,34,0,0,0-.8,3.46,24.23,24.23,0,0,0,0,9.14c0,.22.11.44.16.66-.45-.6-.89-1.21-1.29-1.84a26.72,26.72,0,0,1-3.89-18.3C1.68,24,1.16,23.21.69,22.44Zm13.9,28.88a85.81,85.81,0,0,0,8.22-6.64c1.29.74,2.61,1.43,4,2a40.11,40.11,0,0,0,3.85,1.54c-.55.36-1.11.71-1.68,1a22.1,22.1,0,0,1-7.89,2.87A13,13,0,0,1,17,52.1,10.06,10.06,0,0,1,14.59,51.32ZM9.15,35.44c.12-.65.26-1.3.41-1.94.87,1.08,1.8,2.12,2.77,3.11a49.19,49.19,0,0,0,6.77,5.71c.65.45,1.3.89,2,1.31a85.48,85.48,0,0,1-8.25,6.57,9.45,9.45,0,0,1-2.2-2.55,12.92,12.92,0,0,1-1.46-3.81A22.18,22.18,0,0,1,9.15,35.44Z"/></g></g></svg>