<svg xmlns="http://www.w3.org/2000/svg" viewBox="0 0 58.25 58.46"><defs><style>.cls-1{fill:#414042;}</style></defs><title>Asset 19</title><g id="Layer_2" data-name="Layer 2"><g id="data_analytics_and_network_icons" data-name="data analytics and network icons"><path class="cls-1" d="M38.34,50.38H54.45a3.8,3.8,0,1,1,0,7.59H38.34a2.66,2.66,0,0,0,.23-1.07V51.45A2.7,2.7,0,0,0,38.34,50.38Z"/><path class="cls-1" d="M31.24,44.12v4.8H27v-4.8c.69.06,1.4.1,2.11.1S30.55,44.18,31.24,44.12Z"/><path class="cls-1" d="M32.39,20.89A60.28,60.28,0,0,0,31.22,10.6c-.71,0-1.41-.07-2.11-.07A33,33,0,0,0,18.8,12.11a31.76,31.76,0,0,0-1.39,8.78Zm-22-5.58A18.69,18.69,0,0,1,16,11.59c.53-.23,1.06-.44,1.6-.63a27,27,0,0,1,1-2.57,17.94,17.94,0,0,1,4-5.64L23,2.42q-.81.25-1.59.57A20.28,20.28,0,0,0,10.51,13.91c-.27.66-.5,1.33-.71,2C10,15.71,10.17,15.51,10.37,15.31Zm30.42,7H33.87A56.71,56.71,0,0,1,33,32.43a.24.24,0,0,1,0,.08,30.3,30.3,0,0,0,6.47-1.37A31.75,31.75,0,0,0,40.79,22.36Zm-12,20.88A21.59,21.59,0,0,1,7.54,22.55a7.26,7.26,0,0,1-.06-.93,7.11,7.11,0,0,1,.06-.92A21.58,21.58,0,0,1,28.78,0h.36a21.63,21.63,0,1,1,0,43.25h-.37ZM32.4,22.36h-15a31.76,31.76,0,0,0,1.39,8.78,33.28,33.28,0,0,0,10.31,1.58c.77,0,1.54,0,2.31-.08,0-.16.07-.31.1-.47A54.72,54.72,0,0,0,32.4,22.36ZM16,22.36H9v.06a6.52,6.52,0,0,0,.63,2,9.15,9.15,0,0,0,1.78,2.44,16.84,16.84,0,0,0,5.22,3.41l.46.19c-.19-.7-.36-1.41-.5-2.12A34,34,0,0,1,16,22.36Zm3.46-12c1-.29,2-.53,3.05-.72a36.24,36.24,0,0,1,6.65-.61c.6,0,1.19,0,1.79,0a63.57,63.57,0,0,0-2.26-7.63,7.26,7.26,0,0,0-2.46.63,9.62,9.62,0,0,0-2.55,1.72A16.69,16.69,0,0,0,20,9C19.79,9.46,19.59,9.92,19.41,10.39Zm3.05,23.19c-1-.19-2-.43-3.05-.72.18.47.38.93.59,1.38a16.53,16.53,0,0,0,3.63,5.18,9.87,9.87,0,0,0,2.55,1.72,7.31,7.31,0,0,0,2.5.63c.29-.63.55-1.31.8-2s.57-1.65.82-2.49c.31-1,.58-2.11.82-3.17-.67,0-1.34,0-2,0A36.23,36.23,0,0,1,22.46,33.58Zm.18,6.92a18.06,18.06,0,0,1-4-5.64,27,27,0,0,1-1-2.57c-.54-.19-1.07-.41-1.6-.64a18.33,18.33,0,0,1-5.67-3.72c-.2-.19-.38-.4-.57-.61.21.69.44,1.36.71,2A20.28,20.28,0,0,0,21.43,40.26q.78.32,1.59.57ZM40.79,20.89a31.88,31.88,0,0,0-1.38-8.79,30.73,30.73,0,0,0-6.68-1.38,60,60,0,0,1,1.12,10.17ZM32,2.11a7.27,7.27,0,0,0-1.81-.55,63.6,63.6,0,0,1,2.2,7.65c1.12.1,2.23.25,3.33.46s2,.42,3,.71c-.19-.46-.38-.92-.59-1.37a16.69,16.69,0,0,0-3.63-5.18A9.78,9.78,0,0,0,32,2.11ZM30.32,41.67a6.72,6.72,0,0,0,1.7-.53,9.92,9.92,0,0,0,2.56-1.72,16.69,16.69,0,0,0,3.63-5.18c.21-.45.4-.91.59-1.38a29.34,29.34,0,0,1-3,.72c-1,.2-2.06.34-3.11.44q-.39,1.86-.93,3.69c-.26.87-.54,1.73-.85,2.59C30.68,40.76,30.51,41.22,30.32,41.67ZM47.77,29.34a18.09,18.09,0,0,0,.75-2.14,9.33,9.33,0,0,1-.68.73,18.17,18.17,0,0,1-5.66,3.72c-.54.23-1.07.45-1.61.64a27,27,0,0,1-1,2.57,18.22,18.22,0,0,1-4,5.64l-.44.38c.58-.19,1.16-.39,1.73-.62A20.22,20.22,0,0,0,47.77,29.34Zm1.45-8.45a6.36,6.36,0,0,0-.63-2.1,9.38,9.38,0,0,0-1.78-2.44,17.05,17.05,0,0,0-5.22-3.42l-.47-.19c.19.71.36,1.42.5,2.13a33.89,33.89,0,0,1,.64,6Zm0,1.47h-7a34,34,0,0,1-.64,6c-.14.71-.31,1.42-.5,2.13l.47-.2a16.84,16.84,0,0,0,5.22-3.41,9.38,9.38,0,0,0,1.78-2.44A6.61,6.61,0,0,0,49.22,22.36Zm-.7-6.31a17.48,17.48,0,0,0-.75-2.14A20.22,20.22,0,0,0,36.86,3c-.57-.23-1.15-.44-1.73-.62l.44.38a18.11,18.11,0,0,1,4,5.64,26,26,0,0,1,1,2.57c.54.19,1.07.4,1.61.63a18.53,18.53,0,0,1,5.66,3.72A9.46,9.46,0,0,1,48.52,16.05ZM16,20.89a33.89,33.89,0,0,1,.64-6c.14-.71.31-1.42.5-2.12l-.46.18a17.05,17.05,0,0,0-5.22,3.42,9.15,9.15,0,0,0-1.78,2.44,6.44,6.44,0,0,0-.63,2v.06Z"/><rect class="cls-1" x="20.78" y="49.89" width="16.69" height="8.56" rx="2.05"/><path class="cls-1" d="M19.91,58H3.8a3.8,3.8,0,1,1,0-7.59H19.91a2.69,2.69,0,0,0-.22,1.07V56.9A2.66,2.66,0,0,0,19.91,58Z"/></g></g></svg>