<svg xmlns="http://www.w3.org/2000/svg" viewBox="0 0 50.84 50.8"><defs><style>.cls-1{fill:#414042;}</style></defs><title>Asset 76</title><g id="Layer_2" data-name="Layer 2"><g id="data_analytics_and_network_icons" data-name="data analytics and network icons"><path class="cls-1" d="M24.18,50.8,20.94,35.32a15.43,15.43,0,0,1-4.42-1.16L10.29,45.85A25.51,25.51,0,0,0,24.18,50.8Z"/><path class="cls-1" d="M19.53.69a25.7,25.7,0,0,0-5.34,1.92L16,6.13A15.27,15.27,0,0,1,19.8,4.92Z"/><path class="cls-1" d="M22.37,4.67a15.27,15.27,0,0,1,5.45.92L29.16.28A24.91,24.91,0,0,0,22.1.22Z"/><path class="cls-1" d="M9.55,28.19.84,31.88A25.39,25.39,0,0,0,8.25,44.16l6-11.22A15.38,15.38,0,0,1,9.55,28.19Z"/><path class="cls-1" d="M47.91,13.56a25.69,25.69,0,0,0-3.33-4.85l-7.95,5.08a15.28,15.28,0,0,1,1.29,7.35l12.76,1.42A25.51,25.51,0,0,0,47.91,13.56Z"/><path class="cls-1" d="M33.89,30.46A15.34,15.34,0,0,1,23.6,35.38l3.22,15.41a25.36,25.36,0,0,0,18-8.94Z"/><path class="cls-1" d="M37.51,23.7a15.26,15.26,0,0,1-2,4.69l10.9,11.38a25.55,25.55,0,0,0,4.45-14.59Z"/><path class="cls-1" d="M12.66,3.43a25.58,25.58,0,0,0-5.15,4L10.92,10A14.9,14.9,0,0,1,14.52,7Z"/><path class="cls-1" d="M8.37,25.88a15.13,15.13,0,0,1-1.15-6.13l-6-2.19A25.31,25.31,0,0,0,.3,29.3Z"/><path class="cls-1" d="M2.17,15.14l5.33,2a15.51,15.51,0,0,1,1.9-5L5.76,9.3A25.71,25.71,0,0,0,2.17,15.14Z"/><path class="cls-1" d="M34.28,23.9a.69.69,0,0,1-.74.61.75.75,0,0,1-.52-.19.51.51,0,0,1-.22-.42v-3a.68.68,0,0,1,.74-.61.8.8,0,0,1,.52.18.54.54,0,0,1,.22.43Z"/><path class="cls-1" d="M34.57,18.74a1.82,1.82,0,0,1-1.21.45,1.63,1.63,0,0,1-1.72-1.51V16.19a1.45,1.45,0,0,1,.5-1.07,1.85,1.85,0,0,1,1.22-.44,1.62,1.62,0,0,1,1.71,1.51v1.49A1.45,1.45,0,0,1,34.57,18.74ZM34,16.56a.7.7,0,0,0-.61-.75.56.56,0,0,0-.44.22.83.83,0,0,0-.18.53v.74a.7.7,0,0,0,.62.76.57.57,0,0,0,.43-.22A.88.88,0,0,0,34,17.3Z"/><path class="cls-1" d="M29.27,14.84a.68.68,0,0,1,.74.6v3a.51.51,0,0,1-.22.42.77.77,0,0,1-.52.18.69.69,0,0,1-.75-.6v-3a.59.59,0,0,1,.22-.43A.91.91,0,0,1,29.27,14.84Z"/><path class="cls-1" d="M29.23,26.12a.68.68,0,0,1,.74.61v3a.55.55,0,0,1-.22.42.78.78,0,0,1-.52.18.68.68,0,0,1-.75-.6v-3a.55.55,0,0,1,.22-.43A.83.83,0,0,1,29.23,26.12Z"/><path class="cls-1" d="M29.49,8.89a1.85,1.85,0,0,1,1.22.44,1.43,1.43,0,0,1,.5,1.07v1.49a1.63,1.63,0,0,1-1.72,1.51A1.8,1.8,0,0,1,28.28,13a1.41,1.41,0,0,1-.5-1.06V10.4A1.62,1.62,0,0,1,29.49,8.89Zm0,3.38a.69.69,0,0,0,.62-.75v-.75a.85.85,0,0,0-.18-.53.56.56,0,0,0-.44-.22.69.69,0,0,0-.61.75v.75a.85.85,0,0,0,.18.53A.59.59,0,0,0,29.49,12.27Z"/><path class="cls-1" d="M29.45,20.17a1.87,1.87,0,0,1,1.22.44,1.45,1.45,0,0,1,.5,1.07v1.49a1.63,1.63,0,0,1-1.72,1.51,1.8,1.8,0,0,1-1.21-.45,1.41,1.41,0,0,1-.5-1.06V21.68A1.62,1.62,0,0,1,29.45,20.17Zm0,3.38a.7.7,0,0,0,.62-.76v-.74a.94.94,0,0,0-.18-.53.56.56,0,0,0-.44-.22.69.69,0,0,0-.61.75v.74a.88.88,0,0,0,.18.54A.57.57,0,0,0,29.45,23.55Z"/><path class="cls-1" d="M25.3,9.05a.79.79,0,0,1,.53.18.56.56,0,0,1,.21.42v3a.69.69,0,0,1-.74.61.88.88,0,0,1-.52-.18.54.54,0,0,1-.22-.43v-3A.69.69,0,0,1,25.3,9.05Z"/><path class="cls-1" d="M25.26,20.33a.78.78,0,0,1,.52.18.54.54,0,0,1,.22.43v3a.69.69,0,0,1-.74.61.77.77,0,0,1-.52-.19.51.51,0,0,1-.22-.42v-3A.68.68,0,0,1,25.26,20.33Z"/><path class="cls-1" d="M25.08,14.68a1.63,1.63,0,0,1,1.72,1.51v1.49a1.41,1.41,0,0,1-.5,1.06,1.83,1.83,0,0,1-1.22.45,1.62,1.62,0,0,1-1.71-1.51V16.19a1.45,1.45,0,0,1,.5-1.07A1.85,1.85,0,0,1,25.08,14.68Zm.44,3.16a.88.88,0,0,0,.18-.54v-.74a.7.7,0,0,0-.62-.75.54.54,0,0,0-.43.22.83.83,0,0,0-.18.53v.74a.7.7,0,0,0,.61.76A.59.59,0,0,0,25.52,17.84Z"/><path class="cls-1" d="M25,26a1.63,1.63,0,0,1,1.72,1.51V29A1.39,1.39,0,0,1,26.25,30a1.8,1.8,0,0,1-1.21.45A1.63,1.63,0,0,1,23.33,29V27.47a1.45,1.45,0,0,1,.5-1.07A1.85,1.85,0,0,1,25,26Zm.44,3.16a.88.88,0,0,0,.18-.54v-.73a.7.7,0,0,0-.62-.76.57.57,0,0,0-.44.22.87.87,0,0,0-.17.54v.73a.7.7,0,0,0,.61.76A.61.61,0,0,0,25.48,29.12Z"/><path class="cls-1" d="M21,14.84a.69.69,0,0,1,.74.6v3a.51.51,0,0,1-.22.42A.77.77,0,0,1,21,19a.69.69,0,0,1-.75-.6v-3a.59.59,0,0,1,.22-.43A.88.88,0,0,1,21,14.84Z"/><path class="cls-1" d="M21,26.12a.69.69,0,0,1,.74.61v3a.52.52,0,0,1-.22.42.77.77,0,0,1-.52.18.68.68,0,0,1-.75-.6v-3a.55.55,0,0,1,.22-.43A.83.83,0,0,1,21,26.12Z"/><path class="cls-1" d="M21.22,12.27a.69.69,0,0,0,.61-.75v-.75a.85.85,0,0,0-.18-.53.54.54,0,0,0-.43-.22.69.69,0,0,0-.62.75v.75a.85.85,0,0,0,.18.53A.61.61,0,0,0,21.22,12.27Zm1.71-.38a1.62,1.62,0,0,1-1.71,1.51A1.83,1.83,0,0,1,20,13a1.41,1.41,0,0,1-.5-1.06V10.4a1.63,1.63,0,0,1,1.72-1.51,1.85,1.85,0,0,1,1.21.44,1.43,1.43,0,0,1,.5,1.07Z"/><path class="cls-1" d="M21.79,22.05a.87.87,0,0,0-.18-.53.54.54,0,0,0-.43-.22.69.69,0,0,0-.62.75v.74a.88.88,0,0,0,.18.54.59.59,0,0,0,.44.22.7.7,0,0,0,.61-.76Zm-.61-1.88a1.85,1.85,0,0,1,1.21.44,1.45,1.45,0,0,1,.5,1.07v1.49a1.62,1.62,0,0,1-1.71,1.51A1.79,1.79,0,0,1,20,24.23a1.39,1.39,0,0,1-.51-1.06V21.68A1.63,1.63,0,0,1,21.18,20.17Z"/><path class="cls-1" d="M17,9.05a.79.79,0,0,1,.53.18.57.57,0,0,1,.22.42v3a.7.7,0,0,1-.75.61.94.94,0,0,1-.53-.18.56.56,0,0,1-.21-.43v-3A.68.68,0,0,1,17,9.05Z"/><path class="cls-1" d="M17.73,23.9a.69.69,0,0,1-.74.61.75.75,0,0,1-.52-.19.51.51,0,0,1-.22-.42v-3a.68.68,0,0,1,.74-.61.85.85,0,0,1,.53.18.56.56,0,0,1,.21.43Z"/><path class="cls-1" d="M17.24,17.84a.88.88,0,0,0,.18-.54v-.74a.7.7,0,0,0-.61-.75.54.54,0,0,0-.44.22.83.83,0,0,0-.18.53v.74a.7.7,0,0,0,.62.76A.57.57,0,0,0,17.24,17.84Zm.78.9a1.8,1.8,0,0,1-1.21.45,1.63,1.63,0,0,1-1.72-1.51V16.19a1.45,1.45,0,0,1,.5-1.07,1.85,1.85,0,0,1,1.22-.44,1.62,1.62,0,0,1,1.71,1.51v1.49A1.41,1.41,0,0,1,18,18.74Z"/><path class="cls-1" d="M17.2,29.12a.88.88,0,0,0,.18-.54v-.73a.7.7,0,0,0-.62-.76.54.54,0,0,0-.43.22.88.88,0,0,0-.18.54v.73a.7.7,0,0,0,.61.76A.57.57,0,0,0,17.2,29.12ZM18,30a1.77,1.77,0,0,1-1.21.45A1.63,1.63,0,0,1,15.05,29V27.47a1.45,1.45,0,0,1,.5-1.07A1.85,1.85,0,0,1,16.76,26a1.63,1.63,0,0,1,1.72,1.51V29A1.39,1.39,0,0,1,18,30Z"/><path class="cls-1" d="M13.24,18.83a.77.77,0,0,1-.52.18.69.69,0,0,1-.75-.6v-3a.59.59,0,0,1,.22-.43.91.91,0,0,1,.53-.17.68.68,0,0,1,.74.6v3A.51.51,0,0,1,13.24,18.83Z"/><path class="cls-1" d="M12.9,20.17a1.81,1.81,0,0,1,1.21.44,1.42,1.42,0,0,1,.51,1.07v1.49a1.63,1.63,0,0,1-1.72,1.51,1.8,1.8,0,0,1-1.21-.45,1.41,1.41,0,0,1-.5-1.06V21.68A1.62,1.62,0,0,1,12.9,20.17Zm0,3.38a.7.7,0,0,0,.62-.76v-.74a.87.87,0,0,0-.18-.53.56.56,0,0,0-.44-.22.69.69,0,0,0-.61.75v.74a.88.88,0,0,0,.18.54A.57.57,0,0,0,12.9,23.55Z"/></g></g></svg>