<svg xmlns="http://www.w3.org/2000/svg" viewBox="0 0 57.82 57.73"><defs><style>.cls-1{fill:#414042;}</style></defs><title>Asset 41</title><g id="Layer_2" data-name="Layer 2"><g id="data_analytics_and_network_icons" data-name="data analytics and network icons"><path class="cls-1" d="M28.91,33.62a4.76,4.76,0,1,0-4.75-4.75A4.76,4.76,0,0,0,28.91,33.62Zm4.82,19.25a4.87,4.87,0,1,1-6.39-4.61v-12A7.62,7.62,0,0,1,24,34.72L14.77,44a3.43,3.43,0,1,1-1.07-1.08L23,33.64a7.65,7.65,0,0,1-1.54-3.25H9.48a4.87,4.87,0,1,1,0-3.05h12A7.58,7.58,0,0,1,23,24.06l-9.28-9.28a3.47,3.47,0,1,1,1.07-1.08L24.08,23a7.65,7.65,0,0,1,3.26-1.55V9.48a4.87,4.87,0,1,1,3.05,0v12A7.65,7.65,0,0,1,33.64,23l9.28-9.29A3.45,3.45,0,1,1,44,14.76L34.72,24a7.51,7.51,0,0,1,1.58,3.3H48.35a4.87,4.87,0,1,1,0,3.05H36.3a7.57,7.57,0,0,1-1.55,3.27L44,42.92A3.45,3.45,0,1,1,42.94,44l-9.26-9.26a7.66,7.66,0,0,1-3.29,1.56v12A4.85,4.85,0,0,1,33.73,52.87Z"/></g></g></svg>