<svg xmlns="http://www.w3.org/2000/svg" viewBox="0 0 35.75 58.77"><defs><style>.cls-1{fill:#414042;}</style></defs><title>Asset 81</title><g id="Layer_2" data-name="Layer 2"><g id="data_analytics_and_network_icons" data-name="data analytics and network icons"><path class="cls-1" d="M27.26,36.29h-19A2.28,2.28,0,0,1,6,34V20.9a2.27,2.27,0,0,1,1.39-2.1l10.4,8.14L28.15,18.8a2.27,2.27,0,0,1,1.39,2.1V34A2.28,2.28,0,0,1,27.26,36.29Z"/><rect class="cls-1" x="21.88" y="47.38" width="1.4" height="1.4"/><rect class="cls-1" x="19.2" y="47.38" width="1.4" height="1.4"/><polygon class="cls-1" points="9.33 18.62 26.19 18.62 17.76 25.22 9.33 18.62"/><rect class="cls-1" x="16.36" y="47.38" width="1.4" height="1.4"/><rect class="cls-1" x="13.68" y="47.38" width="1.4" height="1.4"/><path class="cls-1" d="M20,55.21a2.14,2.14,0,1,0-2.13,2.13A2.13,2.13,0,0,0,20,55.21ZM33.9,3.92h-32V50.6H33.9ZM3.61,0H32.14a3.53,3.53,0,0,1,3.61,3.43V55.35a3.52,3.52,0,0,1-3.61,3.42H3.61A3.52,3.52,0,0,1,0,55.35V3.43A3.53,3.53,0,0,1,3.61,0Z"/></g></g></svg>