<svg xmlns="http://www.w3.org/2000/svg" viewBox="0 0 52.37 56.85"><defs><style>.cls-1{fill:#414042;}</style></defs><title>Asset 43</title><g id="Layer_2" data-name="Layer 2"><g id="data_analytics_and_network_icons" data-name="data analytics and network icons"><path class="cls-1" d="M50.82,21.88,50,21.41,30.32,32.47a9.32,9.32,0,0,1-8.27,0L2.38,21.41l-.84.47c-2,1.16-2,3,0,4.19L22.46,37.84a8.45,8.45,0,0,0,7.44,0L50.82,26.07C52.88,24.91,52.88,23,50.82,21.88Z"/><path class="cls-1" d="M22.46.87a8.39,8.39,0,0,1,7.44,0L50.82,12.64c2.06,1.15,2.06,3,0,4.18L29.9,28.6a8.45,8.45,0,0,1-7.44,0L1.54,16.82c-2-1.15-2-3,0-4.18Z"/><path class="cls-1" d="M50.82,31,50,30.51,30.32,41.58a9.39,9.39,0,0,1-8.27,0L2.38,30.51,1.54,31c-2,1.15-2,3,0,4.18L22.46,46.94a8.39,8.39,0,0,0,7.44,0L50.82,35.17C52.88,34,52.88,32.14,50.82,31Z"/><path class="cls-1" d="M50.82,40,50,39.55,30.32,50.61a9.32,9.32,0,0,1-8.27,0L2.38,39.55,1.54,40c-2,1.16-2,3,0,4.19L22.46,56a8.39,8.39,0,0,0,7.44,0L50.82,44.21C52.88,43.05,52.88,41.18,50.82,40Z"/></g></g></svg>