<svg xmlns="http://www.w3.org/2000/svg" viewBox="0 0 63.04 47.96"><defs><style>.cls-1{fill:#414042;}</style></defs><title>Asset 14</title><g id="Layer_2" data-name="Layer 2"><g id="data_analytics_and_network_icons" data-name="data analytics and network icons"><path class="cls-1" d="M40.31,34.31c2,1.73,6,2.91,10.74,2.91S59.82,36,61.78,34.31A3.2,3.2,0,0,1,63,36.64c0,2.9-5.37,5.24-12,5.24s-12-2.34-12-5.24A3.19,3.19,0,0,1,40.31,34.31Z"/><path class="cls-1" d="M40.31,40.37c2,1.73,6,2.91,10.74,2.91s8.77-1.18,10.73-2.91A3.17,3.17,0,0,1,63,42.7c0,2.89-5.37,5.24-12,5.24s-12-2.35-12-5.24A3.15,3.15,0,0,1,40.31,40.37Z"/><path class="cls-1" d="M63,30.58c0,2.89-5.37,5.24-12,5.24s-12-2.35-12-5.24c0-2.58,4.28-4.73,9.9-5.16v.48c-3,.39-5.27,1.62-5.27,3.08,0,1.77,3.29,3.21,7.36,3.21S58.4,30.75,58.4,29c0-1.46-2.23-2.69-5.27-3.08v-.48C58.76,25.85,63,28,63,30.58Z"/><path class="cls-1" d="M41.21,8.9C41.21,11.18,37,13,31.77,13s-9.45-1.85-9.45-4.13a2.5,2.5,0,0,1,1-1.83c1.54,1.36,4.75,2.29,8.46,2.29s6.91-.93,8.46-2.29A2.48,2.48,0,0,1,41.21,8.9Z"/><path class="cls-1" d="M11,19.61H30.53V17.77c-4.63-.27-8.21-2-8.21-4.09a2.52,2.52,0,0,1,1-1.84c1.54,1.36,4.75,2.3,8.46,2.3s6.91-.94,8.46-2.3a2.5,2.5,0,0,1,1,1.84c0,2.17-3.84,3.95-8.71,4.11v1.82H52V28c0,.76-.44,1.37-1,1.37s-1-.61-1-1.37V21.58H13v6.47c0,.76-.44,1.37-1,1.37s-1-.61-1-1.37Z"/><path class="cls-1" d="M41.21,4.13c0,2.28-4.23,4.12-9.44,4.12s-9.45-1.84-9.45-4.12S26.55,0,31.77,0,41.21,1.85,41.21,4.13ZM37.56,2.87c0-1.4-2.59-2.53-5.79-2.53S26,1.47,26,2.87,28.57,5.4,31.77,5.4,37.56,4.26,37.56,2.87Z"/><path class="cls-1" d="M12,37.24c4.7,0,8.77-1.18,10.73-2.91A3.15,3.15,0,0,1,24,36.66c0,2.89-5.36,5.24-12,5.24S0,39.55,0,36.66a3.15,3.15,0,0,1,1.25-2.33C3.21,36.06,7.28,37.24,12,37.24Z"/><path class="cls-1" d="M12,43.3c4.7,0,8.77-1.18,10.73-2.91A3.15,3.15,0,0,1,24,42.72C24,45.61,18.61,48,12,48S0,45.61,0,42.72a3.15,3.15,0,0,1,1.25-2.33C3.21,42.12,7.28,43.3,12,43.3Z"/><path class="cls-1" d="M12,32.21c4.06,0,7.35-1.44,7.35-3.21,0-1.46-2.23-2.69-5.27-3.09v-.47C19.7,25.87,24,28,24,30.59c0,2.9-5.36,5.24-12,5.24S0,33.49,0,30.59C0,28,4.28,25.87,9.9,25.44v.47c-3,.4-5.26,1.63-5.26,3.09C4.64,30.77,7.93,32.21,12,32.21Z"/></g></g></svg>