<svg xmlns="http://www.w3.org/2000/svg" viewBox="0 0 51.89 57.25"><defs><style>.cls-1{fill:#414042;}</style></defs><title>Asset 57</title><g id="Layer_2" data-name="Layer 2"><g id="data_analytics_and_network_icons" data-name="data analytics and network icons"><path class="cls-1" d="M42.14,56.3a1.84,1.84,0,0,1-2.46.77L1.31,41.27A1.83,1.83,0,0,1,.11,39l.16-.38a1.31,1.31,0,0,1,.21-.36L42.39,55.5a1.36,1.36,0,0,1-.09.41Z"/><path class="cls-1" d="M11.54,37l4.4,1.81L31,45l4.4,1.81,7.28,8.09-21-8.65-21-8.65ZM37,51.09,34.4,47.5,23.1,42.85,11.8,38.2l-4.34.74L22.21,45Z"/><path class="cls-1" d="M6.47,32.27l1.74.78a8.73,8.73,0,0,1-.21-1V32h7.3a37.31,37.31,0,0,0,.35,4.36l1.67.74a34.8,34.8,0,0,1-.48-5.1H32.59a56.48,56.48,0,0,1-.93,10.31l-.09.5-1.27.06,3,1.34c.94-.1,1.87-.23,2.81-.41s2.14-.45,3.19-.75c-.19.48-.39,1-.62,1.44s-.57,1.15-.89,1.71l1.41.63c.32-.55.61-1.11.88-1.69a27,27,0,0,0,1.08-2.69c.57-.21,1.14-.43,1.69-.67a19.51,19.51,0,0,0,6-3.92c.25-.24.48-.5.71-.76a22,22,0,0,1-.78,2.24,21.43,21.43,0,0,1-4.6,6.87A21,21,0,0,1,42,48.06l1.6.71c.56-.46,1.11-1,1.63-1.48A22.72,22.72,0,0,0,29.17,8.5h-.38A22.69,22.69,0,0,0,6.47,30.26a7.79,7.79,0,0,0,0,1.93Zm10.37-1.82a33,33,0,0,1,1.46-9.22,34.18,34.18,0,0,1,10.83-1.66q1.11,0,2.22.06a62.59,62.59,0,0,1,1.23,10.82ZM40,41.23a32.57,32.57,0,0,1-6.79,1.44s0-.06,0-.09a58.74,58.74,0,0,0,1-10.59h7.28A33.15,33.15,0,0,1,40,41.23ZM34.12,30.45a63.94,63.94,0,0,0-1.18-10.69,32.6,32.6,0,0,1,7,1.46,33.14,33.14,0,0,1,1.46,9.23ZM49.6,34.21a10,10,0,0,1-1.87,2.56,18.06,18.06,0,0,1-5.49,3.59l-.49.2c.2-.74.38-1.49.53-2.24A36.46,36.46,0,0,0,43,32h7.32A6.78,6.78,0,0,1,49.6,34.21Zm.67-3.76H43a36.45,36.45,0,0,0-.67-6.32c-.15-.75-.33-1.5-.53-2.24l.49.2a18.06,18.06,0,0,1,5.49,3.59,10,10,0,0,1,1.87,2.56A6.8,6.8,0,0,1,50.27,30.45Zm-13-18.8a21.24,21.24,0,0,1,6.87,4.59,21.47,21.47,0,0,1,4.6,6.88,22,22,0,0,1,.78,2.24c-.23-.26-.46-.52-.71-.76a19.3,19.3,0,0,0-6-3.91c-.55-.25-1.12-.47-1.69-.68a27,27,0,0,0-1.08-2.69,19,19,0,0,0-4.17-5.93l-.46-.4C36.08,11.18,36.68,11.4,37.28,11.65Zm-5.08-.93a9.89,9.89,0,0,1,2.68,1.81A17.33,17.33,0,0,1,38.69,18c.23.47.43,1,.62,1.44-1.05-.3-2.12-.55-3.19-.75a34.43,34.43,0,0,0-3.51-.48,67.72,67.72,0,0,0-2.31-8A7.58,7.58,0,0,1,32.2,10.72Zm-8.82,1.81a9.6,9.6,0,0,1,2.68-1.81,7.5,7.5,0,0,1,2.58-.66,68.08,68.08,0,0,1,2.37,8c-.63,0-1.25,0-1.88,0a38,38,0,0,0-7,.63q-1.62.3-3.21.75c.19-.48.4-1,.62-1.44A17.2,17.2,0,0,1,23.38,12.53ZM9.59,23.12A21.21,21.21,0,0,1,21.06,11.65c.55-.23,1.11-.43,1.68-.61l-.41.35a19.22,19.22,0,0,0-4.17,5.93A26.19,26.19,0,0,0,17.08,20c-.57.2-1.13.42-1.68.67a19.3,19.3,0,0,0-6,3.91c-.2.2-.4.41-.6.64A22.19,22.19,0,0,1,9.59,23.12ZM8,30.39a7,7,0,0,1,.66-2.15,9.84,9.84,0,0,1,1.87-2.56A18.06,18.06,0,0,1,16,22.09l.48-.2c-.2.74-.38,1.49-.53,2.24a36.45,36.45,0,0,0-.67,6.32H8Z"/><path class="cls-1" d="M11.12,13.08a1.84,1.84,0,1,1-1.83-1.83A1.83,1.83,0,0,1,11.12,13.08Z"/><path class="cls-1" d="M14.79,5.86A2.75,2.75,0,1,1,12,3.1,2.75,2.75,0,0,1,14.79,5.86Z"/><path class="cls-1" d="M20.49,5.86a1.56,1.56,0,1,1-1.56-1.55A1.56,1.56,0,0,1,20.49,5.86Z"/><path class="cls-1" d="M22.75,1.55A1.55,1.55,0,1,1,21.2,0,1.54,1.54,0,0,1,22.75,1.55Z"/></g></g></svg>