<svg xmlns="http://www.w3.org/2000/svg" viewBox="0 0 53.87 55"><defs><style>.cls-1{fill:#414042;}</style></defs><title>Asset 69</title><g id="Layer_2" data-name="Layer 2"><g id="data_analytics_and_network_icons" data-name="data analytics and network icons"><path class="cls-1" d="M10.45,29.86c4.07,0,7.37-2.12,7.37-4.73s-3.3-4.73-7.37-4.73-7.38,2.12-7.38,4.73S6.37,29.86,10.45,29.86Zm17.68-23c2.43,0,4.4-1.27,4.4-2.83s-2-2.82-4.4-2.82S23.73,2.48,23.73,4,25.69,6.87,28.13,6.87Zm19.4,2.78C50,9.65,52,8.37,52,6.78s-2-2.87-4.47-2.87-4.48,1.28-4.48,2.87S45.06,9.65,47.53,9.65Zm0-7c3.5,0,6.34,1.82,6.34,4.07V20.85c0,2.24-2.84,4.06-6.34,4.06s-6.35-1.82-6.35-4.06V14.51l-6.81-1.63v5c0,2.21-2.8,4-6.24,4s-6.24-1.79-6.24-4V16.77l-4.22,3.46c2,1.22,3.22,2.93,3.22,4.83V48.3c0,3.7-4.68,6.7-10.44,6.7S0,52,0,48.3V25.06c0-3.7,4.68-6.7,10.45-6.7a15.11,15.11,0,0,1,4.78.75l6.66-5.47V4c0-2.21,2.79-4,6.24-4s6.24,1.79,6.24,4v6.12l6.81,1.63v-5C41.18,4.49,44,2.67,47.53,2.67Z"/></g></g></svg>