<svg xmlns="http://www.w3.org/2000/svg" viewBox="0 0 56.01 56.01"><defs><style>.cls-1{fill:#414042;}</style></defs><title>Asset 78</title><g id="Layer_2" data-name="Layer 2"><g id="data_analytics_and_network_icons" data-name="data analytics and network icons"><path class="cls-1" d="M45,34.35a1.67,1.67,0,1,0-1.67-1.67A1.67,1.67,0,0,0,45,34.35Zm-27.66,5h15V32h9.44a3.34,3.34,0,1,1,0,1.29H33.54V40.6H17.3a.66.66,0,1,1,0-1.29Z"/><path class="cls-1" d="M41.82,22.53a1.67,1.67,0,0,0,0-3.33,1.67,1.67,0,1,0,0,3.33ZM13.15,32.68A1.67,1.67,0,1,0,11.49,31,1.66,1.66,0,0,0,13.15,32.68ZM32.88,18H23.54v7.91h7.39v7.38a.65.65,0,1,1-1.29,0V27.15h-6.1V33c0,.49-.29.9-.65.9s-.64-.41-.64-.9V27.15H19.58v4.51H16.42a3.33,3.33,0,1,1,0-1.29h1.87V25.86h4v-9.2H34.17v3.6h4.37a3.32,3.32,0,1,1,0,1.29H32.88Z"/><path class="cls-1" d="M31.24,3.23A3.24,3.24,0,1,1,28,0,3.23,3.23,0,0,1,31.24,3.23Z"/><path class="cls-1" d="M31.24,52.78A3.24,3.24,0,1,1,28,49.55,3.23,3.23,0,0,1,31.24,52.78Z"/><path class="cls-1" d="M3.23,24.77A3.24,3.24,0,1,1,0,28,3.23,3.23,0,0,1,3.23,24.77Z"/><path class="cls-1" d="M52.78,24.77A3.24,3.24,0,1,1,49.55,28,3.23,3.23,0,0,1,52.78,24.77Z"/><path class="cls-1" d="M12.77,8.2a3.23,3.23,0,1,1-4.57,0A3.22,3.22,0,0,1,12.77,8.2Z"/><path class="cls-1" d="M47.81,43.24a3.23,3.23,0,1,1-4.57,0A3.24,3.24,0,0,1,47.81,43.24Z"/><path class="cls-1" d="M8.2,43.24a3.23,3.23,0,1,1,0,4.57A3.24,3.24,0,0,1,8.2,43.24Z"/><path class="cls-1" d="M43.24,8.2a3.23,3.23,0,1,1,0,4.57A3.24,3.24,0,0,1,43.24,8.2Z"/><path class="cls-1" d="M21.51,3.88a3.23,3.23,0,1,1-4.22-1.75A3.23,3.23,0,0,1,21.51,3.88Z"/><path class="cls-1" d="M40.47,49.66a3.23,3.23,0,1,1-4.22-1.75A3.22,3.22,0,0,1,40.47,49.66Z"/><path class="cls-1" d="M3.88,34.5a3.23,3.23,0,1,1-1.75,4.22A3.23,3.23,0,0,1,3.88,34.5Z"/><path class="cls-1" d="M49.66,15.54a3.23,3.23,0,1,1-1.75,4.22A3.23,3.23,0,0,1,49.66,15.54Z"/><path class="cls-1" d="M6.35,15.54a3.23,3.23,0,1,1-4.22,1.75A3.22,3.22,0,0,1,6.35,15.54Z"/><path class="cls-1" d="M52.13,34.5a3.23,3.23,0,1,1-4.22,1.75A3.23,3.23,0,0,1,52.13,34.5Z"/><path class="cls-1" d="M15.54,49.66a3.23,3.23,0,1,1,1.75,4.22A3.23,3.23,0,0,1,15.54,49.66Z"/><path class="cls-1" d="M34.5,3.88A3.23,3.23,0,1,1,36.25,8.1,3.23,3.23,0,0,1,34.5,3.88Z"/></g></g></svg>